<?xml version="1.0" encoding="ASCII"?>
<svg xmlns="http://www.w3.org/2000/svg" xmlns:xlink="http://www.w3.org/1999/xlink" width="700px" height="350px" viewBox="0 0 864 216" version="1.1">
  <metadata xmlns:gridsvg="http://www.stat.auckland.ac.nz/~paul/R/gridSVG/">
    <gridsvg:generator name="gridSVG" version="1.2-0" time="2013-06-07 16:33:42"/>
    <gridsvg:argument name="name" value="drop-shadow.svg"/>
    <gridsvg:argument name="exportCoords" value="none"/>
    <gridsvg:argument name="exportMappings" value="none"/>
    <gridsvg:argument name="exportJS" value="none"/>
    <gridsvg:argument name="res" value="72"/>
    <gridsvg:argument name="prefix" value=""/>
    <gridsvg:argument name="addClasses" value="FALSE"/>
    <gridsvg:argument name="indent" value="TRUE"/>
    <gridsvg:argument name="htmlWrapper" value="FALSE"/>
    <gridsvg:argument name="usePaths" value="vpPaths"/>
    <gridsvg:argument name="uniqueNames" value="TRUE"/>
    <gridsvg:separator name="id.sep" value="."/>
    <gridsvg:separator name="gPath.sep" value="::"/>
    <gridsvg:separator name="vpPath.sep" value="::"/>
  </metadata>
  <g transform="translate(0, 216) scale(1, -1)">
    <g id="gridSVG" fill="none" stroke="rgb(0,0,0)" stroke-dasharray="none" stroke-width="1" font-size="12" font-family="Helvetica, Arial, FreeSans, Liberation Sans, Nimbus Sans L, sans-serif" opacity="1" stroke-linecap="round" stroke-linejoin="round" stroke-miterlimit="10" stroke-opacity="1" fill-opacity="0" font-weight="normal" font-style="normal">
      <g id="GRID.VP.19.1">
        <g id="GRID.VP.19::lvp.1">
          <g id="leaf-fill.1" fill="url(#gridSVG.gradientFill.15.1)" fill-opacity="1">
            <path id="leaf-fill.1.1" d="M 9.84 10.25 L 15.57 9.87 L 15.57 9.9 L 15.56 9.99 L 15.55 10.14 L 15.55 10.34 L 15.56 10.59 L 15.59 10.89 L 15.64 11.24 L 15.71 11.63 L 15.82 12.07 L 15.96 12.53 L 16.14 13.04 L 16.37 13.57 L 16.66 14.14 L 16.99 14.73 L 17.39 15.34 L 17.86 15.98 L 18.19 16.37 L 18.66 16.9 L 19.28 17.55 L 20.02 18.32 L 20.88 19.2 L 21.86 20.18 L 22.93 21.25 L 24.1 22.4 L 25.35 23.63 L 26.67 24.92 L 28.06 26.27 L 29.51 27.66 L 31 29.1 L 32.53 30.56 L 34.09 32.05 L 35.67 33.55 L 37.26 35.06 L 38.85 36.56 L 40.43 38.04 L 41.99 39.51 L 43.53 40.95 L 45.03 42.34 L 46.49 43.69 L 47.89 44.99 L 49.23 46.21 L 50.49 47.37 L 51.68 48.44 L 52.77 49.42 L 53.77 50.31 L 54.65 51.08 L 55.42 51.74 L 56.06 52.27 L 56.67 52.77 L 57.36 53.33 L 58.11 53.94 L 58.92 54.61 L 59.79 55.33 L 60.7 56.09 L 61.67 56.88 L 62.67 57.71 L 63.7 58.56 L 64.76 59.43 L 65.85 60.32 L 66.94 61.22 L 68.05 62.12 L 69.17 63.03 L 70.28 63.93 L 71.39 64.83 L 72.48 65.7 L 73.56 66.56 L 74.61 67.4 L 75.63 68.2 L 76.62 68.97 L 77.57 69.7 L 78.47 70.38 L 79.32 71.02 L 80.11 71.59 L 80.84 72.11 L 81.5 72.56 L 82.08 72.94 L 82.59 73.25 L 83.01 73.47 L 83.33 73.61 L 83.56 73.66 L 83.98 73.61 L 84.51 73.47 L 85.13 73.25 L 85.82 72.94 L 86.58 72.57 L 87.38 72.13 L 88.21 71.63 L 89.05 71.08 L 89.89 70.49 L 90.71 69.86 L 91.49 69.19 L 92.21 68.5 L 92.87 67.8 L 93.44 67.08 L 93.91 66.36 L 94.26 65.64 L 94.58 64.87 L 94.98 64.01 L 95.44 63.08 L 95.95 62.1 L 96.51 61.07 L 97.11 60.03 L 97.73 58.98 L 98.37 57.95 L 99.01 56.95 L 99.66 55.99 L 100.3 55.11 L 100.92 54.3 L 101.51 53.6 L 102.07 53.02 L 102.58 52.57 L 103.04 52.27 L 103.29 52.15 L 103.6 51.99 L 103.96 51.81 L 104.38 51.61 L 104.85 51.38 L 105.36 51.14 L 105.92 50.87 L 106.51 50.59 L 107.14 50.3 L 107.8 49.99 L 108.48 49.67 L 109.19 49.35 L 109.91 49.02 L 110.65 48.69 L 111.41 48.35 L 112.16 48.02 L 112.93 47.69 L 113.69 47.37 L 114.45 47.05 L 115.19 46.74 L 115.93 46.45 L 116.65 46.17 L 117.35 45.91 L 118.03 45.66 L 118.68 45.44 L 119.3 45.24 L 119.89 45.06 L 120.43 44.91 L 120.93 44.79 L 121.39 44.7 L 121.79 44.65 L 122.14 44.63 L 122.73 44.7 L 123.2 44.91 L 123.56 45.23 L 123.83 45.64 L 124.02 46.14 L 124.14 46.68 L 124.19 47.27 L 124.2 47.88 L 124.16 48.48 L 124.09 49.07 L 124.01 49.62 L 123.92 50.11 L 123.83 50.52 L 123.75 50.84 L 123.69 51.05 L 123.67 51.12 L 123.7 51.11 L 123.79 51.07 L 123.94 51.01 L 124.14 50.93 L 124.38 50.82 L 124.67 50.7 L 125 50.56 L 125.37 50.41 L 125.78 50.25 L 126.21 50.07 L 126.67 49.89 L 127.16 49.69 L 127.66 49.49 L 128.18 49.29 L 128.72 49.08 L 129.26 48.88 L 129.81 48.67 L 130.36 48.47 L 130.91 48.27 L 131.45 48.08 L 131.98 47.9 L 132.51 47.73 L 133.01 47.56 L 133.5 47.42 L 133.97 47.28 L 134.41 47.17 L 134.81 47.07 L 135.19 46.99 L 135.52 46.94 L 135.82 46.9 L 136.07 46.9 L 136.28 46.92 L 136.6 47.01 L 136.85 47.14 L 137.03 47.31 L 137.17 47.49 L 137.27 47.7 L 137.34 47.91 L 137.39 48.13 L 137.42 48.35 L 137.46 48.56 L 137.51 48.76 L 137.58 48.93 L 137.67 49.07 L 137.81 49.18 L 138 49.24 L 138.25 49.25 L 138.57 49.21 L 138.95 49.11 L 139.36 48.96 L 139.8 48.77 L 140.28 48.54 L 140.78 48.3 L 141.32 48.06 L 141.89 47.82 L 142.49 47.59 L 143.11 47.39 L 143.75 47.23 L 144.43 47.12 L 145.12 47.06 L 145.84 47.08 L 146.58 47.19 L 147.34 47.38 L 148.12 47.69 L 148.8 48.05 L 149.3 48.43 L 149.64 48.83 L 149.86 49.23 L 149.97 49.64 L 150.01 50.06 L 150 50.47 L 149.98 50.88 L 149.98 51.29 L 150.01 51.69 L 150.12 52.09 L 150.32 52.47 L 150.65 52.83 L 151.14 53.17 L 151.82 53.5 L 152.7 53.8 L 153.64 54.04 L 154.44 54.21 L 155.13 54.31 L 155.72 54.35 L 156.22 54.35 L 156.64 54.33 L 157.01 54.28 L 157.33 54.23 L 157.63 54.18 L 157.9 54.14 L 158.17 54.14 L 158.45 54.17 L 158.76 54.26 L 159.1 54.41 L 159.5 54.63 L 159.96 54.94 L 160.19 55.12 L 160.37 55.27 L 160.52 55.42 L 160.62 55.56 L 160.7 55.68 L 160.74 55.8 L 160.76 55.9 L 160.76 55.99 L 160.74 56.08 L 160.7 56.16 L 160.65 56.22 L 160.59 56.29 L 160.53 56.34 L 160.46 56.39 L 160.4 56.43 L 160.34 56.47 L 160.29 56.5 L 160.26 56.53 L 160.24 56.56 L 160.24 56.58 L 160.26 56.61 L 160.31 56.62 L 160.39 56.64 L 160.5 56.66 L 160.65 56.68 L 160.84 56.7 L 161.07 56.72 L 161.35 56.74 L 161.68 56.76 L 162.07 56.79 L 162.51 56.82 L 163.02 56.85 L 164.03 56.92 L 164.91 56.98 L 165.68 57.04 L 166.34 57.1 L 166.9 57.17 L 167.37 57.24 L 167.76 57.33 L 168.08 57.43 L 168.33 57.54 L 168.54 57.68 L 168.7 57.84 L 168.82 58.03 L 168.91 58.26 L 168.99 58.51 L 169.06 58.81 L 169.13 59.14 L 169.15 59.48 L 169.09 59.76 L 168.96 60 L 168.79 60.2 L 168.61 60.36 L 168.43 60.49 L 168.28 60.59 L 168.17 60.67 L 168.14 60.74 L 168.2 60.79 L 168.38 60.83 L 168.7 60.86 L 169.18 60.9 L 169.84 60.94 L 170.71 60.99 L 171.8 61.05 L 172.95 61.11 L 173.97 61.13 L 174.87 61.13 L 175.66 61.11 L 176.37 61.08 L 176.99 61.04 L 177.55 61 L 178.06 60.96 L 178.52 60.93 L 178.96 60.91 L 179.38 60.92 L 179.81 60.95 L 180.24 61.01 L 180.7 61.11 L 181.19 61.25 L 181.73 61.44 L 182.21 61.65 L 182.52 61.88 L 182.69 62.1 L 182.75 62.33 L 182.72 62.54 L 182.63 62.75 L 182.52 62.94 L 182.4 63.11 L 182.31 63.26 L 182.28 63.38 L 182.33 63.47 L 182.49 63.53 L 182.78 63.55 L 183.25 63.53 L 183.91 63.46 L 184.79 63.35 L 185.7 63.18 L 186.45 62.98 L 187.06 62.76 L 187.55 62.52 L 187.94 62.28 L 188.27 62.04 L 188.55 61.82 L 188.8 61.63 L 189.06 61.47 L 189.33 61.35 L 189.66 61.3 L 190.06 61.31 L 190.54 61.39 L 191.15 61.56 L 191.9 61.83 L 192.81 62.2 L 193.81 62.64 L 194.81 63.09 L 195.79 63.55 L 196.76 64.02 L 197.7 64.49 L 198.61 64.96 L 199.48 65.42 L 200.31 65.88 L 201.09 66.32 L 201.81 66.74 L 202.48 67.14 L 203.07 67.52 L 203.59 67.87 L 204.04 68.18 L 204.39 68.46 L 204.65 68.69 L 205.05 69.12 L 205.38 69.54 L 205.64 69.92 L 205.85 70.27 L 206 70.56 L 206.1 70.79 L 206.16 70.93 L 206.18 70.99 L 206.09 70.97 L 205.81 70.94 L 205.39 70.89 L 204.82 70.84 L 204.14 70.78 L 203.36 70.72 L 202.51 70.68 L 201.6 70.65 L 200.65 70.65 L 199.69 70.67 L 198.73 70.73 L 197.8 70.82 L 196.91 70.97 L 196.09 71.17 L 195.35 71.43 L 194.72 71.75 L 194.15 72.11 L 193.6 72.46 L 193.06 72.81 L 192.54 73.15 L 192.04 73.48 L 191.57 73.8 L 191.12 74.1 L 190.71 74.38 L 190.34 74.63 L 190 74.87 L 189.71 75.07 L 189.46 75.24 L 189.26 75.38 L 189.11 75.48 L 189.02 75.55 L 188.99 75.57 L 188.97 75.56 L 188.89 75.54 L 188.77 75.51 L 188.61 75.47 L 188.41 75.44 L 188.19 75.41 L 187.93 75.39 L 187.65 75.38 L 187.36 75.39 L 187.05 75.42 L 186.74 75.48 L 186.41 75.57 L 186.09 75.7 L 185.78 75.86 L 185.47 76.07 L 185.17 76.33 L 184.89 76.63 L 184.6 76.94 L 184.32 77.25 L 184.05 77.58 L 183.79 77.9 L 183.53 78.21 L 183.29 78.52 L 183.07 78.82 L 182.87 79.09 L 182.68 79.35 L 182.52 79.58 L 182.38 79.77 L 182.27 79.93 L 182.19 80.05 L 182.13 80.13 L 182.12 80.15 L 177.53 80.92 L 174.09 84.36 L 174.05 84.38 L 173.91 84.46 L 173.69 84.57 L 173.41 84.73 L 173.06 84.91 L 172.66 85.12 L 172.23 85.35 L 171.76 85.6 L 171.26 85.85 L 170.76 86.11 L 170.25 86.36 L 169.74 86.61 L 169.26 86.85 L 168.79 87.06 L 168.37 87.25 L 167.98 87.41 L 167.69 87.57 L 167.51 87.75 L 167.44 87.95 L 167.45 88.17 L 167.52 88.41 L 167.65 88.65 L 167.81 88.91 L 167.98 89.18 L 168.16 89.45 L 168.32 89.72 L 168.44 89.99 L 168.52 90.26 L 168.53 90.52 L 168.45 90.77 L 168.28 91.01 L 167.98 91.23 L 167.19 91.66 L 166.26 92.09 L 165.25 92.52 L 164.21 92.95 L 163.19 93.38 L 162.24 93.81 L 161.4 94.24 L 160.73 94.67 L 160.22 95.06 L 159.84 95.39 L 159.57 95.66 L 159.39 95.86 L 159.28 96.02 L 159.22 96.12 L 159.2 96.18 L 159.2 96.2 L 166.46 107.66 L 163.78 107.66 L 163.85 107.67 L 164.03 107.7 L 164.33 107.77 L 164.72 107.87 L 165.19 108.01 L 165.74 108.2 L 166.34 108.45 L 166.98 108.76 L 167.66 109.13 L 168.35 109.58 L 169.05 110.11 L 169.74 110.72 L 170.42 111.42 L 171.06 112.23 L 171.65 113.13 L 172.18 114.15 L 172.66 115.21 L 173.07 116.22 L 173.42 117.2 L 173.73 118.12 L 173.99 118.99 L 174.21 119.81 L 174.38 120.57 L 174.53 121.27 L 174.64 121.89 L 174.72 122.45 L 174.78 122.93 L 174.82 123.34 L 174.84 123.66 L 174.85 123.89 L 174.86 124.03 L 174.86 124.08 L 170.66 125.99 L 174.48 135.16 L 172.38 135.92 L 172.41 135.97 L 172.5 136.09 L 172.64 136.29 L 172.82 136.54 L 173.03 136.86 L 173.26 137.21 L 173.51 137.61 L 173.76 138.03 L 174.01 138.46 L 174.24 138.91 L 174.45 139.35 L 174.63 139.79 L 174.77 140.21 L 174.86 140.6 L 174.89 140.96 L 174.86 141.27 L 174.7 141.83 L 174.52 142.33 L 174.33 142.79 L 174.14 143.18 L 173.97 143.5 L 173.84 143.74 L 173.75 143.89 L 173.71 143.95 L 173.73 143.97 L 173.77 144.04 L 173.85 144.15 L 173.94 144.31 L 174.06 144.5 L 174.21 144.73 L 174.37 144.98 L 174.55 145.27 L 174.74 145.58 L 174.95 145.92 L 175.17 146.27 L 175.41 146.65 L 175.64 147.03 L 175.89 147.43 L 176.14 147.83 L 176.39 148.24 L 176.64 148.66 L 176.89 149.07 L 177.13 149.48 L 177.37 149.88 L 177.6 150.27 L 177.82 150.65 L 178.03 151.01 L 178.23 151.36 L 178.4 151.68 L 178.57 151.98 L 178.71 152.26 L 178.83 152.5 L 178.93 152.71 L 179 152.89 L 179.05 153.02 L 179.06 153.11 L 179 153.42 L 178.84 153.76 L 178.63 154.14 L 178.42 154.55 L 178.25 154.99 L 178.17 155.48 L 178.24 156 L 178.49 156.55 L 178.65 156.81 L 178.77 157 L 178.88 157.15 L 178.96 157.26 L 179.04 157.33 L 179.11 157.38 L 179.19 157.42 L 179.28 157.46 L 179.38 157.5 L 179.52 157.55 L 179.7 157.63 L 179.91 157.73 L 180.18 157.88 L 180.5 158.08 L 180.89 158.33 L 181.35 158.65 L 181.8 159.02 L 182.16 159.39 L 182.43 159.77 L 182.62 160.15 L 182.76 160.55 L 182.85 160.95 L 182.9 161.36 L 182.93 161.78 L 182.94 162.2 L 182.95 162.63 L 182.97 163.07 L 183.02 163.51 L 183.09 163.96 L 183.22 164.42 L 183.4 164.87 L 183.64 165.34 L 183.91 165.78 L 184.13 166.16 L 184.32 166.51 L 184.49 166.82 L 184.62 167.1 L 184.74 167.36 L 184.84 167.6 L 184.93 167.84 L 185.02 168.09 L 185.11 168.34 L 185.2 168.61 L 185.31 168.91 L 185.43 169.24 L 185.57 169.61 L 185.74 170.02 L 185.94 170.5 L 186.38 171.47 L 186.84 172.41 L 187.29 173.32 L 187.7 174.22 L 188.07 175.12 L 188.35 176.03 L 188.54 176.97 L 188.61 177.94 L 188.61 182.53 L 188.57 182.48 L 188.43 182.33 L 188.22 182.08 L 187.94 181.76 L 187.58 181.35 L 187.16 180.87 L 186.68 180.33 L 186.15 179.72 L 185.57 179.07 L 184.94 178.36 L 184.28 177.62 L 183.59 176.85 L 182.88 176.05 L 182.14 175.22 L 181.4 174.39 L 180.64 173.55 L 179.88 172.71 L 179.12 171.88 L 178.36 171.06 L 177.62 170.25 L 176.9 169.48 L 176.21 168.74 L 175.54 168.04 L 174.91 167.38 L 174.32 166.78 L 173.78 166.23 L 173.29 165.75 L 172.85 165.35 L 172.48 165.02 L 172.18 164.78 L 171.95 164.63 L 171.8 164.57 L 171.42 164.54 L 171.1 164.47 L 170.83 164.39 L 170.59 164.33 L 170.35 164.33 L 170.11 164.41 L 169.84 164.61 L 169.51 164.96 L 169.19 165.33 L 168.93 165.62 L 168.73 165.82 L 168.58 165.96 L 168.48 166.04 L 168.41 166.08 L 168.37 166.1 L 168.36 166.1 L 168.34 166.08 L 168.29 166.03 L 168.19 165.94 L 168.07 165.82 L 167.91 165.68 L 167.72 165.5 L 167.5 165.3 L 167.26 165.09 L 167 164.85 L 166.72 164.59 L 166.42 164.33 L 166.1 164.05 L 165.77 163.76 L 165.42 163.46 L 165.07 163.16 L 164.71 162.85 L 164.35 162.55 L 163.98 162.25 L 163.61 161.95 L 163.24 161.66 L 162.88 161.38 L 162.53 161.11 L 162.18 160.86 L 161.84 160.62 L 161.51 160.4 L 161.2 160.21 L 160.91 160.03 L 160.63 159.89 L 160.38 159.77 L 160.15 159.68 L 159.95 159.63 L 159.77 159.61 L 159.47 159.63 L 159.22 159.7 L 159 159.81 L 158.81 159.94 L 158.65 160.11 L 158.51 160.3 L 158.38 160.51 L 158.27 160.73 L 158.15 160.96 L 158.03 161.18 L 157.9 161.41 L 157.76 161.62 L 157.59 161.82 L 157.4 162 L 157.17 162.16 L 156.9 162.28 L 156.64 162.38 L 156.42 162.47 L 156.22 162.53 L 156.05 162.58 L 155.89 162.6 L 155.73 162.6 L 155.56 162.58 L 155.38 162.52 L 155.17 162.43 L 154.92 162.31 L 154.62 162.15 L 154.27 161.96 L 153.86 161.72 L 153.37 161.45 L 152.8 161.12 L 152.13 160.75 L 151.51 160.37 L 151.07 160 L 150.78 159.64 L 150.62 159.31 L 150.57 159 L 150.6 158.71 L 150.69 158.45 L 150.82 158.22 L 150.95 158.02 L 151.08 157.86 L 151.16 157.73 L 151.19 157.64 L 151.13 157.59 L 150.97 157.58 L 150.67 157.61 L 150.22 157.7 L 149.73 157.82 L 149.34 157.96 L 149.02 158.12 L 148.77 158.28 L 148.58 158.45 L 148.43 158.62 L 148.31 158.79 L 148.22 158.94 L 148.13 159.07 L 148.04 159.18 L 147.93 159.26 L 147.8 159.31 L 147.63 159.32 L 147.42 159.28 L 147.14 159.18 L 146.78 159.04 L 146.4 158.87 L 146.05 158.73 L 145.72 158.62 L 145.41 158.51 L 145.12 158.42 L 144.83 158.33 L 144.55 158.25 L 144.28 158.15 L 144 158.05 L 143.71 157.93 L 143.41 157.78 L 143.1 157.61 L 142.77 157.41 L 142.42 157.17 L 142.04 156.88 L 141.63 156.55 L 141.22 156.21 L 140.87 155.88 L 140.56 155.58 L 140.3 155.31 L 140.08 155.07 L 139.89 154.86 L 139.74 154.67 L 139.62 154.52 L 139.53 154.4 L 139.45 154.32 L 139.4 154.28 L 139.37 154.27 L 139.35 154.3 L 139.34 154.37 L 139.33 154.48 L 139.33 154.64 L 139.31 154.89 L 139.23 155.27 L 139.12 155.75 L 138.98 156.33 L 138.8 156.97 L 138.61 157.66 L 138.4 158.38 L 138.19 159.11 L 137.97 159.82 L 137.77 160.51 L 137.57 161.14 L 137.4 161.71 L 137.25 162.18 L 137.14 162.54 L 137.07 162.77 L 137.04 162.85 L 136.94 162.82 L 136.63 162.74 L 136.16 162.59 L 135.54 162.4 L 134.8 162.16 L 133.96 161.89 L 133.04 161.58 L 132.08 161.23 L 131.08 160.86 L 130.08 160.47 L 129.11 160.06 L 128.18 159.63 L 127.32 159.2 L 126.55 158.76 L 125.9 158.32 L 125.39 157.89 L 124.57 157.06 L 123.83 156.29 L 123.18 155.58 L 122.62 154.95 L 122.18 154.4 L 121.85 153.94 L 121.64 153.57 L 121.57 153.31 L 121.54 153.07 L 121.45 152.82 L 121.33 152.57 L 121.19 152.33 L 121.05 152.11 L 120.93 151.94 L 120.84 151.82 L 120.81 151.78 L 120.75 151.84 L 120.58 152.02 L 120.33 152.26 L 120.02 152.54 L 119.66 152.82 L 119.28 153.07 L 118.89 153.24 L 118.51 153.31 L 118.36 153.33 L 118.23 153.39 L 118.13 153.48 L 118.05 153.59 L 117.96 153.7 L 117.87 153.81 L 117.77 153.9 L 117.63 153.97 L 117.46 154.01 L 117.24 154 L 116.96 153.93 L 116.61 153.79 L 116.18 153.57 L 115.66 153.27 L 115.04 152.86 L 114.31 152.35 L 113.52 151.79 L 112.7 151.24 L 111.89 150.72 L 111.08 150.21 L 110.28 149.73 L 109.51 149.26 L 108.76 148.83 L 108.06 148.41 L 107.4 148.02 L 106.81 147.66 L 106.28 147.32 L 105.83 147.01 L 105.46 146.72 L 105.18 146.47 L 105.01 146.24 L 104.95 146.05 L 104.99 145.7 L 105.06 145.39 L 105.16 145.12 L 105.24 144.92 L 105.29 144.81 L 105.28 144.78 L 105.17 144.87 L 104.95 145.09 L 104.87 145.19 L 104.76 145.35 L 104.62 145.57 L 104.46 145.83 L 104.27 146.14 L 104.07 146.49 L 103.85 146.87 L 103.62 147.29 L 103.37 147.75 L 103.11 148.22 L 102.84 148.72 L 102.56 149.24 L 102.28 149.76 L 102 150.3 L 101.71 150.85 L 101.42 151.4 L 101.14 151.94 L 100.86 152.48 L 100.58 153.01 L 100.31 153.52 L 100.06 154.02 L 99.81 154.49 L 99.58 154.94 L 99.37 155.35 L 99.17 155.74 L 98.99 156.08 L 98.84 156.38 L 98.71 156.64 L 98.6 156.85 L 98.53 157 L 98.48 157.09 L 98.46 157.13 L 97.32 156.55 L 97.3 156.65 L 97.25 156.94 L 97.17 157.39 L 97.06 157.99 L 96.93 158.7 L 96.77 159.5 L 96.6 160.38 L 96.41 161.3 L 96.2 162.25 L 95.99 163.2 L 95.77 164.13 L 95.54 165.01 L 95.31 165.83 L 95.08 166.55 L 94.86 167.16 L 94.64 167.63 L 94.43 167.98 L 94.22 168.26 L 94.02 168.48 L 93.83 168.66 L 93.65 168.79 L 93.47 168.91 L 93.31 169.01 L 93.16 169.11 L 93.02 169.23 L 92.9 169.37 L 92.8 169.55 L 92.71 169.78 L 92.64 170.07 L 92.58 170.44 L 92.55 170.9 L 92.54 171.45 L 92.54 177.18 L 92.53 177.79 L 92.49 178.42 L 92.43 179.04 L 92.36 179.65 L 92.27 180.26 L 92.18 180.84 L 92.07 181.4 L 91.97 181.93 L 91.86 182.42 L 91.76 182.87 L 91.66 183.26 L 91.57 183.6 L 91.5 183.87 L 91.44 184.08 L 91.41 184.2 L 91.39 184.25 L 91.37 184.21 L 91.29 184.09 L 91.17 183.91 L 91 183.66 L 90.8 183.34 L 90.55 182.97 L 90.27 182.55 L 89.96 182.07 L 89.62 181.56 L 89.25 181 L 88.86 180.4 L 88.44 179.77 L 88.01 179.12 L 87.57 178.44 L 87.11 177.75 L 86.64 177.04 L 86.17 176.32 L 85.69 175.59 L 85.22 174.86 L 84.74 174.14 L 84.28 173.42 L 83.82 172.71 L 83.37 172.02 L 82.93 171.35 L 82.52 170.71 L 82.12 170.09 L 81.74 169.51 L 81.39 168.97 L 81.07 168.46 L 80.79 168.01 L 80.53 167.6 L 80.32 167.25 L 79.95 166.62 L 79.64 166.03 L 79.38 165.48 L 79.16 164.96 L 78.99 164.48 L 78.85 164.04 L 78.74 163.64 L 78.67 163.28 L 78.62 162.96 L 78.59 162.69 L 78.57 162.45 L 78.57 162.25 L 78.58 162.1 L 78.59 161.99 L 78.59 161.92 L 78.6 161.9 L 76.88 162.28 L 76.85 162.29 L 76.79 162.3 L 76.68 162.31 L 76.53 162.31 L 76.35 162.3 L 76.14 162.26 L 75.91 162.2 L 75.66 162.09 L 75.39 161.94 L 75.12 161.74 L 74.83 161.48 L 74.54 161.15 L 74.25 160.75 L 73.97 160.27 L 73.7 159.7 L 73.44 159.04 L 73.18 158.28 L 72.92 157.47 L 72.64 156.6 L 72.36 155.7 L 72.08 154.78 L 71.8 153.85 L 71.53 152.92 L 71.27 152.02 L 71.01 151.14 L 70.77 150.31 L 70.55 149.53 L 70.35 148.83 L 70.17 148.21 L 70.02 147.69 L 69.9 147.28 L 69.81 147 L 69.68 146.6 L 69.58 146.25 L 69.48 145.95 L 69.38 145.71 L 69.26 145.52 L 69.11 145.39 L 68.92 145.31 L 68.67 145.28 L 68.41 145.34 L 68.21 145.49 L 68.05 145.69 L 67.9 145.9 L 67.75 146.1 L 67.59 146.25 L 67.39 146.31 L 67.14 146.24 L 66.98 146.18 L 66.81 146.13 L 66.62 146.1 L 66.42 146.07 L 66.22 146.03 L 66.01 145.99 L 65.79 145.93 L 65.59 145.86 L 65.38 145.75 L 65.19 145.62 L 65.01 145.44 L 64.85 145.22 L 64.72 144.94 L 64.6 144.61 L 64.52 144.22 L 64.46 143.76 L 64.45 143.46 L 64.46 143.08 L 64.47 142.62 L 64.5 142.09 L 64.53 141.49 L 64.58 140.83 L 64.64 140.11 L 64.7 139.35 L 64.77 138.54 L 64.84 137.69 L 64.92 136.81 L 65 135.9 L 65.09 134.98 L 65.18 134.03 L 65.26 133.08 L 65.35 132.13 L 65.43 131.18 L 65.51 130.24 L 65.59 129.31 L 65.66 128.4 L 65.73 127.52 L 65.79 126.67 L 65.84 125.86 L 65.89 125.09 L 65.92 124.37 L 65.94 123.71 L 65.96 123.11 L 65.95 122.57 L 65.94 122.11 L 65.91 121.73 L 65.86 121.43 L 65.8 121.22 L 65.53 120.65 L 65.3 120.22 L 65.1 119.92 L 64.94 119.71 L 64.82 119.59 L 64.73 119.53 L 64.67 119.5 L 64.65 119.5 L 64.61 119.51 L 64.5 119.55 L 64.32 119.6 L 64.08 119.66 L 63.81 119.74 L 63.5 119.81 L 63.16 119.88 L 62.82 119.95 L 62.47 120.01 L 62.13 120.05 L 61.81 120.07 L 61.51 120.06 L 61.26 120.03 L 61.05 119.96 L 60.91 119.84 L 60.83 119.69 L 60.78 119.5 L 60.68 119.29 L 60.54 119.06 L 60.39 118.81 L 60.22 118.54 L 60.05 118.26 L 59.87 117.97 L 59.71 117.66 L 59.57 117.34 L 59.46 117.01 L 59.39 116.68 L 59.36 116.33 L 59.38 115.98 L 59.47 115.63 L 59.64 115.27 L 59.88 114.92 L 60.17 114.55 L 60.47 114.17 L 60.76 113.78 L 61.06 113.39 L 61.35 113.01 L 61.64 112.63 L 61.91 112.26 L 62.17 111.91 L 62.41 111.58 L 62.63 111.28 L 62.83 111.01 L 63 110.78 L 63.13 110.59 L 63.23 110.45 L 63.3 110.36 L 63.32 110.33 L 60.64 110.33 L 60.67 110.3 L 60.74 110.22 L 60.84 110.09 L 60.99 109.91 L 61.18 109.69 L 61.39 109.43 L 61.63 109.13 L 61.9 108.79 L 62.19 108.43 L 62.5 108.04 L 62.83 107.63 L 63.16 107.2 L 63.51 106.75 L 63.86 106.29 L 64.21 105.82 L 64.56 105.34 L 64.91 104.86 L 65.24 104.38 L 65.57 103.91 L 65.88 103.44 L 66.18 102.98 L 66.46 102.54 L 66.71 102.11 L 66.93 101.71 L 67.12 101.33 L 67.28 100.98 L 67.4 100.66 L 67.48 100.37 L 67.52 100.12 L 67.51 99.91 L 67.44 99.75 L 67.33 99.64 L 67.06 99.48 L 66.82 99.37 L 66.6 99.29 L 66.41 99.23 L 66.24 99.2 L 66.08 99.18 L 65.95 99.16 L 65.82 99.13 L 65.71 99.1 L 65.61 99.05 L 65.51 98.97 L 65.42 98.86 L 65.33 98.7 L 65.24 98.5 L 65.14 98.24 L 65.04 97.92 L 64.92 97.18 L 65 96.4 L 65.25 95.6 L 65.63 94.79 L 66.14 93.99 L 66.73 93.22 L 67.39 92.48 L 68.09 91.8 L 68.3 91.61 L 68.56 91.36 L 68.88 91.06 L 69.24 90.71 L 69.64 90.32 L 70.09 89.88 L 70.57 89.41 L 71.08 88.9 L 71.61 88.37 L 72.17 87.81 L 72.75 87.23 L 73.34 86.64 L 73.95 86.03 L 74.56 85.42 L 75.17 84.8 L 75.78 84.19 L 76.39 83.58 L 76.98 82.98 L 77.56 82.39 L 78.13 81.82 L 78.67 81.27 L 79.19 80.75 L 79.67 80.26 L 80.13 79.8 L 80.54 79.38 L 80.91 79 L 81.24 78.67 L 81.51 78.39 L 81.74 78.17 L 81.9 78 L 82 77.9 L 82.04 77.86 L 81.84 75.76 L 81.81 75.74 L 81.72 75.67 L 81.57 75.56 L 81.36 75.4 L 81.09 75.2 L 80.77 74.96 L 80.4 74.69 L 79.97 74.37 L 79.5 74.02 L 78.99 73.64 L 78.43 73.22 L 77.83 72.78 L 77.18 72.3 L 76.51 71.8 L 75.79 71.26 L 75.04 70.71 L 74.26 70.12 L 73.45 69.52 L 72.61 68.9 L 71.74 68.25 L 70.86 67.59 L 69.95 66.91 L 69.01 66.22 L 68.07 65.51 L 67.1 64.79 L 66.12 64.06 L 65.13 63.32 L 64.13 62.57 L 63.12 61.81 L 62.11 61.05 L 61.09 60.29 L 60.07 59.53 L 59.05 58.76 L 58.03 58 L 57.02 57.23 L 56.01 56.48 L 55.01 55.72 L 54.02 54.98 L 53.04 54.24 L 52.08 53.51 L 51.13 52.79 L 50.2 52.09 L 49.29 51.4 L 48.4 50.72 L 47.53 50.06 L 46.69 49.42 L 45.88 48.8 L 45.1 48.2 L 44.35 47.63 L 43.64 47.08 L 42.96 46.55 L 42.32 46.05 L 41.71 45.58 L 41.15 45.14 L 40.64 44.73 L 40.17 44.36 L 39.75 44.02 L 39.37 43.71 L 39.05 43.44 L 38.79 43.22 L 38.58 43.03 L 38.42 42.88 L 38.33 42.78 L 38.3 42.72 L 38.22 42.58 L 38.01 42.32 L 37.66 41.93 L 37.18 41.44 L 36.59 40.84 L 35.9 40.15 L 35.1 39.37 L 34.23 38.51 L 33.27 37.58 L 32.25 36.6 L 31.17 35.55 L 30.04 34.47 L 28.87 33.34 L 27.67 32.19 L 26.45 31.01 L 25.21 29.83 L 23.98 28.63 L 22.75 27.45 L 21.54 26.27 L 20.35 25.11 L 19.2 23.99 L 18.1 22.9 L 17.05 21.85 L 16.06 20.86 L 15.14 19.92 L 14.31 19.06 L 13.57 18.27 L 12.93 17.57 L 12.4 16.97 L 11.98 16.46 L 11.7 16.07 L 11.56 15.79 L 11.41 15.34 L 11.26 14.88 L 11.1 14.39 L 10.94 13.9 L 10.78 13.41 L 10.63 12.93 L 10.48 12.46 L 10.34 12.02 L 10.21 11.6 L 10.1 11.23 L 10 10.9 L 9.92 10.63 L 9.86 10.42 L 9.83 10.28 L 9.82 10.22 L 9.84 10.25 L 9.84 10.25 L 9.84 10.25 Z" fill-rule="nonzero"/>
          </g>
        </g>
      </g>
      <g id="GRID.VP.20.1">
        <g id="GRID.VP.20::lvp.1">
          <g id="leaf-alpha.1" filter="url(#gridSVG.filter.5.1)" fill="url(#gridSVG.gradientFill.16.1)" fill-opacity="1">
            <path id="leaf-alpha.1.1" d="M 225.84 10.25 L 231.57 9.87 L 231.57 9.9 L 231.56 9.99 L 231.55 10.14 L 231.55 10.34 L 231.56 10.59 L 231.59 10.89 L 231.64 11.24 L 231.71 11.63 L 231.82 12.07 L 231.96 12.53 L 232.14 13.04 L 232.37 13.57 L 232.66 14.14 L 232.99 14.73 L 233.39 15.34 L 233.86 15.98 L 234.19 16.37 L 234.66 16.9 L 235.28 17.55 L 236.02 18.32 L 236.88 19.2 L 237.86 20.18 L 238.93 21.25 L 240.1 22.4 L 241.35 23.63 L 242.67 24.92 L 244.06 26.27 L 245.51 27.66 L 247 29.1 L 248.53 30.56 L 250.09 32.05 L 251.67 33.55 L 253.26 35.06 L 254.85 36.56 L 256.43 38.04 L 257.99 39.51 L 259.53 40.95 L 261.03 42.34 L 262.49 43.69 L 263.89 44.99 L 265.23 46.21 L 266.49 47.37 L 267.68 48.44 L 268.77 49.42 L 269.77 50.31 L 270.65 51.08 L 271.42 51.74 L 272.06 52.27 L 272.67 52.77 L 273.36 53.33 L 274.11 53.94 L 274.92 54.61 L 275.79 55.33 L 276.7 56.09 L 277.67 56.88 L 278.67 57.71 L 279.7 58.56 L 280.76 59.43 L 281.85 60.32 L 282.94 61.22 L 284.05 62.12 L 285.17 63.03 L 286.28 63.93 L 287.39 64.83 L 288.48 65.7 L 289.56 66.56 L 290.61 67.4 L 291.63 68.2 L 292.62 68.97 L 293.57 69.7 L 294.47 70.38 L 295.32 71.02 L 296.11 71.59 L 296.84 72.11 L 297.5 72.56 L 298.08 72.94 L 298.59 73.25 L 299.01 73.47 L 299.33 73.61 L 299.56 73.66 L 299.98 73.61 L 300.51 73.47 L 301.13 73.25 L 301.82 72.94 L 302.58 72.57 L 303.38 72.13 L 304.21 71.63 L 305.05 71.08 L 305.89 70.49 L 306.71 69.86 L 307.49 69.19 L 308.21 68.5 L 308.87 67.8 L 309.44 67.08 L 309.91 66.36 L 310.26 65.64 L 310.58 64.87 L 310.98 64.01 L 311.44 63.08 L 311.95 62.1 L 312.51 61.07 L 313.11 60.03 L 313.73 58.98 L 314.37 57.95 L 315.01 56.95 L 315.66 55.99 L 316.3 55.11 L 316.92 54.3 L 317.51 53.6 L 318.07 53.02 L 318.58 52.57 L 319.04 52.27 L 319.29 52.15 L 319.6 51.99 L 319.96 51.81 L 320.38 51.61 L 320.85 51.38 L 321.36 51.14 L 321.92 50.87 L 322.51 50.59 L 323.14 50.3 L 323.8 49.99 L 324.48 49.67 L 325.19 49.35 L 325.91 49.02 L 326.65 48.69 L 327.41 48.35 L 328.16 48.02 L 328.93 47.69 L 329.69 47.37 L 330.45 47.05 L 331.19 46.74 L 331.93 46.45 L 332.65 46.17 L 333.35 45.91 L 334.03 45.66 L 334.68 45.44 L 335.3 45.24 L 335.89 45.06 L 336.43 44.91 L 336.93 44.79 L 337.39 44.7 L 337.79 44.65 L 338.14 44.63 L 338.73 44.7 L 339.2 44.91 L 339.56 45.23 L 339.83 45.64 L 340.02 46.14 L 340.14 46.68 L 340.19 47.27 L 340.2 47.88 L 340.16 48.48 L 340.09 49.07 L 340.01 49.62 L 339.92 50.11 L 339.83 50.52 L 339.75 50.84 L 339.69 51.05 L 339.67 51.12 L 339.7 51.11 L 339.79 51.07 L 339.94 51.01 L 340.14 50.93 L 340.38 50.82 L 340.67 50.7 L 341 50.56 L 341.37 50.41 L 341.78 50.25 L 342.21 50.07 L 342.67 49.89 L 343.16 49.69 L 343.66 49.49 L 344.18 49.29 L 344.72 49.08 L 345.26 48.88 L 345.81 48.67 L 346.36 48.47 L 346.91 48.27 L 347.45 48.08 L 347.98 47.9 L 348.51 47.73 L 349.01 47.56 L 349.5 47.42 L 349.97 47.28 L 350.41 47.17 L 350.81 47.07 L 351.19 46.99 L 351.52 46.94 L 351.82 46.9 L 352.07 46.9 L 352.28 46.92 L 352.6 47.01 L 352.85 47.14 L 353.03 47.31 L 353.17 47.49 L 353.27 47.7 L 353.34 47.91 L 353.39 48.13 L 353.42 48.35 L 353.46 48.56 L 353.51 48.76 L 353.58 48.93 L 353.67 49.07 L 353.81 49.18 L 354 49.24 L 354.25 49.25 L 354.57 49.21 L 354.95 49.11 L 355.36 48.96 L 355.8 48.77 L 356.28 48.54 L 356.78 48.3 L 357.32 48.06 L 357.89 47.82 L 358.49 47.59 L 359.11 47.39 L 359.75 47.23 L 360.43 47.12 L 361.12 47.06 L 361.84 47.08 L 362.58 47.19 L 363.34 47.38 L 364.12 47.69 L 364.8 48.05 L 365.3 48.43 L 365.64 48.83 L 365.86 49.23 L 365.97 49.64 L 366.01 50.06 L 366 50.47 L 365.98 50.88 L 365.98 51.29 L 366.01 51.69 L 366.12 52.09 L 366.32 52.47 L 366.65 52.83 L 367.14 53.17 L 367.82 53.5 L 368.7 53.8 L 369.64 54.04 L 370.44 54.21 L 371.13 54.31 L 371.72 54.35 L 372.22 54.35 L 372.64 54.33 L 373.01 54.28 L 373.33 54.23 L 373.63 54.18 L 373.9 54.14 L 374.17 54.14 L 374.45 54.17 L 374.76 54.26 L 375.1 54.41 L 375.5 54.63 L 375.96 54.94 L 376.19 55.12 L 376.37 55.27 L 376.52 55.42 L 376.62 55.56 L 376.7 55.68 L 376.74 55.8 L 376.76 55.9 L 376.76 55.99 L 376.74 56.08 L 376.7 56.16 L 376.65 56.22 L 376.59 56.29 L 376.53 56.34 L 376.46 56.39 L 376.4 56.43 L 376.34 56.47 L 376.29 56.5 L 376.26 56.53 L 376.24 56.56 L 376.24 56.58 L 376.26 56.61 L 376.31 56.62 L 376.39 56.64 L 376.5 56.66 L 376.65 56.68 L 376.84 56.7 L 377.07 56.72 L 377.35 56.74 L 377.68 56.76 L 378.07 56.79 L 378.51 56.82 L 379.02 56.85 L 380.03 56.92 L 380.91 56.98 L 381.68 57.04 L 382.34 57.1 L 382.9 57.17 L 383.37 57.24 L 383.76 57.33 L 384.08 57.43 L 384.33 57.54 L 384.54 57.68 L 384.7 57.84 L 384.82 58.03 L 384.91 58.26 L 384.99 58.51 L 385.06 58.81 L 385.13 59.14 L 385.15 59.48 L 385.09 59.76 L 384.96 60 L 384.79 60.2 L 384.61 60.36 L 384.43 60.49 L 384.28 60.59 L 384.17 60.67 L 384.14 60.74 L 384.2 60.79 L 384.38 60.83 L 384.7 60.86 L 385.18 60.9 L 385.84 60.94 L 386.71 60.99 L 387.8 61.05 L 388.95 61.11 L 389.97 61.13 L 390.87 61.13 L 391.66 61.11 L 392.37 61.08 L 392.99 61.04 L 393.55 61 L 394.06 60.96 L 394.52 60.93 L 394.96 60.91 L 395.38 60.92 L 395.81 60.95 L 396.24 61.01 L 396.7 61.11 L 397.19 61.25 L 397.73 61.44 L 398.21 61.65 L 398.52 61.88 L 398.69 62.1 L 398.75 62.33 L 398.72 62.54 L 398.63 62.75 L 398.52 62.94 L 398.4 63.11 L 398.31 63.26 L 398.28 63.38 L 398.33 63.47 L 398.49 63.53 L 398.78 63.55 L 399.25 63.53 L 399.91 63.46 L 400.79 63.35 L 401.7 63.18 L 402.45 62.98 L 403.06 62.76 L 403.55 62.52 L 403.94 62.28 L 404.27 62.04 L 404.55 61.82 L 404.8 61.63 L 405.06 61.47 L 405.33 61.35 L 405.66 61.3 L 406.06 61.31 L 406.54 61.39 L 407.15 61.56 L 407.9 61.83 L 408.81 62.2 L 409.81 62.64 L 410.81 63.09 L 411.79 63.55 L 412.76 64.02 L 413.7 64.49 L 414.61 64.96 L 415.48 65.42 L 416.31 65.88 L 417.09 66.32 L 417.81 66.74 L 418.48 67.14 L 419.07 67.52 L 419.59 67.87 L 420.04 68.18 L 420.39 68.46 L 420.65 68.69 L 421.05 69.12 L 421.38 69.54 L 421.64 69.92 L 421.85 70.27 L 422 70.56 L 422.1 70.79 L 422.16 70.93 L 422.18 70.99 L 422.09 70.97 L 421.81 70.94 L 421.39 70.89 L 420.82 70.84 L 420.14 70.78 L 419.36 70.72 L 418.51 70.68 L 417.6 70.65 L 416.65 70.65 L 415.69 70.67 L 414.73 70.73 L 413.8 70.82 L 412.91 70.97 L 412.09 71.17 L 411.35 71.43 L 410.72 71.75 L 410.15 72.11 L 409.6 72.46 L 409.06 72.81 L 408.54 73.15 L 408.04 73.48 L 407.57 73.8 L 407.12 74.1 L 406.71 74.38 L 406.34 74.63 L 406 74.87 L 405.71 75.07 L 405.46 75.24 L 405.26 75.38 L 405.11 75.48 L 405.02 75.55 L 404.99 75.57 L 404.97 75.56 L 404.89 75.54 L 404.77 75.51 L 404.61 75.47 L 404.41 75.44 L 404.19 75.41 L 403.93 75.39 L 403.65 75.38 L 403.36 75.39 L 403.05 75.42 L 402.74 75.48 L 402.41 75.57 L 402.09 75.7 L 401.78 75.86 L 401.47 76.07 L 401.17 76.33 L 400.89 76.63 L 400.6 76.94 L 400.32 77.25 L 400.05 77.58 L 399.79 77.9 L 399.53 78.21 L 399.29 78.52 L 399.07 78.82 L 398.87 79.09 L 398.68 79.35 L 398.52 79.58 L 398.38 79.77 L 398.27 79.93 L 398.19 80.05 L 398.13 80.13 L 398.12 80.15 L 393.53 80.92 L 390.09 84.36 L 390.05 84.38 L 389.91 84.46 L 389.69 84.57 L 389.41 84.73 L 389.06 84.91 L 388.66 85.12 L 388.23 85.35 L 387.76 85.6 L 387.26 85.85 L 386.76 86.11 L 386.25 86.36 L 385.74 86.61 L 385.26 86.85 L 384.79 87.06 L 384.37 87.25 L 383.98 87.41 L 383.69 87.57 L 383.51 87.75 L 383.44 87.95 L 383.45 88.17 L 383.52 88.41 L 383.65 88.65 L 383.81 88.91 L 383.98 89.18 L 384.16 89.45 L 384.32 89.72 L 384.44 89.99 L 384.52 90.26 L 384.53 90.52 L 384.45 90.77 L 384.28 91.01 L 383.98 91.23 L 383.19 91.66 L 382.26 92.09 L 381.25 92.52 L 380.21 92.95 L 379.19 93.38 L 378.24 93.81 L 377.4 94.24 L 376.73 94.67 L 376.22 95.06 L 375.84 95.39 L 375.57 95.66 L 375.39 95.86 L 375.28 96.02 L 375.22 96.12 L 375.2 96.18 L 375.2 96.2 L 382.46 107.66 L 379.78 107.66 L 379.85 107.67 L 380.03 107.7 L 380.33 107.77 L 380.72 107.87 L 381.19 108.01 L 381.74 108.2 L 382.34 108.45 L 382.98 108.76 L 383.66 109.13 L 384.35 109.58 L 385.05 110.11 L 385.74 110.72 L 386.42 111.42 L 387.06 112.23 L 387.65 113.13 L 388.18 114.15 L 388.66 115.21 L 389.07 116.22 L 389.42 117.2 L 389.73 118.12 L 389.99 118.99 L 390.21 119.81 L 390.38 120.57 L 390.53 121.27 L 390.64 121.89 L 390.72 122.45 L 390.78 122.93 L 390.82 123.34 L 390.84 123.66 L 390.85 123.89 L 390.86 124.03 L 390.86 124.08 L 386.66 125.99 L 390.48 135.16 L 388.38 135.92 L 388.41 135.97 L 388.5 136.09 L 388.64 136.29 L 388.82 136.54 L 389.03 136.86 L 389.26 137.21 L 389.51 137.61 L 389.76 138.03 L 390.01 138.46 L 390.24 138.91 L 390.45 139.35 L 390.63 139.79 L 390.77 140.21 L 390.86 140.6 L 390.89 140.96 L 390.86 141.27 L 390.7 141.83 L 390.52 142.33 L 390.33 142.79 L 390.14 143.18 L 389.97 143.5 L 389.84 143.74 L 389.75 143.89 L 389.71 143.95 L 389.73 143.97 L 389.77 144.04 L 389.85 144.15 L 389.94 144.31 L 390.06 144.5 L 390.21 144.73 L 390.37 144.98 L 390.55 145.27 L 390.74 145.58 L 390.95 145.92 L 391.17 146.27 L 391.41 146.65 L 391.64 147.03 L 391.89 147.43 L 392.14 147.83 L 392.39 148.24 L 392.64 148.66 L 392.89 149.07 L 393.13 149.48 L 393.37 149.88 L 393.6 150.27 L 393.82 150.65 L 394.03 151.01 L 394.23 151.36 L 394.4 151.68 L 394.57 151.98 L 394.71 152.26 L 394.83 152.5 L 394.93 152.71 L 395 152.89 L 395.05 153.02 L 395.06 153.11 L 395 153.42 L 394.84 153.76 L 394.63 154.14 L 394.42 154.55 L 394.25 154.99 L 394.17 155.48 L 394.24 156 L 394.49 156.55 L 394.65 156.81 L 394.77 157 L 394.88 157.15 L 394.96 157.26 L 395.04 157.33 L 395.11 157.38 L 395.19 157.42 L 395.28 157.46 L 395.38 157.5 L 395.52 157.55 L 395.7 157.63 L 395.91 157.73 L 396.18 157.88 L 396.5 158.08 L 396.89 158.33 L 397.35 158.65 L 397.8 159.02 L 398.16 159.39 L 398.43 159.77 L 398.62 160.15 L 398.76 160.55 L 398.85 160.95 L 398.9 161.36 L 398.93 161.78 L 398.94 162.2 L 398.95 162.63 L 398.97 163.07 L 399.02 163.51 L 399.09 163.96 L 399.22 164.42 L 399.4 164.87 L 399.64 165.34 L 399.91 165.78 L 400.13 166.16 L 400.32 166.51 L 400.49 166.82 L 400.62 167.1 L 400.74 167.36 L 400.84 167.6 L 400.93 167.84 L 401.02 168.09 L 401.11 168.34 L 401.2 168.61 L 401.31 168.91 L 401.43 169.24 L 401.57 169.61 L 401.74 170.02 L 401.94 170.5 L 402.38 171.47 L 402.84 172.41 L 403.29 173.32 L 403.7 174.22 L 404.07 175.12 L 404.35 176.03 L 404.54 176.97 L 404.61 177.94 L 404.61 182.53 L 404.57 182.48 L 404.43 182.33 L 404.22 182.08 L 403.94 181.76 L 403.58 181.35 L 403.16 180.87 L 402.68 180.33 L 402.15 179.72 L 401.57 179.07 L 400.94 178.36 L 400.28 177.62 L 399.59 176.85 L 398.88 176.05 L 398.14 175.22 L 397.4 174.39 L 396.64 173.55 L 395.88 172.71 L 395.12 171.88 L 394.36 171.06 L 393.62 170.25 L 392.9 169.48 L 392.21 168.74 L 391.54 168.04 L 390.91 167.38 L 390.32 166.78 L 389.78 166.23 L 389.29 165.75 L 388.85 165.35 L 388.48 165.02 L 388.18 164.78 L 387.95 164.63 L 387.8 164.57 L 387.42 164.54 L 387.1 164.47 L 386.83 164.39 L 386.59 164.33 L 386.35 164.33 L 386.11 164.41 L 385.84 164.61 L 385.51 164.96 L 385.19 165.33 L 384.93 165.62 L 384.73 165.82 L 384.58 165.96 L 384.48 166.04 L 384.41 166.08 L 384.37 166.1 L 384.36 166.1 L 384.34 166.08 L 384.29 166.03 L 384.19 165.94 L 384.07 165.82 L 383.91 165.68 L 383.72 165.5 L 383.5 165.3 L 383.26 165.09 L 383 164.85 L 382.72 164.59 L 382.42 164.33 L 382.1 164.05 L 381.77 163.76 L 381.42 163.46 L 381.07 163.16 L 380.71 162.85 L 380.35 162.55 L 379.98 162.25 L 379.61 161.95 L 379.24 161.66 L 378.88 161.38 L 378.53 161.11 L 378.18 160.86 L 377.84 160.62 L 377.51 160.4 L 377.2 160.21 L 376.91 160.03 L 376.63 159.89 L 376.38 159.77 L 376.15 159.68 L 375.95 159.63 L 375.77 159.61 L 375.47 159.63 L 375.22 159.7 L 375 159.81 L 374.81 159.94 L 374.65 160.11 L 374.51 160.3 L 374.38 160.51 L 374.27 160.73 L 374.15 160.96 L 374.03 161.18 L 373.9 161.41 L 373.76 161.62 L 373.59 161.82 L 373.4 162 L 373.17 162.16 L 372.9 162.28 L 372.64 162.38 L 372.42 162.47 L 372.22 162.53 L 372.05 162.58 L 371.89 162.6 L 371.73 162.6 L 371.56 162.58 L 371.38 162.52 L 371.17 162.43 L 370.92 162.31 L 370.62 162.15 L 370.27 161.96 L 369.86 161.72 L 369.37 161.45 L 368.8 161.12 L 368.13 160.75 L 367.51 160.37 L 367.07 160 L 366.78 159.64 L 366.62 159.31 L 366.57 159 L 366.6 158.71 L 366.69 158.45 L 366.82 158.22 L 366.95 158.02 L 367.08 157.86 L 367.16 157.73 L 367.19 157.64 L 367.13 157.59 L 366.97 157.58 L 366.67 157.61 L 366.22 157.7 L 365.73 157.82 L 365.34 157.96 L 365.02 158.12 L 364.77 158.28 L 364.58 158.45 L 364.43 158.62 L 364.31 158.79 L 364.22 158.94 L 364.13 159.07 L 364.04 159.18 L 363.93 159.26 L 363.8 159.31 L 363.63 159.32 L 363.42 159.28 L 363.14 159.18 L 362.78 159.04 L 362.4 158.87 L 362.05 158.73 L 361.72 158.62 L 361.41 158.51 L 361.12 158.42 L 360.83 158.33 L 360.55 158.25 L 360.28 158.15 L 360 158.05 L 359.71 157.93 L 359.41 157.78 L 359.1 157.61 L 358.77 157.41 L 358.42 157.17 L 358.04 156.88 L 357.63 156.55 L 357.22 156.21 L 356.87 155.88 L 356.56 155.58 L 356.3 155.31 L 356.08 155.07 L 355.89 154.86 L 355.74 154.67 L 355.62 154.52 L 355.53 154.4 L 355.45 154.32 L 355.4 154.28 L 355.37 154.27 L 355.35 154.3 L 355.34 154.37 L 355.33 154.48 L 355.33 154.64 L 355.31 154.89 L 355.23 155.27 L 355.12 155.75 L 354.98 156.33 L 354.8 156.97 L 354.61 157.66 L 354.4 158.38 L 354.19 159.11 L 353.97 159.82 L 353.77 160.51 L 353.57 161.14 L 353.4 161.71 L 353.25 162.18 L 353.14 162.54 L 353.07 162.77 L 353.04 162.85 L 352.94 162.82 L 352.63 162.74 L 352.16 162.59 L 351.54 162.4 L 350.8 162.16 L 349.96 161.89 L 349.04 161.58 L 348.08 161.23 L 347.08 160.86 L 346.08 160.47 L 345.11 160.06 L 344.18 159.63 L 343.32 159.2 L 342.55 158.76 L 341.9 158.32 L 341.39 157.89 L 340.57 157.06 L 339.83 156.29 L 339.18 155.58 L 338.62 154.95 L 338.18 154.4 L 337.85 153.94 L 337.64 153.57 L 337.57 153.31 L 337.54 153.07 L 337.45 152.82 L 337.33 152.57 L 337.19 152.33 L 337.05 152.11 L 336.93 151.94 L 336.84 151.82 L 336.81 151.78 L 336.75 151.84 L 336.58 152.02 L 336.33 152.26 L 336.02 152.54 L 335.66 152.82 L 335.28 153.07 L 334.89 153.24 L 334.51 153.31 L 334.36 153.33 L 334.23 153.39 L 334.13 153.48 L 334.05 153.59 L 333.96 153.7 L 333.87 153.81 L 333.77 153.9 L 333.63 153.97 L 333.46 154.01 L 333.24 154 L 332.96 153.93 L 332.61 153.79 L 332.18 153.57 L 331.66 153.27 L 331.04 152.86 L 330.31 152.35 L 329.52 151.79 L 328.7 151.24 L 327.89 150.72 L 327.08 150.21 L 326.28 149.73 L 325.51 149.26 L 324.76 148.83 L 324.06 148.41 L 323.4 148.02 L 322.81 147.66 L 322.28 147.32 L 321.83 147.01 L 321.46 146.72 L 321.18 146.47 L 321.01 146.24 L 320.95 146.05 L 320.99 145.7 L 321.06 145.39 L 321.16 145.12 L 321.24 144.92 L 321.29 144.81 L 321.28 144.78 L 321.17 144.87 L 320.95 145.09 L 320.87 145.19 L 320.76 145.35 L 320.62 145.57 L 320.46 145.83 L 320.27 146.14 L 320.07 146.49 L 319.85 146.87 L 319.62 147.29 L 319.37 147.75 L 319.11 148.22 L 318.84 148.72 L 318.56 149.24 L 318.28 149.76 L 318 150.3 L 317.71 150.85 L 317.42 151.4 L 317.14 151.94 L 316.86 152.48 L 316.58 153.01 L 316.31 153.52 L 316.06 154.02 L 315.81 154.49 L 315.58 154.94 L 315.37 155.35 L 315.17 155.74 L 314.99 156.08 L 314.84 156.38 L 314.71 156.64 L 314.6 156.85 L 314.53 157 L 314.48 157.09 L 314.46 157.13 L 313.32 156.55 L 313.3 156.65 L 313.25 156.94 L 313.17 157.39 L 313.06 157.99 L 312.93 158.7 L 312.77 159.5 L 312.6 160.38 L 312.41 161.3 L 312.2 162.25 L 311.99 163.2 L 311.77 164.13 L 311.54 165.01 L 311.31 165.83 L 311.08 166.55 L 310.86 167.16 L 310.64 167.63 L 310.43 167.98 L 310.22 168.26 L 310.02 168.48 L 309.83 168.66 L 309.65 168.79 L 309.47 168.91 L 309.31 169.01 L 309.16 169.11 L 309.02 169.23 L 308.9 169.37 L 308.8 169.55 L 308.71 169.78 L 308.64 170.07 L 308.58 170.44 L 308.55 170.9 L 308.54 171.45 L 308.54 177.18 L 308.53 177.79 L 308.49 178.42 L 308.43 179.04 L 308.36 179.65 L 308.27 180.26 L 308.18 180.84 L 308.07 181.4 L 307.97 181.93 L 307.86 182.42 L 307.76 182.87 L 307.66 183.26 L 307.57 183.6 L 307.5 183.87 L 307.44 184.08 L 307.41 184.2 L 307.39 184.25 L 307.37 184.21 L 307.29 184.09 L 307.17 183.91 L 307 183.66 L 306.8 183.34 L 306.55 182.97 L 306.27 182.55 L 305.96 182.07 L 305.62 181.56 L 305.25 181 L 304.86 180.4 L 304.44 179.77 L 304.01 179.12 L 303.57 178.44 L 303.11 177.75 L 302.64 177.04 L 302.17 176.32 L 301.69 175.59 L 301.22 174.86 L 300.74 174.14 L 300.28 173.42 L 299.82 172.71 L 299.37 172.02 L 298.93 171.35 L 298.52 170.71 L 298.12 170.09 L 297.74 169.51 L 297.39 168.97 L 297.07 168.46 L 296.79 168.01 L 296.53 167.6 L 296.32 167.25 L 295.95 166.62 L 295.64 166.03 L 295.38 165.48 L 295.16 164.96 L 294.99 164.48 L 294.85 164.04 L 294.74 163.64 L 294.67 163.28 L 294.62 162.96 L 294.59 162.69 L 294.57 162.45 L 294.57 162.25 L 294.58 162.1 L 294.59 161.99 L 294.59 161.92 L 294.6 161.9 L 292.88 162.28 L 292.85 162.29 L 292.79 162.3 L 292.68 162.31 L 292.53 162.31 L 292.35 162.3 L 292.14 162.26 L 291.91 162.2 L 291.66 162.09 L 291.39 161.94 L 291.12 161.74 L 290.83 161.48 L 290.54 161.15 L 290.25 160.75 L 289.97 160.27 L 289.7 159.7 L 289.44 159.04 L 289.18 158.28 L 288.92 157.47 L 288.64 156.6 L 288.36 155.7 L 288.08 154.78 L 287.8 153.85 L 287.53 152.92 L 287.27 152.02 L 287.01 151.14 L 286.77 150.31 L 286.55 149.53 L 286.35 148.83 L 286.17 148.21 L 286.02 147.69 L 285.9 147.28 L 285.81 147 L 285.68 146.6 L 285.58 146.25 L 285.48 145.95 L 285.38 145.71 L 285.26 145.52 L 285.11 145.39 L 284.92 145.31 L 284.67 145.28 L 284.41 145.34 L 284.21 145.49 L 284.05 145.69 L 283.9 145.9 L 283.75 146.1 L 283.59 146.25 L 283.39 146.31 L 283.14 146.24 L 282.98 146.18 L 282.81 146.13 L 282.62 146.1 L 282.42 146.07 L 282.22 146.03 L 282.01 145.99 L 281.79 145.93 L 281.59 145.86 L 281.38 145.75 L 281.19 145.62 L 281.01 145.44 L 280.85 145.22 L 280.72 144.94 L 280.6 144.61 L 280.52 144.22 L 280.46 143.76 L 280.45 143.46 L 280.46 143.08 L 280.47 142.62 L 280.5 142.09 L 280.53 141.49 L 280.58 140.83 L 280.64 140.11 L 280.7 139.35 L 280.77 138.54 L 280.84 137.69 L 280.92 136.81 L 281 135.9 L 281.09 134.98 L 281.18 134.03 L 281.26 133.08 L 281.35 132.13 L 281.43 131.18 L 281.51 130.24 L 281.59 129.31 L 281.66 128.4 L 281.73 127.52 L 281.79 126.67 L 281.84 125.86 L 281.89 125.09 L 281.92 124.37 L 281.94 123.71 L 281.96 123.11 L 281.95 122.57 L 281.94 122.11 L 281.91 121.73 L 281.86 121.43 L 281.8 121.22 L 281.53 120.65 L 281.3 120.22 L 281.1 119.92 L 280.94 119.71 L 280.82 119.59 L 280.73 119.53 L 280.67 119.5 L 280.65 119.5 L 280.61 119.51 L 280.5 119.55 L 280.32 119.6 L 280.08 119.66 L 279.81 119.74 L 279.5 119.81 L 279.16 119.88 L 278.82 119.95 L 278.47 120.01 L 278.13 120.05 L 277.81 120.07 L 277.51 120.06 L 277.26 120.03 L 277.05 119.96 L 276.91 119.84 L 276.83 119.69 L 276.78 119.5 L 276.68 119.29 L 276.54 119.06 L 276.39 118.81 L 276.22 118.54 L 276.05 118.26 L 275.87 117.97 L 275.71 117.66 L 275.57 117.34 L 275.46 117.01 L 275.39 116.68 L 275.36 116.33 L 275.38 115.98 L 275.47 115.63 L 275.64 115.27 L 275.88 114.92 L 276.17 114.55 L 276.47 114.17 L 276.76 113.78 L 277.06 113.39 L 277.35 113.01 L 277.64 112.63 L 277.91 112.26 L 278.17 111.91 L 278.41 111.58 L 278.63 111.28 L 278.83 111.01 L 279 110.78 L 279.13 110.59 L 279.23 110.45 L 279.3 110.36 L 279.32 110.33 L 276.64 110.33 L 276.67 110.3 L 276.74 110.22 L 276.84 110.09 L 276.99 109.91 L 277.18 109.69 L 277.39 109.43 L 277.63 109.13 L 277.9 108.79 L 278.19 108.43 L 278.5 108.04 L 278.83 107.63 L 279.16 107.2 L 279.51 106.75 L 279.86 106.29 L 280.21 105.82 L 280.56 105.34 L 280.91 104.86 L 281.24 104.38 L 281.57 103.91 L 281.88 103.44 L 282.18 102.98 L 282.46 102.54 L 282.71 102.11 L 282.93 101.71 L 283.12 101.33 L 283.28 100.98 L 283.4 100.66 L 283.48 100.37 L 283.52 100.12 L 283.51 99.91 L 283.44 99.75 L 283.33 99.64 L 283.06 99.48 L 282.82 99.37 L 282.6 99.29 L 282.41 99.23 L 282.24 99.2 L 282.08 99.18 L 281.95 99.16 L 281.82 99.13 L 281.71 99.1 L 281.61 99.05 L 281.51 98.97 L 281.42 98.86 L 281.33 98.7 L 281.24 98.5 L 281.14 98.24 L 281.04 97.92 L 280.92 97.18 L 281 96.4 L 281.25 95.6 L 281.63 94.79 L 282.14 93.99 L 282.73 93.22 L 283.39 92.48 L 284.09 91.8 L 284.3 91.61 L 284.56 91.36 L 284.88 91.06 L 285.24 90.71 L 285.64 90.32 L 286.09 89.88 L 286.57 89.41 L 287.08 88.9 L 287.61 88.37 L 288.17 87.81 L 288.75 87.23 L 289.34 86.64 L 289.95 86.03 L 290.56 85.42 L 291.17 84.8 L 291.78 84.19 L 292.39 83.58 L 292.98 82.98 L 293.56 82.39 L 294.13 81.82 L 294.67 81.27 L 295.19 80.75 L 295.67 80.26 L 296.13 79.8 L 296.54 79.38 L 296.91 79 L 297.24 78.67 L 297.51 78.39 L 297.74 78.17 L 297.9 78 L 298 77.9 L 298.04 77.86 L 297.84 75.76 L 297.81 75.74 L 297.72 75.67 L 297.57 75.56 L 297.36 75.4 L 297.09 75.2 L 296.77 74.96 L 296.4 74.69 L 295.97 74.37 L 295.5 74.02 L 294.99 73.64 L 294.43 73.22 L 293.83 72.78 L 293.18 72.3 L 292.51 71.8 L 291.79 71.26 L 291.04 70.71 L 290.26 70.12 L 289.45 69.52 L 288.61 68.9 L 287.74 68.25 L 286.86 67.59 L 285.95 66.91 L 285.01 66.22 L 284.07 65.51 L 283.1 64.79 L 282.12 64.06 L 281.13 63.32 L 280.13 62.57 L 279.12 61.81 L 278.11 61.05 L 277.09 60.29 L 276.07 59.53 L 275.05 58.76 L 274.03 58 L 273.02 57.23 L 272.01 56.48 L 271.01 55.72 L 270.02 54.98 L 269.04 54.24 L 268.08 53.51 L 267.13 52.79 L 266.2 52.09 L 265.29 51.4 L 264.4 50.72 L 263.53 50.06 L 262.69 49.42 L 261.88 48.8 L 261.1 48.2 L 260.35 47.63 L 259.64 47.08 L 258.96 46.55 L 258.32 46.05 L 257.71 45.58 L 257.15 45.14 L 256.64 44.73 L 256.17 44.36 L 255.75 44.02 L 255.37 43.71 L 255.05 43.44 L 254.79 43.22 L 254.58 43.03 L 254.42 42.88 L 254.33 42.78 L 254.3 42.72 L 254.22 42.58 L 254.01 42.32 L 253.66 41.93 L 253.18 41.44 L 252.59 40.84 L 251.9 40.15 L 251.1 39.37 L 250.23 38.51 L 249.27 37.58 L 248.25 36.6 L 247.17 35.55 L 246.04 34.47 L 244.87 33.34 L 243.67 32.19 L 242.45 31.01 L 241.21 29.83 L 239.98 28.63 L 238.75 27.45 L 237.54 26.27 L 236.35 25.11 L 235.2 23.99 L 234.1 22.9 L 233.05 21.85 L 232.06 20.86 L 231.14 19.92 L 230.31 19.06 L 229.57 18.27 L 228.93 17.57 L 228.4 16.97 L 227.98 16.46 L 227.7 16.07 L 227.56 15.79 L 227.41 15.34 L 227.26 14.88 L 227.1 14.39 L 226.94 13.9 L 226.78 13.41 L 226.63 12.93 L 226.48 12.46 L 226.34 12.02 L 226.21 11.6 L 226.1 11.23 L 226 10.9 L 225.92 10.63 L 225.86 10.42 L 225.83 10.28 L 225.82 10.22 L 225.84 10.25 L 225.84 10.25 L 225.84 10.25 Z" fill-rule="nonzero"/>
          </g>
        </g>
      </g>
      <g id="GRID.VP.22.1">
        <g id="GRID.VP.22::lvp.1">
          <g id="leaf-blur.1" filter="url(#gridSVG.filter.6.1)" fill="url(#gridSVG.gradientFill.17.1)" fill-opacity="1">
            <path id="leaf-blur.1.1" d="M 441.84 10.25 L 447.57 9.87 L 447.57 9.9 L 447.56 9.99 L 447.55 10.14 L 447.55 10.34 L 447.56 10.59 L 447.59 10.89 L 447.64 11.24 L 447.71 11.63 L 447.82 12.07 L 447.96 12.53 L 448.14 13.04 L 448.37 13.57 L 448.66 14.14 L 448.99 14.73 L 449.39 15.34 L 449.86 15.98 L 450.19 16.37 L 450.66 16.9 L 451.28 17.55 L 452.02 18.32 L 452.88 19.2 L 453.86 20.18 L 454.93 21.25 L 456.1 22.4 L 457.35 23.63 L 458.67 24.92 L 460.06 26.27 L 461.51 27.66 L 463 29.1 L 464.53 30.56 L 466.09 32.05 L 467.67 33.55 L 469.26 35.06 L 470.85 36.56 L 472.43 38.04 L 473.99 39.51 L 475.53 40.95 L 477.03 42.34 L 478.49 43.69 L 479.89 44.99 L 481.23 46.21 L 482.49 47.37 L 483.68 48.44 L 484.77 49.42 L 485.77 50.31 L 486.65 51.08 L 487.42 51.74 L 488.06 52.27 L 488.67 52.77 L 489.36 53.33 L 490.11 53.94 L 490.92 54.61 L 491.79 55.33 L 492.7 56.09 L 493.67 56.88 L 494.67 57.71 L 495.7 58.56 L 496.76 59.43 L 497.85 60.32 L 498.94 61.22 L 500.05 62.12 L 501.17 63.03 L 502.28 63.93 L 503.39 64.83 L 504.48 65.7 L 505.56 66.56 L 506.61 67.4 L 507.63 68.2 L 508.62 68.97 L 509.57 69.7 L 510.47 70.38 L 511.32 71.02 L 512.11 71.59 L 512.84 72.11 L 513.5 72.56 L 514.08 72.94 L 514.59 73.25 L 515.01 73.47 L 515.33 73.61 L 515.56 73.66 L 515.98 73.61 L 516.51 73.47 L 517.13 73.25 L 517.82 72.94 L 518.58 72.57 L 519.38 72.13 L 520.21 71.63 L 521.05 71.08 L 521.89 70.49 L 522.71 69.86 L 523.49 69.19 L 524.21 68.5 L 524.87 67.8 L 525.44 67.08 L 525.91 66.36 L 526.26 65.64 L 526.58 64.87 L 526.98 64.01 L 527.44 63.08 L 527.95 62.1 L 528.51 61.07 L 529.11 60.03 L 529.73 58.98 L 530.37 57.95 L 531.01 56.95 L 531.66 55.99 L 532.3 55.11 L 532.92 54.3 L 533.51 53.6 L 534.07 53.02 L 534.58 52.57 L 535.04 52.27 L 535.29 52.15 L 535.6 51.99 L 535.96 51.81 L 536.38 51.61 L 536.85 51.38 L 537.36 51.14 L 537.92 50.87 L 538.51 50.59 L 539.14 50.3 L 539.8 49.99 L 540.48 49.67 L 541.19 49.35 L 541.91 49.02 L 542.65 48.69 L 543.41 48.35 L 544.16 48.02 L 544.93 47.69 L 545.69 47.37 L 546.45 47.05 L 547.19 46.74 L 547.93 46.45 L 548.65 46.17 L 549.35 45.91 L 550.03 45.66 L 550.68 45.44 L 551.3 45.24 L 551.89 45.06 L 552.43 44.91 L 552.93 44.79 L 553.39 44.7 L 553.79 44.65 L 554.14 44.63 L 554.73 44.7 L 555.2 44.91 L 555.56 45.23 L 555.83 45.64 L 556.02 46.14 L 556.14 46.68 L 556.19 47.27 L 556.2 47.88 L 556.16 48.48 L 556.09 49.07 L 556.01 49.62 L 555.92 50.11 L 555.83 50.52 L 555.75 50.84 L 555.69 51.05 L 555.67 51.12 L 555.7 51.11 L 555.79 51.07 L 555.94 51.01 L 556.14 50.93 L 556.38 50.82 L 556.67 50.7 L 557 50.56 L 557.37 50.41 L 557.78 50.25 L 558.21 50.07 L 558.67 49.89 L 559.16 49.69 L 559.66 49.49 L 560.18 49.29 L 560.72 49.08 L 561.26 48.88 L 561.81 48.67 L 562.36 48.47 L 562.91 48.27 L 563.45 48.08 L 563.98 47.9 L 564.51 47.73 L 565.01 47.56 L 565.5 47.42 L 565.97 47.28 L 566.41 47.17 L 566.81 47.07 L 567.19 46.99 L 567.52 46.94 L 567.82 46.9 L 568.07 46.9 L 568.28 46.92 L 568.6 47.01 L 568.85 47.14 L 569.03 47.31 L 569.17 47.49 L 569.27 47.7 L 569.34 47.91 L 569.39 48.13 L 569.42 48.35 L 569.46 48.56 L 569.51 48.76 L 569.58 48.93 L 569.67 49.07 L 569.81 49.18 L 570 49.24 L 570.25 49.25 L 570.57 49.21 L 570.95 49.11 L 571.36 48.96 L 571.8 48.77 L 572.28 48.54 L 572.78 48.3 L 573.32 48.06 L 573.89 47.82 L 574.49 47.59 L 575.11 47.39 L 575.75 47.23 L 576.43 47.12 L 577.12 47.06 L 577.84 47.08 L 578.58 47.19 L 579.34 47.38 L 580.12 47.69 L 580.8 48.05 L 581.3 48.43 L 581.64 48.83 L 581.86 49.23 L 581.97 49.64 L 582.01 50.06 L 582 50.47 L 581.98 50.88 L 581.98 51.29 L 582.01 51.69 L 582.12 52.09 L 582.32 52.47 L 582.65 52.83 L 583.14 53.17 L 583.82 53.5 L 584.7 53.8 L 585.64 54.04 L 586.44 54.21 L 587.13 54.31 L 587.72 54.35 L 588.22 54.35 L 588.64 54.33 L 589.01 54.28 L 589.33 54.23 L 589.63 54.18 L 589.9 54.14 L 590.17 54.14 L 590.45 54.17 L 590.76 54.26 L 591.1 54.41 L 591.5 54.63 L 591.96 54.94 L 592.19 55.12 L 592.37 55.27 L 592.52 55.42 L 592.62 55.56 L 592.7 55.68 L 592.74 55.8 L 592.76 55.9 L 592.76 55.99 L 592.74 56.08 L 592.7 56.16 L 592.65 56.22 L 592.59 56.29 L 592.53 56.34 L 592.46 56.39 L 592.4 56.43 L 592.34 56.47 L 592.29 56.5 L 592.26 56.53 L 592.24 56.56 L 592.24 56.58 L 592.26 56.61 L 592.31 56.62 L 592.39 56.64 L 592.5 56.66 L 592.65 56.68 L 592.84 56.7 L 593.07 56.72 L 593.35 56.74 L 593.68 56.76 L 594.07 56.79 L 594.51 56.82 L 595.02 56.85 L 596.03 56.92 L 596.91 56.98 L 597.68 57.04 L 598.34 57.1 L 598.9 57.17 L 599.37 57.24 L 599.76 57.33 L 600.08 57.43 L 600.33 57.54 L 600.54 57.68 L 600.7 57.84 L 600.82 58.03 L 600.91 58.26 L 600.99 58.51 L 601.06 58.81 L 601.13 59.14 L 601.15 59.48 L 601.09 59.76 L 600.96 60 L 600.79 60.2 L 600.61 60.36 L 600.43 60.49 L 600.28 60.59 L 600.17 60.67 L 600.14 60.74 L 600.2 60.79 L 600.38 60.83 L 600.7 60.86 L 601.18 60.9 L 601.84 60.94 L 602.71 60.99 L 603.8 61.05 L 604.95 61.11 L 605.97 61.13 L 606.87 61.13 L 607.66 61.11 L 608.37 61.08 L 608.99 61.04 L 609.55 61 L 610.06 60.96 L 610.52 60.93 L 610.96 60.91 L 611.38 60.92 L 611.81 60.95 L 612.24 61.01 L 612.7 61.11 L 613.19 61.25 L 613.73 61.44 L 614.21 61.65 L 614.52 61.88 L 614.69 62.1 L 614.75 62.33 L 614.72 62.54 L 614.63 62.75 L 614.52 62.94 L 614.4 63.11 L 614.31 63.26 L 614.28 63.38 L 614.33 63.47 L 614.49 63.53 L 614.78 63.55 L 615.25 63.53 L 615.91 63.46 L 616.79 63.35 L 617.7 63.18 L 618.45 62.98 L 619.06 62.76 L 619.55 62.52 L 619.94 62.28 L 620.27 62.04 L 620.55 61.82 L 620.8 61.63 L 621.06 61.47 L 621.33 61.35 L 621.66 61.3 L 622.06 61.31 L 622.54 61.39 L 623.15 61.56 L 623.9 61.83 L 624.81 62.2 L 625.81 62.64 L 626.81 63.09 L 627.79 63.55 L 628.76 64.02 L 629.7 64.49 L 630.61 64.96 L 631.48 65.42 L 632.31 65.88 L 633.09 66.32 L 633.81 66.74 L 634.48 67.14 L 635.07 67.52 L 635.59 67.87 L 636.04 68.18 L 636.39 68.46 L 636.65 68.69 L 637.05 69.12 L 637.38 69.54 L 637.64 69.92 L 637.85 70.27 L 638 70.56 L 638.1 70.79 L 638.16 70.93 L 638.18 70.99 L 638.09 70.97 L 637.81 70.94 L 637.39 70.89 L 636.82 70.84 L 636.14 70.78 L 635.36 70.72 L 634.51 70.68 L 633.6 70.65 L 632.65 70.65 L 631.69 70.67 L 630.73 70.73 L 629.8 70.82 L 628.91 70.97 L 628.09 71.17 L 627.35 71.43 L 626.72 71.75 L 626.15 72.11 L 625.6 72.46 L 625.06 72.81 L 624.54 73.15 L 624.04 73.48 L 623.57 73.8 L 623.12 74.1 L 622.71 74.38 L 622.34 74.63 L 622 74.87 L 621.71 75.07 L 621.46 75.24 L 621.26 75.38 L 621.11 75.48 L 621.02 75.55 L 620.99 75.57 L 620.97 75.56 L 620.89 75.54 L 620.77 75.51 L 620.61 75.47 L 620.41 75.44 L 620.19 75.41 L 619.93 75.39 L 619.65 75.38 L 619.36 75.39 L 619.05 75.42 L 618.74 75.48 L 618.41 75.57 L 618.09 75.7 L 617.78 75.86 L 617.47 76.07 L 617.17 76.33 L 616.89 76.63 L 616.6 76.94 L 616.32 77.25 L 616.05 77.58 L 615.79 77.9 L 615.53 78.21 L 615.29 78.52 L 615.07 78.82 L 614.87 79.09 L 614.68 79.35 L 614.52 79.58 L 614.38 79.77 L 614.27 79.93 L 614.19 80.05 L 614.13 80.13 L 614.12 80.15 L 609.53 80.92 L 606.09 84.36 L 606.05 84.38 L 605.91 84.46 L 605.69 84.57 L 605.41 84.73 L 605.06 84.91 L 604.66 85.12 L 604.23 85.35 L 603.76 85.6 L 603.26 85.85 L 602.76 86.11 L 602.25 86.36 L 601.74 86.61 L 601.26 86.85 L 600.79 87.06 L 600.37 87.25 L 599.98 87.41 L 599.69 87.57 L 599.51 87.75 L 599.44 87.95 L 599.45 88.17 L 599.52 88.41 L 599.65 88.65 L 599.81 88.91 L 599.98 89.18 L 600.16 89.45 L 600.32 89.72 L 600.44 89.99 L 600.52 90.26 L 600.53 90.52 L 600.45 90.77 L 600.28 91.01 L 599.98 91.23 L 599.19 91.66 L 598.26 92.09 L 597.25 92.52 L 596.21 92.95 L 595.19 93.38 L 594.24 93.81 L 593.4 94.24 L 592.73 94.67 L 592.22 95.06 L 591.84 95.39 L 591.57 95.66 L 591.39 95.86 L 591.28 96.02 L 591.22 96.12 L 591.2 96.18 L 591.2 96.2 L 598.46 107.66 L 595.78 107.66 L 595.85 107.67 L 596.03 107.7 L 596.33 107.77 L 596.72 107.87 L 597.19 108.01 L 597.74 108.2 L 598.34 108.45 L 598.98 108.76 L 599.66 109.13 L 600.35 109.58 L 601.05 110.11 L 601.74 110.72 L 602.42 111.42 L 603.06 112.23 L 603.65 113.13 L 604.18 114.15 L 604.66 115.21 L 605.07 116.22 L 605.42 117.2 L 605.73 118.12 L 605.99 118.99 L 606.21 119.81 L 606.38 120.57 L 606.53 121.27 L 606.64 121.89 L 606.72 122.45 L 606.78 122.93 L 606.82 123.34 L 606.84 123.66 L 606.85 123.89 L 606.86 124.03 L 606.86 124.08 L 602.66 125.99 L 606.48 135.16 L 604.38 135.92 L 604.41 135.97 L 604.5 136.09 L 604.64 136.29 L 604.82 136.54 L 605.03 136.86 L 605.26 137.21 L 605.51 137.61 L 605.76 138.03 L 606.01 138.46 L 606.24 138.91 L 606.45 139.35 L 606.63 139.79 L 606.77 140.21 L 606.86 140.6 L 606.89 140.96 L 606.86 141.27 L 606.7 141.83 L 606.52 142.33 L 606.33 142.79 L 606.14 143.18 L 605.97 143.5 L 605.84 143.74 L 605.75 143.89 L 605.71 143.95 L 605.73 143.97 L 605.77 144.04 L 605.85 144.15 L 605.94 144.31 L 606.06 144.5 L 606.21 144.73 L 606.37 144.98 L 606.55 145.27 L 606.74 145.58 L 606.95 145.92 L 607.17 146.27 L 607.41 146.65 L 607.64 147.03 L 607.89 147.43 L 608.14 147.83 L 608.39 148.24 L 608.64 148.66 L 608.89 149.07 L 609.13 149.48 L 609.37 149.88 L 609.6 150.27 L 609.82 150.65 L 610.03 151.01 L 610.23 151.36 L 610.4 151.68 L 610.57 151.98 L 610.71 152.26 L 610.83 152.5 L 610.93 152.71 L 611 152.89 L 611.05 153.02 L 611.06 153.11 L 611 153.42 L 610.84 153.76 L 610.63 154.14 L 610.42 154.55 L 610.25 154.99 L 610.17 155.48 L 610.24 156 L 610.49 156.55 L 610.65 156.81 L 610.77 157 L 610.88 157.15 L 610.96 157.26 L 611.04 157.33 L 611.11 157.38 L 611.19 157.42 L 611.28 157.46 L 611.38 157.5 L 611.52 157.55 L 611.7 157.63 L 611.91 157.73 L 612.18 157.88 L 612.5 158.08 L 612.89 158.33 L 613.35 158.65 L 613.8 159.02 L 614.16 159.39 L 614.43 159.77 L 614.62 160.15 L 614.76 160.55 L 614.85 160.95 L 614.9 161.36 L 614.93 161.78 L 614.94 162.2 L 614.95 162.63 L 614.97 163.07 L 615.02 163.51 L 615.09 163.96 L 615.22 164.42 L 615.4 164.87 L 615.64 165.34 L 615.91 165.78 L 616.13 166.16 L 616.32 166.51 L 616.49 166.82 L 616.62 167.1 L 616.74 167.36 L 616.84 167.6 L 616.93 167.84 L 617.02 168.09 L 617.11 168.34 L 617.2 168.61 L 617.31 168.91 L 617.43 169.24 L 617.57 169.61 L 617.74 170.02 L 617.94 170.5 L 618.38 171.47 L 618.84 172.41 L 619.29 173.32 L 619.7 174.22 L 620.07 175.12 L 620.35 176.03 L 620.54 176.97 L 620.61 177.94 L 620.61 182.53 L 620.57 182.48 L 620.43 182.33 L 620.22 182.08 L 619.94 181.76 L 619.58 181.35 L 619.16 180.87 L 618.68 180.33 L 618.15 179.72 L 617.57 179.07 L 616.94 178.36 L 616.28 177.62 L 615.59 176.85 L 614.88 176.05 L 614.14 175.22 L 613.4 174.39 L 612.64 173.55 L 611.88 172.71 L 611.12 171.88 L 610.36 171.06 L 609.62 170.25 L 608.9 169.48 L 608.21 168.74 L 607.54 168.04 L 606.91 167.38 L 606.32 166.78 L 605.78 166.23 L 605.29 165.75 L 604.85 165.35 L 604.48 165.02 L 604.18 164.78 L 603.95 164.63 L 603.8 164.57 L 603.42 164.54 L 603.1 164.47 L 602.83 164.39 L 602.59 164.33 L 602.35 164.33 L 602.11 164.41 L 601.84 164.61 L 601.51 164.96 L 601.19 165.33 L 600.93 165.62 L 600.73 165.82 L 600.58 165.96 L 600.48 166.04 L 600.41 166.08 L 600.37 166.1 L 600.36 166.1 L 600.34 166.08 L 600.29 166.03 L 600.19 165.94 L 600.07 165.82 L 599.91 165.68 L 599.72 165.5 L 599.5 165.3 L 599.26 165.09 L 599 164.85 L 598.72 164.59 L 598.42 164.33 L 598.1 164.05 L 597.77 163.76 L 597.42 163.46 L 597.07 163.16 L 596.71 162.85 L 596.35 162.55 L 595.98 162.25 L 595.61 161.95 L 595.24 161.66 L 594.88 161.38 L 594.53 161.11 L 594.18 160.86 L 593.84 160.62 L 593.51 160.4 L 593.2 160.21 L 592.91 160.03 L 592.63 159.89 L 592.38 159.77 L 592.15 159.68 L 591.95 159.63 L 591.77 159.61 L 591.47 159.63 L 591.22 159.7 L 591 159.81 L 590.81 159.94 L 590.65 160.11 L 590.51 160.3 L 590.38 160.51 L 590.27 160.73 L 590.15 160.96 L 590.03 161.18 L 589.9 161.41 L 589.76 161.62 L 589.59 161.82 L 589.4 162 L 589.17 162.16 L 588.9 162.28 L 588.64 162.38 L 588.42 162.47 L 588.22 162.53 L 588.05 162.58 L 587.89 162.6 L 587.73 162.6 L 587.56 162.58 L 587.38 162.52 L 587.17 162.43 L 586.92 162.31 L 586.62 162.15 L 586.27 161.96 L 585.86 161.72 L 585.37 161.45 L 584.8 161.12 L 584.13 160.75 L 583.51 160.37 L 583.07 160 L 582.78 159.64 L 582.62 159.31 L 582.57 159 L 582.6 158.71 L 582.69 158.45 L 582.82 158.22 L 582.95 158.02 L 583.08 157.86 L 583.16 157.73 L 583.19 157.64 L 583.13 157.59 L 582.97 157.58 L 582.67 157.61 L 582.22 157.7 L 581.73 157.82 L 581.34 157.96 L 581.02 158.12 L 580.77 158.28 L 580.58 158.45 L 580.43 158.62 L 580.31 158.79 L 580.22 158.94 L 580.13 159.07 L 580.04 159.18 L 579.93 159.26 L 579.8 159.31 L 579.63 159.32 L 579.42 159.28 L 579.14 159.18 L 578.78 159.04 L 578.4 158.87 L 578.05 158.73 L 577.72 158.62 L 577.41 158.51 L 577.12 158.42 L 576.83 158.33 L 576.55 158.25 L 576.28 158.15 L 576 158.05 L 575.71 157.93 L 575.41 157.78 L 575.1 157.61 L 574.77 157.41 L 574.42 157.17 L 574.04 156.88 L 573.63 156.55 L 573.22 156.21 L 572.87 155.88 L 572.56 155.58 L 572.3 155.31 L 572.08 155.07 L 571.89 154.86 L 571.74 154.67 L 571.62 154.52 L 571.53 154.4 L 571.45 154.32 L 571.4 154.28 L 571.37 154.27 L 571.35 154.3 L 571.34 154.37 L 571.33 154.48 L 571.33 154.64 L 571.31 154.89 L 571.23 155.27 L 571.12 155.75 L 570.98 156.33 L 570.8 156.97 L 570.61 157.66 L 570.4 158.38 L 570.19 159.11 L 569.97 159.82 L 569.77 160.51 L 569.57 161.14 L 569.4 161.71 L 569.25 162.18 L 569.14 162.54 L 569.07 162.77 L 569.04 162.85 L 568.94 162.82 L 568.63 162.74 L 568.16 162.59 L 567.54 162.4 L 566.8 162.16 L 565.96 161.89 L 565.04 161.58 L 564.08 161.23 L 563.08 160.86 L 562.08 160.47 L 561.11 160.06 L 560.18 159.63 L 559.32 159.2 L 558.55 158.76 L 557.9 158.32 L 557.39 157.89 L 556.57 157.06 L 555.83 156.29 L 555.18 155.58 L 554.62 154.95 L 554.18 154.4 L 553.85 153.94 L 553.64 153.57 L 553.57 153.31 L 553.54 153.07 L 553.45 152.82 L 553.33 152.57 L 553.19 152.33 L 553.05 152.11 L 552.93 151.94 L 552.84 151.82 L 552.81 151.78 L 552.75 151.84 L 552.58 152.02 L 552.33 152.26 L 552.02 152.54 L 551.66 152.82 L 551.28 153.07 L 550.89 153.24 L 550.51 153.31 L 550.36 153.33 L 550.23 153.39 L 550.13 153.48 L 550.05 153.59 L 549.96 153.7 L 549.87 153.81 L 549.77 153.9 L 549.63 153.97 L 549.46 154.01 L 549.24 154 L 548.96 153.93 L 548.61 153.79 L 548.18 153.57 L 547.66 153.27 L 547.04 152.86 L 546.31 152.35 L 545.52 151.79 L 544.7 151.24 L 543.89 150.72 L 543.08 150.21 L 542.28 149.73 L 541.51 149.26 L 540.76 148.83 L 540.06 148.41 L 539.4 148.02 L 538.81 147.66 L 538.28 147.32 L 537.83 147.01 L 537.46 146.72 L 537.18 146.47 L 537.01 146.24 L 536.95 146.05 L 536.99 145.7 L 537.06 145.39 L 537.16 145.12 L 537.24 144.92 L 537.29 144.81 L 537.28 144.78 L 537.17 144.87 L 536.95 145.09 L 536.87 145.19 L 536.76 145.35 L 536.62 145.57 L 536.46 145.83 L 536.27 146.14 L 536.07 146.49 L 535.85 146.87 L 535.62 147.29 L 535.37 147.75 L 535.11 148.22 L 534.84 148.72 L 534.56 149.24 L 534.28 149.76 L 534 150.3 L 533.71 150.85 L 533.42 151.4 L 533.14 151.94 L 532.86 152.48 L 532.58 153.01 L 532.31 153.52 L 532.06 154.02 L 531.81 154.49 L 531.58 154.94 L 531.37 155.35 L 531.17 155.74 L 530.99 156.08 L 530.84 156.38 L 530.71 156.64 L 530.6 156.85 L 530.53 157 L 530.48 157.09 L 530.46 157.13 L 529.32 156.55 L 529.3 156.65 L 529.25 156.94 L 529.17 157.39 L 529.06 157.99 L 528.93 158.7 L 528.77 159.5 L 528.6 160.38 L 528.41 161.3 L 528.2 162.25 L 527.99 163.2 L 527.77 164.13 L 527.54 165.01 L 527.31 165.83 L 527.08 166.55 L 526.86 167.16 L 526.64 167.63 L 526.43 167.98 L 526.22 168.26 L 526.02 168.48 L 525.83 168.66 L 525.65 168.79 L 525.47 168.91 L 525.31 169.01 L 525.16 169.11 L 525.02 169.23 L 524.9 169.37 L 524.8 169.55 L 524.71 169.78 L 524.64 170.07 L 524.58 170.44 L 524.55 170.9 L 524.54 171.45 L 524.54 177.18 L 524.53 177.79 L 524.49 178.42 L 524.43 179.04 L 524.36 179.65 L 524.27 180.26 L 524.18 180.84 L 524.07 181.4 L 523.97 181.93 L 523.86 182.42 L 523.76 182.87 L 523.66 183.26 L 523.57 183.6 L 523.5 183.87 L 523.44 184.08 L 523.41 184.2 L 523.39 184.25 L 523.37 184.21 L 523.29 184.09 L 523.17 183.91 L 523 183.66 L 522.8 183.34 L 522.55 182.97 L 522.27 182.55 L 521.96 182.07 L 521.62 181.56 L 521.25 181 L 520.86 180.4 L 520.44 179.77 L 520.01 179.12 L 519.57 178.44 L 519.11 177.75 L 518.64 177.04 L 518.17 176.32 L 517.69 175.59 L 517.22 174.86 L 516.74 174.14 L 516.28 173.42 L 515.82 172.71 L 515.37 172.02 L 514.93 171.35 L 514.52 170.71 L 514.12 170.09 L 513.74 169.51 L 513.39 168.97 L 513.07 168.46 L 512.79 168.01 L 512.53 167.6 L 512.32 167.25 L 511.95 166.62 L 511.64 166.03 L 511.38 165.48 L 511.16 164.96 L 510.99 164.48 L 510.85 164.04 L 510.74 163.64 L 510.67 163.28 L 510.62 162.96 L 510.59 162.69 L 510.57 162.45 L 510.57 162.25 L 510.58 162.1 L 510.59 161.99 L 510.59 161.92 L 510.6 161.9 L 508.88 162.28 L 508.85 162.29 L 508.79 162.3 L 508.68 162.31 L 508.53 162.31 L 508.35 162.3 L 508.14 162.26 L 507.91 162.2 L 507.66 162.09 L 507.39 161.94 L 507.12 161.74 L 506.83 161.48 L 506.54 161.15 L 506.25 160.75 L 505.97 160.27 L 505.7 159.7 L 505.44 159.04 L 505.18 158.28 L 504.92 157.47 L 504.64 156.6 L 504.36 155.7 L 504.08 154.78 L 503.8 153.85 L 503.53 152.92 L 503.27 152.02 L 503.01 151.14 L 502.77 150.31 L 502.55 149.53 L 502.35 148.83 L 502.17 148.21 L 502.02 147.69 L 501.9 147.28 L 501.81 147 L 501.68 146.6 L 501.58 146.25 L 501.48 145.95 L 501.38 145.71 L 501.26 145.52 L 501.11 145.39 L 500.92 145.31 L 500.67 145.28 L 500.41 145.34 L 500.21 145.49 L 500.05 145.69 L 499.9 145.9 L 499.75 146.1 L 499.59 146.25 L 499.39 146.31 L 499.14 146.24 L 498.98 146.18 L 498.81 146.13 L 498.62 146.1 L 498.42 146.07 L 498.22 146.03 L 498.01 145.99 L 497.79 145.93 L 497.59 145.86 L 497.38 145.75 L 497.19 145.62 L 497.01 145.44 L 496.85 145.22 L 496.72 144.94 L 496.6 144.61 L 496.52 144.22 L 496.46 143.76 L 496.45 143.46 L 496.46 143.08 L 496.47 142.62 L 496.5 142.09 L 496.53 141.49 L 496.58 140.83 L 496.64 140.11 L 496.7 139.35 L 496.77 138.54 L 496.84 137.69 L 496.92 136.81 L 497 135.9 L 497.09 134.98 L 497.18 134.03 L 497.26 133.08 L 497.35 132.13 L 497.43 131.18 L 497.51 130.24 L 497.59 129.31 L 497.66 128.4 L 497.73 127.52 L 497.79 126.67 L 497.84 125.86 L 497.89 125.09 L 497.92 124.37 L 497.94 123.71 L 497.96 123.11 L 497.95 122.57 L 497.94 122.11 L 497.91 121.73 L 497.86 121.43 L 497.8 121.22 L 497.53 120.65 L 497.3 120.22 L 497.1 119.92 L 496.94 119.71 L 496.82 119.59 L 496.73 119.53 L 496.67 119.5 L 496.65 119.5 L 496.61 119.51 L 496.5 119.55 L 496.32 119.6 L 496.08 119.66 L 495.81 119.74 L 495.5 119.81 L 495.16 119.88 L 494.82 119.95 L 494.47 120.01 L 494.13 120.05 L 493.81 120.07 L 493.51 120.06 L 493.26 120.03 L 493.05 119.96 L 492.91 119.84 L 492.83 119.69 L 492.78 119.5 L 492.68 119.29 L 492.54 119.06 L 492.39 118.81 L 492.22 118.54 L 492.05 118.26 L 491.87 117.97 L 491.71 117.66 L 491.57 117.34 L 491.46 117.01 L 491.39 116.68 L 491.36 116.33 L 491.38 115.98 L 491.47 115.63 L 491.64 115.27 L 491.88 114.92 L 492.17 114.55 L 492.47 114.17 L 492.76 113.78 L 493.06 113.39 L 493.35 113.01 L 493.64 112.63 L 493.91 112.26 L 494.17 111.91 L 494.41 111.58 L 494.63 111.28 L 494.83 111.01 L 495 110.78 L 495.13 110.59 L 495.23 110.45 L 495.3 110.36 L 495.32 110.33 L 492.64 110.33 L 492.67 110.3 L 492.74 110.22 L 492.84 110.09 L 492.99 109.91 L 493.18 109.69 L 493.39 109.43 L 493.63 109.13 L 493.9 108.79 L 494.19 108.43 L 494.5 108.04 L 494.83 107.63 L 495.16 107.2 L 495.51 106.75 L 495.86 106.29 L 496.21 105.82 L 496.56 105.34 L 496.91 104.86 L 497.24 104.38 L 497.57 103.91 L 497.88 103.44 L 498.18 102.98 L 498.46 102.54 L 498.71 102.11 L 498.93 101.71 L 499.12 101.33 L 499.28 100.98 L 499.4 100.66 L 499.48 100.37 L 499.52 100.12 L 499.51 99.91 L 499.44 99.75 L 499.33 99.64 L 499.06 99.48 L 498.82 99.37 L 498.6 99.29 L 498.41 99.23 L 498.24 99.2 L 498.08 99.18 L 497.95 99.16 L 497.82 99.13 L 497.71 99.1 L 497.61 99.05 L 497.51 98.97 L 497.42 98.86 L 497.33 98.7 L 497.24 98.5 L 497.14 98.24 L 497.04 97.92 L 496.92 97.18 L 497 96.4 L 497.25 95.6 L 497.63 94.79 L 498.14 93.99 L 498.73 93.22 L 499.39 92.48 L 500.09 91.8 L 500.3 91.61 L 500.56 91.36 L 500.88 91.06 L 501.24 90.71 L 501.64 90.32 L 502.09 89.88 L 502.57 89.41 L 503.08 88.9 L 503.61 88.37 L 504.17 87.81 L 504.75 87.23 L 505.34 86.64 L 505.95 86.03 L 506.56 85.42 L 507.17 84.8 L 507.78 84.19 L 508.39 83.58 L 508.98 82.98 L 509.56 82.39 L 510.13 81.82 L 510.67 81.27 L 511.19 80.75 L 511.67 80.26 L 512.13 79.8 L 512.54 79.38 L 512.91 79 L 513.24 78.67 L 513.51 78.39 L 513.74 78.17 L 513.9 78 L 514 77.9 L 514.04 77.86 L 513.84 75.76 L 513.81 75.74 L 513.72 75.67 L 513.57 75.56 L 513.36 75.4 L 513.09 75.2 L 512.77 74.96 L 512.4 74.69 L 511.97 74.37 L 511.5 74.02 L 510.99 73.64 L 510.43 73.22 L 509.83 72.78 L 509.18 72.3 L 508.51 71.8 L 507.79 71.26 L 507.04 70.71 L 506.26 70.12 L 505.45 69.52 L 504.61 68.9 L 503.74 68.25 L 502.86 67.59 L 501.95 66.91 L 501.01 66.22 L 500.07 65.51 L 499.1 64.79 L 498.12 64.06 L 497.13 63.32 L 496.13 62.57 L 495.12 61.81 L 494.11 61.05 L 493.09 60.29 L 492.07 59.53 L 491.05 58.76 L 490.03 58 L 489.02 57.23 L 488.01 56.48 L 487.01 55.72 L 486.02 54.98 L 485.04 54.24 L 484.08 53.51 L 483.13 52.79 L 482.2 52.09 L 481.29 51.4 L 480.4 50.72 L 479.53 50.06 L 478.69 49.42 L 477.88 48.8 L 477.1 48.2 L 476.35 47.63 L 475.64 47.08 L 474.96 46.55 L 474.32 46.05 L 473.71 45.58 L 473.15 45.14 L 472.64 44.73 L 472.17 44.36 L 471.75 44.02 L 471.37 43.71 L 471.05 43.44 L 470.79 43.22 L 470.58 43.03 L 470.42 42.88 L 470.33 42.78 L 470.3 42.72 L 470.22 42.58 L 470.01 42.32 L 469.66 41.93 L 469.18 41.44 L 468.59 40.84 L 467.9 40.15 L 467.1 39.37 L 466.23 38.51 L 465.27 37.58 L 464.25 36.6 L 463.17 35.55 L 462.04 34.47 L 460.87 33.34 L 459.67 32.19 L 458.45 31.01 L 457.21 29.83 L 455.98 28.63 L 454.75 27.45 L 453.54 26.27 L 452.35 25.11 L 451.2 23.99 L 450.1 22.9 L 449.05 21.85 L 448.06 20.86 L 447.14 19.92 L 446.31 19.06 L 445.57 18.27 L 444.93 17.57 L 444.4 16.97 L 443.98 16.46 L 443.7 16.07 L 443.56 15.79 L 443.41 15.34 L 443.26 14.88 L 443.1 14.39 L 442.94 13.9 L 442.78 13.41 L 442.63 12.93 L 442.48 12.46 L 442.34 12.02 L 442.21 11.6 L 442.1 11.23 L 442 10.9 L 441.92 10.63 L 441.86 10.42 L 441.83 10.28 L 441.82 10.22 L 441.84 10.25 L 441.84 10.25 L 441.84 10.25 Z" fill-rule="nonzero"/>
          </g>
        </g>
      </g>
      <g id="GRID.VP.24.1">
        <g id="GRID.VP.24::lvp.1">
          <g id="leaf-shadow.1" filter="url(#gridSVG.filter.7.1)" fill="url(#gridSVG.gradientFill.18.1)" fill-opacity="1">
            <path id="leaf-shadow.1.1" d="M 657.84 10.25 L 663.57 9.87 L 663.57 9.9 L 663.56 9.99 L 663.55 10.14 L 663.55 10.34 L 663.56 10.59 L 663.59 10.89 L 663.64 11.24 L 663.71 11.63 L 663.82 12.07 L 663.96 12.53 L 664.14 13.04 L 664.37 13.57 L 664.66 14.14 L 664.99 14.73 L 665.39 15.34 L 665.86 15.98 L 666.19 16.37 L 666.66 16.9 L 667.28 17.55 L 668.02 18.32 L 668.88 19.2 L 669.86 20.18 L 670.93 21.25 L 672.1 22.4 L 673.35 23.63 L 674.67 24.92 L 676.06 26.27 L 677.51 27.66 L 679 29.1 L 680.53 30.56 L 682.09 32.05 L 683.67 33.55 L 685.26 35.06 L 686.85 36.56 L 688.43 38.04 L 689.99 39.51 L 691.53 40.95 L 693.03 42.34 L 694.49 43.69 L 695.89 44.99 L 697.23 46.21 L 698.49 47.37 L 699.68 48.44 L 700.77 49.42 L 701.77 50.31 L 702.65 51.08 L 703.42 51.74 L 704.06 52.27 L 704.67 52.77 L 705.36 53.33 L 706.11 53.94 L 706.92 54.61 L 707.79 55.33 L 708.7 56.09 L 709.67 56.88 L 710.67 57.71 L 711.7 58.56 L 712.76 59.43 L 713.85 60.32 L 714.94 61.22 L 716.05 62.12 L 717.17 63.03 L 718.28 63.93 L 719.39 64.83 L 720.48 65.7 L 721.56 66.56 L 722.61 67.4 L 723.63 68.2 L 724.62 68.97 L 725.57 69.7 L 726.47 70.38 L 727.32 71.02 L 728.11 71.59 L 728.84 72.11 L 729.5 72.56 L 730.08 72.94 L 730.59 73.25 L 731.01 73.47 L 731.33 73.61 L 731.56 73.66 L 731.98 73.61 L 732.51 73.47 L 733.13 73.25 L 733.82 72.94 L 734.58 72.57 L 735.38 72.13 L 736.21 71.63 L 737.05 71.08 L 737.89 70.49 L 738.71 69.86 L 739.49 69.19 L 740.21 68.5 L 740.87 67.8 L 741.44 67.08 L 741.91 66.36 L 742.26 65.64 L 742.58 64.87 L 742.98 64.01 L 743.44 63.08 L 743.95 62.1 L 744.51 61.07 L 745.11 60.03 L 745.73 58.98 L 746.37 57.95 L 747.01 56.95 L 747.66 55.99 L 748.3 55.11 L 748.92 54.3 L 749.51 53.6 L 750.07 53.02 L 750.58 52.57 L 751.04 52.27 L 751.29 52.15 L 751.6 51.99 L 751.96 51.81 L 752.38 51.61 L 752.85 51.38 L 753.36 51.14 L 753.92 50.87 L 754.51 50.59 L 755.14 50.3 L 755.8 49.99 L 756.48 49.67 L 757.19 49.35 L 757.91 49.02 L 758.65 48.69 L 759.41 48.35 L 760.16 48.02 L 760.93 47.69 L 761.69 47.37 L 762.45 47.05 L 763.19 46.74 L 763.93 46.45 L 764.65 46.17 L 765.35 45.91 L 766.03 45.66 L 766.68 45.44 L 767.3 45.24 L 767.89 45.06 L 768.43 44.91 L 768.93 44.79 L 769.39 44.7 L 769.79 44.65 L 770.14 44.63 L 770.73 44.7 L 771.2 44.91 L 771.56 45.23 L 771.83 45.64 L 772.02 46.14 L 772.14 46.68 L 772.19 47.27 L 772.2 47.88 L 772.16 48.48 L 772.09 49.07 L 772.01 49.62 L 771.92 50.11 L 771.83 50.52 L 771.75 50.84 L 771.69 51.05 L 771.67 51.12 L 771.7 51.11 L 771.79 51.07 L 771.94 51.01 L 772.14 50.93 L 772.38 50.82 L 772.67 50.7 L 773 50.56 L 773.37 50.41 L 773.78 50.25 L 774.21 50.07 L 774.67 49.89 L 775.16 49.69 L 775.66 49.49 L 776.18 49.29 L 776.72 49.08 L 777.26 48.88 L 777.81 48.67 L 778.36 48.47 L 778.91 48.27 L 779.45 48.08 L 779.98 47.9 L 780.51 47.73 L 781.01 47.56 L 781.5 47.42 L 781.97 47.28 L 782.41 47.17 L 782.81 47.07 L 783.19 46.99 L 783.52 46.94 L 783.82 46.9 L 784.07 46.9 L 784.28 46.92 L 784.6 47.01 L 784.85 47.14 L 785.03 47.31 L 785.17 47.49 L 785.27 47.7 L 785.34 47.91 L 785.39 48.13 L 785.42 48.35 L 785.46 48.56 L 785.51 48.76 L 785.58 48.93 L 785.67 49.07 L 785.81 49.18 L 786 49.24 L 786.25 49.25 L 786.57 49.21 L 786.95 49.11 L 787.36 48.96 L 787.8 48.77 L 788.28 48.54 L 788.78 48.3 L 789.32 48.06 L 789.89 47.82 L 790.49 47.59 L 791.11 47.39 L 791.75 47.23 L 792.43 47.12 L 793.12 47.06 L 793.84 47.08 L 794.58 47.19 L 795.34 47.38 L 796.12 47.69 L 796.8 48.05 L 797.3 48.43 L 797.64 48.83 L 797.86 49.23 L 797.97 49.64 L 798.01 50.06 L 798 50.47 L 797.98 50.88 L 797.98 51.29 L 798.01 51.69 L 798.12 52.09 L 798.32 52.47 L 798.65 52.83 L 799.14 53.17 L 799.82 53.5 L 800.7 53.8 L 801.64 54.04 L 802.44 54.21 L 803.13 54.31 L 803.72 54.35 L 804.22 54.35 L 804.64 54.33 L 805.01 54.28 L 805.33 54.23 L 805.63 54.18 L 805.9 54.14 L 806.17 54.14 L 806.45 54.17 L 806.76 54.26 L 807.1 54.41 L 807.5 54.63 L 807.96 54.94 L 808.19 55.12 L 808.37 55.27 L 808.52 55.42 L 808.62 55.56 L 808.7 55.68 L 808.74 55.8 L 808.76 55.9 L 808.76 55.99 L 808.74 56.08 L 808.7 56.16 L 808.65 56.22 L 808.59 56.29 L 808.53 56.34 L 808.46 56.39 L 808.4 56.43 L 808.34 56.47 L 808.29 56.5 L 808.26 56.53 L 808.24 56.56 L 808.24 56.58 L 808.26 56.61 L 808.31 56.62 L 808.39 56.64 L 808.5 56.66 L 808.65 56.68 L 808.84 56.7 L 809.07 56.72 L 809.35 56.74 L 809.68 56.76 L 810.07 56.79 L 810.51 56.82 L 811.02 56.85 L 812.03 56.92 L 812.91 56.98 L 813.68 57.04 L 814.34 57.1 L 814.9 57.17 L 815.37 57.24 L 815.76 57.33 L 816.08 57.43 L 816.33 57.54 L 816.54 57.68 L 816.7 57.84 L 816.82 58.03 L 816.91 58.26 L 816.99 58.51 L 817.06 58.81 L 817.13 59.14 L 817.15 59.48 L 817.09 59.76 L 816.96 60 L 816.79 60.2 L 816.61 60.36 L 816.43 60.49 L 816.28 60.59 L 816.17 60.67 L 816.14 60.74 L 816.2 60.79 L 816.38 60.83 L 816.7 60.86 L 817.18 60.9 L 817.84 60.94 L 818.71 60.99 L 819.8 61.05 L 820.95 61.11 L 821.97 61.13 L 822.87 61.13 L 823.66 61.11 L 824.37 61.08 L 824.99 61.04 L 825.55 61 L 826.06 60.96 L 826.52 60.93 L 826.96 60.91 L 827.38 60.92 L 827.81 60.95 L 828.24 61.01 L 828.7 61.11 L 829.19 61.25 L 829.73 61.44 L 830.21 61.65 L 830.52 61.88 L 830.69 62.1 L 830.75 62.33 L 830.72 62.54 L 830.63 62.75 L 830.52 62.94 L 830.4 63.11 L 830.31 63.26 L 830.28 63.38 L 830.33 63.47 L 830.49 63.53 L 830.78 63.55 L 831.25 63.53 L 831.91 63.46 L 832.79 63.35 L 833.7 63.18 L 834.45 62.98 L 835.06 62.76 L 835.55 62.52 L 835.94 62.28 L 836.27 62.04 L 836.55 61.82 L 836.8 61.63 L 837.06 61.47 L 837.33 61.35 L 837.66 61.3 L 838.06 61.31 L 838.54 61.39 L 839.15 61.56 L 839.9 61.83 L 840.81 62.2 L 841.81 62.64 L 842.81 63.09 L 843.79 63.55 L 844.76 64.02 L 845.7 64.49 L 846.61 64.96 L 847.48 65.42 L 848.31 65.88 L 849.09 66.32 L 849.81 66.74 L 850.48 67.14 L 851.07 67.52 L 851.59 67.87 L 852.04 68.18 L 852.39 68.46 L 852.65 68.69 L 853.05 69.12 L 853.38 69.54 L 853.64 69.92 L 853.85 70.27 L 854 70.56 L 854.1 70.79 L 854.16 70.93 L 854.18 70.99 L 854.09 70.97 L 853.81 70.94 L 853.39 70.89 L 852.82 70.84 L 852.14 70.78 L 851.36 70.72 L 850.51 70.68 L 849.6 70.65 L 848.65 70.65 L 847.69 70.67 L 846.73 70.73 L 845.8 70.82 L 844.91 70.97 L 844.09 71.17 L 843.35 71.43 L 842.72 71.75 L 842.15 72.11 L 841.6 72.46 L 841.06 72.81 L 840.54 73.15 L 840.04 73.48 L 839.57 73.8 L 839.12 74.1 L 838.71 74.38 L 838.34 74.63 L 838 74.87 L 837.71 75.07 L 837.46 75.24 L 837.26 75.38 L 837.11 75.48 L 837.02 75.55 L 836.99 75.57 L 836.97 75.56 L 836.89 75.54 L 836.77 75.51 L 836.61 75.47 L 836.41 75.44 L 836.19 75.41 L 835.93 75.39 L 835.65 75.38 L 835.36 75.39 L 835.05 75.42 L 834.74 75.48 L 834.41 75.57 L 834.09 75.7 L 833.78 75.86 L 833.47 76.07 L 833.17 76.33 L 832.89 76.63 L 832.6 76.94 L 832.32 77.25 L 832.05 77.58 L 831.79 77.9 L 831.53 78.21 L 831.29 78.52 L 831.07 78.82 L 830.87 79.09 L 830.68 79.35 L 830.52 79.58 L 830.38 79.77 L 830.27 79.93 L 830.19 80.05 L 830.13 80.13 L 830.12 80.15 L 825.53 80.92 L 822.09 84.36 L 822.05 84.38 L 821.91 84.46 L 821.69 84.57 L 821.41 84.73 L 821.06 84.91 L 820.66 85.12 L 820.23 85.35 L 819.76 85.6 L 819.26 85.85 L 818.76 86.11 L 818.25 86.36 L 817.74 86.61 L 817.26 86.85 L 816.79 87.06 L 816.37 87.25 L 815.98 87.41 L 815.69 87.57 L 815.51 87.75 L 815.44 87.95 L 815.45 88.17 L 815.52 88.41 L 815.65 88.65 L 815.81 88.91 L 815.98 89.18 L 816.16 89.45 L 816.32 89.72 L 816.44 89.99 L 816.52 90.26 L 816.53 90.52 L 816.45 90.77 L 816.28 91.01 L 815.98 91.23 L 815.19 91.66 L 814.26 92.09 L 813.25 92.52 L 812.21 92.95 L 811.19 93.38 L 810.24 93.81 L 809.4 94.24 L 808.73 94.67 L 808.22 95.06 L 807.84 95.39 L 807.57 95.66 L 807.39 95.86 L 807.28 96.02 L 807.22 96.12 L 807.2 96.18 L 807.2 96.2 L 814.46 107.66 L 811.78 107.66 L 811.85 107.67 L 812.03 107.7 L 812.33 107.77 L 812.72 107.87 L 813.19 108.01 L 813.74 108.2 L 814.34 108.45 L 814.98 108.76 L 815.66 109.13 L 816.35 109.58 L 817.05 110.11 L 817.74 110.72 L 818.42 111.42 L 819.06 112.23 L 819.65 113.13 L 820.18 114.15 L 820.66 115.21 L 821.07 116.22 L 821.42 117.2 L 821.73 118.12 L 821.99 118.99 L 822.21 119.81 L 822.38 120.57 L 822.53 121.27 L 822.64 121.89 L 822.72 122.45 L 822.78 122.93 L 822.82 123.34 L 822.84 123.66 L 822.85 123.89 L 822.86 124.03 L 822.86 124.08 L 818.66 125.99 L 822.48 135.16 L 820.38 135.92 L 820.41 135.97 L 820.5 136.09 L 820.64 136.29 L 820.82 136.54 L 821.03 136.86 L 821.26 137.21 L 821.51 137.61 L 821.76 138.03 L 822.01 138.46 L 822.24 138.91 L 822.45 139.35 L 822.63 139.79 L 822.77 140.21 L 822.86 140.6 L 822.89 140.96 L 822.86 141.27 L 822.7 141.83 L 822.52 142.33 L 822.33 142.79 L 822.14 143.18 L 821.97 143.5 L 821.84 143.74 L 821.75 143.89 L 821.71 143.95 L 821.73 143.97 L 821.77 144.04 L 821.85 144.15 L 821.94 144.31 L 822.06 144.5 L 822.21 144.73 L 822.37 144.98 L 822.55 145.27 L 822.74 145.58 L 822.95 145.92 L 823.17 146.27 L 823.41 146.65 L 823.64 147.03 L 823.89 147.43 L 824.14 147.83 L 824.39 148.24 L 824.64 148.66 L 824.89 149.07 L 825.13 149.48 L 825.37 149.88 L 825.6 150.27 L 825.82 150.65 L 826.03 151.01 L 826.23 151.36 L 826.4 151.68 L 826.57 151.98 L 826.71 152.26 L 826.83 152.5 L 826.93 152.71 L 827 152.89 L 827.05 153.02 L 827.06 153.11 L 827 153.42 L 826.84 153.76 L 826.63 154.14 L 826.42 154.55 L 826.25 154.99 L 826.17 155.48 L 826.24 156 L 826.49 156.55 L 826.65 156.81 L 826.77 157 L 826.88 157.15 L 826.96 157.26 L 827.04 157.33 L 827.11 157.38 L 827.19 157.42 L 827.28 157.46 L 827.38 157.5 L 827.52 157.55 L 827.7 157.63 L 827.91 157.73 L 828.18 157.88 L 828.5 158.08 L 828.89 158.33 L 829.35 158.65 L 829.8 159.02 L 830.16 159.39 L 830.43 159.77 L 830.62 160.15 L 830.76 160.55 L 830.85 160.95 L 830.9 161.36 L 830.93 161.78 L 830.94 162.2 L 830.95 162.63 L 830.97 163.07 L 831.02 163.51 L 831.09 163.96 L 831.22 164.42 L 831.4 164.87 L 831.64 165.34 L 831.91 165.78 L 832.13 166.16 L 832.32 166.51 L 832.49 166.82 L 832.62 167.1 L 832.74 167.36 L 832.84 167.6 L 832.93 167.84 L 833.02 168.09 L 833.11 168.34 L 833.2 168.61 L 833.31 168.91 L 833.43 169.24 L 833.57 169.61 L 833.74 170.02 L 833.94 170.5 L 834.38 171.47 L 834.84 172.41 L 835.29 173.32 L 835.7 174.22 L 836.07 175.12 L 836.35 176.03 L 836.54 176.97 L 836.61 177.94 L 836.61 182.53 L 836.57 182.48 L 836.43 182.33 L 836.22 182.08 L 835.94 181.76 L 835.58 181.35 L 835.16 180.87 L 834.68 180.33 L 834.15 179.72 L 833.57 179.07 L 832.94 178.36 L 832.28 177.62 L 831.59 176.85 L 830.88 176.05 L 830.14 175.22 L 829.4 174.39 L 828.64 173.55 L 827.88 172.71 L 827.12 171.88 L 826.36 171.06 L 825.62 170.25 L 824.9 169.48 L 824.21 168.74 L 823.54 168.04 L 822.91 167.38 L 822.32 166.78 L 821.78 166.23 L 821.29 165.75 L 820.85 165.35 L 820.48 165.02 L 820.18 164.78 L 819.95 164.63 L 819.8 164.57 L 819.42 164.54 L 819.1 164.47 L 818.83 164.39 L 818.59 164.33 L 818.35 164.33 L 818.11 164.41 L 817.84 164.61 L 817.51 164.96 L 817.19 165.33 L 816.93 165.62 L 816.73 165.82 L 816.58 165.96 L 816.48 166.04 L 816.41 166.08 L 816.37 166.1 L 816.36 166.1 L 816.34 166.08 L 816.29 166.03 L 816.19 165.94 L 816.07 165.82 L 815.91 165.68 L 815.72 165.5 L 815.5 165.3 L 815.26 165.09 L 815 164.85 L 814.72 164.59 L 814.42 164.33 L 814.1 164.05 L 813.77 163.76 L 813.42 163.46 L 813.07 163.16 L 812.71 162.85 L 812.35 162.55 L 811.98 162.25 L 811.61 161.95 L 811.24 161.66 L 810.88 161.38 L 810.53 161.11 L 810.18 160.86 L 809.84 160.62 L 809.51 160.4 L 809.2 160.21 L 808.91 160.03 L 808.63 159.89 L 808.38 159.77 L 808.15 159.68 L 807.95 159.63 L 807.77 159.61 L 807.47 159.63 L 807.22 159.7 L 807 159.81 L 806.81 159.94 L 806.65 160.11 L 806.51 160.3 L 806.38 160.51 L 806.27 160.73 L 806.15 160.96 L 806.03 161.18 L 805.9 161.41 L 805.76 161.62 L 805.59 161.82 L 805.4 162 L 805.17 162.16 L 804.9 162.28 L 804.64 162.38 L 804.42 162.47 L 804.22 162.53 L 804.05 162.58 L 803.89 162.6 L 803.73 162.6 L 803.56 162.58 L 803.38 162.52 L 803.17 162.43 L 802.92 162.31 L 802.62 162.15 L 802.27 161.96 L 801.86 161.72 L 801.37 161.45 L 800.8 161.12 L 800.13 160.75 L 799.51 160.37 L 799.07 160 L 798.78 159.64 L 798.62 159.31 L 798.57 159 L 798.6 158.71 L 798.69 158.45 L 798.82 158.22 L 798.95 158.02 L 799.08 157.86 L 799.16 157.73 L 799.19 157.64 L 799.13 157.59 L 798.97 157.58 L 798.67 157.61 L 798.22 157.7 L 797.73 157.82 L 797.34 157.96 L 797.02 158.12 L 796.77 158.28 L 796.58 158.45 L 796.43 158.62 L 796.31 158.79 L 796.22 158.94 L 796.13 159.07 L 796.04 159.18 L 795.93 159.26 L 795.8 159.31 L 795.63 159.32 L 795.42 159.28 L 795.14 159.18 L 794.78 159.04 L 794.4 158.87 L 794.05 158.73 L 793.72 158.62 L 793.41 158.51 L 793.12 158.42 L 792.83 158.33 L 792.55 158.25 L 792.28 158.15 L 792 158.05 L 791.71 157.93 L 791.41 157.78 L 791.1 157.61 L 790.77 157.41 L 790.42 157.17 L 790.04 156.88 L 789.63 156.55 L 789.22 156.21 L 788.87 155.88 L 788.56 155.58 L 788.3 155.31 L 788.08 155.07 L 787.89 154.86 L 787.74 154.67 L 787.62 154.52 L 787.53 154.4 L 787.45 154.32 L 787.4 154.28 L 787.37 154.27 L 787.35 154.3 L 787.34 154.37 L 787.33 154.48 L 787.33 154.64 L 787.31 154.89 L 787.23 155.27 L 787.12 155.75 L 786.98 156.33 L 786.8 156.97 L 786.61 157.66 L 786.4 158.38 L 786.19 159.11 L 785.97 159.82 L 785.77 160.51 L 785.57 161.14 L 785.4 161.71 L 785.25 162.18 L 785.14 162.54 L 785.07 162.77 L 785.04 162.85 L 784.94 162.82 L 784.63 162.74 L 784.16 162.59 L 783.54 162.4 L 782.8 162.16 L 781.96 161.89 L 781.04 161.58 L 780.08 161.23 L 779.08 160.86 L 778.08 160.47 L 777.11 160.06 L 776.18 159.63 L 775.32 159.2 L 774.55 158.76 L 773.9 158.32 L 773.39 157.89 L 772.57 157.06 L 771.83 156.29 L 771.18 155.58 L 770.62 154.95 L 770.18 154.4 L 769.85 153.94 L 769.64 153.57 L 769.57 153.31 L 769.54 153.07 L 769.45 152.82 L 769.33 152.57 L 769.19 152.33 L 769.05 152.11 L 768.93 151.94 L 768.84 151.82 L 768.81 151.78 L 768.75 151.84 L 768.58 152.02 L 768.33 152.26 L 768.02 152.54 L 767.66 152.82 L 767.28 153.07 L 766.89 153.24 L 766.51 153.31 L 766.36 153.33 L 766.23 153.39 L 766.13 153.48 L 766.05 153.59 L 765.96 153.7 L 765.87 153.81 L 765.77 153.9 L 765.63 153.97 L 765.46 154.01 L 765.24 154 L 764.96 153.93 L 764.61 153.79 L 764.18 153.57 L 763.66 153.27 L 763.04 152.86 L 762.31 152.35 L 761.52 151.79 L 760.7 151.24 L 759.89 150.72 L 759.08 150.21 L 758.28 149.73 L 757.51 149.26 L 756.76 148.83 L 756.06 148.41 L 755.4 148.02 L 754.81 147.66 L 754.28 147.32 L 753.83 147.01 L 753.46 146.72 L 753.18 146.47 L 753.01 146.24 L 752.95 146.05 L 752.99 145.7 L 753.06 145.39 L 753.16 145.12 L 753.24 144.92 L 753.29 144.81 L 753.28 144.78 L 753.17 144.87 L 752.95 145.09 L 752.87 145.19 L 752.76 145.35 L 752.62 145.57 L 752.46 145.83 L 752.27 146.14 L 752.07 146.49 L 751.85 146.87 L 751.62 147.29 L 751.37 147.75 L 751.11 148.22 L 750.84 148.72 L 750.56 149.24 L 750.28 149.76 L 750 150.3 L 749.71 150.85 L 749.42 151.4 L 749.14 151.94 L 748.86 152.48 L 748.58 153.01 L 748.31 153.52 L 748.06 154.02 L 747.81 154.49 L 747.58 154.94 L 747.37 155.35 L 747.17 155.74 L 746.99 156.08 L 746.84 156.38 L 746.71 156.64 L 746.6 156.85 L 746.53 157 L 746.48 157.09 L 746.46 157.13 L 745.32 156.55 L 745.3 156.65 L 745.25 156.94 L 745.17 157.39 L 745.06 157.99 L 744.93 158.7 L 744.77 159.5 L 744.6 160.38 L 744.41 161.3 L 744.2 162.25 L 743.99 163.2 L 743.77 164.13 L 743.54 165.01 L 743.31 165.83 L 743.08 166.55 L 742.86 167.16 L 742.64 167.63 L 742.43 167.98 L 742.22 168.26 L 742.02 168.48 L 741.83 168.66 L 741.65 168.79 L 741.47 168.91 L 741.31 169.01 L 741.16 169.11 L 741.02 169.23 L 740.9 169.37 L 740.8 169.55 L 740.71 169.78 L 740.64 170.07 L 740.58 170.44 L 740.55 170.9 L 740.54 171.45 L 740.54 177.18 L 740.53 177.79 L 740.49 178.42 L 740.43 179.04 L 740.36 179.65 L 740.27 180.26 L 740.18 180.84 L 740.07 181.4 L 739.97 181.93 L 739.86 182.42 L 739.76 182.87 L 739.66 183.26 L 739.57 183.6 L 739.5 183.87 L 739.44 184.08 L 739.41 184.2 L 739.39 184.25 L 739.37 184.21 L 739.29 184.09 L 739.17 183.91 L 739 183.66 L 738.8 183.34 L 738.55 182.97 L 738.27 182.55 L 737.96 182.07 L 737.62 181.56 L 737.25 181 L 736.86 180.4 L 736.44 179.77 L 736.01 179.12 L 735.57 178.44 L 735.11 177.75 L 734.64 177.04 L 734.17 176.32 L 733.69 175.59 L 733.22 174.86 L 732.74 174.14 L 732.28 173.42 L 731.82 172.71 L 731.37 172.02 L 730.93 171.35 L 730.52 170.71 L 730.12 170.09 L 729.74 169.51 L 729.39 168.97 L 729.07 168.46 L 728.79 168.01 L 728.53 167.6 L 728.32 167.25 L 727.95 166.62 L 727.64 166.03 L 727.38 165.48 L 727.16 164.96 L 726.99 164.48 L 726.85 164.04 L 726.74 163.64 L 726.67 163.28 L 726.62 162.96 L 726.59 162.69 L 726.57 162.45 L 726.57 162.25 L 726.58 162.1 L 726.59 161.99 L 726.59 161.92 L 726.6 161.9 L 724.88 162.28 L 724.85 162.29 L 724.79 162.3 L 724.68 162.31 L 724.53 162.31 L 724.35 162.3 L 724.14 162.26 L 723.91 162.2 L 723.66 162.09 L 723.39 161.94 L 723.12 161.74 L 722.83 161.48 L 722.54 161.15 L 722.25 160.75 L 721.97 160.27 L 721.7 159.7 L 721.44 159.04 L 721.18 158.28 L 720.92 157.47 L 720.64 156.6 L 720.36 155.7 L 720.08 154.78 L 719.8 153.85 L 719.53 152.92 L 719.27 152.02 L 719.01 151.14 L 718.77 150.31 L 718.55 149.53 L 718.35 148.83 L 718.17 148.21 L 718.02 147.69 L 717.9 147.28 L 717.81 147 L 717.68 146.6 L 717.58 146.25 L 717.48 145.95 L 717.38 145.71 L 717.26 145.52 L 717.11 145.39 L 716.92 145.31 L 716.67 145.28 L 716.41 145.34 L 716.21 145.49 L 716.05 145.69 L 715.9 145.9 L 715.75 146.1 L 715.59 146.25 L 715.39 146.31 L 715.14 146.24 L 714.98 146.18 L 714.81 146.13 L 714.62 146.1 L 714.42 146.07 L 714.22 146.03 L 714.01 145.99 L 713.79 145.93 L 713.59 145.86 L 713.38 145.75 L 713.19 145.62 L 713.01 145.44 L 712.85 145.22 L 712.72 144.94 L 712.6 144.61 L 712.52 144.22 L 712.46 143.76 L 712.45 143.46 L 712.46 143.08 L 712.47 142.62 L 712.5 142.09 L 712.53 141.49 L 712.58 140.83 L 712.64 140.11 L 712.7 139.35 L 712.77 138.54 L 712.84 137.69 L 712.92 136.81 L 713 135.9 L 713.09 134.98 L 713.18 134.03 L 713.26 133.08 L 713.35 132.13 L 713.43 131.18 L 713.51 130.24 L 713.59 129.31 L 713.66 128.4 L 713.73 127.52 L 713.79 126.67 L 713.84 125.86 L 713.89 125.09 L 713.92 124.37 L 713.94 123.71 L 713.96 123.11 L 713.95 122.57 L 713.94 122.11 L 713.91 121.73 L 713.86 121.43 L 713.8 121.22 L 713.53 120.65 L 713.3 120.22 L 713.1 119.92 L 712.94 119.71 L 712.82 119.59 L 712.73 119.53 L 712.67 119.5 L 712.65 119.5 L 712.61 119.51 L 712.5 119.55 L 712.32 119.6 L 712.08 119.66 L 711.81 119.74 L 711.5 119.81 L 711.16 119.88 L 710.82 119.95 L 710.47 120.01 L 710.13 120.05 L 709.81 120.07 L 709.51 120.06 L 709.26 120.03 L 709.05 119.96 L 708.91 119.84 L 708.83 119.69 L 708.78 119.5 L 708.68 119.29 L 708.54 119.06 L 708.39 118.81 L 708.22 118.54 L 708.05 118.26 L 707.87 117.97 L 707.71 117.66 L 707.57 117.34 L 707.46 117.01 L 707.39 116.68 L 707.36 116.33 L 707.38 115.98 L 707.47 115.63 L 707.64 115.27 L 707.88 114.92 L 708.17 114.55 L 708.47 114.17 L 708.76 113.78 L 709.06 113.39 L 709.35 113.01 L 709.64 112.63 L 709.91 112.26 L 710.17 111.91 L 710.41 111.58 L 710.63 111.28 L 710.83 111.01 L 711 110.78 L 711.13 110.59 L 711.23 110.45 L 711.3 110.36 L 711.32 110.33 L 708.64 110.33 L 708.67 110.3 L 708.74 110.22 L 708.84 110.09 L 708.99 109.91 L 709.18 109.69 L 709.39 109.43 L 709.63 109.13 L 709.9 108.79 L 710.19 108.43 L 710.5 108.04 L 710.83 107.63 L 711.16 107.2 L 711.51 106.75 L 711.86 106.29 L 712.21 105.82 L 712.56 105.34 L 712.91 104.86 L 713.24 104.38 L 713.57 103.91 L 713.88 103.44 L 714.18 102.98 L 714.46 102.54 L 714.71 102.11 L 714.93 101.71 L 715.12 101.33 L 715.28 100.98 L 715.4 100.66 L 715.48 100.37 L 715.52 100.12 L 715.51 99.91 L 715.44 99.75 L 715.33 99.64 L 715.06 99.48 L 714.82 99.37 L 714.6 99.29 L 714.41 99.23 L 714.24 99.2 L 714.08 99.18 L 713.95 99.16 L 713.82 99.13 L 713.71 99.1 L 713.61 99.05 L 713.51 98.97 L 713.42 98.86 L 713.33 98.7 L 713.24 98.5 L 713.14 98.24 L 713.04 97.92 L 712.92 97.18 L 713 96.4 L 713.25 95.6 L 713.63 94.79 L 714.14 93.99 L 714.73 93.22 L 715.39 92.48 L 716.09 91.8 L 716.3 91.61 L 716.56 91.36 L 716.88 91.06 L 717.24 90.71 L 717.64 90.32 L 718.09 89.88 L 718.57 89.41 L 719.08 88.9 L 719.61 88.37 L 720.17 87.81 L 720.75 87.23 L 721.34 86.64 L 721.95 86.03 L 722.56 85.42 L 723.17 84.8 L 723.78 84.19 L 724.39 83.58 L 724.98 82.98 L 725.56 82.39 L 726.13 81.82 L 726.67 81.27 L 727.19 80.75 L 727.67 80.26 L 728.13 79.8 L 728.54 79.38 L 728.91 79 L 729.24 78.67 L 729.51 78.39 L 729.74 78.17 L 729.9 78 L 730 77.9 L 730.04 77.86 L 729.84 75.76 L 729.81 75.74 L 729.72 75.67 L 729.57 75.56 L 729.36 75.4 L 729.09 75.2 L 728.77 74.96 L 728.4 74.69 L 727.97 74.37 L 727.5 74.02 L 726.99 73.64 L 726.43 73.22 L 725.83 72.78 L 725.18 72.3 L 724.51 71.8 L 723.79 71.26 L 723.04 70.71 L 722.26 70.12 L 721.45 69.52 L 720.61 68.9 L 719.74 68.25 L 718.86 67.59 L 717.95 66.91 L 717.01 66.22 L 716.07 65.51 L 715.1 64.79 L 714.12 64.06 L 713.13 63.32 L 712.13 62.57 L 711.12 61.81 L 710.11 61.05 L 709.09 60.29 L 708.07 59.53 L 707.05 58.76 L 706.03 58 L 705.02 57.23 L 704.01 56.48 L 703.01 55.72 L 702.02 54.98 L 701.04 54.24 L 700.08 53.51 L 699.13 52.79 L 698.2 52.09 L 697.29 51.4 L 696.4 50.72 L 695.53 50.06 L 694.69 49.42 L 693.88 48.8 L 693.1 48.2 L 692.35 47.63 L 691.64 47.08 L 690.96 46.55 L 690.32 46.05 L 689.71 45.58 L 689.15 45.14 L 688.64 44.73 L 688.17 44.36 L 687.75 44.02 L 687.37 43.71 L 687.05 43.44 L 686.79 43.22 L 686.58 43.03 L 686.42 42.88 L 686.33 42.78 L 686.3 42.72 L 686.22 42.58 L 686.01 42.32 L 685.66 41.93 L 685.18 41.44 L 684.59 40.84 L 683.9 40.15 L 683.1 39.37 L 682.23 38.51 L 681.27 37.58 L 680.25 36.6 L 679.17 35.55 L 678.04 34.47 L 676.87 33.34 L 675.67 32.19 L 674.45 31.01 L 673.21 29.83 L 671.98 28.63 L 670.75 27.45 L 669.54 26.27 L 668.35 25.11 L 667.2 23.99 L 666.1 22.9 L 665.05 21.85 L 664.06 20.86 L 663.14 19.92 L 662.31 19.06 L 661.57 18.27 L 660.93 17.57 L 660.4 16.97 L 659.98 16.46 L 659.7 16.07 L 659.56 15.79 L 659.41 15.34 L 659.26 14.88 L 659.1 14.39 L 658.94 13.9 L 658.78 13.41 L 658.63 12.93 L 658.48 12.46 L 658.34 12.02 L 658.21 11.6 L 658.1 11.23 L 658 10.9 L 657.92 10.63 L 657.86 10.42 L 657.83 10.28 L 657.82 10.22 L 657.84 10.25 L 657.84 10.25 L 657.84 10.25 Z" fill-rule="nonzero"/>
          </g>
        </g>
      </g>
      <defs>
        <linearGradient id="gridSVG.gradientFill.15.1" x1="0" x2="1" y1="0" y2="1" gradientUnits="objectBoundingBox" spreadMethod="pad">
          <stop offset="0" stop-color="rgb(0,0,0)" stop-opacity="1"/>
          <stop offset="0.5" stop-color="rgb(255,0,0)" stop-opacity="1"/>
          <stop offset="1" stop-color="rgb(255,255,0)" stop-opacity="1"/>
        </linearGradient>
        <linearGradient id="gridSVG.gradientFill.16.1" x1="0" x2="1" y1="0" y2="1" gradientUnits="objectBoundingBox" spreadMethod="pad">
          <stop offset="0" stop-color="rgb(0,0,0)" stop-opacity="1"/>
          <stop offset="0.5" stop-color="rgb(255,0,0)" stop-opacity="1"/>
          <stop offset="1" stop-color="rgb(255,255,0)" stop-opacity="1"/>
        </linearGradient>
        <filter id="gridSVG.filter.5.1" x="216" y="0" width="216" height="216" filterUnits="userSpaceOnUse" primitiveUnits="userSpaceOnUse">
          <feComposite x="216" y="0" width="216" height="216" operator="over" in="SourceAlpha"/>
        </filter>
        <linearGradient id="gridSVG.gradientFill.17.1" x1="0" x2="1" y1="0" y2="1" gradientUnits="objectBoundingBox" spreadMethod="pad">
          <stop offset="0" stop-color="rgb(0,0,0)" stop-opacity="1"/>
          <stop offset="0.5" stop-color="rgb(255,0,0)" stop-opacity="1"/>
          <stop offset="1" stop-color="rgb(255,255,0)" stop-opacity="1"/>
        </linearGradient>
        <filter id="gridSVG.filter.6.1" x="432" y="0" width="216" height="216" filterUnits="userSpaceOnUse" primitiveUnits="userSpaceOnUse">
          <feGaussianBlur x="432" y="0" width="216" height="216" result="blur" stdDeviation="5" in="SourceAlpha"/>
        </filter>
        <linearGradient id="gridSVG.gradientFill.18.1" x1="0" x2="1" y1="0" y2="1" gradientUnits="objectBoundingBox" spreadMethod="pad">
          <stop offset="0" stop-color="rgb(0,0,0)" stop-opacity="1"/>
          <stop offset="0.5" stop-color="rgb(255,0,0)" stop-opacity="1"/>
          <stop offset="1" stop-color="rgb(255,255,0)" stop-opacity="1"/>
        </linearGradient>
        <filter id="gridSVG.filter.7.1" x="648" y="0" width="216" height="216" filterUnits="userSpaceOnUse" primitiveUnits="userSpaceOnUse">
          <feGaussianBlur x="648" y="0" width="216" height="216" result="blur" stdDeviation="5" in="SourceAlpha"/>
          <feOffset x="648" y="0" width="216" height="216" dx="8.5" dy="-8.5" in="blur"/>
        </filter>
      </defs>
    </g>
  </g>
</svg>
