<?xml version="1.0" encoding="ASCII"?>
<svg xmlns="http://www.w3.org/2000/svg" xmlns:xlink="http://www.w3.org/1999/xlink" width="400px" height="400px" viewBox="0 0 216 216" version="1.1">
  <metadata xmlns:gridsvg="http://www.stat.auckland.ac.nz/~paul/R/gridSVG/">
    <gridsvg:generator name="gridSVG" version="1.2-0" time="2013-06-07 16:33:43"/>
    <gridsvg:argument name="name" value="leaf-drop.svg"/>
    <gridsvg:argument name="exportCoords" value="none"/>
    <gridsvg:argument name="exportMappings" value="none"/>
    <gridsvg:argument name="exportJS" value="none"/>
    <gridsvg:argument name="res" value="72"/>
    <gridsvg:argument name="prefix" value=""/>
    <gridsvg:argument name="addClasses" value="FALSE"/>
    <gridsvg:argument name="indent" value="TRUE"/>
    <gridsvg:argument name="htmlWrapper" value="FALSE"/>
    <gridsvg:argument name="usePaths" value="vpPaths"/>
    <gridsvg:argument name="uniqueNames" value="TRUE"/>
    <gridsvg:separator name="id.sep" value="."/>
    <gridsvg:separator name="gPath.sep" value="::"/>
    <gridsvg:separator name="vpPath.sep" value="::"/>
  </metadata>
  <g transform="translate(0, 216) scale(1, -1)">
    <g id="gridSVG" fill="none" stroke="rgb(0,0,0)" stroke-dasharray="none" stroke-width="1" font-size="12" font-family="Helvetica, Arial, FreeSans, Liberation Sans, Nimbus Sans L, sans-serif" opacity="1" stroke-linecap="round" stroke-linejoin="round" stroke-miterlimit="10" stroke-opacity="1" fill-opacity="0" font-weight="normal" font-style="normal">
      <g id="lvp.1">
        <g id="leaf-shadow.1" filter="url(#gridSVG.filter.8.1)" fill="url(#gridSVG.gradientFill.19.1)" fill-opacity="1">
          <path id="leaf-shadow.1.1" d="M 9.84 10.25 L 15.57 9.87 L 15.57 9.9 L 15.56 9.99 L 15.55 10.14 L 15.55 10.34 L 15.56 10.59 L 15.59 10.89 L 15.64 11.24 L 15.71 11.63 L 15.82 12.07 L 15.96 12.53 L 16.14 13.04 L 16.37 13.57 L 16.66 14.14 L 16.99 14.73 L 17.39 15.34 L 17.86 15.98 L 18.19 16.37 L 18.66 16.9 L 19.28 17.55 L 20.02 18.32 L 20.88 19.2 L 21.86 20.18 L 22.93 21.25 L 24.1 22.4 L 25.35 23.63 L 26.67 24.92 L 28.06 26.27 L 29.51 27.66 L 31 29.1 L 32.53 30.56 L 34.09 32.05 L 35.67 33.55 L 37.26 35.06 L 38.85 36.56 L 40.43 38.04 L 41.99 39.51 L 43.53 40.95 L 45.03 42.34 L 46.49 43.69 L 47.89 44.99 L 49.23 46.21 L 50.49 47.37 L 51.68 48.44 L 52.77 49.42 L 53.77 50.31 L 54.65 51.08 L 55.42 51.74 L 56.06 52.27 L 56.67 52.77 L 57.36 53.33 L 58.11 53.94 L 58.92 54.61 L 59.79 55.33 L 60.7 56.09 L 61.67 56.88 L 62.67 57.71 L 63.7 58.56 L 64.76 59.43 L 65.85 60.32 L 66.94 61.22 L 68.05 62.12 L 69.17 63.03 L 70.28 63.93 L 71.39 64.83 L 72.48 65.7 L 73.56 66.56 L 74.61 67.4 L 75.63 68.2 L 76.62 68.97 L 77.57 69.7 L 78.47 70.38 L 79.32 71.02 L 80.11 71.59 L 80.84 72.11 L 81.5 72.56 L 82.08 72.94 L 82.59 73.25 L 83.01 73.47 L 83.33 73.61 L 83.56 73.66 L 83.98 73.61 L 84.51 73.47 L 85.13 73.25 L 85.82 72.94 L 86.58 72.57 L 87.38 72.13 L 88.21 71.63 L 89.05 71.08 L 89.89 70.49 L 90.71 69.86 L 91.49 69.19 L 92.21 68.5 L 92.87 67.8 L 93.44 67.08 L 93.91 66.36 L 94.26 65.64 L 94.58 64.87 L 94.98 64.01 L 95.44 63.08 L 95.95 62.1 L 96.51 61.07 L 97.11 60.03 L 97.73 58.98 L 98.37 57.95 L 99.01 56.95 L 99.66 55.99 L 100.3 55.11 L 100.92 54.3 L 101.51 53.6 L 102.07 53.02 L 102.58 52.57 L 103.04 52.27 L 103.29 52.15 L 103.6 51.99 L 103.96 51.81 L 104.38 51.61 L 104.85 51.38 L 105.36 51.14 L 105.92 50.87 L 106.51 50.59 L 107.14 50.3 L 107.8 49.99 L 108.48 49.67 L 109.19 49.35 L 109.91 49.02 L 110.65 48.69 L 111.41 48.35 L 112.16 48.02 L 112.93 47.69 L 113.69 47.37 L 114.45 47.05 L 115.19 46.74 L 115.93 46.45 L 116.65 46.17 L 117.35 45.91 L 118.03 45.66 L 118.68 45.44 L 119.3 45.24 L 119.89 45.06 L 120.43 44.91 L 120.93 44.79 L 121.39 44.7 L 121.79 44.65 L 122.14 44.63 L 122.73 44.7 L 123.2 44.91 L 123.56 45.23 L 123.83 45.64 L 124.02 46.14 L 124.14 46.68 L 124.19 47.27 L 124.2 47.88 L 124.16 48.48 L 124.09 49.07 L 124.01 49.62 L 123.92 50.11 L 123.83 50.52 L 123.75 50.84 L 123.69 51.05 L 123.67 51.12 L 123.7 51.11 L 123.79 51.07 L 123.94 51.01 L 124.14 50.93 L 124.38 50.82 L 124.67 50.7 L 125 50.56 L 125.37 50.41 L 125.78 50.25 L 126.21 50.07 L 126.67 49.89 L 127.16 49.69 L 127.66 49.49 L 128.18 49.29 L 128.72 49.08 L 129.26 48.88 L 129.81 48.67 L 130.36 48.47 L 130.91 48.27 L 131.45 48.08 L 131.98 47.9 L 132.51 47.73 L 133.01 47.56 L 133.5 47.42 L 133.97 47.28 L 134.41 47.17 L 134.81 47.07 L 135.19 46.99 L 135.52 46.94 L 135.82 46.9 L 136.07 46.9 L 136.28 46.92 L 136.6 47.01 L 136.85 47.14 L 137.03 47.31 L 137.17 47.49 L 137.27 47.7 L 137.34 47.91 L 137.39 48.13 L 137.42 48.35 L 137.46 48.56 L 137.51 48.76 L 137.58 48.93 L 137.67 49.07 L 137.81 49.18 L 138 49.24 L 138.25 49.25 L 138.57 49.21 L 138.95 49.11 L 139.36 48.96 L 139.8 48.77 L 140.28 48.54 L 140.78 48.3 L 141.32 48.06 L 141.89 47.82 L 142.49 47.59 L 143.11 47.39 L 143.75 47.23 L 144.43 47.12 L 145.12 47.06 L 145.84 47.08 L 146.58 47.19 L 147.34 47.38 L 148.12 47.69 L 148.8 48.05 L 149.3 48.43 L 149.64 48.83 L 149.86 49.23 L 149.97 49.64 L 150.01 50.06 L 150 50.47 L 149.98 50.88 L 149.98 51.29 L 150.01 51.69 L 150.12 52.09 L 150.32 52.47 L 150.65 52.83 L 151.14 53.17 L 151.82 53.5 L 152.7 53.8 L 153.64 54.04 L 154.44 54.21 L 155.13 54.31 L 155.72 54.35 L 156.22 54.35 L 156.64 54.33 L 157.01 54.28 L 157.33 54.23 L 157.63 54.18 L 157.9 54.14 L 158.17 54.14 L 158.45 54.17 L 158.76 54.26 L 159.1 54.41 L 159.5 54.63 L 159.96 54.94 L 160.19 55.12 L 160.37 55.27 L 160.52 55.42 L 160.62 55.56 L 160.7 55.68 L 160.74 55.8 L 160.76 55.9 L 160.76 55.99 L 160.74 56.08 L 160.7 56.16 L 160.65 56.22 L 160.59 56.29 L 160.53 56.34 L 160.46 56.39 L 160.4 56.43 L 160.34 56.47 L 160.29 56.5 L 160.26 56.53 L 160.24 56.56 L 160.24 56.58 L 160.26 56.61 L 160.31 56.62 L 160.39 56.64 L 160.5 56.66 L 160.65 56.68 L 160.84 56.7 L 161.07 56.72 L 161.35 56.74 L 161.68 56.76 L 162.07 56.79 L 162.51 56.82 L 163.02 56.85 L 164.03 56.92 L 164.91 56.98 L 165.68 57.04 L 166.34 57.1 L 166.9 57.17 L 167.37 57.24 L 167.76 57.33 L 168.08 57.43 L 168.33 57.54 L 168.54 57.68 L 168.7 57.84 L 168.82 58.03 L 168.91 58.26 L 168.99 58.51 L 169.06 58.81 L 169.13 59.14 L 169.15 59.48 L 169.09 59.76 L 168.96 60 L 168.79 60.2 L 168.61 60.36 L 168.43 60.49 L 168.28 60.59 L 168.17 60.67 L 168.14 60.74 L 168.2 60.79 L 168.38 60.83 L 168.7 60.86 L 169.18 60.9 L 169.84 60.94 L 170.71 60.99 L 171.8 61.05 L 172.95 61.11 L 173.97 61.13 L 174.87 61.13 L 175.66 61.11 L 176.37 61.08 L 176.99 61.04 L 177.55 61 L 178.06 60.96 L 178.52 60.93 L 178.96 60.91 L 179.38 60.92 L 179.81 60.95 L 180.24 61.01 L 180.7 61.11 L 181.19 61.25 L 181.73 61.44 L 182.21 61.65 L 182.52 61.88 L 182.69 62.1 L 182.75 62.33 L 182.72 62.54 L 182.63 62.75 L 182.52 62.94 L 182.4 63.11 L 182.31 63.26 L 182.28 63.38 L 182.33 63.47 L 182.49 63.53 L 182.78 63.55 L 183.25 63.53 L 183.91 63.46 L 184.79 63.35 L 185.7 63.18 L 186.45 62.98 L 187.06 62.76 L 187.55 62.52 L 187.94 62.28 L 188.27 62.04 L 188.55 61.82 L 188.8 61.63 L 189.06 61.47 L 189.33 61.35 L 189.66 61.3 L 190.06 61.31 L 190.54 61.39 L 191.15 61.56 L 191.9 61.83 L 192.81 62.2 L 193.81 62.64 L 194.81 63.09 L 195.79 63.55 L 196.76 64.02 L 197.7 64.49 L 198.61 64.96 L 199.48 65.42 L 200.31 65.88 L 201.09 66.32 L 201.81 66.74 L 202.48 67.14 L 203.07 67.52 L 203.59 67.87 L 204.04 68.18 L 204.39 68.46 L 204.65 68.69 L 205.05 69.12 L 205.38 69.54 L 205.64 69.92 L 205.85 70.27 L 206 70.56 L 206.1 70.79 L 206.16 70.93 L 206.18 70.99 L 206.09 70.97 L 205.81 70.94 L 205.39 70.89 L 204.82 70.84 L 204.14 70.78 L 203.36 70.72 L 202.51 70.68 L 201.6 70.65 L 200.65 70.65 L 199.69 70.67 L 198.73 70.73 L 197.8 70.82 L 196.91 70.97 L 196.09 71.17 L 195.35 71.43 L 194.72 71.75 L 194.15 72.11 L 193.6 72.46 L 193.06 72.81 L 192.54 73.15 L 192.04 73.48 L 191.57 73.8 L 191.12 74.1 L 190.71 74.38 L 190.34 74.63 L 190 74.87 L 189.71 75.07 L 189.46 75.24 L 189.26 75.38 L 189.11 75.48 L 189.02 75.55 L 188.99 75.57 L 188.97 75.56 L 188.89 75.54 L 188.77 75.51 L 188.61 75.47 L 188.41 75.44 L 188.19 75.41 L 187.93 75.39 L 187.65 75.38 L 187.36 75.39 L 187.05 75.42 L 186.74 75.48 L 186.41 75.57 L 186.09 75.7 L 185.78 75.86 L 185.47 76.07 L 185.17 76.33 L 184.89 76.63 L 184.6 76.94 L 184.32 77.25 L 184.05 77.58 L 183.79 77.9 L 183.53 78.21 L 183.29 78.52 L 183.07 78.82 L 182.87 79.09 L 182.68 79.35 L 182.52 79.58 L 182.38 79.77 L 182.27 79.93 L 182.19 80.05 L 182.13 80.13 L 182.12 80.15 L 177.53 80.92 L 174.09 84.36 L 174.05 84.38 L 173.91 84.46 L 173.69 84.57 L 173.41 84.73 L 173.06 84.91 L 172.66 85.12 L 172.23 85.35 L 171.76 85.6 L 171.26 85.85 L 170.76 86.11 L 170.25 86.36 L 169.74 86.61 L 169.26 86.85 L 168.79 87.06 L 168.37 87.25 L 167.98 87.41 L 167.69 87.57 L 167.51 87.75 L 167.44 87.95 L 167.45 88.17 L 167.52 88.41 L 167.65 88.65 L 167.81 88.91 L 167.98 89.18 L 168.16 89.45 L 168.32 89.72 L 168.44 89.99 L 168.52 90.26 L 168.53 90.52 L 168.45 90.77 L 168.28 91.01 L 167.98 91.23 L 167.19 91.66 L 166.26 92.09 L 165.25 92.52 L 164.21 92.95 L 163.19 93.38 L 162.24 93.81 L 161.4 94.24 L 160.73 94.67 L 160.22 95.06 L 159.84 95.39 L 159.57 95.66 L 159.39 95.86 L 159.28 96.02 L 159.22 96.12 L 159.2 96.18 L 159.2 96.2 L 166.46 107.66 L 163.78 107.66 L 163.85 107.67 L 164.03 107.7 L 164.33 107.77 L 164.72 107.87 L 165.19 108.01 L 165.74 108.2 L 166.34 108.45 L 166.98 108.76 L 167.66 109.13 L 168.35 109.58 L 169.05 110.11 L 169.74 110.72 L 170.42 111.42 L 171.06 112.23 L 171.65 113.13 L 172.18 114.15 L 172.66 115.21 L 173.07 116.22 L 173.42 117.2 L 173.73 118.12 L 173.99 118.99 L 174.21 119.81 L 174.38 120.57 L 174.53 121.27 L 174.64 121.89 L 174.72 122.45 L 174.78 122.93 L 174.82 123.34 L 174.84 123.66 L 174.85 123.89 L 174.86 124.03 L 174.86 124.08 L 170.66 125.99 L 174.48 135.16 L 172.38 135.92 L 172.41 135.97 L 172.5 136.09 L 172.64 136.29 L 172.82 136.54 L 173.03 136.86 L 173.26 137.21 L 173.51 137.61 L 173.76 138.03 L 174.01 138.46 L 174.24 138.91 L 174.45 139.35 L 174.63 139.79 L 174.77 140.21 L 174.86 140.6 L 174.89 140.96 L 174.86 141.27 L 174.7 141.83 L 174.52 142.33 L 174.33 142.79 L 174.14 143.18 L 173.97 143.5 L 173.84 143.74 L 173.75 143.89 L 173.71 143.95 L 173.73 143.97 L 173.77 144.04 L 173.85 144.15 L 173.94 144.31 L 174.06 144.5 L 174.21 144.73 L 174.37 144.98 L 174.55 145.27 L 174.74 145.58 L 174.95 145.92 L 175.17 146.27 L 175.41 146.65 L 175.64 147.03 L 175.89 147.43 L 176.14 147.83 L 176.39 148.24 L 176.64 148.66 L 176.89 149.07 L 177.13 149.48 L 177.37 149.88 L 177.6 150.27 L 177.82 150.65 L 178.03 151.01 L 178.23 151.36 L 178.4 151.68 L 178.57 151.98 L 178.71 152.26 L 178.83 152.5 L 178.93 152.71 L 179 152.89 L 179.05 153.02 L 179.06 153.11 L 179 153.42 L 178.84 153.76 L 178.63 154.14 L 178.42 154.55 L 178.25 154.99 L 178.17 155.48 L 178.24 156 L 178.49 156.55 L 178.65 156.81 L 178.77 157 L 178.88 157.15 L 178.96 157.26 L 179.04 157.33 L 179.11 157.38 L 179.19 157.42 L 179.28 157.46 L 179.38 157.5 L 179.52 157.55 L 179.7 157.63 L 179.91 157.73 L 180.18 157.88 L 180.5 158.08 L 180.89 158.33 L 181.35 158.65 L 181.8 159.02 L 182.16 159.39 L 182.43 159.77 L 182.62 160.15 L 182.76 160.55 L 182.85 160.95 L 182.9 161.36 L 182.93 161.78 L 182.94 162.2 L 182.95 162.63 L 182.97 163.07 L 183.02 163.51 L 183.09 163.96 L 183.22 164.42 L 183.4 164.87 L 183.64 165.34 L 183.91 165.78 L 184.13 166.16 L 184.32 166.51 L 184.49 166.82 L 184.62 167.1 L 184.74 167.36 L 184.84 167.6 L 184.93 167.84 L 185.02 168.09 L 185.11 168.34 L 185.2 168.61 L 185.31 168.91 L 185.43 169.24 L 185.57 169.61 L 185.74 170.02 L 185.94 170.5 L 186.38 171.47 L 186.84 172.41 L 187.29 173.32 L 187.7 174.22 L 188.07 175.12 L 188.35 176.03 L 188.54 176.97 L 188.61 177.94 L 188.61 182.53 L 188.57 182.48 L 188.43 182.33 L 188.22 182.08 L 187.94 181.76 L 187.58 181.35 L 187.16 180.87 L 186.68 180.33 L 186.15 179.72 L 185.57 179.07 L 184.94 178.36 L 184.28 177.62 L 183.59 176.85 L 182.88 176.05 L 182.14 175.22 L 181.4 174.39 L 180.64 173.55 L 179.88 172.71 L 179.12 171.88 L 178.36 171.06 L 177.62 170.25 L 176.9 169.48 L 176.21 168.74 L 175.54 168.04 L 174.91 167.38 L 174.32 166.78 L 173.78 166.23 L 173.29 165.75 L 172.85 165.35 L 172.48 165.02 L 172.18 164.78 L 171.95 164.63 L 171.8 164.57 L 171.42 164.54 L 171.1 164.47 L 170.83 164.39 L 170.59 164.33 L 170.35 164.33 L 170.11 164.41 L 169.84 164.61 L 169.51 164.96 L 169.19 165.33 L 168.93 165.62 L 168.73 165.82 L 168.58 165.96 L 168.48 166.04 L 168.41 166.08 L 168.37 166.1 L 168.36 166.1 L 168.34 166.08 L 168.29 166.03 L 168.19 165.94 L 168.07 165.82 L 167.91 165.68 L 167.72 165.5 L 167.5 165.3 L 167.26 165.09 L 167 164.85 L 166.72 164.59 L 166.42 164.33 L 166.1 164.05 L 165.77 163.76 L 165.42 163.46 L 165.07 163.16 L 164.71 162.85 L 164.35 162.55 L 163.98 162.25 L 163.61 161.95 L 163.24 161.66 L 162.88 161.38 L 162.53 161.11 L 162.18 160.86 L 161.84 160.62 L 161.51 160.4 L 161.2 160.21 L 160.91 160.03 L 160.63 159.89 L 160.38 159.77 L 160.15 159.68 L 159.95 159.63 L 159.77 159.61 L 159.47 159.63 L 159.22 159.7 L 159 159.81 L 158.81 159.94 L 158.65 160.11 L 158.51 160.3 L 158.38 160.51 L 158.27 160.73 L 158.15 160.96 L 158.03 161.18 L 157.9 161.41 L 157.76 161.62 L 157.59 161.82 L 157.4 162 L 157.17 162.16 L 156.9 162.28 L 156.64 162.38 L 156.42 162.47 L 156.22 162.53 L 156.05 162.58 L 155.89 162.6 L 155.73 162.6 L 155.56 162.58 L 155.38 162.52 L 155.17 162.43 L 154.92 162.31 L 154.62 162.15 L 154.27 161.96 L 153.86 161.72 L 153.37 161.45 L 152.8 161.12 L 152.13 160.75 L 151.51 160.37 L 151.07 160 L 150.78 159.64 L 150.62 159.31 L 150.57 159 L 150.6 158.71 L 150.69 158.45 L 150.82 158.22 L 150.95 158.02 L 151.08 157.86 L 151.16 157.73 L 151.19 157.64 L 151.13 157.59 L 150.97 157.58 L 150.67 157.61 L 150.22 157.7 L 149.73 157.82 L 149.34 157.96 L 149.02 158.12 L 148.77 158.28 L 148.58 158.45 L 148.43 158.62 L 148.31 158.79 L 148.22 158.94 L 148.13 159.07 L 148.04 159.18 L 147.93 159.26 L 147.8 159.31 L 147.63 159.32 L 147.42 159.28 L 147.14 159.18 L 146.78 159.04 L 146.4 158.87 L 146.05 158.73 L 145.72 158.62 L 145.41 158.51 L 145.12 158.42 L 144.83 158.33 L 144.55 158.25 L 144.28 158.15 L 144 158.05 L 143.71 157.93 L 143.41 157.78 L 143.1 157.61 L 142.77 157.41 L 142.42 157.17 L 142.04 156.88 L 141.63 156.55 L 141.22 156.21 L 140.87 155.88 L 140.56 155.58 L 140.3 155.31 L 140.08 155.07 L 139.89 154.86 L 139.74 154.67 L 139.62 154.52 L 139.53 154.4 L 139.45 154.32 L 139.4 154.28 L 139.37 154.27 L 139.35 154.3 L 139.34 154.37 L 139.33 154.48 L 139.33 154.64 L 139.31 154.89 L 139.23 155.27 L 139.12 155.75 L 138.98 156.33 L 138.8 156.97 L 138.61 157.66 L 138.4 158.38 L 138.19 159.11 L 137.97 159.82 L 137.77 160.51 L 137.57 161.14 L 137.4 161.71 L 137.25 162.18 L 137.14 162.54 L 137.07 162.77 L 137.04 162.85 L 136.94 162.82 L 136.63 162.74 L 136.16 162.59 L 135.54 162.4 L 134.8 162.16 L 133.96 161.89 L 133.04 161.58 L 132.08 161.23 L 131.08 160.86 L 130.08 160.47 L 129.11 160.06 L 128.18 159.63 L 127.32 159.2 L 126.55 158.76 L 125.9 158.32 L 125.39 157.89 L 124.57 157.06 L 123.83 156.29 L 123.18 155.58 L 122.62 154.95 L 122.18 154.4 L 121.85 153.94 L 121.64 153.57 L 121.57 153.31 L 121.54 153.07 L 121.45 152.82 L 121.33 152.57 L 121.19 152.33 L 121.05 152.11 L 120.93 151.94 L 120.84 151.82 L 120.81 151.78 L 120.75 151.84 L 120.58 152.02 L 120.33 152.26 L 120.02 152.54 L 119.66 152.82 L 119.28 153.07 L 118.89 153.24 L 118.51 153.31 L 118.36 153.33 L 118.23 153.39 L 118.13 153.48 L 118.05 153.59 L 117.96 153.7 L 117.87 153.81 L 117.77 153.9 L 117.63 153.97 L 117.46 154.01 L 117.24 154 L 116.96 153.93 L 116.61 153.79 L 116.18 153.57 L 115.66 153.27 L 115.04 152.86 L 114.31 152.35 L 113.52 151.79 L 112.7 151.24 L 111.89 150.72 L 111.08 150.21 L 110.28 149.73 L 109.51 149.26 L 108.76 148.83 L 108.06 148.41 L 107.4 148.02 L 106.81 147.66 L 106.28 147.32 L 105.83 147.01 L 105.46 146.72 L 105.18 146.47 L 105.01 146.24 L 104.95 146.05 L 104.99 145.7 L 105.06 145.39 L 105.16 145.12 L 105.24 144.92 L 105.29 144.81 L 105.28 144.78 L 105.17 144.87 L 104.95 145.09 L 104.87 145.19 L 104.76 145.35 L 104.62 145.57 L 104.46 145.83 L 104.27 146.14 L 104.07 146.49 L 103.85 146.87 L 103.62 147.29 L 103.37 147.75 L 103.11 148.22 L 102.84 148.72 L 102.56 149.24 L 102.28 149.76 L 102 150.3 L 101.71 150.85 L 101.42 151.4 L 101.14 151.94 L 100.86 152.48 L 100.58 153.01 L 100.31 153.52 L 100.06 154.02 L 99.81 154.49 L 99.58 154.94 L 99.37 155.35 L 99.17 155.74 L 98.99 156.08 L 98.84 156.38 L 98.71 156.64 L 98.6 156.85 L 98.53 157 L 98.48 157.09 L 98.46 157.13 L 97.32 156.55 L 97.3 156.65 L 97.25 156.94 L 97.17 157.39 L 97.06 157.99 L 96.93 158.7 L 96.77 159.5 L 96.6 160.38 L 96.41 161.3 L 96.2 162.25 L 95.99 163.2 L 95.77 164.13 L 95.54 165.01 L 95.31 165.83 L 95.08 166.55 L 94.86 167.16 L 94.64 167.63 L 94.43 167.98 L 94.22 168.26 L 94.02 168.48 L 93.83 168.66 L 93.65 168.79 L 93.47 168.91 L 93.31 169.01 L 93.16 169.11 L 93.02 169.23 L 92.9 169.37 L 92.8 169.55 L 92.71 169.78 L 92.64 170.07 L 92.58 170.44 L 92.55 170.9 L 92.54 171.45 L 92.54 177.18 L 92.53 177.79 L 92.49 178.42 L 92.43 179.04 L 92.36 179.65 L 92.27 180.26 L 92.18 180.84 L 92.07 181.4 L 91.97 181.93 L 91.86 182.42 L 91.76 182.87 L 91.66 183.26 L 91.57 183.6 L 91.5 183.87 L 91.44 184.08 L 91.41 184.2 L 91.39 184.25 L 91.37 184.21 L 91.29 184.09 L 91.17 183.91 L 91 183.66 L 90.8 183.34 L 90.55 182.97 L 90.27 182.55 L 89.96 182.07 L 89.62 181.56 L 89.25 181 L 88.86 180.4 L 88.44 179.77 L 88.01 179.12 L 87.57 178.44 L 87.11 177.75 L 86.64 177.04 L 86.17 176.32 L 85.69 175.59 L 85.22 174.86 L 84.74 174.14 L 84.28 173.42 L 83.82 172.71 L 83.37 172.02 L 82.93 171.35 L 82.52 170.71 L 82.12 170.09 L 81.74 169.51 L 81.39 168.97 L 81.07 168.46 L 80.79 168.01 L 80.53 167.6 L 80.32 167.25 L 79.95 166.62 L 79.64 166.03 L 79.38 165.48 L 79.16 164.96 L 78.99 164.48 L 78.85 164.04 L 78.74 163.64 L 78.67 163.28 L 78.62 162.96 L 78.59 162.69 L 78.57 162.45 L 78.57 162.25 L 78.58 162.1 L 78.59 161.99 L 78.59 161.92 L 78.6 161.9 L 76.88 162.28 L 76.85 162.29 L 76.79 162.3 L 76.68 162.31 L 76.53 162.31 L 76.35 162.3 L 76.14 162.26 L 75.91 162.2 L 75.66 162.09 L 75.39 161.94 L 75.12 161.74 L 74.83 161.48 L 74.54 161.15 L 74.25 160.75 L 73.97 160.27 L 73.7 159.7 L 73.44 159.04 L 73.18 158.28 L 72.92 157.47 L 72.64 156.6 L 72.36 155.7 L 72.08 154.78 L 71.8 153.85 L 71.53 152.92 L 71.27 152.02 L 71.01 151.14 L 70.77 150.31 L 70.55 149.53 L 70.35 148.83 L 70.17 148.21 L 70.02 147.69 L 69.9 147.28 L 69.81 147 L 69.68 146.6 L 69.58 146.25 L 69.48 145.95 L 69.38 145.71 L 69.26 145.52 L 69.11 145.39 L 68.92 145.31 L 68.67 145.28 L 68.41 145.34 L 68.21 145.49 L 68.05 145.69 L 67.9 145.9 L 67.75 146.1 L 67.59 146.25 L 67.39 146.31 L 67.14 146.24 L 66.98 146.18 L 66.81 146.13 L 66.62 146.1 L 66.42 146.07 L 66.22 146.03 L 66.01 145.99 L 65.79 145.93 L 65.59 145.86 L 65.38 145.75 L 65.19 145.62 L 65.01 145.44 L 64.85 145.22 L 64.72 144.94 L 64.6 144.61 L 64.52 144.22 L 64.46 143.76 L 64.45 143.46 L 64.46 143.08 L 64.47 142.62 L 64.5 142.09 L 64.53 141.49 L 64.58 140.83 L 64.64 140.11 L 64.7 139.35 L 64.77 138.54 L 64.84 137.69 L 64.92 136.81 L 65 135.9 L 65.09 134.98 L 65.18 134.03 L 65.26 133.08 L 65.35 132.13 L 65.43 131.18 L 65.51 130.24 L 65.59 129.31 L 65.66 128.4 L 65.73 127.52 L 65.79 126.67 L 65.84 125.86 L 65.89 125.09 L 65.92 124.37 L 65.94 123.71 L 65.96 123.11 L 65.95 122.57 L 65.94 122.11 L 65.91 121.73 L 65.86 121.43 L 65.8 121.22 L 65.53 120.65 L 65.3 120.22 L 65.1 119.92 L 64.94 119.71 L 64.82 119.59 L 64.73 119.53 L 64.67 119.5 L 64.65 119.5 L 64.61 119.51 L 64.5 119.55 L 64.32 119.6 L 64.08 119.66 L 63.81 119.74 L 63.5 119.81 L 63.16 119.88 L 62.82 119.95 L 62.47 120.01 L 62.13 120.05 L 61.81 120.07 L 61.51 120.06 L 61.26 120.03 L 61.05 119.96 L 60.91 119.84 L 60.83 119.69 L 60.78 119.5 L 60.68 119.29 L 60.54 119.06 L 60.39 118.81 L 60.22 118.54 L 60.05 118.26 L 59.87 117.97 L 59.71 117.66 L 59.57 117.34 L 59.46 117.01 L 59.39 116.68 L 59.36 116.33 L 59.38 115.98 L 59.47 115.63 L 59.64 115.27 L 59.88 114.92 L 60.17 114.55 L 60.47 114.17 L 60.76 113.78 L 61.06 113.39 L 61.35 113.01 L 61.64 112.63 L 61.91 112.26 L 62.17 111.91 L 62.41 111.58 L 62.63 111.28 L 62.83 111.01 L 63 110.78 L 63.13 110.59 L 63.23 110.45 L 63.3 110.36 L 63.32 110.33 L 60.64 110.33 L 60.67 110.3 L 60.74 110.22 L 60.84 110.09 L 60.99 109.91 L 61.18 109.69 L 61.39 109.43 L 61.63 109.13 L 61.9 108.79 L 62.19 108.43 L 62.5 108.04 L 62.83 107.63 L 63.16 107.2 L 63.51 106.75 L 63.86 106.29 L 64.21 105.82 L 64.56 105.34 L 64.91 104.86 L 65.24 104.38 L 65.57 103.91 L 65.88 103.44 L 66.18 102.98 L 66.46 102.54 L 66.71 102.11 L 66.93 101.71 L 67.12 101.33 L 67.28 100.98 L 67.4 100.66 L 67.48 100.37 L 67.52 100.12 L 67.51 99.91 L 67.44 99.75 L 67.33 99.64 L 67.06 99.48 L 66.82 99.37 L 66.6 99.29 L 66.41 99.23 L 66.24 99.2 L 66.08 99.18 L 65.95 99.16 L 65.82 99.13 L 65.71 99.1 L 65.61 99.05 L 65.51 98.97 L 65.42 98.86 L 65.33 98.7 L 65.24 98.5 L 65.14 98.24 L 65.04 97.92 L 64.92 97.18 L 65 96.4 L 65.25 95.6 L 65.63 94.79 L 66.14 93.99 L 66.73 93.22 L 67.39 92.48 L 68.09 91.8 L 68.3 91.61 L 68.56 91.36 L 68.88 91.06 L 69.24 90.71 L 69.64 90.32 L 70.09 89.88 L 70.57 89.41 L 71.08 88.9 L 71.61 88.37 L 72.17 87.81 L 72.75 87.23 L 73.34 86.64 L 73.95 86.03 L 74.56 85.42 L 75.17 84.8 L 75.78 84.19 L 76.39 83.58 L 76.98 82.98 L 77.56 82.39 L 78.13 81.82 L 78.67 81.27 L 79.19 80.75 L 79.67 80.26 L 80.13 79.8 L 80.54 79.38 L 80.91 79 L 81.24 78.67 L 81.51 78.39 L 81.74 78.17 L 81.9 78 L 82 77.9 L 82.04 77.86 L 81.84 75.76 L 81.81 75.74 L 81.72 75.67 L 81.57 75.56 L 81.36 75.4 L 81.09 75.2 L 80.77 74.96 L 80.4 74.69 L 79.97 74.37 L 79.5 74.02 L 78.99 73.64 L 78.43 73.22 L 77.83 72.78 L 77.18 72.3 L 76.51 71.8 L 75.79 71.26 L 75.04 70.71 L 74.26 70.12 L 73.45 69.52 L 72.61 68.9 L 71.74 68.25 L 70.86 67.59 L 69.95 66.91 L 69.01 66.22 L 68.07 65.51 L 67.1 64.79 L 66.12 64.06 L 65.13 63.32 L 64.13 62.57 L 63.12 61.81 L 62.11 61.05 L 61.09 60.29 L 60.07 59.53 L 59.05 58.76 L 58.03 58 L 57.02 57.23 L 56.01 56.48 L 55.01 55.72 L 54.02 54.98 L 53.04 54.24 L 52.08 53.51 L 51.13 52.79 L 50.2 52.09 L 49.29 51.4 L 48.4 50.72 L 47.53 50.06 L 46.69 49.42 L 45.88 48.8 L 45.1 48.2 L 44.35 47.63 L 43.64 47.08 L 42.96 46.55 L 42.32 46.05 L 41.71 45.58 L 41.15 45.14 L 40.64 44.73 L 40.17 44.36 L 39.75 44.02 L 39.37 43.71 L 39.05 43.44 L 38.79 43.22 L 38.58 43.03 L 38.42 42.88 L 38.33 42.78 L 38.3 42.72 L 38.22 42.58 L 38.01 42.32 L 37.66 41.93 L 37.18 41.44 L 36.59 40.84 L 35.9 40.15 L 35.1 39.37 L 34.23 38.51 L 33.27 37.58 L 32.25 36.6 L 31.17 35.55 L 30.04 34.47 L 28.87 33.34 L 27.67 32.19 L 26.45 31.01 L 25.21 29.83 L 23.98 28.63 L 22.75 27.45 L 21.54 26.27 L 20.35 25.11 L 19.2 23.99 L 18.1 22.9 L 17.05 21.85 L 16.06 20.86 L 15.14 19.92 L 14.31 19.06 L 13.57 18.27 L 12.93 17.57 L 12.4 16.97 L 11.98 16.46 L 11.7 16.07 L 11.56 15.79 L 11.41 15.34 L 11.26 14.88 L 11.1 14.39 L 10.94 13.9 L 10.78 13.41 L 10.63 12.93 L 10.48 12.46 L 10.34 12.02 L 10.21 11.6 L 10.1 11.23 L 10 10.9 L 9.92 10.63 L 9.86 10.42 L 9.83 10.28 L 9.82 10.22 L 9.84 10.25 L 9.84 10.25 L 9.84 10.25 Z" fill-rule="nonzero"/>
        </g>
      </g>
      <g id="lvp.2">
        <g id="leaf.1" fill="url(#gridSVG.gradientFill.20.1)" fill-opacity="1">
          <path id="leaf.1.1" d="M 9.84 10.25 L 15.57 9.87 L 15.57 9.9 L 15.56 9.99 L 15.55 10.14 L 15.55 10.34 L 15.56 10.59 L 15.59 10.89 L 15.64 11.24 L 15.71 11.63 L 15.82 12.07 L 15.96 12.53 L 16.14 13.04 L 16.37 13.57 L 16.66 14.14 L 16.99 14.73 L 17.39 15.34 L 17.86 15.98 L 18.19 16.37 L 18.66 16.9 L 19.28 17.55 L 20.02 18.32 L 20.88 19.2 L 21.86 20.18 L 22.93 21.25 L 24.1 22.4 L 25.35 23.63 L 26.67 24.92 L 28.06 26.27 L 29.51 27.66 L 31 29.1 L 32.53 30.56 L 34.09 32.05 L 35.67 33.55 L 37.26 35.06 L 38.85 36.56 L 40.43 38.04 L 41.99 39.51 L 43.53 40.95 L 45.03 42.34 L 46.49 43.69 L 47.89 44.99 L 49.23 46.21 L 50.49 47.37 L 51.68 48.44 L 52.77 49.42 L 53.77 50.31 L 54.65 51.08 L 55.42 51.74 L 56.06 52.27 L 56.67 52.77 L 57.36 53.33 L 58.11 53.94 L 58.92 54.61 L 59.79 55.33 L 60.7 56.09 L 61.67 56.88 L 62.67 57.71 L 63.7 58.56 L 64.76 59.43 L 65.85 60.32 L 66.94 61.22 L 68.05 62.12 L 69.17 63.03 L 70.28 63.93 L 71.39 64.83 L 72.48 65.7 L 73.56 66.56 L 74.61 67.4 L 75.63 68.2 L 76.62 68.97 L 77.57 69.7 L 78.47 70.38 L 79.32 71.02 L 80.11 71.59 L 80.84 72.11 L 81.5 72.56 L 82.08 72.94 L 82.59 73.25 L 83.01 73.47 L 83.33 73.61 L 83.56 73.66 L 83.98 73.61 L 84.51 73.47 L 85.13 73.25 L 85.82 72.94 L 86.58 72.57 L 87.38 72.13 L 88.21 71.63 L 89.05 71.08 L 89.89 70.49 L 90.71 69.86 L 91.49 69.19 L 92.21 68.5 L 92.87 67.8 L 93.44 67.08 L 93.91 66.36 L 94.26 65.64 L 94.58 64.87 L 94.98 64.01 L 95.44 63.08 L 95.95 62.1 L 96.51 61.07 L 97.11 60.03 L 97.73 58.98 L 98.37 57.95 L 99.01 56.95 L 99.66 55.99 L 100.3 55.11 L 100.92 54.3 L 101.51 53.6 L 102.07 53.02 L 102.58 52.57 L 103.04 52.27 L 103.29 52.15 L 103.6 51.99 L 103.96 51.81 L 104.38 51.61 L 104.85 51.38 L 105.36 51.14 L 105.92 50.87 L 106.51 50.59 L 107.14 50.3 L 107.8 49.99 L 108.48 49.67 L 109.19 49.35 L 109.91 49.02 L 110.65 48.69 L 111.41 48.35 L 112.16 48.02 L 112.93 47.69 L 113.69 47.37 L 114.45 47.05 L 115.19 46.74 L 115.93 46.45 L 116.65 46.17 L 117.35 45.91 L 118.03 45.66 L 118.68 45.44 L 119.3 45.24 L 119.89 45.06 L 120.43 44.91 L 120.93 44.79 L 121.39 44.7 L 121.79 44.65 L 122.14 44.63 L 122.73 44.7 L 123.2 44.91 L 123.56 45.23 L 123.83 45.64 L 124.02 46.14 L 124.14 46.68 L 124.19 47.27 L 124.2 47.88 L 124.16 48.48 L 124.09 49.07 L 124.01 49.62 L 123.92 50.11 L 123.83 50.52 L 123.75 50.84 L 123.69 51.05 L 123.67 51.12 L 123.7 51.11 L 123.79 51.07 L 123.94 51.01 L 124.14 50.93 L 124.38 50.82 L 124.67 50.7 L 125 50.56 L 125.37 50.41 L 125.78 50.25 L 126.21 50.07 L 126.67 49.89 L 127.16 49.69 L 127.66 49.49 L 128.18 49.29 L 128.72 49.08 L 129.26 48.88 L 129.81 48.67 L 130.36 48.47 L 130.91 48.27 L 131.45 48.08 L 131.98 47.9 L 132.51 47.73 L 133.01 47.56 L 133.5 47.42 L 133.97 47.28 L 134.41 47.17 L 134.81 47.07 L 135.19 46.99 L 135.52 46.94 L 135.82 46.9 L 136.07 46.9 L 136.28 46.92 L 136.6 47.01 L 136.85 47.14 L 137.03 47.31 L 137.17 47.49 L 137.27 47.7 L 137.34 47.91 L 137.39 48.13 L 137.42 48.35 L 137.46 48.56 L 137.51 48.76 L 137.58 48.93 L 137.67 49.07 L 137.81 49.18 L 138 49.24 L 138.25 49.25 L 138.57 49.21 L 138.95 49.11 L 139.36 48.96 L 139.8 48.77 L 140.28 48.54 L 140.78 48.3 L 141.32 48.06 L 141.89 47.82 L 142.49 47.59 L 143.11 47.39 L 143.75 47.23 L 144.43 47.12 L 145.12 47.06 L 145.84 47.08 L 146.58 47.19 L 147.34 47.38 L 148.12 47.69 L 148.8 48.05 L 149.3 48.43 L 149.64 48.83 L 149.86 49.23 L 149.97 49.64 L 150.01 50.06 L 150 50.47 L 149.98 50.88 L 149.98 51.29 L 150.01 51.69 L 150.12 52.09 L 150.32 52.47 L 150.65 52.83 L 151.14 53.17 L 151.82 53.5 L 152.7 53.8 L 153.64 54.04 L 154.44 54.21 L 155.13 54.31 L 155.72 54.35 L 156.22 54.35 L 156.64 54.33 L 157.01 54.28 L 157.33 54.23 L 157.63 54.18 L 157.9 54.14 L 158.17 54.14 L 158.45 54.17 L 158.76 54.26 L 159.1 54.41 L 159.5 54.63 L 159.96 54.94 L 160.19 55.12 L 160.37 55.27 L 160.52 55.42 L 160.62 55.56 L 160.7 55.68 L 160.74 55.8 L 160.76 55.9 L 160.76 55.99 L 160.74 56.08 L 160.7 56.16 L 160.65 56.22 L 160.59 56.29 L 160.53 56.34 L 160.46 56.39 L 160.4 56.43 L 160.34 56.47 L 160.29 56.5 L 160.26 56.53 L 160.24 56.56 L 160.24 56.58 L 160.26 56.61 L 160.31 56.62 L 160.39 56.64 L 160.5 56.66 L 160.65 56.68 L 160.84 56.7 L 161.07 56.72 L 161.35 56.74 L 161.68 56.76 L 162.07 56.79 L 162.51 56.82 L 163.02 56.85 L 164.03 56.92 L 164.91 56.98 L 165.68 57.04 L 166.34 57.1 L 166.9 57.17 L 167.37 57.24 L 167.76 57.33 L 168.08 57.43 L 168.33 57.54 L 168.54 57.68 L 168.7 57.84 L 168.82 58.03 L 168.91 58.26 L 168.99 58.51 L 169.06 58.81 L 169.13 59.14 L 169.15 59.48 L 169.09 59.76 L 168.96 60 L 168.79 60.2 L 168.61 60.36 L 168.43 60.49 L 168.28 60.59 L 168.17 60.67 L 168.14 60.74 L 168.2 60.79 L 168.38 60.83 L 168.7 60.86 L 169.18 60.9 L 169.84 60.94 L 170.71 60.99 L 171.8 61.05 L 172.95 61.11 L 173.97 61.13 L 174.87 61.13 L 175.66 61.11 L 176.37 61.08 L 176.99 61.04 L 177.55 61 L 178.06 60.96 L 178.52 60.93 L 178.96 60.91 L 179.38 60.92 L 179.81 60.95 L 180.24 61.01 L 180.7 61.11 L 181.19 61.25 L 181.73 61.44 L 182.21 61.65 L 182.52 61.88 L 182.69 62.1 L 182.75 62.33 L 182.72 62.54 L 182.63 62.75 L 182.52 62.94 L 182.4 63.11 L 182.31 63.26 L 182.28 63.38 L 182.33 63.47 L 182.49 63.53 L 182.78 63.55 L 183.25 63.53 L 183.91 63.46 L 184.79 63.35 L 185.7 63.18 L 186.45 62.98 L 187.06 62.76 L 187.55 62.52 L 187.94 62.28 L 188.27 62.04 L 188.55 61.82 L 188.8 61.63 L 189.06 61.47 L 189.33 61.35 L 189.66 61.3 L 190.06 61.31 L 190.54 61.39 L 191.15 61.56 L 191.9 61.83 L 192.81 62.2 L 193.81 62.64 L 194.81 63.09 L 195.79 63.55 L 196.76 64.02 L 197.7 64.49 L 198.61 64.96 L 199.48 65.42 L 200.31 65.88 L 201.09 66.32 L 201.81 66.74 L 202.48 67.14 L 203.07 67.52 L 203.59 67.87 L 204.04 68.18 L 204.39 68.46 L 204.65 68.69 L 205.05 69.12 L 205.38 69.54 L 205.64 69.92 L 205.85 70.27 L 206 70.56 L 206.1 70.79 L 206.16 70.93 L 206.18 70.99 L 206.09 70.97 L 205.81 70.94 L 205.39 70.89 L 204.82 70.84 L 204.14 70.78 L 203.36 70.72 L 202.51 70.68 L 201.6 70.65 L 200.65 70.65 L 199.69 70.67 L 198.73 70.73 L 197.8 70.82 L 196.91 70.97 L 196.09 71.17 L 195.35 71.43 L 194.72 71.75 L 194.15 72.11 L 193.6 72.46 L 193.06 72.81 L 192.54 73.15 L 192.04 73.48 L 191.57 73.8 L 191.12 74.1 L 190.71 74.38 L 190.34 74.63 L 190 74.87 L 189.71 75.07 L 189.46 75.24 L 189.26 75.38 L 189.11 75.48 L 189.02 75.55 L 188.99 75.57 L 188.97 75.56 L 188.89 75.54 L 188.77 75.51 L 188.61 75.47 L 188.41 75.44 L 188.19 75.41 L 187.93 75.39 L 187.65 75.38 L 187.36 75.39 L 187.05 75.42 L 186.74 75.48 L 186.41 75.57 L 186.09 75.7 L 185.78 75.86 L 185.47 76.07 L 185.17 76.33 L 184.89 76.63 L 184.6 76.94 L 184.32 77.25 L 184.05 77.58 L 183.79 77.9 L 183.53 78.21 L 183.29 78.52 L 183.07 78.82 L 182.87 79.09 L 182.68 79.35 L 182.52 79.58 L 182.38 79.77 L 182.27 79.93 L 182.19 80.05 L 182.13 80.13 L 182.12 80.15 L 177.53 80.92 L 174.09 84.36 L 174.05 84.38 L 173.91 84.46 L 173.69 84.57 L 173.41 84.73 L 173.06 84.91 L 172.66 85.12 L 172.23 85.35 L 171.76 85.6 L 171.26 85.85 L 170.76 86.11 L 170.25 86.36 L 169.74 86.61 L 169.26 86.85 L 168.79 87.06 L 168.37 87.25 L 167.98 87.41 L 167.69 87.57 L 167.51 87.75 L 167.44 87.95 L 167.45 88.17 L 167.52 88.41 L 167.65 88.65 L 167.81 88.91 L 167.98 89.18 L 168.16 89.45 L 168.32 89.72 L 168.44 89.99 L 168.52 90.26 L 168.53 90.52 L 168.45 90.77 L 168.28 91.01 L 167.98 91.23 L 167.19 91.66 L 166.26 92.09 L 165.25 92.52 L 164.21 92.95 L 163.19 93.38 L 162.24 93.81 L 161.4 94.24 L 160.73 94.67 L 160.22 95.06 L 159.84 95.39 L 159.57 95.66 L 159.39 95.86 L 159.28 96.02 L 159.22 96.12 L 159.2 96.18 L 159.2 96.2 L 166.46 107.66 L 163.78 107.66 L 163.85 107.67 L 164.03 107.7 L 164.33 107.77 L 164.72 107.87 L 165.19 108.01 L 165.74 108.2 L 166.34 108.45 L 166.98 108.76 L 167.66 109.13 L 168.35 109.58 L 169.05 110.11 L 169.74 110.72 L 170.42 111.42 L 171.06 112.23 L 171.65 113.13 L 172.18 114.15 L 172.66 115.21 L 173.07 116.22 L 173.42 117.2 L 173.73 118.12 L 173.99 118.99 L 174.21 119.81 L 174.38 120.57 L 174.53 121.27 L 174.64 121.89 L 174.72 122.45 L 174.78 122.93 L 174.82 123.34 L 174.84 123.66 L 174.85 123.89 L 174.86 124.03 L 174.86 124.08 L 170.66 125.99 L 174.48 135.16 L 172.38 135.92 L 172.41 135.97 L 172.5 136.09 L 172.64 136.29 L 172.82 136.54 L 173.03 136.86 L 173.26 137.21 L 173.51 137.61 L 173.76 138.03 L 174.01 138.46 L 174.24 138.91 L 174.45 139.35 L 174.63 139.79 L 174.77 140.21 L 174.86 140.6 L 174.89 140.96 L 174.86 141.27 L 174.7 141.83 L 174.52 142.33 L 174.33 142.79 L 174.14 143.18 L 173.97 143.5 L 173.84 143.74 L 173.75 143.89 L 173.71 143.95 L 173.73 143.97 L 173.77 144.04 L 173.85 144.15 L 173.94 144.31 L 174.06 144.5 L 174.21 144.73 L 174.37 144.98 L 174.55 145.27 L 174.74 145.58 L 174.95 145.92 L 175.17 146.27 L 175.41 146.65 L 175.64 147.03 L 175.89 147.43 L 176.14 147.83 L 176.39 148.24 L 176.64 148.66 L 176.89 149.07 L 177.13 149.48 L 177.37 149.88 L 177.6 150.27 L 177.82 150.65 L 178.03 151.01 L 178.23 151.36 L 178.4 151.68 L 178.57 151.98 L 178.71 152.26 L 178.83 152.5 L 178.93 152.71 L 179 152.89 L 179.05 153.02 L 179.06 153.11 L 179 153.42 L 178.84 153.76 L 178.63 154.14 L 178.42 154.55 L 178.25 154.99 L 178.17 155.48 L 178.24 156 L 178.49 156.55 L 178.65 156.81 L 178.77 157 L 178.88 157.15 L 178.96 157.26 L 179.04 157.33 L 179.11 157.38 L 179.19 157.42 L 179.28 157.46 L 179.38 157.5 L 179.52 157.55 L 179.7 157.63 L 179.91 157.73 L 180.18 157.88 L 180.5 158.08 L 180.89 158.33 L 181.35 158.65 L 181.8 159.02 L 182.16 159.39 L 182.43 159.77 L 182.62 160.15 L 182.76 160.55 L 182.85 160.95 L 182.9 161.36 L 182.93 161.78 L 182.94 162.2 L 182.95 162.63 L 182.97 163.07 L 183.02 163.51 L 183.09 163.96 L 183.22 164.42 L 183.4 164.87 L 183.64 165.34 L 183.91 165.78 L 184.13 166.16 L 184.32 166.51 L 184.49 166.82 L 184.62 167.1 L 184.74 167.36 L 184.84 167.6 L 184.93 167.84 L 185.02 168.09 L 185.11 168.34 L 185.2 168.61 L 185.31 168.91 L 185.43 169.24 L 185.57 169.61 L 185.74 170.02 L 185.94 170.5 L 186.38 171.47 L 186.84 172.41 L 187.29 173.32 L 187.7 174.22 L 188.07 175.12 L 188.35 176.03 L 188.54 176.97 L 188.61 177.94 L 188.61 182.53 L 188.57 182.48 L 188.43 182.33 L 188.22 182.08 L 187.94 181.76 L 187.58 181.35 L 187.16 180.87 L 186.68 180.33 L 186.15 179.72 L 185.57 179.07 L 184.94 178.36 L 184.28 177.62 L 183.59 176.85 L 182.88 176.05 L 182.14 175.22 L 181.4 174.39 L 180.64 173.55 L 179.88 172.71 L 179.12 171.88 L 178.36 171.06 L 177.62 170.25 L 176.9 169.48 L 176.21 168.74 L 175.54 168.04 L 174.91 167.38 L 174.32 166.78 L 173.78 166.23 L 173.29 165.75 L 172.85 165.35 L 172.48 165.02 L 172.18 164.78 L 171.95 164.63 L 171.8 164.57 L 171.42 164.54 L 171.1 164.47 L 170.83 164.39 L 170.59 164.33 L 170.35 164.33 L 170.11 164.41 L 169.84 164.61 L 169.51 164.96 L 169.19 165.33 L 168.93 165.62 L 168.73 165.82 L 168.58 165.96 L 168.48 166.04 L 168.41 166.08 L 168.37 166.1 L 168.36 166.1 L 168.34 166.08 L 168.29 166.03 L 168.19 165.94 L 168.07 165.82 L 167.91 165.68 L 167.72 165.5 L 167.5 165.3 L 167.26 165.09 L 167 164.85 L 166.72 164.59 L 166.42 164.33 L 166.1 164.05 L 165.77 163.76 L 165.42 163.46 L 165.07 163.16 L 164.71 162.85 L 164.35 162.55 L 163.98 162.25 L 163.61 161.95 L 163.24 161.66 L 162.88 161.38 L 162.53 161.11 L 162.18 160.86 L 161.84 160.62 L 161.51 160.4 L 161.2 160.21 L 160.91 160.03 L 160.63 159.89 L 160.38 159.77 L 160.15 159.68 L 159.95 159.63 L 159.77 159.61 L 159.47 159.63 L 159.22 159.7 L 159 159.81 L 158.81 159.94 L 158.65 160.11 L 158.51 160.3 L 158.38 160.51 L 158.27 160.73 L 158.15 160.96 L 158.03 161.18 L 157.9 161.41 L 157.76 161.62 L 157.59 161.82 L 157.4 162 L 157.17 162.16 L 156.9 162.28 L 156.64 162.38 L 156.42 162.47 L 156.22 162.53 L 156.05 162.58 L 155.89 162.6 L 155.73 162.6 L 155.56 162.58 L 155.38 162.52 L 155.17 162.43 L 154.92 162.31 L 154.62 162.15 L 154.27 161.96 L 153.86 161.72 L 153.37 161.45 L 152.8 161.12 L 152.13 160.75 L 151.51 160.37 L 151.07 160 L 150.78 159.64 L 150.62 159.31 L 150.57 159 L 150.6 158.71 L 150.69 158.45 L 150.82 158.22 L 150.95 158.02 L 151.08 157.86 L 151.16 157.73 L 151.19 157.64 L 151.13 157.59 L 150.97 157.58 L 150.67 157.61 L 150.22 157.7 L 149.73 157.82 L 149.34 157.96 L 149.02 158.12 L 148.77 158.28 L 148.58 158.45 L 148.43 158.62 L 148.31 158.79 L 148.22 158.94 L 148.13 159.07 L 148.04 159.18 L 147.93 159.26 L 147.8 159.31 L 147.63 159.32 L 147.42 159.28 L 147.14 159.18 L 146.78 159.04 L 146.4 158.87 L 146.05 158.73 L 145.72 158.62 L 145.41 158.51 L 145.12 158.42 L 144.83 158.33 L 144.55 158.25 L 144.28 158.15 L 144 158.05 L 143.71 157.93 L 143.41 157.78 L 143.1 157.61 L 142.77 157.41 L 142.42 157.17 L 142.04 156.88 L 141.63 156.55 L 141.22 156.21 L 140.87 155.88 L 140.56 155.58 L 140.3 155.31 L 140.08 155.07 L 139.89 154.86 L 139.74 154.67 L 139.62 154.52 L 139.53 154.4 L 139.45 154.32 L 139.4 154.28 L 139.37 154.27 L 139.35 154.3 L 139.34 154.37 L 139.33 154.48 L 139.33 154.64 L 139.31 154.89 L 139.23 155.27 L 139.12 155.75 L 138.98 156.33 L 138.8 156.97 L 138.61 157.66 L 138.4 158.38 L 138.19 159.11 L 137.97 159.82 L 137.77 160.51 L 137.57 161.14 L 137.4 161.71 L 137.25 162.18 L 137.14 162.54 L 137.07 162.77 L 137.04 162.85 L 136.94 162.82 L 136.63 162.74 L 136.16 162.59 L 135.54 162.4 L 134.8 162.16 L 133.96 161.89 L 133.04 161.58 L 132.08 161.23 L 131.08 160.86 L 130.08 160.47 L 129.11 160.06 L 128.18 159.63 L 127.32 159.2 L 126.55 158.76 L 125.9 158.32 L 125.39 157.89 L 124.57 157.06 L 123.83 156.29 L 123.18 155.58 L 122.62 154.95 L 122.18 154.4 L 121.85 153.94 L 121.64 153.57 L 121.57 153.31 L 121.54 153.07 L 121.45 152.82 L 121.33 152.57 L 121.19 152.33 L 121.05 152.11 L 120.93 151.94 L 120.84 151.82 L 120.81 151.78 L 120.75 151.84 L 120.58 152.02 L 120.33 152.26 L 120.02 152.54 L 119.66 152.82 L 119.28 153.07 L 118.89 153.24 L 118.51 153.31 L 118.36 153.33 L 118.23 153.39 L 118.13 153.48 L 118.05 153.59 L 117.96 153.7 L 117.87 153.81 L 117.77 153.9 L 117.63 153.97 L 117.46 154.01 L 117.24 154 L 116.96 153.93 L 116.61 153.79 L 116.18 153.57 L 115.66 153.27 L 115.04 152.86 L 114.31 152.35 L 113.52 151.79 L 112.7 151.24 L 111.89 150.72 L 111.08 150.21 L 110.28 149.73 L 109.51 149.26 L 108.76 148.83 L 108.06 148.41 L 107.4 148.02 L 106.81 147.66 L 106.28 147.32 L 105.83 147.01 L 105.46 146.72 L 105.18 146.47 L 105.01 146.24 L 104.95 146.05 L 104.99 145.7 L 105.06 145.39 L 105.16 145.12 L 105.24 144.92 L 105.29 144.81 L 105.28 144.78 L 105.17 144.87 L 104.95 145.09 L 104.87 145.19 L 104.76 145.35 L 104.62 145.57 L 104.46 145.83 L 104.27 146.14 L 104.07 146.49 L 103.85 146.87 L 103.62 147.29 L 103.37 147.75 L 103.11 148.22 L 102.84 148.72 L 102.56 149.24 L 102.28 149.76 L 102 150.3 L 101.71 150.85 L 101.42 151.4 L 101.14 151.94 L 100.86 152.48 L 100.58 153.01 L 100.31 153.52 L 100.06 154.02 L 99.81 154.49 L 99.58 154.94 L 99.37 155.35 L 99.17 155.74 L 98.99 156.08 L 98.84 156.38 L 98.71 156.64 L 98.6 156.85 L 98.53 157 L 98.48 157.09 L 98.46 157.13 L 97.32 156.55 L 97.3 156.65 L 97.25 156.94 L 97.17 157.39 L 97.06 157.99 L 96.93 158.7 L 96.77 159.5 L 96.6 160.38 L 96.41 161.3 L 96.2 162.25 L 95.99 163.2 L 95.77 164.13 L 95.54 165.01 L 95.31 165.83 L 95.08 166.55 L 94.86 167.16 L 94.64 167.63 L 94.43 167.98 L 94.22 168.26 L 94.02 168.48 L 93.83 168.66 L 93.65 168.79 L 93.47 168.91 L 93.31 169.01 L 93.16 169.11 L 93.02 169.23 L 92.9 169.37 L 92.8 169.55 L 92.71 169.78 L 92.64 170.07 L 92.58 170.44 L 92.55 170.9 L 92.54 171.45 L 92.54 177.18 L 92.53 177.79 L 92.49 178.42 L 92.43 179.04 L 92.36 179.65 L 92.27 180.26 L 92.18 180.84 L 92.07 181.4 L 91.97 181.93 L 91.86 182.42 L 91.76 182.87 L 91.66 183.26 L 91.57 183.6 L 91.5 183.87 L 91.44 184.08 L 91.41 184.2 L 91.39 184.25 L 91.37 184.21 L 91.29 184.09 L 91.17 183.91 L 91 183.66 L 90.8 183.34 L 90.55 182.97 L 90.27 182.55 L 89.96 182.07 L 89.62 181.56 L 89.25 181 L 88.86 180.4 L 88.44 179.77 L 88.01 179.12 L 87.57 178.44 L 87.11 177.75 L 86.64 177.04 L 86.17 176.32 L 85.69 175.59 L 85.22 174.86 L 84.74 174.14 L 84.28 173.42 L 83.82 172.71 L 83.37 172.02 L 82.93 171.35 L 82.52 170.71 L 82.12 170.09 L 81.74 169.51 L 81.39 168.97 L 81.07 168.46 L 80.79 168.01 L 80.53 167.6 L 80.32 167.25 L 79.95 166.62 L 79.64 166.03 L 79.38 165.48 L 79.16 164.96 L 78.99 164.48 L 78.85 164.04 L 78.74 163.64 L 78.67 163.28 L 78.62 162.96 L 78.59 162.69 L 78.57 162.45 L 78.57 162.25 L 78.58 162.1 L 78.59 161.99 L 78.59 161.92 L 78.6 161.9 L 76.88 162.28 L 76.85 162.29 L 76.79 162.3 L 76.68 162.31 L 76.53 162.31 L 76.35 162.3 L 76.14 162.26 L 75.91 162.2 L 75.66 162.09 L 75.39 161.94 L 75.12 161.74 L 74.83 161.48 L 74.54 161.15 L 74.25 160.75 L 73.97 160.27 L 73.7 159.7 L 73.44 159.04 L 73.18 158.28 L 72.92 157.47 L 72.64 156.6 L 72.36 155.7 L 72.08 154.78 L 71.8 153.85 L 71.53 152.92 L 71.27 152.02 L 71.01 151.14 L 70.77 150.31 L 70.55 149.53 L 70.35 148.83 L 70.17 148.21 L 70.02 147.69 L 69.9 147.28 L 69.81 147 L 69.68 146.6 L 69.58 146.25 L 69.48 145.95 L 69.38 145.71 L 69.26 145.52 L 69.11 145.39 L 68.92 145.31 L 68.67 145.28 L 68.41 145.34 L 68.21 145.49 L 68.05 145.69 L 67.9 145.9 L 67.75 146.1 L 67.59 146.25 L 67.39 146.31 L 67.14 146.24 L 66.98 146.18 L 66.81 146.13 L 66.62 146.1 L 66.42 146.07 L 66.22 146.03 L 66.01 145.99 L 65.79 145.93 L 65.59 145.86 L 65.38 145.75 L 65.19 145.62 L 65.01 145.44 L 64.85 145.22 L 64.72 144.94 L 64.6 144.61 L 64.52 144.22 L 64.46 143.76 L 64.45 143.46 L 64.46 143.08 L 64.47 142.62 L 64.5 142.09 L 64.53 141.49 L 64.58 140.83 L 64.64 140.11 L 64.7 139.35 L 64.77 138.54 L 64.84 137.69 L 64.92 136.81 L 65 135.9 L 65.09 134.98 L 65.18 134.03 L 65.26 133.08 L 65.35 132.13 L 65.43 131.18 L 65.51 130.24 L 65.59 129.31 L 65.66 128.4 L 65.73 127.52 L 65.79 126.67 L 65.84 125.86 L 65.89 125.09 L 65.92 124.37 L 65.94 123.71 L 65.96 123.11 L 65.95 122.57 L 65.94 122.11 L 65.91 121.73 L 65.86 121.43 L 65.8 121.22 L 65.53 120.65 L 65.3 120.22 L 65.1 119.92 L 64.94 119.71 L 64.82 119.59 L 64.73 119.53 L 64.67 119.5 L 64.65 119.5 L 64.61 119.51 L 64.5 119.55 L 64.32 119.6 L 64.08 119.66 L 63.81 119.74 L 63.5 119.81 L 63.16 119.88 L 62.82 119.95 L 62.47 120.01 L 62.13 120.05 L 61.81 120.07 L 61.51 120.06 L 61.26 120.03 L 61.05 119.96 L 60.91 119.84 L 60.83 119.69 L 60.78 119.5 L 60.68 119.29 L 60.54 119.06 L 60.39 118.81 L 60.22 118.54 L 60.05 118.26 L 59.87 117.97 L 59.71 117.66 L 59.57 117.34 L 59.46 117.01 L 59.39 116.68 L 59.36 116.33 L 59.38 115.98 L 59.47 115.63 L 59.64 115.27 L 59.88 114.92 L 60.17 114.55 L 60.47 114.17 L 60.76 113.78 L 61.06 113.39 L 61.35 113.01 L 61.64 112.63 L 61.91 112.26 L 62.17 111.91 L 62.41 111.58 L 62.63 111.28 L 62.83 111.01 L 63 110.78 L 63.13 110.59 L 63.23 110.45 L 63.3 110.36 L 63.32 110.33 L 60.64 110.33 L 60.67 110.3 L 60.74 110.22 L 60.84 110.09 L 60.99 109.91 L 61.18 109.69 L 61.39 109.43 L 61.63 109.13 L 61.9 108.79 L 62.19 108.43 L 62.5 108.04 L 62.83 107.63 L 63.16 107.2 L 63.51 106.75 L 63.86 106.29 L 64.21 105.82 L 64.56 105.34 L 64.91 104.86 L 65.24 104.38 L 65.57 103.91 L 65.88 103.44 L 66.18 102.98 L 66.46 102.54 L 66.71 102.11 L 66.93 101.71 L 67.12 101.33 L 67.28 100.98 L 67.4 100.66 L 67.48 100.37 L 67.52 100.12 L 67.51 99.91 L 67.44 99.75 L 67.33 99.64 L 67.06 99.48 L 66.82 99.37 L 66.6 99.29 L 66.41 99.23 L 66.24 99.2 L 66.08 99.18 L 65.95 99.16 L 65.82 99.13 L 65.71 99.1 L 65.61 99.05 L 65.51 98.97 L 65.42 98.86 L 65.33 98.7 L 65.24 98.5 L 65.14 98.24 L 65.04 97.92 L 64.92 97.18 L 65 96.4 L 65.25 95.6 L 65.63 94.79 L 66.14 93.99 L 66.73 93.22 L 67.39 92.48 L 68.09 91.8 L 68.3 91.61 L 68.56 91.36 L 68.88 91.06 L 69.24 90.71 L 69.64 90.32 L 70.09 89.88 L 70.57 89.41 L 71.08 88.9 L 71.61 88.37 L 72.17 87.81 L 72.75 87.23 L 73.34 86.64 L 73.95 86.03 L 74.56 85.42 L 75.17 84.8 L 75.78 84.19 L 76.39 83.58 L 76.98 82.98 L 77.56 82.39 L 78.13 81.82 L 78.67 81.27 L 79.19 80.75 L 79.67 80.26 L 80.13 79.8 L 80.54 79.38 L 80.91 79 L 81.24 78.67 L 81.51 78.39 L 81.74 78.17 L 81.9 78 L 82 77.9 L 82.04 77.86 L 81.84 75.76 L 81.81 75.74 L 81.72 75.67 L 81.57 75.56 L 81.36 75.4 L 81.09 75.2 L 80.77 74.96 L 80.4 74.69 L 79.97 74.37 L 79.5 74.02 L 78.99 73.64 L 78.43 73.22 L 77.83 72.78 L 77.18 72.3 L 76.51 71.8 L 75.79 71.26 L 75.04 70.71 L 74.26 70.12 L 73.45 69.52 L 72.61 68.9 L 71.74 68.25 L 70.86 67.59 L 69.95 66.91 L 69.01 66.22 L 68.07 65.51 L 67.1 64.79 L 66.12 64.06 L 65.13 63.32 L 64.13 62.57 L 63.12 61.81 L 62.11 61.05 L 61.09 60.29 L 60.07 59.53 L 59.05 58.76 L 58.03 58 L 57.02 57.23 L 56.01 56.48 L 55.01 55.72 L 54.02 54.98 L 53.04 54.24 L 52.08 53.51 L 51.13 52.79 L 50.2 52.09 L 49.29 51.4 L 48.4 50.72 L 47.53 50.06 L 46.69 49.42 L 45.88 48.8 L 45.1 48.2 L 44.35 47.63 L 43.64 47.08 L 42.96 46.55 L 42.32 46.05 L 41.71 45.58 L 41.15 45.14 L 40.64 44.73 L 40.17 44.36 L 39.75 44.02 L 39.37 43.71 L 39.05 43.44 L 38.79 43.22 L 38.58 43.03 L 38.42 42.88 L 38.33 42.78 L 38.3 42.72 L 38.22 42.58 L 38.01 42.32 L 37.66 41.93 L 37.18 41.44 L 36.59 40.84 L 35.9 40.15 L 35.1 39.37 L 34.23 38.51 L 33.27 37.58 L 32.25 36.6 L 31.17 35.55 L 30.04 34.47 L 28.87 33.34 L 27.67 32.19 L 26.45 31.01 L 25.21 29.83 L 23.98 28.63 L 22.75 27.45 L 21.54 26.27 L 20.35 25.11 L 19.2 23.99 L 18.1 22.9 L 17.05 21.85 L 16.06 20.86 L 15.14 19.92 L 14.31 19.06 L 13.57 18.27 L 12.93 17.57 L 12.4 16.97 L 11.98 16.46 L 11.7 16.07 L 11.56 15.79 L 11.41 15.34 L 11.26 14.88 L 11.1 14.39 L 10.94 13.9 L 10.78 13.41 L 10.63 12.93 L 10.48 12.46 L 10.34 12.02 L 10.21 11.6 L 10.1 11.23 L 10 10.9 L 9.92 10.63 L 9.86 10.42 L 9.83 10.28 L 9.82 10.22 L 9.84 10.25 L 9.84 10.25 L 9.84 10.25 Z" fill-rule="nonzero"/>
        </g>
      </g>
      <g id="lvp.3">
        <g id="leaf-2.1" clip-path="url(#gridSVG.clipPath.5.1)" fill="url(#gridSVG.gradientFill.21.1)" fill-opacity="1">
          <path id="leaf-2.1.1" d="M 9.84 10.25 L 15.57 9.87 L 15.57 9.9 L 15.56 9.99 L 15.55 10.14 L 15.55 10.34 L 15.56 10.59 L 15.59 10.89 L 15.64 11.24 L 15.71 11.63 L 15.82 12.07 L 15.96 12.53 L 16.14 13.04 L 16.37 13.57 L 16.66 14.14 L 16.99 14.73 L 17.39 15.34 L 17.86 15.98 L 18.19 16.37 L 18.66 16.9 L 19.28 17.55 L 20.02 18.32 L 20.88 19.2 L 21.86 20.18 L 22.93 21.25 L 24.1 22.4 L 25.35 23.63 L 26.67 24.92 L 28.06 26.27 L 29.51 27.66 L 31 29.1 L 32.53 30.56 L 34.09 32.05 L 35.67 33.55 L 37.26 35.06 L 38.85 36.56 L 40.43 38.04 L 41.99 39.51 L 43.53 40.95 L 45.03 42.34 L 46.49 43.69 L 47.89 44.99 L 49.23 46.21 L 50.49 47.37 L 51.68 48.44 L 52.77 49.42 L 53.77 50.31 L 54.65 51.08 L 55.42 51.74 L 56.06 52.27 L 56.67 52.77 L 57.36 53.33 L 58.11 53.94 L 58.92 54.61 L 59.79 55.33 L 60.7 56.09 L 61.67 56.88 L 62.67 57.71 L 63.7 58.56 L 64.76 59.43 L 65.85 60.32 L 66.94 61.22 L 68.05 62.12 L 69.17 63.03 L 70.28 63.93 L 71.39 64.83 L 72.48 65.7 L 73.56 66.56 L 74.61 67.4 L 75.63 68.2 L 76.62 68.97 L 77.57 69.7 L 78.47 70.38 L 79.32 71.02 L 80.11 71.59 L 80.84 72.11 L 81.5 72.56 L 82.08 72.94 L 82.59 73.25 L 83.01 73.47 L 83.33 73.61 L 83.56 73.66 L 83.98 73.61 L 84.51 73.47 L 85.13 73.25 L 85.82 72.94 L 86.58 72.57 L 87.38 72.13 L 88.21 71.63 L 89.05 71.08 L 89.89 70.49 L 90.71 69.86 L 91.49 69.19 L 92.21 68.5 L 92.87 67.8 L 93.44 67.08 L 93.91 66.36 L 94.26 65.64 L 94.58 64.87 L 94.98 64.01 L 95.44 63.08 L 95.95 62.1 L 96.51 61.07 L 97.11 60.03 L 97.73 58.98 L 98.37 57.95 L 99.01 56.95 L 99.66 55.99 L 100.3 55.11 L 100.92 54.3 L 101.51 53.6 L 102.07 53.02 L 102.58 52.57 L 103.04 52.27 L 103.29 52.15 L 103.6 51.99 L 103.96 51.81 L 104.38 51.61 L 104.85 51.38 L 105.36 51.14 L 105.92 50.87 L 106.51 50.59 L 107.14 50.3 L 107.8 49.99 L 108.48 49.67 L 109.19 49.35 L 109.91 49.02 L 110.65 48.69 L 111.41 48.35 L 112.16 48.02 L 112.93 47.69 L 113.69 47.37 L 114.45 47.05 L 115.19 46.74 L 115.93 46.45 L 116.65 46.17 L 117.35 45.91 L 118.03 45.66 L 118.68 45.44 L 119.3 45.24 L 119.89 45.06 L 120.43 44.91 L 120.93 44.79 L 121.39 44.7 L 121.79 44.65 L 122.14 44.63 L 122.73 44.7 L 123.2 44.91 L 123.56 45.23 L 123.83 45.64 L 124.02 46.14 L 124.14 46.68 L 124.19 47.27 L 124.2 47.88 L 124.16 48.48 L 124.09 49.07 L 124.01 49.62 L 123.92 50.11 L 123.83 50.52 L 123.75 50.84 L 123.69 51.05 L 123.67 51.12 L 123.7 51.11 L 123.79 51.07 L 123.94 51.01 L 124.14 50.93 L 124.38 50.82 L 124.67 50.7 L 125 50.56 L 125.37 50.41 L 125.78 50.25 L 126.21 50.07 L 126.67 49.89 L 127.16 49.69 L 127.66 49.49 L 128.18 49.29 L 128.72 49.08 L 129.26 48.88 L 129.81 48.67 L 130.36 48.47 L 130.91 48.27 L 131.45 48.08 L 131.98 47.9 L 132.51 47.73 L 133.01 47.56 L 133.5 47.42 L 133.97 47.28 L 134.41 47.17 L 134.81 47.07 L 135.19 46.99 L 135.52 46.94 L 135.82 46.9 L 136.07 46.9 L 136.28 46.92 L 136.6 47.01 L 136.85 47.14 L 137.03 47.31 L 137.17 47.49 L 137.27 47.7 L 137.34 47.91 L 137.39 48.13 L 137.42 48.35 L 137.46 48.56 L 137.51 48.76 L 137.58 48.93 L 137.67 49.07 L 137.81 49.18 L 138 49.24 L 138.25 49.25 L 138.57 49.21 L 138.95 49.11 L 139.36 48.96 L 139.8 48.77 L 140.28 48.54 L 140.78 48.3 L 141.32 48.06 L 141.89 47.82 L 142.49 47.59 L 143.11 47.39 L 143.75 47.23 L 144.43 47.12 L 145.12 47.06 L 145.84 47.08 L 146.58 47.19 L 147.34 47.38 L 148.12 47.69 L 148.8 48.05 L 149.3 48.43 L 149.64 48.83 L 149.86 49.23 L 149.97 49.64 L 150.01 50.06 L 150 50.47 L 149.98 50.88 L 149.98 51.29 L 150.01 51.69 L 150.12 52.09 L 150.32 52.47 L 150.65 52.83 L 151.14 53.17 L 151.82 53.5 L 152.7 53.8 L 153.64 54.04 L 154.44 54.21 L 155.13 54.31 L 155.72 54.35 L 156.22 54.35 L 156.64 54.33 L 157.01 54.28 L 157.33 54.23 L 157.63 54.18 L 157.9 54.14 L 158.17 54.14 L 158.45 54.17 L 158.76 54.26 L 159.1 54.41 L 159.5 54.63 L 159.96 54.94 L 160.19 55.12 L 160.37 55.27 L 160.52 55.42 L 160.62 55.56 L 160.7 55.68 L 160.74 55.8 L 160.76 55.9 L 160.76 55.99 L 160.74 56.08 L 160.7 56.16 L 160.65 56.22 L 160.59 56.29 L 160.53 56.34 L 160.46 56.39 L 160.4 56.43 L 160.34 56.47 L 160.29 56.5 L 160.26 56.53 L 160.24 56.56 L 160.24 56.58 L 160.26 56.61 L 160.31 56.62 L 160.39 56.64 L 160.5 56.66 L 160.65 56.68 L 160.84 56.7 L 161.07 56.72 L 161.35 56.74 L 161.68 56.76 L 162.07 56.79 L 162.51 56.82 L 163.02 56.85 L 164.03 56.92 L 164.91 56.98 L 165.68 57.04 L 166.34 57.1 L 166.9 57.17 L 167.37 57.24 L 167.76 57.33 L 168.08 57.43 L 168.33 57.54 L 168.54 57.68 L 168.7 57.84 L 168.82 58.03 L 168.91 58.26 L 168.99 58.51 L 169.06 58.81 L 169.13 59.14 L 169.15 59.48 L 169.09 59.76 L 168.96 60 L 168.79 60.2 L 168.61 60.36 L 168.43 60.49 L 168.28 60.59 L 168.17 60.67 L 168.14 60.74 L 168.2 60.79 L 168.38 60.83 L 168.7 60.86 L 169.18 60.9 L 169.84 60.94 L 170.71 60.99 L 171.8 61.05 L 172.95 61.11 L 173.97 61.13 L 174.87 61.13 L 175.66 61.11 L 176.37 61.08 L 176.99 61.04 L 177.55 61 L 178.06 60.96 L 178.52 60.93 L 178.96 60.91 L 179.38 60.92 L 179.81 60.95 L 180.24 61.01 L 180.7 61.11 L 181.19 61.25 L 181.73 61.44 L 182.21 61.65 L 182.52 61.88 L 182.69 62.1 L 182.75 62.33 L 182.72 62.54 L 182.63 62.75 L 182.52 62.94 L 182.4 63.11 L 182.31 63.26 L 182.28 63.38 L 182.33 63.47 L 182.49 63.53 L 182.78 63.55 L 183.25 63.53 L 183.91 63.46 L 184.79 63.35 L 185.7 63.18 L 186.45 62.98 L 187.06 62.76 L 187.55 62.52 L 187.94 62.28 L 188.27 62.04 L 188.55 61.82 L 188.8 61.63 L 189.06 61.47 L 189.33 61.35 L 189.66 61.3 L 190.06 61.31 L 190.54 61.39 L 191.15 61.56 L 191.9 61.83 L 192.81 62.2 L 193.81 62.64 L 194.81 63.09 L 195.79 63.55 L 196.76 64.02 L 197.7 64.49 L 198.61 64.96 L 199.48 65.42 L 200.31 65.88 L 201.09 66.32 L 201.81 66.74 L 202.48 67.14 L 203.07 67.52 L 203.59 67.87 L 204.04 68.18 L 204.39 68.46 L 204.65 68.69 L 205.05 69.12 L 205.38 69.54 L 205.64 69.92 L 205.85 70.27 L 206 70.56 L 206.1 70.79 L 206.16 70.93 L 206.18 70.99 L 206.09 70.97 L 205.81 70.94 L 205.39 70.89 L 204.82 70.84 L 204.14 70.78 L 203.36 70.72 L 202.51 70.68 L 201.6 70.65 L 200.65 70.65 L 199.69 70.67 L 198.73 70.73 L 197.8 70.82 L 196.91 70.97 L 196.09 71.17 L 195.35 71.43 L 194.72 71.75 L 194.15 72.11 L 193.6 72.46 L 193.06 72.81 L 192.54 73.15 L 192.04 73.48 L 191.57 73.8 L 191.12 74.1 L 190.71 74.38 L 190.34 74.63 L 190 74.87 L 189.71 75.07 L 189.46 75.24 L 189.26 75.38 L 189.11 75.48 L 189.02 75.55 L 188.99 75.57 L 188.97 75.56 L 188.89 75.54 L 188.77 75.51 L 188.61 75.47 L 188.41 75.44 L 188.19 75.41 L 187.93 75.39 L 187.65 75.38 L 187.36 75.39 L 187.05 75.42 L 186.74 75.48 L 186.41 75.57 L 186.09 75.7 L 185.78 75.86 L 185.47 76.07 L 185.17 76.33 L 184.89 76.63 L 184.6 76.94 L 184.32 77.25 L 184.05 77.58 L 183.79 77.9 L 183.53 78.21 L 183.29 78.52 L 183.07 78.82 L 182.87 79.09 L 182.68 79.35 L 182.52 79.58 L 182.38 79.77 L 182.27 79.93 L 182.19 80.05 L 182.13 80.13 L 182.12 80.15 L 177.53 80.92 L 174.09 84.36 L 174.05 84.38 L 173.91 84.46 L 173.69 84.57 L 173.41 84.73 L 173.06 84.91 L 172.66 85.12 L 172.23 85.35 L 171.76 85.6 L 171.26 85.85 L 170.76 86.11 L 170.25 86.36 L 169.74 86.61 L 169.26 86.85 L 168.79 87.06 L 168.37 87.25 L 167.98 87.41 L 167.69 87.57 L 167.51 87.75 L 167.44 87.95 L 167.45 88.17 L 167.52 88.41 L 167.65 88.65 L 167.81 88.91 L 167.98 89.18 L 168.16 89.45 L 168.32 89.72 L 168.44 89.99 L 168.52 90.26 L 168.53 90.52 L 168.45 90.77 L 168.28 91.01 L 167.98 91.23 L 167.19 91.66 L 166.26 92.09 L 165.25 92.52 L 164.21 92.95 L 163.19 93.38 L 162.24 93.81 L 161.4 94.24 L 160.73 94.67 L 160.22 95.06 L 159.84 95.39 L 159.57 95.66 L 159.39 95.86 L 159.28 96.02 L 159.22 96.12 L 159.2 96.18 L 159.2 96.2 L 166.46 107.66 L 163.78 107.66 L 163.85 107.67 L 164.03 107.7 L 164.33 107.77 L 164.72 107.87 L 165.19 108.01 L 165.74 108.2 L 166.34 108.45 L 166.98 108.76 L 167.66 109.13 L 168.35 109.58 L 169.05 110.11 L 169.74 110.72 L 170.42 111.42 L 171.06 112.23 L 171.65 113.13 L 172.18 114.15 L 172.66 115.21 L 173.07 116.22 L 173.42 117.2 L 173.73 118.12 L 173.99 118.99 L 174.21 119.81 L 174.38 120.57 L 174.53 121.27 L 174.64 121.89 L 174.72 122.45 L 174.78 122.93 L 174.82 123.34 L 174.84 123.66 L 174.85 123.89 L 174.86 124.03 L 174.86 124.08 L 170.66 125.99 L 174.48 135.16 L 172.38 135.92 L 172.41 135.97 L 172.5 136.09 L 172.64 136.29 L 172.82 136.54 L 173.03 136.86 L 173.26 137.21 L 173.51 137.61 L 173.76 138.03 L 174.01 138.46 L 174.24 138.91 L 174.45 139.35 L 174.63 139.79 L 174.77 140.21 L 174.86 140.6 L 174.89 140.96 L 174.86 141.27 L 174.7 141.83 L 174.52 142.33 L 174.33 142.79 L 174.14 143.18 L 173.97 143.5 L 173.84 143.74 L 173.75 143.89 L 173.71 143.95 L 173.73 143.97 L 173.77 144.04 L 173.85 144.15 L 173.94 144.31 L 174.06 144.5 L 174.21 144.73 L 174.37 144.98 L 174.55 145.27 L 174.74 145.58 L 174.95 145.92 L 175.17 146.27 L 175.41 146.65 L 175.64 147.03 L 175.89 147.43 L 176.14 147.83 L 176.39 148.24 L 176.64 148.66 L 176.89 149.07 L 177.13 149.48 L 177.37 149.88 L 177.6 150.27 L 177.82 150.65 L 178.03 151.01 L 178.23 151.36 L 178.4 151.68 L 178.57 151.98 L 178.71 152.26 L 178.83 152.5 L 178.93 152.71 L 179 152.89 L 179.05 153.02 L 179.06 153.11 L 179 153.42 L 178.84 153.76 L 178.63 154.14 L 178.42 154.55 L 178.25 154.99 L 178.17 155.48 L 178.24 156 L 178.49 156.55 L 178.65 156.81 L 178.77 157 L 178.88 157.15 L 178.96 157.26 L 179.04 157.33 L 179.11 157.38 L 179.19 157.42 L 179.28 157.46 L 179.38 157.5 L 179.52 157.55 L 179.7 157.63 L 179.91 157.73 L 180.18 157.88 L 180.5 158.08 L 180.89 158.33 L 181.35 158.65 L 181.8 159.02 L 182.16 159.39 L 182.43 159.77 L 182.62 160.15 L 182.76 160.55 L 182.85 160.95 L 182.9 161.36 L 182.93 161.78 L 182.94 162.2 L 182.95 162.63 L 182.97 163.07 L 183.02 163.51 L 183.09 163.96 L 183.22 164.42 L 183.4 164.87 L 183.64 165.34 L 183.91 165.78 L 184.13 166.16 L 184.32 166.51 L 184.49 166.82 L 184.62 167.1 L 184.74 167.36 L 184.84 167.6 L 184.93 167.84 L 185.02 168.09 L 185.11 168.34 L 185.2 168.61 L 185.31 168.91 L 185.43 169.24 L 185.57 169.61 L 185.74 170.02 L 185.94 170.5 L 186.38 171.47 L 186.84 172.41 L 187.29 173.32 L 187.7 174.22 L 188.07 175.12 L 188.35 176.03 L 188.54 176.97 L 188.61 177.94 L 188.61 182.53 L 188.57 182.48 L 188.43 182.33 L 188.22 182.08 L 187.94 181.76 L 187.58 181.35 L 187.16 180.87 L 186.68 180.33 L 186.15 179.72 L 185.57 179.07 L 184.94 178.36 L 184.28 177.62 L 183.59 176.85 L 182.88 176.05 L 182.14 175.22 L 181.4 174.39 L 180.64 173.55 L 179.88 172.71 L 179.12 171.88 L 178.36 171.06 L 177.62 170.25 L 176.9 169.48 L 176.21 168.74 L 175.54 168.04 L 174.91 167.38 L 174.32 166.78 L 173.78 166.23 L 173.29 165.75 L 172.85 165.35 L 172.48 165.02 L 172.18 164.78 L 171.95 164.63 L 171.8 164.57 L 171.42 164.54 L 171.1 164.47 L 170.83 164.39 L 170.59 164.33 L 170.35 164.33 L 170.11 164.41 L 169.84 164.61 L 169.51 164.96 L 169.19 165.33 L 168.93 165.62 L 168.73 165.82 L 168.58 165.96 L 168.48 166.04 L 168.41 166.08 L 168.37 166.1 L 168.36 166.1 L 168.34 166.08 L 168.29 166.03 L 168.19 165.94 L 168.07 165.82 L 167.91 165.68 L 167.72 165.5 L 167.5 165.3 L 167.26 165.09 L 167 164.85 L 166.72 164.59 L 166.42 164.33 L 166.1 164.05 L 165.77 163.76 L 165.42 163.46 L 165.07 163.16 L 164.71 162.85 L 164.35 162.55 L 163.98 162.25 L 163.61 161.95 L 163.24 161.66 L 162.88 161.38 L 162.53 161.11 L 162.18 160.86 L 161.84 160.62 L 161.51 160.4 L 161.2 160.21 L 160.91 160.03 L 160.63 159.89 L 160.38 159.77 L 160.15 159.68 L 159.95 159.63 L 159.77 159.61 L 159.47 159.63 L 159.22 159.7 L 159 159.81 L 158.81 159.94 L 158.65 160.11 L 158.51 160.3 L 158.38 160.51 L 158.27 160.73 L 158.15 160.96 L 158.03 161.18 L 157.9 161.41 L 157.76 161.62 L 157.59 161.82 L 157.4 162 L 157.17 162.16 L 156.9 162.28 L 156.64 162.38 L 156.42 162.47 L 156.22 162.53 L 156.05 162.58 L 155.89 162.6 L 155.73 162.6 L 155.56 162.58 L 155.38 162.52 L 155.17 162.43 L 154.92 162.31 L 154.62 162.15 L 154.27 161.96 L 153.86 161.72 L 153.37 161.45 L 152.8 161.12 L 152.13 160.75 L 151.51 160.37 L 151.07 160 L 150.78 159.64 L 150.62 159.31 L 150.57 159 L 150.6 158.71 L 150.69 158.45 L 150.82 158.22 L 150.95 158.02 L 151.08 157.86 L 151.16 157.73 L 151.19 157.64 L 151.13 157.59 L 150.97 157.58 L 150.67 157.61 L 150.22 157.7 L 149.73 157.82 L 149.34 157.96 L 149.02 158.12 L 148.77 158.28 L 148.58 158.45 L 148.43 158.62 L 148.31 158.79 L 148.22 158.94 L 148.13 159.07 L 148.04 159.18 L 147.93 159.26 L 147.8 159.31 L 147.63 159.32 L 147.42 159.28 L 147.14 159.18 L 146.78 159.04 L 146.4 158.87 L 146.05 158.73 L 145.72 158.62 L 145.41 158.51 L 145.12 158.42 L 144.83 158.33 L 144.55 158.25 L 144.28 158.15 L 144 158.05 L 143.71 157.93 L 143.41 157.78 L 143.1 157.61 L 142.77 157.41 L 142.42 157.17 L 142.04 156.88 L 141.63 156.55 L 141.22 156.21 L 140.87 155.88 L 140.56 155.58 L 140.3 155.31 L 140.08 155.07 L 139.89 154.86 L 139.74 154.67 L 139.62 154.52 L 139.53 154.4 L 139.45 154.32 L 139.4 154.28 L 139.37 154.27 L 139.35 154.3 L 139.34 154.37 L 139.33 154.48 L 139.33 154.64 L 139.31 154.89 L 139.23 155.27 L 139.12 155.75 L 138.98 156.33 L 138.8 156.97 L 138.61 157.66 L 138.4 158.38 L 138.19 159.11 L 137.97 159.82 L 137.77 160.51 L 137.57 161.14 L 137.4 161.71 L 137.25 162.18 L 137.14 162.54 L 137.07 162.77 L 137.04 162.85 L 136.94 162.82 L 136.63 162.74 L 136.16 162.59 L 135.54 162.4 L 134.8 162.16 L 133.96 161.89 L 133.04 161.58 L 132.08 161.23 L 131.08 160.86 L 130.08 160.47 L 129.11 160.06 L 128.18 159.63 L 127.32 159.2 L 126.55 158.76 L 125.9 158.32 L 125.39 157.89 L 124.57 157.06 L 123.83 156.29 L 123.18 155.58 L 122.62 154.95 L 122.18 154.4 L 121.85 153.94 L 121.64 153.57 L 121.57 153.31 L 121.54 153.07 L 121.45 152.82 L 121.33 152.57 L 121.19 152.33 L 121.05 152.11 L 120.93 151.94 L 120.84 151.82 L 120.81 151.78 L 120.75 151.84 L 120.58 152.02 L 120.33 152.26 L 120.02 152.54 L 119.66 152.82 L 119.28 153.07 L 118.89 153.24 L 118.51 153.31 L 118.36 153.33 L 118.23 153.39 L 118.13 153.48 L 118.05 153.59 L 117.96 153.7 L 117.87 153.81 L 117.77 153.9 L 117.63 153.97 L 117.46 154.01 L 117.24 154 L 116.96 153.93 L 116.61 153.79 L 116.18 153.57 L 115.66 153.27 L 115.04 152.86 L 114.31 152.35 L 113.52 151.79 L 112.7 151.24 L 111.89 150.72 L 111.08 150.21 L 110.28 149.73 L 109.51 149.26 L 108.76 148.83 L 108.06 148.41 L 107.4 148.02 L 106.81 147.66 L 106.28 147.32 L 105.83 147.01 L 105.46 146.72 L 105.18 146.47 L 105.01 146.24 L 104.95 146.05 L 104.99 145.7 L 105.06 145.39 L 105.16 145.12 L 105.24 144.92 L 105.29 144.81 L 105.28 144.78 L 105.17 144.87 L 104.95 145.09 L 104.87 145.19 L 104.76 145.35 L 104.62 145.57 L 104.46 145.83 L 104.27 146.14 L 104.07 146.49 L 103.85 146.87 L 103.62 147.29 L 103.37 147.75 L 103.11 148.22 L 102.84 148.72 L 102.56 149.24 L 102.28 149.76 L 102 150.3 L 101.71 150.85 L 101.42 151.4 L 101.14 151.94 L 100.86 152.48 L 100.58 153.01 L 100.31 153.52 L 100.06 154.02 L 99.81 154.49 L 99.58 154.94 L 99.37 155.35 L 99.17 155.74 L 98.99 156.08 L 98.84 156.38 L 98.71 156.64 L 98.6 156.85 L 98.53 157 L 98.48 157.09 L 98.46 157.13 L 97.32 156.55 L 97.3 156.65 L 97.25 156.94 L 97.17 157.39 L 97.06 157.99 L 96.93 158.7 L 96.77 159.5 L 96.6 160.38 L 96.41 161.3 L 96.2 162.25 L 95.99 163.2 L 95.77 164.13 L 95.54 165.01 L 95.31 165.83 L 95.08 166.55 L 94.86 167.16 L 94.64 167.63 L 94.43 167.98 L 94.22 168.26 L 94.02 168.48 L 93.83 168.66 L 93.65 168.79 L 93.47 168.91 L 93.31 169.01 L 93.16 169.11 L 93.02 169.23 L 92.9 169.37 L 92.8 169.55 L 92.71 169.78 L 92.64 170.07 L 92.58 170.44 L 92.55 170.9 L 92.54 171.45 L 92.54 177.18 L 92.53 177.79 L 92.49 178.42 L 92.43 179.04 L 92.36 179.65 L 92.27 180.26 L 92.18 180.84 L 92.07 181.4 L 91.97 181.93 L 91.86 182.42 L 91.76 182.87 L 91.66 183.26 L 91.57 183.6 L 91.5 183.87 L 91.44 184.08 L 91.41 184.2 L 91.39 184.25 L 91.37 184.21 L 91.29 184.09 L 91.17 183.91 L 91 183.66 L 90.8 183.34 L 90.55 182.97 L 90.27 182.55 L 89.96 182.07 L 89.62 181.56 L 89.25 181 L 88.86 180.4 L 88.44 179.77 L 88.01 179.12 L 87.57 178.44 L 87.11 177.75 L 86.64 177.04 L 86.17 176.32 L 85.69 175.59 L 85.22 174.86 L 84.74 174.14 L 84.28 173.42 L 83.82 172.71 L 83.37 172.02 L 82.93 171.35 L 82.52 170.71 L 82.12 170.09 L 81.74 169.51 L 81.39 168.97 L 81.07 168.46 L 80.79 168.01 L 80.53 167.6 L 80.32 167.25 L 79.95 166.62 L 79.64 166.03 L 79.38 165.48 L 79.16 164.96 L 78.99 164.48 L 78.85 164.04 L 78.74 163.64 L 78.67 163.28 L 78.62 162.96 L 78.59 162.69 L 78.57 162.45 L 78.57 162.25 L 78.58 162.1 L 78.59 161.99 L 78.59 161.92 L 78.6 161.9 L 76.88 162.28 L 76.85 162.29 L 76.79 162.3 L 76.68 162.31 L 76.53 162.31 L 76.35 162.3 L 76.14 162.26 L 75.91 162.2 L 75.66 162.09 L 75.39 161.94 L 75.12 161.74 L 74.83 161.48 L 74.54 161.15 L 74.25 160.75 L 73.97 160.27 L 73.7 159.7 L 73.44 159.04 L 73.18 158.28 L 72.92 157.47 L 72.64 156.6 L 72.36 155.7 L 72.08 154.78 L 71.8 153.85 L 71.53 152.92 L 71.27 152.02 L 71.01 151.14 L 70.77 150.31 L 70.55 149.53 L 70.35 148.83 L 70.17 148.21 L 70.02 147.69 L 69.9 147.28 L 69.81 147 L 69.68 146.6 L 69.58 146.25 L 69.48 145.95 L 69.38 145.71 L 69.26 145.52 L 69.11 145.39 L 68.92 145.31 L 68.67 145.28 L 68.41 145.34 L 68.21 145.49 L 68.05 145.69 L 67.9 145.9 L 67.75 146.1 L 67.59 146.25 L 67.39 146.31 L 67.14 146.24 L 66.98 146.18 L 66.81 146.13 L 66.62 146.1 L 66.42 146.07 L 66.22 146.03 L 66.01 145.99 L 65.79 145.93 L 65.59 145.86 L 65.38 145.75 L 65.19 145.62 L 65.01 145.44 L 64.85 145.22 L 64.72 144.94 L 64.6 144.61 L 64.52 144.22 L 64.46 143.76 L 64.45 143.46 L 64.46 143.08 L 64.47 142.62 L 64.5 142.09 L 64.53 141.49 L 64.58 140.83 L 64.64 140.11 L 64.7 139.35 L 64.77 138.54 L 64.84 137.69 L 64.92 136.81 L 65 135.9 L 65.09 134.98 L 65.18 134.03 L 65.26 133.08 L 65.35 132.13 L 65.43 131.18 L 65.51 130.24 L 65.59 129.31 L 65.66 128.4 L 65.73 127.52 L 65.79 126.67 L 65.84 125.86 L 65.89 125.09 L 65.92 124.37 L 65.94 123.71 L 65.96 123.11 L 65.95 122.57 L 65.94 122.11 L 65.91 121.73 L 65.86 121.43 L 65.8 121.22 L 65.53 120.65 L 65.3 120.22 L 65.1 119.92 L 64.94 119.71 L 64.82 119.59 L 64.73 119.53 L 64.67 119.5 L 64.65 119.5 L 64.61 119.51 L 64.5 119.55 L 64.32 119.6 L 64.08 119.66 L 63.81 119.74 L 63.5 119.81 L 63.16 119.88 L 62.82 119.95 L 62.47 120.01 L 62.13 120.05 L 61.81 120.07 L 61.51 120.06 L 61.26 120.03 L 61.05 119.96 L 60.91 119.84 L 60.83 119.69 L 60.78 119.5 L 60.68 119.29 L 60.54 119.06 L 60.39 118.81 L 60.22 118.54 L 60.05 118.26 L 59.87 117.97 L 59.71 117.66 L 59.57 117.34 L 59.46 117.01 L 59.39 116.68 L 59.36 116.33 L 59.38 115.98 L 59.47 115.63 L 59.64 115.27 L 59.88 114.92 L 60.17 114.55 L 60.47 114.17 L 60.76 113.78 L 61.06 113.39 L 61.35 113.01 L 61.64 112.63 L 61.91 112.26 L 62.17 111.91 L 62.41 111.58 L 62.63 111.28 L 62.83 111.01 L 63 110.78 L 63.13 110.59 L 63.23 110.45 L 63.3 110.36 L 63.32 110.33 L 60.64 110.33 L 60.67 110.3 L 60.74 110.22 L 60.84 110.09 L 60.99 109.91 L 61.18 109.69 L 61.39 109.43 L 61.63 109.13 L 61.9 108.79 L 62.19 108.43 L 62.5 108.04 L 62.83 107.63 L 63.16 107.2 L 63.51 106.75 L 63.86 106.29 L 64.21 105.82 L 64.56 105.34 L 64.91 104.86 L 65.24 104.38 L 65.57 103.91 L 65.88 103.44 L 66.18 102.98 L 66.46 102.54 L 66.71 102.11 L 66.93 101.71 L 67.12 101.33 L 67.28 100.98 L 67.4 100.66 L 67.48 100.37 L 67.52 100.12 L 67.51 99.91 L 67.44 99.75 L 67.33 99.64 L 67.06 99.48 L 66.82 99.37 L 66.6 99.29 L 66.41 99.23 L 66.24 99.2 L 66.08 99.18 L 65.95 99.16 L 65.82 99.13 L 65.71 99.1 L 65.61 99.05 L 65.51 98.97 L 65.42 98.86 L 65.33 98.7 L 65.24 98.5 L 65.14 98.24 L 65.04 97.92 L 64.92 97.18 L 65 96.4 L 65.25 95.6 L 65.63 94.79 L 66.14 93.99 L 66.73 93.22 L 67.39 92.48 L 68.09 91.8 L 68.3 91.61 L 68.56 91.36 L 68.88 91.06 L 69.24 90.71 L 69.64 90.32 L 70.09 89.88 L 70.57 89.41 L 71.08 88.9 L 71.61 88.37 L 72.17 87.81 L 72.75 87.23 L 73.34 86.64 L 73.95 86.03 L 74.56 85.42 L 75.17 84.8 L 75.78 84.19 L 76.39 83.58 L 76.98 82.98 L 77.56 82.39 L 78.13 81.82 L 78.67 81.27 L 79.19 80.75 L 79.67 80.26 L 80.13 79.8 L 80.54 79.38 L 80.91 79 L 81.24 78.67 L 81.51 78.39 L 81.74 78.17 L 81.9 78 L 82 77.9 L 82.04 77.86 L 81.84 75.76 L 81.81 75.74 L 81.72 75.67 L 81.57 75.56 L 81.36 75.4 L 81.09 75.2 L 80.77 74.96 L 80.4 74.69 L 79.97 74.37 L 79.5 74.02 L 78.99 73.64 L 78.43 73.22 L 77.83 72.78 L 77.18 72.3 L 76.51 71.8 L 75.79 71.26 L 75.04 70.71 L 74.26 70.12 L 73.45 69.52 L 72.61 68.9 L 71.74 68.25 L 70.86 67.59 L 69.95 66.91 L 69.01 66.22 L 68.07 65.51 L 67.1 64.79 L 66.12 64.06 L 65.13 63.32 L 64.13 62.57 L 63.12 61.81 L 62.11 61.05 L 61.09 60.29 L 60.07 59.53 L 59.05 58.76 L 58.03 58 L 57.02 57.23 L 56.01 56.48 L 55.01 55.72 L 54.02 54.98 L 53.04 54.24 L 52.08 53.51 L 51.13 52.79 L 50.2 52.09 L 49.29 51.4 L 48.4 50.72 L 47.53 50.06 L 46.69 49.42 L 45.88 48.8 L 45.1 48.2 L 44.35 47.63 L 43.64 47.08 L 42.96 46.55 L 42.32 46.05 L 41.71 45.58 L 41.15 45.14 L 40.64 44.73 L 40.17 44.36 L 39.75 44.02 L 39.37 43.71 L 39.05 43.44 L 38.79 43.22 L 38.58 43.03 L 38.42 42.88 L 38.33 42.78 L 38.3 42.72 L 38.22 42.58 L 38.01 42.32 L 37.66 41.93 L 37.18 41.44 L 36.59 40.84 L 35.9 40.15 L 35.1 39.37 L 34.23 38.51 L 33.27 37.58 L 32.25 36.6 L 31.17 35.55 L 30.04 34.47 L 28.87 33.34 L 27.67 32.19 L 26.45 31.01 L 25.21 29.83 L 23.98 28.63 L 22.75 27.45 L 21.54 26.27 L 20.35 25.11 L 19.2 23.99 L 18.1 22.9 L 17.05 21.85 L 16.06 20.86 L 15.14 19.92 L 14.31 19.06 L 13.57 18.27 L 12.93 17.57 L 12.4 16.97 L 11.98 16.46 L 11.7 16.07 L 11.56 15.79 L 11.41 15.34 L 11.26 14.88 L 11.1 14.39 L 10.94 13.9 L 10.78 13.41 L 10.63 12.93 L 10.48 12.46 L 10.34 12.02 L 10.21 11.6 L 10.1 11.23 L 10 10.9 L 9.92 10.63 L 9.86 10.42 L 9.83 10.28 L 9.82 10.22 L 9.84 10.25 L 9.84 10.25 L 9.84 10.25 Z" fill-rule="nonzero"/>
        </g>
      </g>
      <g id="veins.1" filter="url(#gridSVG.filter.9.1)">
        <g id="picture.shape::picture.scale.1">
          <g id="picture.shape::picture.scale.2">
            <g id="GRID.picstroke.122.1">
              <g id="GRID.polyline.134.1">
                <polyline id="GRID.polyline.134.1.1" points="204.43,70.05 204.38,70.03 204.25,69.99 204.04,69.93 203.76,69.85 203.42,69.75 203.04,69.63 202.62,69.51 202.16,69.38 201.69,69.24 201.21,69.1 200.73,68.96 200.25,68.83 199.8,68.7 199.38,68.59 198.99,68.48 198.66,68.4 198.35,68.34 198.03,68.32 197.71,68.33 197.37,68.36 197.01,68.43 196.63,68.52 196.22,68.63 195.77,68.76 195.29,68.9 194.76,69.05 194.18,69.22 193.55,69.38 192.87,69.55 192.12,69.72 191.3,69.89 190.41,70.05 188.5,70.28 186.48,70.39 184.36,70.41 182.16,70.36 179.88,70.26 177.54,70.16 175.13,70.08 172.68,70.05 171.43,70.09 170.15,70.22 168.84,70.43 167.52,70.69 166.17,71 164.8,71.35 163.41,71.72 162.01,72.11 160.59,72.49 159.16,72.87 157.72,73.21 156.27,73.53 154.81,73.79 153.35,73.99 151.88,74.12 150.41,74.17 148.86,74.17 147.15,74.15 145.31,74.13 143.36,74.11 141.32,74.09 139.2,74.06 137.04,74.04 134.84,74.02 132.64,74 130.44,73.99 128.28,73.99 126.17,74 124.13,74.02 122.19,74.05 120.35,74.1 118.66,74.17 117.8,74.21 116.85,74.27 115.83,74.34 114.74,74.41 113.58,74.5 112.36,74.59 111.09,74.69 109.78,74.79 108.44,74.91 107.07,75.02 105.68,75.14 104.28,75.26 102.88,75.39 101.47,75.52 100.08,75.64 98.71,75.77 97.36,75.89 96.04,76.02 94.77,76.14 93.54,76.25 92.37,76.36 91.26,76.47 90.22,76.57 89.26,76.66 88.38,76.75 87.6,76.83 86.91,76.89 86.33,76.95 85.87,76.99 85.53,77.03 85.33,77.05 85.25,77.06 85.29,77.08 85.38,77.17 85.53,77.3 85.73,77.48 86,77.72 86.31,78 86.68,78.33 87.09,78.7 87.56,79.11 88.07,79.57 88.62,80.06 89.22,80.59 89.86,81.16 90.53,81.76 91.25,82.4 91.99,83.07 92.78,83.77 93.59,84.49 94.43,85.24 95.31,86.02 96.21,86.82 97.13,87.64 98.07,88.48 99.04,89.34 100.03,90.22 101.03,91.11 102.05,92.02 103.08,92.94 104.13,93.86 105.18,94.8 106.25,95.75 107.32,96.7 108.39,97.65 109.47,98.61 110.55,99.56 111.63,100.52 112.7,101.47 113.78,102.42 114.84,103.36 115.9,104.3 116.95,105.23 117.99,106.14 119.01,107.05 120.02,107.94 121.01,108.81 121.99,109.67 122.94,110.51 123.88,111.33 124.78,112.13 125.67,112.9 126.52,113.65 127.35,114.37 128.14,115.06 128.91,115.73 129.63,116.36 130.32,116.96 130.98,117.52 131.59,118.05 132.16,118.54 132.69,118.99 133.17,119.4 133.61,119.76 133.99,120.08 134.33,120.36 135.57,121.37 136.84,122.39 138.12,123.43 139.42,124.5 140.74,125.59 142.08,126.71 143.43,127.87 144.79,129.07 146.17,130.31 147.56,131.6 148.97,132.94 150.39,134.33 151.82,135.79 153.26,137.31 154.72,138.9 156.18,140.56 156.89,141.38 157.54,142.15 158.15,142.86 158.71,143.52 159.23,144.13 159.71,144.7 160.15,145.23 160.56,145.72 160.94,146.17 161.29,146.6 161.62,147 161.93,147.38 162.22,147.73 162.5,148.07 162.77,148.39 163.04,148.71 163.3,149.01 163.56,149.32 163.82,149.62 164.09,149.92 164.37,150.23 164.66,150.55 164.96,150.88 165.29,151.23 165.63,151.6 166.01,151.99 166.41,152.41 166.84,152.85 167.31,153.33 167.82,153.85 168.37,154.4 168.97,155 170.16,156.19 171.27,157.29 172.31,158.31 173.28,159.25 174.18,160.14 175.02,160.96 175.81,161.74 176.54,162.47 177.24,163.17 177.89,163.84 178.52,164.5 179.11,165.14 179.69,165.79 180.25,166.44 180.8,167.1 181.34,167.78 181.88,168.52 182.41,169.34 182.94,170.22 183.46,171.15 183.96,172.1 184.43,173.06 184.88,174.02 185.31,174.94 185.69,175.83 186.04,176.65 186.35,177.4 186.61,178.04 186.82,178.58 186.98,178.98 187.08,179.24 187.11,179.33" stroke-width="0.93" stroke-dasharray="none" stroke="rgb(0,0,0)" fill="none" stroke-opacity="1" fill-opacity="0"/>
              </g>
            </g>
          </g>
        </g>
        <g id="picture.shape::picture.scale.3">
          <g id="picture.shape::picture.scale.4">
            <g id="GRID.picstroke.123.1">
              <g id="GRID.polyline.135.1">
                <polyline id="GRID.polyline.135.1.1" points="85.25,77.47 85.25,77.52 85.23,77.66 85.19,77.88 85.15,78.2 85.09,78.59 85.02,79.05 84.94,79.58 84.85,80.18 84.75,80.84 84.64,81.56 84.53,82.33 84.41,83.15 84.28,84.01 84.14,84.9 84.01,85.84 83.86,86.8 83.72,87.79 83.57,88.8 83.41,89.82 83.26,90.86 83.11,91.9 82.95,92.95 82.8,94 82.64,95.04 82.49,96.07 82.34,97.09 82.2,98.08 82.06,99.06 81.92,100 81.79,100.91 81.66,101.79 81.54,102.62 81.42,103.4 81.28,104.12 81.14,104.78 80.98,105.38 80.82,105.93 80.65,106.44 80.48,106.91 80.31,107.34 80.13,107.74 79.96,108.12 79.79,108.47 79.63,108.8 79.47,109.12 79.33,109.43 79.19,109.74 79.07,110.05 78.96,110.36 78.87,110.68 78.79,111.02 78.74,111.37 78.71,111.75 78.7,112.15 78.72,112.59 78.76,113.06 78.83,113.58 78.94,114.14 79.07,114.75 79.24,115.41 79.45,116.13 79.69,116.92 79.98,117.78 80.31,118.71 80.64,119.68 80.94,120.66 81.2,121.65 81.44,122.65 81.66,123.65 81.84,124.66 82.01,125.66 82.15,126.67 82.27,127.67 82.37,128.67 82.45,129.67 82.52,130.65 82.58,131.63 82.62,132.59 82.65,133.54 82.68,134.48 82.69,135.4 82.7,136.3 82.71,137.18 82.71,138.04 82.72,138.87 82.72,139.68 82.73,140.46 82.74,141.21 82.76,141.93 82.79,142.61 82.82,143.26 82.87,143.87 82.92,144.45 83,144.98 83.09,145.48 83.19,145.92 83.32,146.42 83.48,147.07 83.67,147.86 83.88,148.77 84.12,149.79 84.38,150.92 84.65,152.14 84.94,153.44 85.24,154.82 85.56,156.25 85.88,157.74 86.22,159.27 86.55,160.82 86.89,162.4 87.23,163.98 87.57,165.56 87.91,167.13 88.24,168.67 88.56,170.18 88.87,171.64 89.17,173.05 89.46,174.39 89.73,175.66 89.98,176.83 90.21,177.91 90.41,178.88 90.59,179.73 90.74,180.45 90.86,181.02 90.95,181.45 91.01,181.71 91.03,181.8" stroke-width="0.93" stroke-dasharray="none" stroke="rgb(0,0,0)" fill="none" stroke-opacity="1" fill-opacity="0"/>
              </g>
            </g>
          </g>
        </g>
        <g id="picture.shape::picture.scale.5">
          <g id="picture.shape::picture.scale.6">
            <g id="GRID.picstroke.124.1">
              <g id="GRID.polyline.136.1">
                <polyline id="GRID.polyline.136.1.1" points="133.09,118.71 133.12,118.7 133.21,118.68 133.36,118.64 133.57,118.59 133.82,118.53 134.13,118.46 134.49,118.39 134.89,118.31 135.34,118.22 135.83,118.14 136.35,118.05 136.92,117.97 137.51,117.89 138.14,117.81 138.8,117.74 139.48,117.68 140.19,117.62 140.92,117.58 141.67,117.55 142.43,117.54 143.21,117.54 144.01,117.56 144.81,117.6 145.62,117.66 146.43,117.75 147.25,117.86 148.06,117.99 148.88,118.15 149.69,118.35 150.49,118.57 151.28,118.83 152.06,119.12 153.58,119.68 155.04,120.12 156.43,120.47 157.77,120.72 159.05,120.91 160.27,121.03 161.43,121.1 162.52,121.13 163.55,121.14 164.52,121.14 165.43,121.14 166.27,121.15 167.04,121.19 167.75,121.27 168.39,121.4 168.97,121.59 170.01,122.05 170.96,122.5 171.8,122.92 172.52,123.29 173.11,123.61 173.55,123.86 173.82,124.01 173.91,124.07" stroke-width="0.31" stroke-dasharray="none" stroke="rgb(0,0,0)" fill="none" stroke-opacity="1" fill-opacity="0"/>
              </g>
            </g>
          </g>
        </g>
        <g id="picture.shape::picture.scale.7">
          <g id="picture.shape::picture.scale.8">
            <g id="GRID.picstroke.125.1">
              <g id="GRID.polyline.137.1">
                <polyline id="GRID.polyline.137.1.1" points="121.96,110.87 121.93,110.89 121.86,110.95 121.74,111.05 121.59,111.19 121.4,111.37 121.18,111.58 120.94,111.83 120.67,112.11 120.38,112.43 120.07,112.79 119.76,113.17 119.43,113.59 119.11,114.04 118.78,114.52 118.46,115.03 118.14,115.56 117.84,116.13 117.55,116.72 117.29,117.34 117.04,117.98 116.83,118.65 116.64,119.34 116.5,120.05 116.39,120.79 116.32,121.54 116.31,122.32 116.34,123.12 116.43,123.93 116.58,124.77 116.79,125.62 117.07,126.48 117.42,127.37 118.17,129.03 118.89,130.47 119.58,131.73 120.24,132.83 120.87,133.79 121.47,134.64 122.06,135.41 122.63,136.13 123.18,136.81 123.72,137.5 124.26,138.21 124.78,138.96 125.31,139.8 125.84,140.74 126.37,141.81 126.91,143.04 127.19,143.71 127.49,144.4 127.81,145.11 128.14,145.85 128.49,146.59 128.85,147.35 129.22,148.12 129.6,148.89 129.99,149.67 130.38,150.45 130.78,151.22 131.17,151.99 131.57,152.75 131.96,153.5 132.35,154.23 132.73,154.94 133.1,155.64 133.46,156.31 133.81,156.95 134.15,157.57 134.47,158.15 134.77,158.7 135.05,159.21 135.31,159.68 135.55,160.1 135.76,160.48 135.95,160.81 136.1,161.08 136.22,161.3 136.31,161.46 136.37,161.56 136.39,161.59" stroke-width="0.31" stroke-dasharray="none" stroke="rgb(0,0,0)" fill="none" stroke-opacity="1" fill-opacity="0"/>
              </g>
            </g>
          </g>
        </g>
        <g id="picture.shape::picture.scale.9">
          <g id="picture.shape::picture.scale.10">
            <g id="GRID.picstroke.126.1">
              <g id="GRID.polyline.138.1">
                <polyline id="GRID.polyline.138.1.1" points="95.98,88.6 95.96,88.62 95.93,88.66 95.87,88.74 95.79,88.85 95.69,88.98 95.58,89.15 95.46,89.34 95.32,89.56 95.18,89.81 95.04,90.09 94.89,90.39 94.74,90.71 94.59,91.06 94.44,91.44 94.3,91.84 94.17,92.26 94.05,92.71 93.94,93.18 93.85,93.67 93.78,94.18 93.73,94.71 93.7,95.27 93.69,95.84 93.71,96.43 93.76,97.04 93.85,97.67 93.97,98.32 94.12,98.98 94.31,99.66 94.55,100.36 94.83,101.07 95.15,101.8 95.82,103.18 96.43,104.39 96.98,105.46 97.47,106.39 97.91,107.21 98.28,107.94 98.6,108.59 98.86,109.17 99.07,109.71 99.21,110.23 99.3,110.74 99.33,111.25 99.3,111.8 99.21,112.38 99.07,113.03 98.86,113.76 98.75,114.18 98.64,114.66 98.53,115.2 98.42,115.79 98.31,116.43 98.21,117.12 98.11,117.84 98.02,118.59 97.93,119.37 97.84,120.18 97.75,121 97.67,121.83 97.59,122.68 97.51,123.52 97.44,124.37 97.37,125.2 97.3,126.03 97.24,126.83 97.18,127.62 97.13,128.38 97.08,129.1 97.03,129.79 96.99,130.44 96.95,131.04 96.91,131.59 96.88,132.08 96.86,132.51 96.84,132.87 96.82,133.16 96.81,133.38 96.8,133.51 96.8,133.55" stroke-width="0.31" stroke-dasharray="none" stroke="rgb(0,0,0)" fill="none" stroke-opacity="1" fill-opacity="0"/>
              </g>
            </g>
          </g>
        </g>
        <g id="picture.shape::picture.scale.11">
          <g id="picture.shape::picture.scale.12">
            <g id="GRID.picstroke.127.1">
              <g id="GRID.polyline.139.1">
                <polyline id="GRID.polyline.139.1.1" points="103.81,93.55 103.86,93.54 104.01,93.5 104.24,93.43 104.57,93.34 104.97,93.24 105.44,93.11 105.99,92.97 106.59,92.81 107.26,92.64 107.98,92.47 108.75,92.28 109.55,92.09 110.4,91.9 111.27,91.71 112.17,91.52 113.09,91.34 114.02,91.15 114.97,90.98 115.91,90.82 116.86,90.67 117.8,90.54 118.72,90.42 119.63,90.32 120.51,90.25 121.37,90.19 122.19,90.17 122.97,90.17 123.7,90.2 124.39,90.26 125.01,90.36 125.58,90.49 126.08,90.67 126.98,91.07 127.83,91.51 128.65,91.98 129.43,92.47 130.2,92.98 130.95,93.51 131.71,94.04 132.47,94.58 133.26,95.12 134.07,95.66 134.92,96.18 135.82,96.7 136.78,97.19 137.81,97.66 138.91,98.1 140.1,98.5 141.25,98.84 142.25,99.09 143.11,99.26 143.84,99.36 144.46,99.4 145,99.38 145.46,99.32 145.87,99.22 146.24,99.09 146.59,98.94 146.94,98.78 147.29,98.62 147.68,98.46 148.11,98.31 148.6,98.18 149.17,98.09 150.33,97.93 151.34,97.79 152.19,97.65 152.88,97.52 153.42,97.42 153.81,97.33 154.04,97.28 154.12,97.26" stroke-width="0.31" stroke-dasharray="none" stroke="rgb(0,0,0)" fill="none" stroke-opacity="1" fill-opacity="0"/>
              </g>
            </g>
          </g>
        </g>
      </g>
      <defs>
        <linearGradient id="gridSVG.gradientFill.19.1" x1="0" x2="1" y1="0" y2="1" gradientUnits="objectBoundingBox" spreadMethod="pad">
          <stop offset="0" stop-color="rgb(0,0,0)" stop-opacity="1"/>
          <stop offset="0.5" stop-color="rgb(255,0,0)" stop-opacity="1"/>
          <stop offset="1" stop-color="rgb(255,255,0)" stop-opacity="1"/>
        </linearGradient>
        <filter id="gridSVG.filter.8.1" x="0" y="0" width="216" height="216" filterUnits="userSpaceOnUse" primitiveUnits="userSpaceOnUse">
          <feGaussianBlur x="0" y="0" width="216" height="216" result="blur" stdDeviation="5" in="SourceAlpha"/>
          <feOffset x="0" y="0" width="216" height="216" dx="8.5" dy="-8.5" in="blur"/>
        </filter>
        <linearGradient id="gridSVG.gradientFill.20.1" x1="0" x2="1" y1="0" y2="1" gradientUnits="objectBoundingBox" spreadMethod="pad">
          <stop offset="0" stop-color="rgb(0,0,0)" stop-opacity="1"/>
          <stop offset="0.5" stop-color="rgb(255,0,0)" stop-opacity="1"/>
          <stop offset="1" stop-color="rgb(255,255,0)" stop-opacity="1"/>
        </linearGradient>
        <radialGradient id="gridSVG.gradientFill.21.1" cx="0.5" cy="0.5" r="0.5" fx="0.5" fy="0.5" gradientUnits="objectBoundingBox" spreadMethod="pad">
          <stop offset="0" stop-color="rgb(255,0,0)" stop-opacity="0.2"/>
          <stop offset="0.7" stop-color="rgb(255,255,0)" stop-opacity="0.4"/>
        </radialGradient>
        <clipPath id="gridSVG.clipPath.5.1">
          <polygon id="gridSVG.clipPath.5::GRID.polygon.39.1.1" points="151.2,0 0,151.2 0,216 216,216 216,0"/>
        </clipPath>
        <filter id="gridSVG.filter.9.1" x="0" y="0" width="216" height="216" filterUnits="userSpaceOnUse" primitiveUnits="userSpaceOnUse">
          <feGaussianBlur x="0" y="0" width="216" height="216" stdDeviation="1"/>
        </filter>
      </defs>
    </g>
  </g>
</svg>
