<?xml version="1.0" encoding="UTF-8"?>
<svg xmlns="http://www.w3.org/2000/svg" xmlns:xlink="http://www.w3.org/1999/xlink" width="576px" height="288px" viewBox="0 0 576 288" version="1.1">
  <metadata xmlns:gridsvg="http://www.stat.auckland.ac.nz/~paul/R/gridSVG/">
    <gridsvg:generator name="gridSVG" version="1.2-0" time="2013-06-25 11:08:19"/>
    <gridsvg:argument name="name" value="non-rect-clipping-paths.svg"/>
    <gridsvg:argument name="exportCoords" value="none"/>
    <gridsvg:argument name="exportMappings" value="none"/>
    <gridsvg:argument name="exportJS" value="none"/>
    <gridsvg:argument name="res" value="72"/>
    <gridsvg:argument name="prefix" value=""/>
    <gridsvg:argument name="addClasses" value="FALSE"/>
    <gridsvg:argument name="indent" value="TRUE"/>
    <gridsvg:argument name="htmlWrapper" value="FALSE"/>
    <gridsvg:argument name="usePaths" value="vpPaths"/>
    <gridsvg:argument name="uniqueNames" value="TRUE"/>
    <gridsvg:separator name="id.sep" value="."/>
    <gridsvg:separator name="gPath.sep" value="::"/>
    <gridsvg:separator name="vpPath.sep" value="::"/>
  </metadata>
  <g transform="translate(0, 288) scale(1, -1)">
    <g id="gridSVG" fill="none" stroke="rgb(0,0,0)" stroke-dasharray="none" stroke-width="1" font-size="12" font-family="Helvetica, Arial, FreeSans, Liberation Sans, Nimbus Sans L, sans-serif" opacity="1" stroke-linecap="round" stroke-linejoin="round" stroke-miterlimit="10" stroke-opacity="1" fill-opacity="0" font-weight="normal" font-style="normal">
      <g id="GRID.VP.1.1">
        <g id="GRID.polygon.1.1">
          <polygon id="GRID.polygon.1.1.1" points="21.19,47.71 20.73,49.21 20.48,54.08 21.19,55.95 22.24,58.95 25.06,63.83 26.1,65.58 27.22,68.7 29.34,73.57 31.02,75.76 33.1,78.45 35.93,80.95 40.2,83.32 40.85,83.76 45.76,86.42 50.68,88.19 50.68,88.19 55.59,89.86 60.51,90.2 65.42,89.29 67.94,88.19 70.34,85.03 71.08,83.32 70.34,78.7 70.32,78.45 68.97,73.57 66.24,68.7 65.42,67.78 61.68,63.83 60.51,62.84 55.59,59.52 54.46,58.95 50.68,56.55 45.76,54.58 44.17,54.08 40.85,52.2 35.93,49.53 35.24,49.21 31.02,46.75 26.1,45.25 21.19,47.71" fill="rgb(146,195,241)" stroke="rgb(131,176,217)" stroke-opacity="1" fill-opacity="1"/>
          <polygon id="GRID.polygon.1.1.2" points="124.4,107.5 124.33,107.69 124.4,107.77 129.31,108.37 130.16,107.69 129.31,105.85 124.4,107.5" fill="rgb(137,187,232)" stroke="rgb(123,168,209)" stroke-opacity="1" fill-opacity="1"/>
          <polygon id="GRID.polygon.1.1.3" points="129.31,122.97 127.19,127.18 128.07,132.05 129.31,133.57 133.1,136.93 134.23,137.79 139.14,141.35 139.7,141.8 144.06,145.08 146.3,146.67 148.97,148.93 151.01,151.55 153.89,156.29 153.95,156.42 157.29,161.29 158.8,163.1 161.44,166.17 163.72,168.67 165.81,171.04 168.63,173.67 170.98,175.91 173.55,178.08 176.47,180.79 178.46,182.46 182.33,185.66 183.38,186.54 187.52,190.53 188.29,191.34 191.2,195.41 193.21,197.87 194.92,200.28 198.12,203.98 199.19,205.15 203.04,209.14 203.9,210.03 207.95,214.37 208.39,214.9 212.6,219.77 212.87,220.06 217.27,224.65 217.78,225.13 222.7,229.02 223.64,229.52 227.61,232.3 232.53,234.38 232.58,234.39 237.44,237.71 239.79,239.27 242.35,241.45 246.33,244.14 247.27,244.72 252.18,246.53 257.1,246.83 262.01,245.74 264.91,244.14 266.93,242.75 270.34,239.27 271.84,236.21 272.89,234.39 273.99,229.52 274.46,224.65 276.76,223.25 281.67,223.38 286.59,223.66 291.5,223.14 296.42,220.92 297.72,219.77 300.66,214.9 300.62,210.03 297.85,205.15 296.42,203.78 291.5,200.76 290.58,200.28 286.59,197.83 284.24,195.41 281.67,192.88 279.89,190.53 276.76,187.55 273.98,185.66 271.84,184.12 266.93,182.31 262.01,181.72 257.1,181.44 253.92,180.79 252.18,180 247.45,175.91 247.27,175.77 242.35,172.42 239.63,171.04 237.44,170.08 232.53,167.84 230.78,166.17 228.71,161.29 227.61,156.62 227.57,156.42 225.67,151.55 222.7,148.06 220.65,146.67 217.78,145.25 212.87,143.9 207.95,142.32 206.64,141.8 203.04,140.47 198.12,139.6 193.21,138.74 190.06,136.93 188.29,136.07 183.79,132.05 183.38,131.69 178.46,127.51 177.73,127.18 173.55,125.37 168.63,125.23 163.72,125.44 159,122.31 158.8,122.13 154.39,117.43 153.89,117.08 148.97,117.32 148.79,117.43 144.06,119.58 139.14,120.25 134.23,120.26 130.25,122.31 129.31,122.97" fill="rgb(128,179,224)" stroke="rgb(115,161,202)" stroke-opacity="1" fill-opacity="1"/>
          <polygon id="GRID.polygon.1.1.4" points="35.93,59.13 32.54,63.83 32.68,68.7 34.61,73.57 35.93,75.11 39.82,78.45 40.85,79.16 45.76,81.43 50.68,82.85 54.08,83.32 55.59,83.61 57.15,83.32 60.51,82.31 63.23,78.45 63.05,73.57 60.51,69.04 60.32,68.7 55.59,64.45 54.7,63.83 50.68,61.36 45.76,59.58 41.79,58.95 40.85,58.72 37.54,58.95 35.93,59.13" fill="rgb(119,171,216)" stroke="rgb(107,154,194)" stroke-opacity="1" fill-opacity="1"/>
          <polygon id="GRID.polygon.1.1.5" points="168.63,151.67 165.09,156.42 167.92,161.29 168.63,162.26 170.99,166.17 173.55,169.4 174.62,171.04 178.46,175.53 178.71,175.91 183.32,180.79 183.38,180.84 188.24,185.66 188.29,185.71 191.83,190.53 193.21,192.21 195.33,195.41 198.12,198.77 199.42,200.28 203.04,204.09 204.17,205.15 207.95,208.98 208.94,210.03 212.87,214.51 213.17,214.9 217.33,219.77 217.78,220.24 222.7,224.56 222.84,224.65 227.61,227.88 232.09,229.52 232.53,229.76 237.44,231.69 242.35,233.29 244.99,234.39 247.27,235.93 252.18,238.96 253.93,239.27 257.1,239.61 258.04,239.27 262.01,235.72 262.79,234.39 262.01,232.3 260.45,229.52 257.1,227.07 254.91,224.65 252.18,220.55 251.96,219.77 250.75,214.9 249.67,210.03 248.3,205.15 247.27,203.12 246.41,200.28 243.14,195.41 242.35,194.65 237.44,190.64 237.26,190.53 232.53,187.61 228.91,185.66 227.61,184.85 222.7,180.89 222.6,180.79 218.02,175.91 217.78,175.65 212.87,171.28 212.35,171.04 207.95,168.55 203.04,167.47 198.12,166.55 196.79,166.17 193.21,164.15 188.6,161.29 188.29,160.89 183.65,156.42 183.38,156.09 178.46,153.12 173.55,152.2 168.63,151.67" fill="rgb(110,163,208)" stroke="rgb(99,147,187)" stroke-opacity="1" fill-opacity="1"/>
          <polygon id="GRID.polygon.1.1.6" points="257.1,189.57 255.82,190.53 253.32,195.41 253.65,200.28 257.1,204.72 257.42,205.15 262.01,208.57 266.93,209.99 267.81,210.03 271.84,210.33 274.63,210.03 276.76,209.67 281.3,205.15 280,200.28 277.7,195.41 276.76,194.28 273.51,190.53 271.84,189.2 266.93,187.23 262.01,187.26 257.1,189.57" fill="rgb(101,155,200)" stroke="rgb(91,139,180)" stroke-opacity="1" fill-opacity="1"/>
          <polygon id="GRID.polygon.1.1.7" points="286.59,209.6 284.4,210.03 286.59,211.1 287.75,210.03 286.59,209.6" fill="rgb(92,147,192)" stroke="rgb(83,132,173)" stroke-opacity="1" fill-opacity="1"/>
          <polygon id="GRID.polygon.1.1.8" points="40.85,63.22 39.73,63.83 37.08,68.7 39.16,73.57 40.85,75.08 45.76,77.58 49.4,78.45 50.68,78.76 53.92,78.45 55.59,78.03 57.85,73.57 55.59,69.19 55.32,68.7 50.68,65.34 47.34,63.83 45.76,63.2 40.85,63.22" fill="rgb(83,140,184)" stroke="rgb(75,126,166)" stroke-opacity="1" fill-opacity="1"/>
          <polygon id="GRID.polygon.1.1.9" points="183.38,170.22 182.95,171.04 183.38,171.99 184.67,175.91 188.24,180.79 188.29,180.84 191.56,185.66 193.21,187.79 194.74,190.53 198.12,195.03 198.41,195.41 202.71,200.28 203.04,200.62 207.86,205.15 207.95,205.25 212.45,210.03 212.87,210.5 216.25,214.9 217.78,216.63 220.62,219.77 222.7,221.68 227.32,224.65 227.61,224.85 232.53,227.07 237.44,228.02 242.35,227.93 246.93,224.65 247.27,222.07 247.48,219.77 247.27,218.65 246.88,214.9 245.87,210.03 244.15,205.15 242.35,202.1 241.19,200.28 237.44,196.26 236.26,195.41 232.53,192.75 228.93,190.53 227.61,189.64 223.02,185.66 222.7,185.38 218.48,180.79 217.78,180.06 213.52,175.91 212.87,175.31 207.95,172.39 203.04,171.3 200.63,171.04 198.12,170.62 193.21,169.77 188.29,168.91 183.38,170.22" fill="rgb(74,132,176)" stroke="rgb(67,119,158)" stroke-opacity="1" fill-opacity="1"/>
          <polygon id="GRID.polygon.1.1.10" points="262.01,191.8 258.88,195.41 259.22,200.28 262.01,203.66 264.86,205.15 266.93,205.97 271.82,205.15 271.84,205.15 274.79,200.28 273.36,195.41 271.84,193.73 266.93,190.95 262.01,191.8" fill="rgb(63,124,169)" stroke="rgb(57,112,152)" stroke-opacity="1" fill-opacity="1"/>
          <polygon id="GRID.polygon.1.1.11" points="45.76,67.77 43.31,68.7 45.72,73.57 45.76,73.59 46.84,73.57 48.22,68.7 45.76,67.77" fill="rgb(53,117,161)" stroke="rgb(48,105,145)" stroke-opacity="1" fill-opacity="1"/>
          <polygon id="GRID.polygon.1.1.12" points="193.21,175.18 192.09,175.91 192.24,180.79 193.21,182.38 194.37,185.66 197.11,190.53 198.12,191.88 200.75,195.41 203.04,197.94 205.58,200.28 207.95,202.54 210.95,205.15 212.87,207.17 215.24,210.03 217.78,213.2 219.01,214.9 222.7,218.88 223.71,219.77 227.61,222.61 232.53,224.51 233.99,224.65 237.44,225.11 239.16,224.65 242.35,223 244.2,219.77 244.38,214.9 243.26,210.03 242.35,208 241.11,205.15 237.44,200.31 237.41,200.28 232.53,196.43 230.81,195.41 227.61,193.24 224.51,190.53 222.7,188.91 219.95,185.66 217.78,183.37 215.47,180.79 212.87,178.24 209.19,175.91 207.95,175.13 203.04,173.85 198.12,173.93 193.21,175.18" fill="rgb(40,110,154)" stroke="rgb(36,99,139)" stroke-opacity="1" fill-opacity="1"/>
          <polygon id="GRID.polygon.1.1.13" points="266.93,195.13 266.11,195.41 265.34,200.28 266.93,201.16 268.55,200.28 267.39,195.41 266.93,195.13" fill="rgb(25,102,147)" stroke="rgb(23,92,132)" stroke-opacity="1" fill-opacity="1"/>
          <polygon id="GRID.polygon.1.1.14" points="198.12,177.68 195.8,180.79 196.72,185.66 198.12,188.16 199.33,190.53 203.04,195.34 203.11,195.41 207.95,199.88 208.51,200.28 212.87,204.02 214.09,205.15 217.78,209.79 217.93,210.03 221.44,214.9 222.7,216.25 226.7,219.77 227.61,220.44 232.53,222.4 237.44,222.32 240.8,219.77 241.9,214.9 240.95,210.03 238.55,205.15 237.44,203.69 233.6,200.28 232.53,199.43 227.61,196.51 226.1,195.41 222.7,192.46 221.19,190.53 217.78,186.53 217.14,185.66 212.87,180.96 212.65,180.79 207.95,177.52 203.04,176.4 198.12,177.68" fill="rgb(0,95,140)" stroke="rgb(0,86,126)" stroke-opacity="1" fill-opacity="1"/>
          <polygon id="GRID.polygon.1.1.15" points="203.04,178.98 199.66,180.79 199.15,185.66 201.44,190.53 203.04,192.6 205.8,195.41 207.95,197.4 212.02,200.28 212.87,201.01 217.34,205.15 217.78,205.7 220.53,210.03 222.7,213.1 224.02,214.9 227.61,218.09 231.22,219.77 232.53,220.3 236.26,219.77 237.44,219.38 239.56,214.9 238.8,210.03 237.44,207.46 235.68,205.15 232.53,202.29 228.83,200.28 227.61,199.56 222.7,196.33 221.91,195.41 218.37,190.53 217.78,189.84 214.7,185.66 212.87,183.64 209.4,180.79 207.95,179.78 203.04,178.98" fill="rgb(0,88,133)" stroke="rgb(0,79,120)" stroke-opacity="1" fill-opacity="1"/>
          <polygon id="GRID.polygon.1.1.16" points="203.04,182.56 201.71,185.66 203.04,188.97 203.92,190.53 207.95,194.67 209.33,195.41 212.87,197.37 217.59,195.41 215.29,190.53 212.87,186.84 211.9,185.66 207.95,182.52 203.04,182.56" fill="rgb(0,81,126)" stroke="rgb(0,73,113)" stroke-opacity="1" fill-opacity="1"/>
          <polygon id="GRID.polygon.1.1.17" points="222.7,202.57 221.68,205.15 222.7,207.95 223.32,210.03 226.74,214.9 227.61,215.67 232.53,217.62 236.98,214.9 236.26,210.03 232.59,205.15 232.53,205.1 227.61,202.97 222.7,202.57" fill="rgb(0,75,120)" stroke="rgb(0,68,108)" stroke-opacity="1" fill-opacity="1"/>
          <polygon id="GRID.polygon.1.1.18" points="207.95,185.64 207.9,185.66 207.53,190.53 207.95,190.96 209.61,190.53 207.97,185.66 207.95,185.64" fill="rgb(0,68,115)" stroke="rgb(0,61,104)" stroke-opacity="1" fill-opacity="1"/>
          <polygon id="GRID.polygon.1.1.19" points="227.61,208.6 227.03,210.03 227.61,210.94 232.53,213.77 233.06,210.03 232.53,209.31 227.61,208.6" fill="rgb(0,62,110)" stroke="rgb(0,56,99)" stroke-opacity="1" fill-opacity="1"/>
        </g>
        <g id="GRID.pathgrob.2.1">
          <path id="GRID.pathgrob.2.1.1" d="M 148.7 253.4 L 149.68 253.17 L 150.65 253.29 L 151.47 253.81 L 152.55 253.69 L 153.6 254.13 L 153.68 253.32 L 153.6 252.53 L 152.59 252.35 L 151.81 252.87 L 152.12 252.04 L 151.15 252.17 L 151.58 251.46 L 152.48 251.86 L 152.16 251.1 L 152.84 250.52 L 153.14 251.28 L 153.66 250.49 L 153.98 249.73 L 154.48 249.03 L 155.14 248.46 L 155.93 247.91 L 156.55 247.24 L 155.69 247.64 L 155.77 246.85 L 156.52 246.33 L 157.42 245.93 L 158.47 245.75 L 158.06 245.05 L 157.44 244.35 L 157.64 243.58 L 158.65 243.58 L 159.36 244.29 L 159.27 245.11 L 158.83 245.87 L 159.68 246.36 L 160.46 246.86 L 161.44 246.71 L 160.94 245.98 L 160.3 245.32 L 160.72 244.51 L 161.63 244.06 L 162.6 244.12 L 163.23 243.48 L 163.28 244.3 L 163.42 245.15 L 164.36 244.88 L 165.27 244.54 L 166.2 244.19 L 167.07 243.8 L 166.49 243.1 L 165.72 242.62 L 166.78 242.52 L 167.35 243.19 L 168.16 243.74 L 169.15 243.49 L 170.09 242.88 L 170.14 242.09 L 170.9 241.57 L 171.88 241.68 L 172.9 241.53 L 173.49 240.86 L 172.52 240.49 L 172.31 241.25 L 171.33 241.34 L 171.78 240.64 L 170.88 240.23 L 171.86 240.13 L 172.71 239.58 L 173.03 238.72 L 173.21 237.87 L 174.35 237.87 L 175.37 237.99 L 174.65 238.57 L 173.67 238.54 L 173.27 239.3 L 174.25 239.03 L 175.23 239.48 L 176.11 239.82 L 176.61 240.54 L 176.49 239.74 L 176.65 238.97 L 177.25 238.25 L 178.05 237.67 L 177.14 237.98 L 177.39 237.15 L 177.83 236.42 L 178.86 236.33 L 179.38 235.66 L 178.96 234.96 L 179.63 234.35 L 180.58 233.89 L 180.68 233.07 L 179.62 232.76 L 180.3 232.18 L 180.24 231.39 L 181.23 231.24 L 181.09 230.39 L 181.6 229.47 L 180.66 229.04 L 180.1 229.72 L 179.74 230.48 L 178.74 230.31 L 177.78 230.55 L 177.39 231.32 L 176.99 230.58 L 177.16 229.82 L 178.19 229.76 L 179.18 229.65 L 180.29 229.41 L 179.68 228.77 L 179.58 227.98 L 179.79 227.09 L 180.28 226.3 L 181.18 225.84 L 181.94 225.3 L 181.57 224.44 L 182.57 224.29 L 183.06 223.59 L 183.74 222.98 L 184.43 222.4 L 185.32 222.03 L 185.52 221.27 L 184.85 220.63 L 185.85 220.51 L 184.94 219.99 L 184.73 219.25 L 184.61 218.36 L 184.25 219.12 L 183.4 219.73 L 183.8 218.97 L 184.14 218.15 L 183.91 217.32 L 183.77 216.53 L 184.67 216.04 L 185.73 216.53 L 184.99 215.89 L 183.99 216.14 L 184.16 215.34 L 184.74 214.7 L 184.98 213.88 L 185.28 213.09 L 184.4 212.72 L 183.48 213.06 L 183.5 213.94 L 182.54 213.7 L 183.24 213 L 182.61 212.26 L 183.27 211.5 L 183.89 212.11 L 184.85 212.45 L 185.86 212.23 L 186.9 212.23 L 186.84 211.44 L 186.58 210.68 L 187.16 211.47 L 187.43 212.22 L 188.05 211.55 L 188.55 210.79 L 188.97 211.64 L 190.01 211.55 L 190.44 210.66 L 191.48 210.73 L 192.68 210.63 L 193.66 210.1 L 194.37 209.34 L 194.5 208.55 L 194.45 207.6 L 194.71 206.84 L 195.3 205.95 L 196.56 205.8 L 197.67 206.11 L 198.55 206.47 L 199.06 205.74 L 199.03 206.53 L 198.56 207.3 L 198.48 208.33 L 198.26 209.25 L 198 210.07 L 197.25 210.68 L 196.67 211.35 L 197.5 211.97 L 198.03 212.8 L 197.39 213.5 L 196.96 214.2 L 197.17 215.02 L 197.58 215.72 L 196.64 216.3 L 195.71 216.73 L 194.97 217.54 L 195.15 218.16 L 196.16 218.31 L 196.96 217.8 L 198 217.58 L 198.7 216.97 L 198.61 216.15 L 199.54 215.75 L 199.45 214.99 L 200.07 214.32 L 200.06 213.56 L 201.14 213.62 L 202.01 214.03 L 202.95 214.37 L 203.89 213.88 L 203.03 213.51 L 202.47 212.87 L 201.69 212.31 L 201.23 211.55 L 201.94 212.1 L 202.88 211.72 L 203.88 211.65 L 204.07 210.86 L 204.18 210.01 L 204.58 209.19 L 203.92 208.61 L 204.86 208.21 L 204.91 207.39 L 204.87 206.53 L 204.45 205.82 L 204.97 204.98 L 205.33 204.25 L 205.67 203.52 L 205.85 202.66 L 206.25 201.87 L 205.88 201.15 L 206.35 200.42 L 205.89 199.75 L 206.16 198.99 L 206.83 198.32 L 207.87 198.46 L 207.79 197.63 L 208.8 197.6 L 209.81 197.72 L 209.96 196.96 L 211.09 197.02 L 210.3 197.6 L 210.04 198.39 L 211.02 197.85 L 211.93 197.33 L 212.85 196.93 L 213.88 196.55 L 214.95 196.18 L 215.95 195.7 L 216.87 195.21 L 217.9 194.81 L 218.78 194.36 L 219.93 194.04 L 221.1 193.67 L 222.13 193.4 L 223.49 193.09 L 224.57 192.8 L 225.43 192.34 L 226.43 192.04 L 227.42 191.73 L 226.38 191.92 L 226.96 191.25 L 227.66 191.83 L 228.72 191.7 L 229.68 191.34 L 230.68 191.72 L 231.77 191.69 L 232.69 191.99 L 233.54 192.54 L 234.49 192.91 L 235.14 193.56 L 235.79 194.17 L 236.57 194.69 L 236.92 195.48 L 237.57 196.09 L 238.41 196.63 L 239.41 196.84 L 240.41 196.47 L 240.75 197.36 L 241.75 197.57 L 242.43 198.18 L 243.33 198.72 L 244.39 198.62 L 245.53 198.47 L 246.53 198.65 L 247.69 198.36 L 248.31 197.69 L 249.17 197.02 L 250.32 196.9 L 251.43 196.6 L 252.37 196.05 L 251.94 195.32 L 251.4 194.68 L 250.54 194.22 L 250.65 193.43 L 249.85 192.76 L 249.57 192.01 L 249.31 191.28 L 248.65 190.64 L 249.19 189.91 L 249.17 189.11 L 248.3 188.72 L 248.77 187.92 L 248.5 187.16 L 248.48 186.4 L 248.4 185.58 L 248.47 184.69 L 248.62 183.93 L 248.01 183.18 L 247.71 182.39 L 247.4 181.63 L 246.47 181.05 L 245.78 180.5 L 245.08 179.92 L 244.12 179.54 L 243.05 179.6 L 241.92 179.36 L 241.43 178.69 L 241.61 177.93 L 241.18 177.19 L 241.12 176.36 L 240.94 175.59 L 240.71 174.65 L 240.53 173.8 L 240.8 173 L 241.72 172.58 L 241.94 171.81 L 241.24 171.27 L 240.96 170.53 L 240.3 169.86 L 240.14 169.71 L 239.92 170.53 L 239.45 171.3 L 239.86 172 L 240.22 172.7 L 239.1 172.97 L 238.12 173.31 L 236.96 173.42 L 235.92 173.51 L 234.76 173.48 L 233.64 173.48 L 232.61 173.51 L 231.57 173.37 L 230.55 173.16 L 229.49 172.88 L 228.43 172.64 L 227.42 172.26 L 226.49 171.92 L 225.6 171.43 L 225.2 170.64 L 224.57 170 L 223.9 169.36 L 223.05 168.71 L 222.64 167.94 L 222.53 167.12 L 223.31 166.48 L 223.27 165.72 L 223.61 164.93 L 224.17 164.19 L 225.24 163.86 L 226.27 163.87 L 225.82 163.13 L 225.07 162.52 L 224.78 161.69 L 224.58 160.9 L 224.22 160.08 L 223.78 159.32 L 223.32 158.62 L 222.87 157.75 L 222.63 156.89 L 222.34 156.1 L 221.86 155.4 L 221.14 154.79 L 220.28 154.3 L 219.29 153.98 L 218.62 153.34 L 218.7 152.58 L 218.24 151.79 L 217.92 151.06 L 217.97 150.2 L 216.9 149.84 L 215.99 149.47 L 215.19 148.75 L 214.45 148.21 L 213.81 147.54 L 213.21 146.9 L 212.45 146.38 L 211.9 145.57 L 211.52 144.81 L 211.09 143.99 L 210.68 143.19 L 209.9 142.58 L 209.2 141.82 L 208.63 141.13 L 208.41 140.34 L 207.98 139.64 L 207.42 138.94 L 206.63 138.33 L 206.23 137.63 L 205.31 137.23 L 204.44 136.55 L 203.79 135.85 L 202.87 135.36 L 201.9 134.99 L 200.89 134.63 L 200.06 133.94 L 199.08 133.54 L 198.1 133.18 L 197.4 132.6 L 196.52 132.08 L 195.41 132.04 L 194.44 131.58 L 193.32 131.64 L 192.69 132.31 L 192.54 133.1 L 192.6 133.93 L 192.33 134.75 L 191.38 135.11 L 190.33 135.51 L 189.23 135.4 L 188.3 135.04 L 187.37 134.58 L 186.46 135.1 L 186.1 135.86 L 186.75 136.59 L 187.2 137.39 L 186.58 138.12 L 185.49 137.66 L 185.29 136.9 L 185.15 136.14 L 184.04 136 L 183.01 136.24 L 182.47 137.03 L 182.5 137.89 L 183.46 138.28 L 184.25 138.97 L 184.94 139.55 L 185.61 140.19 L 186.71 140.25 L 186.09 140.95 L 186.97 141.53 L 187.8 142.03 L 187.8 142 L 188.46 142.77 L 188.6 143.62 L 189.41 144.26 L 190.15 144.84 L 190.68 145.54 L 191.12 146.26 L 191.65 146.96 L 192.01 147.69 L 192.13 148.48 L 192.4 149.27 L 192.58 150.13 L 192.85 150.89 L 192.91 151.65 L 193.05 152.44 L 193.08 153.3 L 192.97 154.09 L 192.85 154.88 L 192.57 155.74 L 192.21 156.56 L 191.76 157.29 L 191.09 157.93 L 190.41 158.63 L 189.71 159.24 L 188.89 159.79 L 187.83 160.37 L 186.86 160.86 L 185.8 161.25 L 184.76 161.18 L 183.72 161.24 L 182.82 161.66 L 181.81 162 L 180.72 162.27 L 180 162.85 L 179.1 163.3 L 178.37 163.87 L 177.69 164.58 L 176.8 165.22 L 175.59 165.58 L 174.62 166.16 L 173.49 166.19 L 172.41 166.3 L 171.41 166.66 L 170.4 167.03 L 169.48 167.49 L 168.85 168.16 L 168.07 168.71 L 167.4 169.41 L 167.06 170.17 L 166.89 171.02 L 167.04 171.81 L 167.32 172.58 L 168.02 173.25 L 168.86 173.8 L 169.85 174.16 L 170.87 174.48 L 171.61 175.03 L 172.64 175.21 L 173.54 175.67 L 174.44 176.07 L 175.43 176.3 L 176.59 176.26 L 177.62 176.11 L 178.69 176.36 L 179.37 177 L 180.08 177.62 L 180.93 178.23 L 181.5 178.87 L 181.84 179.66 L 182.04 180.49 L 182.18 181.28 L 182.26 182.13 L 182.44 182.99 L 182.51 183.79 L 182.44 184.59 L 182.56 185.38 L 182.5 186.17 L 183.19 186.81 L 183.79 187.54 L 183.89 188.34 L 183.87 189.16 L 183.61 189.95 L 183.34 190.74 L 184.36 190.81 L 185.38 190.61 L 186.29 190.21 L 186.01 190.97 L 187.11 190.73 L 186.93 191.49 L 186.06 191.95 L 185.26 191.43 L 185.32 192.25 L 186.33 192.53 L 186.93 193.2 L 185.86 193.29 L 185.12 193.87 L 184.85 194.69 L 185.08 195.48 L 186.18 195.94 L 187.27 195.97 L 188.28 196.14 L 188.3 196.96 L 187.47 196.52 L 186.5 196.12 L 186 196.89 L 185.81 197.68 L 185.55 198.5 L 185.16 199.26 L 184.93 200.06 L 184.54 200.85 L 184.15 201.73 L 183.81 202.46 L 184.04 203.23 L 184.94 203.78 L 184.07 203.32 L 183.44 203.99 L 182.99 204.78 L 182.55 205.54 L 182.05 206.34 L 181.66 207.19 L 181.2 207.98 L 180.9 208.74 L 181.98 208.96 L 183.03 208.9 L 183.13 207.98 L 183.48 207.19 L 183.81 206.34 L 184.65 206.78 L 183.79 207.25 L 184.82 207.81 L 185.74 208.18 L 186.66 208.51 L 187.74 208.45 L 186.73 208.73 L 186 209.37 L 184.84 209.64 L 184.99 210.4 L 185.85 210.77 L 184.85 210.83 L 183.73 210.83 L 182.93 210.36 L 182.25 209.78 L 181.29 209.54 L 180.54 208.96 L 179.96 209.6 L 179.65 210.33 L 179.47 211.15 L 179.1 211.97 L 178.79 212.8 L 178.38 213.5 L 177.85 214.2 L 177.33 214.93 L 176.72 215.57 L 176.15 216.33 L 175.62 217.02 L 174.93 217.69 L 174.28 218.33 L 174.38 219.18 L 175.37 219.56 L 175.98 218.92 L 176.51 218.22 L 177.04 217.52 L 177.97 217.22 L 177.5 216.52 L 178.39 216.09 L 179.24 215.66 L 179.18 216.52 L 178.73 217.22 L 178.91 218.07 L 178.82 218.86 L 178.86 219.72 L 178.8 220.51 L 178.1 219.9 L 177.1 220.2 L 176.1 220.24 L 176.17 221.03 L 177.12 221.3 L 178.11 221.42 L 178.89 221.97 L 180.05 222.29 L 179 222.29 L 177.98 222.03 L 177.16 221.52 L 176.27 221.88 L 176.7 222.58 L 177.5 222.06 L 177.04 222.8 L 178.08 223.28 L 178.41 224.06 L 177.75 223.47 L 177 222.92 L 176.21 223.44 L 175.47 224.01 L 176.04 224.66 L 175.05 224.56 L 175.28 223.8 L 176 223.22 L 175.86 222.43 L 174.82 222.74 L 174.02 223.22 L 173.53 224.05 L 172.46 223.91 L 171.66 224.46 L 172.06 223.57 L 172.79 222.96 L 173.36 222.32 L 173.96 221.65 L 174.49 220.88 L 173.91 220.22 L 172.87 220.1 L 171.84 220.25 L 171.87 221.07 L 171.45 221.9 L 171.01 222.69 L 170.52 223.45 L 169.95 224.09 L 169.29 224.82 L 168.69 225.52 L 168.04 226.26 L 167.4 226.94 L 166.76 227.61 L 166.08 228.25 L 165.4 229.01 L 164.77 229.69 L 164.14 230.29 L 163.43 230.84 L 162.87 231.54 L 162.28 232.18 L 161.68 232.86 L 161.04 233.5 L 160.33 234.23 L 160.35 235.11 L 160.69 235.96 L 161.32 236.6 L 162.31 236.36 L 163.33 236.7 L 163.36 237.52 L 164.27 237.84 L 163.59 238.43 L 162.96 239.1 L 162.85 238.31 L 162.93 237.46 L 161.91 237.49 L 161.08 237.06 L 160.3 236.57 L 160.14 235.75 L 159.84 235 L 159.08 235.77 L 158.53 236.41 L 157.77 237.08 L 157.62 237.84 L 158.12 238.6 L 157.46 237.99 L 156.63 238.45 L 157.06 239.36 L 156.08 239.15 L 155.42 239.79 L 154.64 240.4 L 155.43 240.92 L 156.29 241.28 L 156.6 242.05 L 156.52 242.9 L 156.28 243.66 L 155.86 244.42 L 155.37 245.12 L 154.7 245.82 L 154.11 246.56 L 153.53 247.2 L 152.74 248.02 L 152.12 248.75 L 151.42 249.51 L 150.81 250.21 L 150 250.88 L 149.22 251.54 L 148.33 251.97 L 147.9 252.67 L 147.75 253.46 L 147.77 253.64 Z M 146.84 150.58 L 147.98 150.68 L 149.16 150.64 L 150.49 150.58 L 151.54 150.43 L 152.72 150.22 L 151.54 150.31 L 150.45 150.43 L 149.37 150.52 L 148.31 150.22 L 147.8 149.55 L 147.55 148.79 L 147.08 148.08 L 147.67 147.41 L 148.09 146.59 L 148.76 145.98 L 149.61 145.43 L 150.54 145.04 L 151.6 145.31 L 152.45 145.8 L 153.47 145.52 L 153.63 144.76 L 154.1 144.06 L 154.31 143.27 L 153.98 142.54 L 153.55 141.8 L 153.37 141.01 L 153.72 140.28 L 153.55 139.52 L 154.45 139.09 L 154.74 138.73 L 155.17 138.03 L 155.77 137.32 L 156.67 136.68 L 157.48 137.39 L 158.46 137.81 L 159.13 138.45 L 159.31 138.79 L 160.15 139.37 L 161.21 139.4 L 162.15 139.82 L 162.57 140.52 L 163.46 141.04 L 164.52 140.98 L 165.04 140.31 L 165.72 140.95 L 166.78 141.29 L 165.66 141.29 L 166 142.08 L 167.01 142.45 L 167.73 143.01 L 168.38 142.34 L 169.31 142.86 L 169.99 143.65 L 171.13 143.74 L 170.3 143.16 L 169.39 142.61 L 168.89 141.88 L 167.99 142.31 L 167.11 141.8 L 167.25 141.04 L 167.04 140.28 L 167.8 140.83 L 168.78 141.24 L 169.84 141.15 L 168.82 140.81 L 168.58 140.04 L 167.68 139.61 L 168.72 139.15 L 168.47 138.33 L 167.58 137.87 L 166.52 137.78 L 167.54 137.51 L 168.52 137.81 L 169.45 138.27 L 170.52 138.53 L 171.53 138.77 L 172.59 138.92 L 171.66 139.41 L 170.77 138.83 L 169.67 138.82 L 168.84 139.46 L 169.6 140.02 L 170.1 140.72 L 170.41 139.96 L 171.25 140.51 L 171.71 141.24 L 170.64 141.39 L 170.54 142.16 L 171.3 142.7 L 171.48 141.94 L 172.55 141.76 L 173.66 141.79 L 173.75 142.55 L 174.61 142.06 L 174.18 141.36 L 175.03 140.88 L 175.85 141.49 L 176.56 142.06 L 176.02 141.36 L 175.64 140.57 L 175.1 139.9 L 174.44 140.6 L 174.12 139.81 L 174.55 138.99 L 173.63 138.59 L 172.52 138.25 L 171.42 138.22 L 170.4 137.9 L 169.55 137.42 L 170.61 137.6 L 171.73 137.68 L 172.75 137.98 L 173.81 138.22 L 174.5 137.61 L 175.55 137.95 L 176.75 138.47 L 176.21 137.77 L 175.32 137.22 L 174.74 136.55 L 173.76 136.18 L 174.18 136.91 L 173.16 136.58 L 172.52 136.12 L 172.06 135.4 L 171.74 134.67 L 171.83 133.88 L 172.61 133.27 L 173.61 132.84 L 174 132.08 L 173.98 131.08 L 174.17 130.31 L 175.09 129.8 L 175.52 129.09 L 174.94 128.36 L 174.31 127.72 L 173.72 127.08 L 172.95 126.53 L 172.21 125.89 L 171.4 125.19 L 170.76 124.52 L 170.08 123.67 L 170.01 122.88 L 169.46 122.05 L 168.69 121.5 L 167.71 120.93 L 166.84 120.44 L 166.25 119.74 L 165.68 118.97 L 166.04 118.21 L 164.91 118.36 L 163.87 118.12 L 163.09 117.54 L 162.54 116.83 L 162.29 116.03 L 161.81 115.18 L 161.32 114.36 L 160.89 113.59 L 160.41 112.77 L 159.81 112.13 L 159.24 111.28 L 158.98 110.49 L 158.38 109.81 L 157.59 109.24 L 156.58 108.81 L 155.62 108.32 L 155.05 107.65 L 153.86 107.53 L 152.77 107.16 L 151.75 106.8 L 150.7 106.43 L 149.56 105.94 L 148.93 105.17 L 148.59 104.37 L 148.14 103.64 L 148.03 102.85 L 148.03 102.06 L 147.67 101.75 L 148.11 101.02 L 148.28 100.11 L 148.63 99.37 L 149.33 98.64 L 148.35 98.19 L 147.2 98.03 L 147.33 97.24 L 148.13 97.82 L 149.28 97.94 L 149.9 97.3 L 150.44 97.97 L 151.46 97.67 L 151.23 96.78 L 151.72 97.48 L 153.14 97.51 L 154.16 97.06 L 155.09 96.54 L 155.49 95.59 L 155.18 94.83 L 154.69 94.1 L 153.76 93.61 L 152.65 93.7 L 152.29 94.47 L 152.61 95.23 L 151.76 94.71 L 151.8 93.95 L 151.99 93.19 L 150.86 93.46 L 149.71 93.64 L 148.6 94.1 L 147.54 94.38 L 146.33 94.34 L 145.23 94.25 L 144.07 94.13 L 142.86 93.92 L 143.85 94.38 L 145.01 94.62 L 146.16 94.8 L 145.1 95.35 L 144.44 96.02 L 143.28 95.84 L 142.26 95.41 L 142.16 94.53 L 141.71 93.8 L 140.54 93.55 L 139.26 93.19 L 138.77 93.89 L 137.98 94.5 L 138.55 93.77 L 138.76 93.13 L 137.6 92.73 L 136.52 92.33 L 135.4 91.89 L 134.26 91.43 L 133.13 90.98 L 132.05 90.61 L 130.97 90.15 L 129.98 89.7 L 128.9 89.33 L 127.91 88.87 L 126.96 88.39 L 126.29 88.23 L 125.42 87.59 L 124.59 87.04 L 123.68 86.56 L 122.86 85.86 L 122.12 85.22 L 122.05 84.42 L 121.98 83.6 L 121.37 82.93 L 120.86 82.23 L 120.51 81.44 L 120.26 80.66 L 120.52 79.77 L 120.54 78.95 L 120.6 78.13 L 120.62 77.24 L 120.5 76.45 L 120.2 75.69 L 119.97 75.29 L 119.49 74.5 L 118.77 73.8 L 117.86 73.22 L 117.01 72.64 L 116.53 71.94 L 115.92 71.27 L 115.43 70.54 L 115.04 69.81 L 114.55 69.08 L 114.48 68.31 L 115.09 67.61 L 114.24 67.03 L 114.42 66.24 L 113.52 65.66 L 112.99 64.93 L 112.59 64.2 L 111.6 63.65 L 111.2 62.86 L 110.39 62.28 L 109.72 61.56 L 110.8 61.29 L 111.97 61.42 L 111.2 60.77 L 110.25 60.19 L 109.58 59.52 L 110.7 59.92 L 111.69 60.48 L 112.55 61.03 L 112.65 60.27 L 112.94 59.44 L 111.78 59.4 L 110.83 58.91 L 109.68 58.85 L 108.47 58.73 L 107.4 58.42 L 106.06 58.27 L 105.07 57.84 L 104.29 57.17 L 103.47 56.47 L 103.15 55.71 L 102.92 54.92 L 102.31 54.22 L 101.35 53.7 L 100.35 53.15 L 99.33 52.48 L 98.33 52.05 L 97.33 51.5 L 96.24 51.11 L 95.72 50.34 L 95.9 49.55 L 95.26 48.9 L 94.04 48.8 L 92.87 48.71 L 94.11 48.56 L 93.6 47.86 L 92.63 47.34 L 91.46 47.22 L 90.3 47.28 L 89.46 46.61 L 88.22 46.3 L 86.9 46.09 L 85.83 45.54 L 84.39 45.57 L 83.09 45.21 L 81.92 45.12 L 80.53 45.36 L 79.24 45.3 L 78.53 46.03 L 77.93 46.67 L 76.76 46.73 L 75.52 46.64 L 74.37 46.34 L 75.52 46.67 L 74.37 46.88 L 73.79 46.18 L 72.55 45.83 L 71.34 45.89 L 72.49 46.17 L 71.6 46.66 L 70.37 46.53 L 69.22 46.75 L 69.58 46.02 L 68.6 46.56 L 67.85 47.14 L 69.02 47.05 L 69.86 47.63 L 70.21 48.42 L 68.94 48.33 L 67.82 48.79 L 67.05 49.46 L 65.94 50.07 L 64.73 50.07 L 64.06 49.4 L 62.97 49.7 L 61.66 49.58 L 60.42 49.34 L 59.27 49.46 L 58.49 50.07 L 58.94 50.8 L 58.08 51.53 L 57.17 52.02 L 56.23 52.45 L 55.02 52.87 L 53.87 52.93 L 52.89 52.42 L 52.39 51.65 L 51.57 51.05 L 50.42 51.08 L 49.18 50.86 L 47.98 50.89 L 46.6 51.08 L 45.45 51.18 L 44.21 51.3 L 44.08 51.33 L 42.87 51.33 L 41.65 51.21 L 40.45 51.3 L 39.43 51.67 L 39.49 52.52 L 40.64 52.92 L 41.1 53.65 L 41.92 54.26 L 42.28 55.02 L 43.44 55.36 L 44.26 56.04 L 43.17 55.48 L 41.99 55.24 L 41.17 54.63 L 41.51 53.9 L 40.35 53.96 L 39.19 53.56 L 38.09 53.22 L 38.36 53.99 L 39.02 54.78 L 40.05 55.24 L 41.31 55.42 L 40.17 55.51 L 40.14 56.36 L 39.14 55.79 L 38.4 55.08 L 37.33 54.66 L 36.15 54.41 L 36.06 55.21 L 35.65 56 L 35.63 56.91 L 36.05 57.68 L 37.2 58.04 L 38.37 58.16 L 39.54 58.31 L 40.77 58.56 L 42.08 58.88 L 43.22 58.85 L 44.12 59.43 L 45.25 59.67 L 43.93 59.7 L 42.74 59.85 L 41.61 59.58 L 41.47 60.37 L 42.65 60.65 L 43.94 61.01 L 45.14 61.5 L 44.01 61.2 L 42.77 60.92 L 41.64 60.62 L 41.02 61.26 L 41.92 61.84 L 42.99 62.32 L 44.18 62.32 L 45.34 62.42 L 44.2 62.51 L 45.1 63.15 L 46.11 63.57 L 44.89 63.27 L 43.66 62.96 L 42.64 62.48 L 41.45 62.08 L 40.09 61.9 L 40.23 62.75 L 40.73 63.48 L 40.92 64.27 L 41.47 65.01 L 42.65 64.91 L 43.61 64.52 L 43.43 65.28 L 42.23 65.34 L 42.19 66.16 L 42.93 66.96 L 44.1 66.8 L 45.01 66.38 L 46.26 66.13 L 46.26 65.31 L 45.13 65.04 L 46.38 65.07 L 46.38 65.92 L 47.43 65.49 L 47.9 64.79 L 47.32 64.06 L 48.42 64.46 L 48 65.25 L 47.35 65.98 L 46.34 66.35 L 46.88 67.08 L 48.12 67.26 L 48.89 66.71 L 48.38 67.41 L 47.21 67.29 L 46.03 67.29 L 45.62 68.11 L 45.53 68.91 L 45.75 69.76 L 46.91 69.85 L 47.55 69.09 L 47.14 69.88 L 46.62 70.55 L 47.77 70.68 L 48.23 69.94 L 49.41 70.25 L 48.35 70.52 L 47.65 71.22 L 48.7 71.71 L 49.91 71.5 L 51.07 71.35 L 49.89 71.71 L 48.78 71.92 L 49.04 72.69 L 49.76 73.33 L 50.56 73.97 L 51.58 74.61 L 52.47 74.03 L 52.48 73.24 L 52.7 72.38 L 53.7 72.81 L 52.77 73.39 L 52.72 74.33 L 52.27 75.1 L 53.18 75.64 L 54.09 76.15 L 55.1 75.84 L 54.98 75.08 L 55.37 74.38 L 55.31 75.17 L 55.3 75.93 L 55.2 76.7 L 56.34 76.88 L 56.2 77.64 L 57.24 78.13 L 58.02 78.8 L 59.06 79.26 L 60.21 79.47 L 61.16 79.04 L 61.96 78.46 L 61.45 79.29 L 60.66 79.96 L 60.69 80.72 L 61.25 81.45 L 61.82 82.21 L 62.55 82.88 L 63.67 83.22 L 63.78 83.98 L 64.97 84.07 L 65.83 84.62 L 64.94 85.17 L 65.88 85.72 L 65.89 85.75 L 66.71 86.39 L 67.74 86.91 L 68.6 87.58 L 69.24 88.28 L 69.75 89.03 L 70.34 89.73 L 71.52 89.88 L 72.73 89.94 L 73.82 90.28 L 74.8 90.76 L 75.78 90.18 L 76.91 90.28 L 78.05 90.58 L 79.06 91.07 L 79.73 91.77 L 80.98 92.35 L 81.99 92.78 L 82.38 93.11 L 83.23 93.69 L 84.08 94.33 L 85 94.82 L 85.97 95.27 L 86.98 95.79 L 87.98 96.2 L 88.9 96.69 L 90.11 97 L 91.33 97.27 L 92.5 97.61 L 93.62 97.94 L 94.39 98.8 L 95 99.47 L 95.56 100.14 L 95.75 100.23 L 96.53 100.87 L 97.87 101.08 L 98.96 101.6 L 100.11 101.48 L 100.01 102.27 L 101.04 102.61 L 101.43 103.4 L 102.28 103.98 L 103.36 104.4 L 104.14 105 L 104.1 105.15 L 103.07 104.68 L 104.06 105.12 L 104.03 105.79 L 105.03 106.22 L 106.13 106.19 L 106.56 106.92 L 107.45 107.41 L 108.74 107.68 L 109.98 108.02 L 110.92 108.53 L 111.9 109.02 L 112.88 109.51 L 113.82 110.06 L 114.64 110.73 L 115.36 111.37 L 115.96 112.13 L 116.77 112.89 L 117.49 113.5 L 118.41 114.02 L 119.04 114.69 L 119.71 115.47 L 120.03 115.71 L 120.49 116.41 L 120.91 117.39 L 121.23 118.15 L 121.87 118.85 L 122.32 119.64 L 122.82 120.41 L 123.1 121.17 L 123.16 122.02 L 123.37 122.94 L 123.87 123.85 L 124.1 124.64 L 124.72 125.38 L 124.92 126.2 L 125.33 126.96 L 125.85 127.72 L 125.73 128.48 L 125.71 129.34 L 126.84 129.55 L 127.96 129.86 L 129.03 129.7 L 130.21 130.04 L 131.11 130.47 L 131.85 131.06 L 132.98 131.73 L 133.55 132.43 L 134.07 133.16 L 134.65 133.83 L 135.13 134.6 L 135.91 135.18 L 136.7 136.03 L 136.96 136.91 L 137.05 137.68 L 137.16 138.44 L 137.19 139.41 L 137.21 140.3 L 137.26 141.21 L 137.31 142 L 137.28 142.77 L 137.17 143.56 L 137.51 144.35 L 137.95 145.05 L 138.89 145.66 L 139.83 146.24 L 140.81 146.79 L 141.71 147.34 L 142.47 147.87 L 143.15 148.48 L 144.25 149 L 145.31 148.94 L 146.4 149.06 L 145.35 149.3 L 145.9 150 L 146.79 150.43 L 146.84 150.58 Z M 61.94 44.06 L 60.76 43.85 L 59.4 43.88 L 58.71 43.12 L 58.72 42.33 L 59.1 41.47 L 59.49 40.74 L 59.5 39.92 L 58.69 39.31 L 58.32 38.52 L 57.28 38 L 56.36 37.33 L 56.25 36.54 L 56.11 35.76 L 55.15 35.21 L 54.15 34.72 L 53.84 33.96 L 55.05 33.87 L 56.28 34.23 L 57.48 34.37 L 56.37 34.63 L 57.2 35.29 L 57.89 35.96 L 59.09 35.74 L 60.34 35.68 L 61.55 36.02 L 62.65 36.57 L 63.6 37.08 L 64.77 37.02 L 66 37.02 L 65.06 37.48 L 66.26 37.27 L 67.5 37.48 L 66.62 37.97 L 67.56 38.52 L 67.44 39.28 L 67.15 40.1 L 66.28 39.43 L 65.08 39.16 L 66.02 39.74 L 64.77 39.89 L 63.62 40.07 L 62.66 39.46 L 63.43 40.16 L 63.79 40.92 L 64.59 40.38 L 65.83 40.62 L 66.24 41.38 L 65.25 41.87 L 64.26 42.33 L 63.62 42.97 L 63.27 43.7 L 62.22 44 L 61.94 44.06 Z M 198.45 220.39 L 198.73 221.24 L 197.88 221.88 L 197.71 222.67 L 198 223.44 L 197.11 223.8 L 196.85 224.66 L 196.39 225.45 L 195.4 225.26 L 195.43 224.47 L 194.68 223.95 L 195.58 223.44 L 194.67 223.04 L 195.39 222.46 L 196.36 222.19 L 196.94 221.39 L 197.91 221.03 L 198.45 220.39 Z M 37.07 59.56 L 37.77 60.24 L 38.31 59.56 L 38.77 58.8 L 39.53 59.5 L 40.47 59.11 L 40.95 59.85 L 40.77 60.68 L 40.41 61.47 L 39.23 61.27 L 38.05 61 L 37.23 60.36 L 36.58 59.69 L 36.03 58.99 L 37.02 59.5 L 37.07 59.56 Z M 190.68 223.69 L 190.04 223.09 L 190.77 222.54 L 191.09 223.33 L 190.68 223.69 Z M 169.42 144.9 L 170 145.66 L 170.25 146.45 L 170.28 147.28 L 169.74 146.58 L 169.37 145.78 L 168.55 146.3 L 167.67 145.81 L 167.73 144.99 L 166.99 144.32 L 167.08 143.56 L 168.1 143.8 L 168.84 144.44 L 169.42 144.9 Z M 175.72 138.8 L 174.61 138.53 L 175.6 138.13 L 176.48 138.65 L 177.63 138.8 L 177.91 139.66 L 178.09 140.42 L 177.1 140.05 L 177.16 139.17 L 176.04 139.08 L 175.72 138.8 Z M 189.07 213.53 L 189.88 212.95 L 190.55 212.31 L 191.56 212.16 L 192.05 212.9 L 192.71 213.51 L 191.55 213.56 L 190.68 213.19 L 189.64 213.38 L 189.07 213.53 Z M 209.67 198.27 L 209.04 198.91 L 208.3 199.49 L 207.7 200.13 L 207.02 200.8 L 207.22 199.95 L 207.97 199.37 L 208.25 198.61 L 209.33 198.39 L 209.67 198.27 Z M 45.86 66.96 L 45.57 67.69 L 45.05 68.36 L 45.28 69.18 L 44.22 68.66 L 43.68 67.93 L 44.29 67.26 L 45.35 66.9 L 45.86 66.96 Z M 41.64 59.09 L 40.49 58.89 L 39.29 58.59 L 40.55 58.62 L 41.59 59.09 L 41.64 59.09 Z M 186.93 218.95 L 186.59 219.75 L 185.76 219.32 L 186.81 218.99 L 186.93 218.95 Z M 186.16 212.97 L 187.2 213.07 L 186.55 213.67 L 186.2 212.94 L 186.16 212.97 Z M 192.51 211.21 L 192.6 212.05 L 192.26 211.33 L 192.51 211.21 Z M 187.41 213.47 L 188.09 214.04 L 187.41 214.65 L 186.98 213.96 L 187.41 213.47 Z M 187.39 144.93 L 186.7 144.17 L 187.75 144.5 L 187.39 144.93 Z M 155.34 137.99 L 156.32 137.51 L 155.39 137.96 L 155.34 137.99 Z M 56.72 42.88 L 57.01 42.14 L 57.38 42.94 L 56.72 42.88 Z M 73.2 43.67 L 72.35 43.03 L 73.46 43.33 L 73.2 43.67 Z M 38.9 52.37 L 39.76 52.95 L 38.82 52.43 L 38.9 52.37 Z M 36.73 58.74 L 37.98 58.71 L 36.78 58.77 L 36.73 58.74 Z" fill-rule="nonzero"/>
        </g>
      </g>
      <g id="GRID.VP.2.1">
        <g id="contours.1" clip-path="url(#gridSVG.clipPath.1.1)">
          <polygon id="contours.1.1" points="309.19,47.71 308.73,49.21 308.48,54.08 309.19,55.95 310.24,58.95 313.06,63.83 314.1,65.58 315.22,68.7 317.34,73.57 319.02,75.76 321.1,78.45 323.93,80.95 328.2,83.32 328.85,83.76 333.76,86.42 338.68,88.19 338.68,88.19 343.59,89.86 348.51,90.2 353.42,89.29 355.94,88.19 358.34,85.03 359.08,83.32 358.34,78.7 358.32,78.45 356.97,73.57 354.24,68.7 353.42,67.78 349.68,63.83 348.51,62.84 343.59,59.52 342.46,58.95 338.68,56.55 333.76,54.58 332.17,54.08 328.85,52.2 323.93,49.53 323.24,49.21 319.02,46.75 314.1,45.25 309.19,47.71" fill="rgb(146,195,241)" stroke="rgb(131,176,217)" stroke-opacity="1" fill-opacity="1"/>
          <polygon id="contours.1.2" points="412.4,107.5 412.33,107.69 412.4,107.77 417.31,108.37 418.16,107.69 417.31,105.85 412.4,107.5" fill="rgb(137,187,232)" stroke="rgb(123,168,209)" stroke-opacity="1" fill-opacity="1"/>
          <polygon id="contours.1.3" points="417.31,122.97 415.19,127.18 416.07,132.05 417.31,133.57 421.1,136.93 422.23,137.79 427.14,141.35 427.7,141.8 432.06,145.08 434.3,146.67 436.97,148.93 439.01,151.55 441.89,156.29 441.95,156.42 445.29,161.29 446.8,163.1 449.44,166.17 451.72,168.67 453.81,171.04 456.63,173.67 458.98,175.91 461.55,178.08 464.47,180.79 466.46,182.46 470.33,185.66 471.38,186.54 475.52,190.53 476.29,191.34 479.2,195.41 481.21,197.87 482.92,200.28 486.12,203.98 487.19,205.15 491.04,209.14 491.9,210.03 495.95,214.37 496.39,214.9 500.6,219.77 500.87,220.06 505.27,224.65 505.78,225.13 510.7,229.02 511.64,229.52 515.61,232.3 520.53,234.38 520.58,234.39 525.44,237.71 527.79,239.27 530.35,241.45 534.33,244.14 535.27,244.72 540.18,246.53 545.1,246.83 550.01,245.74 552.91,244.14 554.93,242.75 558.34,239.27 559.84,236.21 560.89,234.39 561.99,229.52 562.46,224.65 564.76,223.25 569.67,223.38 574.59,223.66 579.5,223.14 584.42,220.92 585.72,219.77 588.66,214.9 588.62,210.03 585.85,205.15 584.42,203.78 579.5,200.76 578.58,200.28 574.59,197.83 572.24,195.41 569.67,192.88 567.89,190.53 564.76,187.55 561.98,185.66 559.84,184.12 554.93,182.31 550.01,181.72 545.1,181.44 541.92,180.79 540.18,180 535.45,175.91 535.27,175.77 530.35,172.42 527.63,171.04 525.44,170.08 520.53,167.84 518.78,166.17 516.71,161.29 515.61,156.62 515.57,156.42 513.67,151.55 510.7,148.06 508.65,146.67 505.78,145.25 500.87,143.9 495.95,142.32 494.64,141.8 491.04,140.47 486.12,139.6 481.21,138.74 478.06,136.93 476.29,136.07 471.79,132.05 471.38,131.69 466.46,127.51 465.73,127.18 461.55,125.37 456.63,125.23 451.72,125.44 447,122.31 446.8,122.13 442.39,117.43 441.89,117.08 436.97,117.32 436.79,117.43 432.06,119.58 427.14,120.25 422.23,120.26 418.25,122.31 417.31,122.97" fill="rgb(128,179,224)" stroke="rgb(115,161,202)" stroke-opacity="1" fill-opacity="1"/>
          <polygon id="contours.1.4" points="323.93,59.13 320.54,63.83 320.68,68.7 322.61,73.57 323.93,75.11 327.82,78.45 328.85,79.16 333.76,81.43 338.68,82.85 342.08,83.32 343.59,83.61 345.15,83.32 348.51,82.31 351.23,78.45 351.05,73.57 348.51,69.04 348.32,68.7 343.59,64.45 342.7,63.83 338.68,61.36 333.76,59.58 329.79,58.95 328.85,58.72 325.54,58.95 323.93,59.13" fill="rgb(119,171,216)" stroke="rgb(107,154,194)" stroke-opacity="1" fill-opacity="1"/>
          <polygon id="contours.1.5" points="456.63,151.67 453.09,156.42 455.92,161.29 456.63,162.26 458.99,166.17 461.55,169.4 462.62,171.04 466.46,175.53 466.71,175.91 471.32,180.79 471.38,180.84 476.24,185.66 476.29,185.71 479.83,190.53 481.21,192.21 483.33,195.41 486.12,198.77 487.42,200.28 491.04,204.09 492.17,205.15 495.95,208.98 496.94,210.03 500.87,214.51 501.17,214.9 505.33,219.77 505.78,220.24 510.7,224.56 510.84,224.65 515.61,227.88 520.09,229.52 520.53,229.76 525.44,231.69 530.35,233.29 532.99,234.39 535.27,235.93 540.18,238.96 541.93,239.27 545.1,239.61 546.04,239.27 550.01,235.72 550.79,234.39 550.01,232.3 548.45,229.52 545.1,227.07 542.91,224.65 540.18,220.55 539.96,219.77 538.75,214.9 537.67,210.03 536.3,205.15 535.27,203.12 534.41,200.28 531.14,195.41 530.35,194.65 525.44,190.64 525.26,190.53 520.53,187.61 516.91,185.66 515.61,184.85 510.7,180.89 510.6,180.79 506.02,175.91 505.78,175.65 500.87,171.28 500.35,171.04 495.95,168.55 491.04,167.47 486.12,166.55 484.79,166.17 481.21,164.15 476.6,161.29 476.29,160.89 471.65,156.42 471.38,156.09 466.46,153.12 461.55,152.2 456.63,151.67" fill="rgb(110,163,208)" stroke="rgb(99,147,187)" stroke-opacity="1" fill-opacity="1"/>
          <polygon id="contours.1.6" points="545.1,189.57 543.82,190.53 541.32,195.41 541.65,200.28 545.1,204.72 545.42,205.15 550.01,208.57 554.93,209.99 555.81,210.03 559.84,210.33 562.63,210.03 564.76,209.67 569.3,205.15 568,200.28 565.7,195.41 564.76,194.28 561.51,190.53 559.84,189.2 554.93,187.23 550.01,187.26 545.1,189.57" fill="rgb(101,155,200)" stroke="rgb(91,139,180)" stroke-opacity="1" fill-opacity="1"/>
          <polygon id="contours.1.7" points="574.59,209.6 572.4,210.03 574.59,211.1 575.75,210.03 574.59,209.6" fill="rgb(92,147,192)" stroke="rgb(83,132,173)" stroke-opacity="1" fill-opacity="1"/>
          <polygon id="contours.1.8" points="328.85,63.22 327.73,63.83 325.08,68.7 327.16,73.57 328.85,75.08 333.76,77.58 337.4,78.45 338.68,78.76 341.92,78.45 343.59,78.03 345.85,73.57 343.59,69.19 343.32,68.7 338.68,65.34 335.34,63.83 333.76,63.2 328.85,63.22" fill="rgb(83,140,184)" stroke="rgb(75,126,166)" stroke-opacity="1" fill-opacity="1"/>
          <polygon id="contours.1.9" points="471.38,170.22 470.95,171.04 471.38,171.99 472.67,175.91 476.24,180.79 476.29,180.84 479.56,185.66 481.21,187.79 482.74,190.53 486.12,195.03 486.41,195.41 490.71,200.28 491.04,200.62 495.86,205.15 495.95,205.25 500.45,210.03 500.87,210.5 504.25,214.9 505.78,216.63 508.62,219.77 510.7,221.68 515.32,224.65 515.61,224.85 520.53,227.07 525.44,228.02 530.35,227.93 534.93,224.65 535.27,222.07 535.48,219.77 535.27,218.65 534.88,214.9 533.87,210.03 532.15,205.15 530.35,202.1 529.19,200.28 525.44,196.26 524.26,195.41 520.53,192.75 516.93,190.53 515.61,189.64 511.02,185.66 510.7,185.38 506.48,180.79 505.78,180.06 501.52,175.91 500.87,175.31 495.95,172.39 491.04,171.3 488.63,171.04 486.12,170.62 481.21,169.77 476.29,168.91 471.38,170.22" fill="rgb(74,132,176)" stroke="rgb(67,119,158)" stroke-opacity="1" fill-opacity="1"/>
          <polygon id="contours.1.10" points="550.01,191.8 546.88,195.41 547.22,200.28 550.01,203.66 552.86,205.15 554.93,205.97 559.82,205.15 559.84,205.15 562.79,200.28 561.36,195.41 559.84,193.73 554.93,190.95 550.01,191.8" fill="rgb(63,124,169)" stroke="rgb(57,112,152)" stroke-opacity="1" fill-opacity="1"/>
          <polygon id="contours.1.11" points="333.76,67.77 331.31,68.7 333.72,73.57 333.76,73.59 334.84,73.57 336.22,68.7 333.76,67.77" fill="rgb(53,117,161)" stroke="rgb(48,105,145)" stroke-opacity="1" fill-opacity="1"/>
          <polygon id="contours.1.12" points="481.21,175.18 480.09,175.91 480.24,180.79 481.21,182.38 482.37,185.66 485.11,190.53 486.12,191.88 488.75,195.41 491.04,197.94 493.58,200.28 495.95,202.54 498.95,205.15 500.87,207.17 503.24,210.03 505.78,213.2 507.01,214.9 510.7,218.88 511.71,219.77 515.61,222.61 520.53,224.51 521.99,224.65 525.44,225.11 527.16,224.65 530.35,223 532.2,219.77 532.38,214.9 531.26,210.03 530.35,208 529.11,205.15 525.44,200.31 525.41,200.28 520.53,196.43 518.81,195.41 515.61,193.24 512.51,190.53 510.7,188.91 507.95,185.66 505.78,183.37 503.47,180.79 500.87,178.24 497.19,175.91 495.95,175.13 491.04,173.85 486.12,173.93 481.21,175.18" fill="rgb(40,110,154)" stroke="rgb(36,99,139)" stroke-opacity="1" fill-opacity="1"/>
          <polygon id="contours.1.13" points="554.93,195.13 554.11,195.41 553.34,200.28 554.93,201.16 556.55,200.28 555.39,195.41 554.93,195.13" fill="rgb(25,102,147)" stroke="rgb(23,92,132)" stroke-opacity="1" fill-opacity="1"/>
          <polygon id="contours.1.14" points="486.12,177.68 483.8,180.79 484.72,185.66 486.12,188.16 487.33,190.53 491.04,195.34 491.11,195.41 495.95,199.88 496.51,200.28 500.87,204.02 502.09,205.15 505.78,209.79 505.93,210.03 509.44,214.9 510.7,216.25 514.7,219.77 515.61,220.44 520.53,222.4 525.44,222.32 528.8,219.77 529.9,214.9 528.95,210.03 526.55,205.15 525.44,203.69 521.6,200.28 520.53,199.43 515.61,196.51 514.1,195.41 510.7,192.46 509.19,190.53 505.78,186.53 505.14,185.66 500.87,180.96 500.65,180.79 495.95,177.52 491.04,176.4 486.12,177.68" fill="rgb(0,95,140)" stroke="rgb(0,86,126)" stroke-opacity="1" fill-opacity="1"/>
          <polygon id="contours.1.15" points="491.04,178.98 487.66,180.79 487.15,185.66 489.44,190.53 491.04,192.6 493.8,195.41 495.95,197.4 500.02,200.28 500.87,201.01 505.34,205.15 505.78,205.7 508.53,210.03 510.7,213.1 512.02,214.9 515.61,218.09 519.22,219.77 520.53,220.3 524.26,219.77 525.44,219.38 527.56,214.9 526.8,210.03 525.44,207.46 523.68,205.15 520.53,202.29 516.83,200.28 515.61,199.56 510.7,196.33 509.91,195.41 506.37,190.53 505.78,189.84 502.7,185.66 500.87,183.64 497.4,180.79 495.95,179.78 491.04,178.98" fill="rgb(0,88,133)" stroke="rgb(0,79,120)" stroke-opacity="1" fill-opacity="1"/>
          <polygon id="contours.1.16" points="491.04,182.56 489.71,185.66 491.04,188.97 491.92,190.53 495.95,194.67 497.33,195.41 500.87,197.37 505.59,195.41 503.29,190.53 500.87,186.84 499.9,185.66 495.95,182.52 491.04,182.56" fill="rgb(0,81,126)" stroke="rgb(0,73,113)" stroke-opacity="1" fill-opacity="1"/>
          <polygon id="contours.1.17" points="510.7,202.57 509.68,205.15 510.7,207.95 511.32,210.03 514.74,214.9 515.61,215.67 520.53,217.62 524.98,214.9 524.26,210.03 520.59,205.15 520.53,205.1 515.61,202.97 510.7,202.57" fill="rgb(0,75,120)" stroke="rgb(0,68,108)" stroke-opacity="1" fill-opacity="1"/>
          <polygon id="contours.1.18" points="495.95,185.64 495.9,185.66 495.53,190.53 495.95,190.96 497.61,190.53 495.97,185.66 495.95,185.64" fill="rgb(0,68,115)" stroke="rgb(0,61,104)" stroke-opacity="1" fill-opacity="1"/>
          <polygon id="contours.1.19" points="515.61,208.6 515.03,210.03 515.61,210.94 520.53,213.77 521.06,210.03 520.53,209.31 515.61,208.6" fill="rgb(0,62,110)" stroke="rgb(0,56,99)" stroke-opacity="1" fill-opacity="1"/>
        </g>
        <g id="GRID.pathgrob.2.2">
          <path id="GRID.pathgrob.2.2.1" d="M 436.7 253.4 L 437.68 253.17 L 438.65 253.29 L 439.47 253.81 L 440.55 253.69 L 441.6 254.13 L 441.68 253.32 L 441.6 252.53 L 440.59 252.35 L 439.81 252.87 L 440.12 252.04 L 439.15 252.17 L 439.58 251.46 L 440.48 251.86 L 440.16 251.1 L 440.84 250.52 L 441.14 251.28 L 441.66 250.49 L 441.98 249.73 L 442.48 249.03 L 443.14 248.46 L 443.93 247.91 L 444.55 247.24 L 443.69 247.64 L 443.77 246.85 L 444.52 246.33 L 445.42 245.93 L 446.47 245.75 L 446.06 245.05 L 445.44 244.35 L 445.64 243.58 L 446.65 243.58 L 447.36 244.29 L 447.27 245.11 L 446.83 245.87 L 447.68 246.36 L 448.46 246.86 L 449.44 246.71 L 448.94 245.98 L 448.3 245.32 L 448.72 244.51 L 449.63 244.06 L 450.6 244.12 L 451.23 243.48 L 451.28 244.3 L 451.42 245.15 L 452.36 244.88 L 453.27 244.54 L 454.2 244.19 L 455.07 243.8 L 454.49 243.1 L 453.72 242.62 L 454.78 242.52 L 455.35 243.19 L 456.16 243.74 L 457.15 243.49 L 458.09 242.88 L 458.14 242.09 L 458.9 241.57 L 459.88 241.68 L 460.9 241.53 L 461.49 240.86 L 460.52 240.49 L 460.31 241.25 L 459.33 241.34 L 459.78 240.64 L 458.88 240.23 L 459.86 240.13 L 460.71 239.58 L 461.03 238.72 L 461.21 237.87 L 462.35 237.87 L 463.37 237.99 L 462.65 238.57 L 461.67 238.54 L 461.27 239.3 L 462.25 239.03 L 463.23 239.48 L 464.11 239.82 L 464.61 240.54 L 464.49 239.74 L 464.65 238.97 L 465.25 238.25 L 466.05 237.67 L 465.14 237.98 L 465.39 237.15 L 465.83 236.42 L 466.86 236.33 L 467.38 235.66 L 466.96 234.96 L 467.63 234.35 L 468.58 233.89 L 468.68 233.07 L 467.62 232.76 L 468.3 232.18 L 468.24 231.39 L 469.23 231.24 L 469.09 230.39 L 469.6 229.47 L 468.66 229.04 L 468.1 229.72 L 467.74 230.48 L 466.74 230.31 L 465.78 230.55 L 465.39 231.32 L 464.99 230.58 L 465.16 229.82 L 466.19 229.76 L 467.18 229.65 L 468.29 229.41 L 467.68 228.77 L 467.58 227.98 L 467.79 227.09 L 468.28 226.3 L 469.18 225.84 L 469.94 225.3 L 469.57 224.44 L 470.57 224.29 L 471.06 223.59 L 471.74 222.98 L 472.43 222.4 L 473.32 222.03 L 473.52 221.27 L 472.85 220.63 L 473.85 220.51 L 472.94 219.99 L 472.73 219.25 L 472.61 218.36 L 472.25 219.12 L 471.4 219.73 L 471.8 218.97 L 472.14 218.15 L 471.91 217.32 L 471.77 216.53 L 472.67 216.04 L 473.73 216.53 L 472.99 215.89 L 471.99 216.14 L 472.16 215.34 L 472.74 214.7 L 472.98 213.88 L 473.28 213.09 L 472.4 212.72 L 471.48 213.06 L 471.5 213.94 L 470.54 213.7 L 471.24 213 L 470.61 212.26 L 471.27 211.5 L 471.89 212.11 L 472.85 212.45 L 473.86 212.23 L 474.9 212.23 L 474.84 211.44 L 474.58 210.68 L 475.16 211.47 L 475.43 212.22 L 476.05 211.55 L 476.55 210.79 L 476.97 211.64 L 478.01 211.55 L 478.44 210.66 L 479.48 210.73 L 480.68 210.63 L 481.66 210.1 L 482.37 209.34 L 482.5 208.55 L 482.45 207.6 L 482.71 206.84 L 483.3 205.95 L 484.56 205.8 L 485.67 206.11 L 486.55 206.47 L 487.06 205.74 L 487.03 206.53 L 486.56 207.3 L 486.48 208.33 L 486.26 209.25 L 486 210.07 L 485.25 210.68 L 484.67 211.35 L 485.5 211.97 L 486.03 212.8 L 485.39 213.5 L 484.96 214.2 L 485.17 215.02 L 485.58 215.72 L 484.64 216.3 L 483.71 216.73 L 482.97 217.54 L 483.15 218.16 L 484.16 218.31 L 484.96 217.8 L 486 217.58 L 486.7 216.97 L 486.61 216.15 L 487.54 215.75 L 487.45 214.99 L 488.07 214.32 L 488.06 213.56 L 489.14 213.62 L 490.01 214.03 L 490.95 214.37 L 491.89 213.88 L 491.03 213.51 L 490.47 212.87 L 489.69 212.31 L 489.23 211.55 L 489.94 212.1 L 490.88 211.72 L 491.88 211.65 L 492.07 210.86 L 492.18 210.01 L 492.58 209.19 L 491.92 208.61 L 492.86 208.21 L 492.91 207.39 L 492.87 206.53 L 492.45 205.82 L 492.97 204.98 L 493.33 204.25 L 493.67 203.52 L 493.85 202.66 L 494.25 201.87 L 493.88 201.15 L 494.35 200.42 L 493.89 199.75 L 494.16 198.99 L 494.83 198.32 L 495.87 198.46 L 495.79 197.63 L 496.8 197.6 L 497.81 197.72 L 497.96 196.96 L 499.09 197.02 L 498.3 197.6 L 498.04 198.39 L 499.02 197.85 L 499.93 197.33 L 500.85 196.93 L 501.88 196.55 L 502.95 196.18 L 503.95 195.7 L 504.87 195.21 L 505.9 194.81 L 506.78 194.36 L 507.93 194.04 L 509.1 193.67 L 510.13 193.4 L 511.49 193.09 L 512.57 192.8 L 513.43 192.34 L 514.43 192.04 L 515.42 191.73 L 514.38 191.92 L 514.96 191.25 L 515.66 191.83 L 516.72 191.7 L 517.68 191.34 L 518.68 191.72 L 519.77 191.69 L 520.69 191.99 L 521.54 192.54 L 522.49 192.91 L 523.14 193.56 L 523.79 194.17 L 524.57 194.69 L 524.92 195.48 L 525.57 196.09 L 526.41 196.63 L 527.41 196.84 L 528.41 196.47 L 528.75 197.36 L 529.75 197.57 L 530.43 198.18 L 531.33 198.72 L 532.39 198.62 L 533.53 198.47 L 534.53 198.65 L 535.69 198.36 L 536.31 197.69 L 537.17 197.02 L 538.32 196.9 L 539.43 196.6 L 540.37 196.05 L 539.94 195.32 L 539.4 194.68 L 538.54 194.22 L 538.65 193.43 L 537.85 192.76 L 537.57 192.01 L 537.31 191.28 L 536.65 190.64 L 537.19 189.91 L 537.17 189.11 L 536.3 188.72 L 536.77 187.92 L 536.5 187.16 L 536.48 186.4 L 536.4 185.58 L 536.47 184.69 L 536.62 183.93 L 536.01 183.18 L 535.71 182.39 L 535.4 181.63 L 534.47 181.05 L 533.78 180.5 L 533.08 179.92 L 532.12 179.54 L 531.05 179.6 L 529.92 179.36 L 529.43 178.69 L 529.61 177.93 L 529.18 177.19 L 529.12 176.36 L 528.94 175.59 L 528.71 174.65 L 528.53 173.8 L 528.8 173 L 529.72 172.58 L 529.94 171.81 L 529.24 171.27 L 528.96 170.53 L 528.3 169.86 L 528.14 169.71 L 527.92 170.53 L 527.45 171.3 L 527.86 172 L 528.22 172.7 L 527.1 172.97 L 526.12 173.31 L 524.96 173.42 L 523.92 173.51 L 522.76 173.48 L 521.64 173.48 L 520.61 173.51 L 519.57 173.37 L 518.55 173.16 L 517.49 172.88 L 516.43 172.64 L 515.42 172.26 L 514.49 171.92 L 513.6 171.43 L 513.2 170.64 L 512.57 170 L 511.9 169.36 L 511.05 168.71 L 510.64 167.94 L 510.53 167.12 L 511.31 166.48 L 511.27 165.72 L 511.61 164.93 L 512.17 164.19 L 513.24 163.86 L 514.27 163.87 L 513.82 163.13 L 513.07 162.52 L 512.78 161.69 L 512.58 160.9 L 512.22 160.08 L 511.78 159.32 L 511.32 158.62 L 510.87 157.75 L 510.63 156.89 L 510.34 156.1 L 509.86 155.4 L 509.14 154.79 L 508.28 154.3 L 507.29 153.98 L 506.62 153.34 L 506.7 152.58 L 506.24 151.79 L 505.92 151.06 L 505.97 150.2 L 504.9 149.84 L 503.99 149.47 L 503.19 148.75 L 502.45 148.21 L 501.81 147.54 L 501.21 146.9 L 500.45 146.38 L 499.9 145.57 L 499.52 144.81 L 499.09 143.99 L 498.68 143.19 L 497.9 142.58 L 497.2 141.82 L 496.63 141.13 L 496.41 140.34 L 495.98 139.64 L 495.42 138.94 L 494.63 138.33 L 494.23 137.63 L 493.31 137.23 L 492.44 136.55 L 491.79 135.85 L 490.87 135.36 L 489.9 134.99 L 488.89 134.63 L 488.06 133.94 L 487.08 133.54 L 486.1 133.18 L 485.4 132.6 L 484.52 132.08 L 483.41 132.04 L 482.44 131.58 L 481.32 131.64 L 480.69 132.31 L 480.54 133.1 L 480.6 133.93 L 480.33 134.75 L 479.38 135.11 L 478.33 135.51 L 477.23 135.4 L 476.3 135.04 L 475.37 134.58 L 474.46 135.1 L 474.1 135.86 L 474.75 136.59 L 475.2 137.39 L 474.58 138.12 L 473.49 137.66 L 473.29 136.9 L 473.15 136.14 L 472.04 136 L 471.01 136.24 L 470.47 137.03 L 470.5 137.89 L 471.46 138.28 L 472.25 138.97 L 472.94 139.55 L 473.61 140.19 L 474.71 140.25 L 474.09 140.95 L 474.97 141.53 L 475.8 142.03 L 475.8 142 L 476.46 142.77 L 476.6 143.62 L 477.41 144.26 L 478.15 144.84 L 478.68 145.54 L 479.12 146.26 L 479.65 146.96 L 480.01 147.69 L 480.13 148.48 L 480.4 149.27 L 480.58 150.13 L 480.85 150.89 L 480.91 151.65 L 481.05 152.44 L 481.08 153.3 L 480.97 154.09 L 480.85 154.88 L 480.57 155.74 L 480.21 156.56 L 479.76 157.29 L 479.09 157.93 L 478.41 158.63 L 477.71 159.24 L 476.89 159.79 L 475.83 160.37 L 474.86 160.86 L 473.8 161.25 L 472.76 161.18 L 471.72 161.24 L 470.82 161.66 L 469.81 162 L 468.72 162.27 L 468 162.85 L 467.1 163.3 L 466.37 163.87 L 465.69 164.58 L 464.8 165.22 L 463.59 165.58 L 462.62 166.16 L 461.49 166.19 L 460.41 166.3 L 459.41 166.66 L 458.4 167.03 L 457.48 167.49 L 456.85 168.16 L 456.07 168.71 L 455.4 169.41 L 455.06 170.17 L 454.89 171.02 L 455.04 171.81 L 455.32 172.58 L 456.02 173.25 L 456.86 173.8 L 457.85 174.16 L 458.87 174.48 L 459.61 175.03 L 460.64 175.21 L 461.54 175.67 L 462.44 176.07 L 463.43 176.3 L 464.59 176.26 L 465.62 176.11 L 466.69 176.36 L 467.37 177 L 468.08 177.62 L 468.93 178.23 L 469.5 178.87 L 469.84 179.66 L 470.04 180.49 L 470.18 181.28 L 470.26 182.13 L 470.44 182.99 L 470.51 183.79 L 470.44 184.59 L 470.56 185.38 L 470.5 186.17 L 471.19 186.81 L 471.79 187.54 L 471.89 188.34 L 471.87 189.16 L 471.61 189.95 L 471.34 190.74 L 472.36 190.81 L 473.38 190.61 L 474.29 190.21 L 474.01 190.97 L 475.11 190.73 L 474.93 191.49 L 474.06 191.95 L 473.26 191.43 L 473.32 192.25 L 474.33 192.53 L 474.93 193.2 L 473.86 193.29 L 473.12 193.87 L 472.85 194.69 L 473.08 195.48 L 474.18 195.94 L 475.27 195.97 L 476.28 196.14 L 476.3 196.96 L 475.47 196.52 L 474.5 196.12 L 474 196.89 L 473.81 197.68 L 473.55 198.5 L 473.16 199.26 L 472.93 200.06 L 472.54 200.85 L 472.15 201.73 L 471.81 202.46 L 472.04 203.23 L 472.94 203.78 L 472.07 203.32 L 471.44 203.99 L 470.99 204.78 L 470.55 205.54 L 470.05 206.34 L 469.66 207.19 L 469.2 207.98 L 468.9 208.74 L 469.98 208.96 L 471.03 208.9 L 471.13 207.98 L 471.48 207.19 L 471.81 206.34 L 472.65 206.78 L 471.79 207.25 L 472.82 207.81 L 473.74 208.18 L 474.66 208.51 L 475.74 208.45 L 474.73 208.73 L 474 209.37 L 472.84 209.64 L 472.99 210.4 L 473.85 210.77 L 472.85 210.83 L 471.73 210.83 L 470.93 210.36 L 470.25 209.78 L 469.29 209.54 L 468.54 208.96 L 467.96 209.6 L 467.65 210.33 L 467.47 211.15 L 467.1 211.97 L 466.79 212.8 L 466.38 213.5 L 465.85 214.2 L 465.33 214.93 L 464.72 215.57 L 464.15 216.33 L 463.62 217.02 L 462.93 217.69 L 462.28 218.33 L 462.38 219.18 L 463.37 219.56 L 463.98 218.92 L 464.51 218.22 L 465.04 217.52 L 465.97 217.22 L 465.5 216.52 L 466.39 216.09 L 467.24 215.66 L 467.18 216.52 L 466.73 217.22 L 466.91 218.07 L 466.82 218.86 L 466.86 219.72 L 466.8 220.51 L 466.1 219.9 L 465.1 220.2 L 464.1 220.24 L 464.17 221.03 L 465.12 221.3 L 466.11 221.42 L 466.89 221.97 L 468.05 222.29 L 467 222.29 L 465.98 222.03 L 465.16 221.52 L 464.27 221.88 L 464.7 222.58 L 465.5 222.06 L 465.04 222.8 L 466.08 223.28 L 466.41 224.06 L 465.75 223.47 L 465 222.92 L 464.21 223.44 L 463.47 224.01 L 464.04 224.66 L 463.05 224.56 L 463.28 223.8 L 464 223.22 L 463.86 222.43 L 462.82 222.74 L 462.02 223.22 L 461.53 224.05 L 460.46 223.91 L 459.66 224.46 L 460.06 223.57 L 460.79 222.96 L 461.36 222.32 L 461.96 221.65 L 462.49 220.88 L 461.91 220.22 L 460.87 220.1 L 459.84 220.25 L 459.87 221.07 L 459.45 221.9 L 459.01 222.69 L 458.52 223.45 L 457.95 224.09 L 457.29 224.82 L 456.69 225.52 L 456.04 226.26 L 455.4 226.94 L 454.76 227.61 L 454.08 228.25 L 453.4 229.01 L 452.77 229.69 L 452.14 230.29 L 451.43 230.84 L 450.87 231.54 L 450.28 232.18 L 449.68 232.86 L 449.04 233.5 L 448.33 234.23 L 448.35 235.11 L 448.69 235.96 L 449.32 236.6 L 450.31 236.36 L 451.33 236.7 L 451.36 237.52 L 452.27 237.84 L 451.59 238.43 L 450.96 239.1 L 450.85 238.31 L 450.93 237.46 L 449.91 237.49 L 449.08 237.06 L 448.3 236.57 L 448.14 235.75 L 447.84 235 L 447.08 235.77 L 446.53 236.41 L 445.77 237.08 L 445.62 237.84 L 446.12 238.6 L 445.46 237.99 L 444.63 238.45 L 445.06 239.36 L 444.08 239.15 L 443.42 239.79 L 442.64 240.4 L 443.43 240.92 L 444.29 241.28 L 444.6 242.05 L 444.52 242.9 L 444.28 243.66 L 443.86 244.42 L 443.37 245.12 L 442.7 245.82 L 442.11 246.56 L 441.53 247.2 L 440.74 248.02 L 440.12 248.75 L 439.42 249.51 L 438.81 250.21 L 438 250.88 L 437.22 251.54 L 436.33 251.97 L 435.9 252.67 L 435.75 253.46 L 435.77 253.64 Z M 434.84 150.58 L 435.98 150.68 L 437.16 150.64 L 438.49 150.58 L 439.54 150.43 L 440.72 150.22 L 439.54 150.31 L 438.45 150.43 L 437.37 150.52 L 436.31 150.22 L 435.8 149.55 L 435.55 148.79 L 435.08 148.08 L 435.67 147.41 L 436.09 146.59 L 436.76 145.98 L 437.61 145.43 L 438.54 145.04 L 439.6 145.31 L 440.45 145.8 L 441.47 145.52 L 441.63 144.76 L 442.1 144.06 L 442.31 143.27 L 441.98 142.54 L 441.55 141.8 L 441.37 141.01 L 441.72 140.28 L 441.55 139.52 L 442.45 139.09 L 442.74 138.73 L 443.17 138.03 L 443.77 137.32 L 444.67 136.68 L 445.48 137.39 L 446.46 137.81 L 447.13 138.45 L 447.31 138.79 L 448.15 139.37 L 449.21 139.4 L 450.15 139.82 L 450.57 140.52 L 451.46 141.04 L 452.52 140.98 L 453.04 140.31 L 453.72 140.95 L 454.78 141.29 L 453.66 141.29 L 454 142.08 L 455.01 142.45 L 455.73 143.01 L 456.38 142.34 L 457.31 142.86 L 457.99 143.65 L 459.13 143.74 L 458.3 143.16 L 457.39 142.61 L 456.89 141.88 L 455.99 142.31 L 455.11 141.8 L 455.25 141.04 L 455.04 140.28 L 455.8 140.83 L 456.78 141.24 L 457.84 141.15 L 456.82 140.81 L 456.58 140.04 L 455.68 139.61 L 456.72 139.15 L 456.47 138.33 L 455.58 137.87 L 454.52 137.78 L 455.54 137.51 L 456.52 137.81 L 457.45 138.27 L 458.52 138.53 L 459.53 138.77 L 460.59 138.92 L 459.66 139.41 L 458.77 138.83 L 457.67 138.82 L 456.84 139.46 L 457.6 140.02 L 458.1 140.72 L 458.41 139.96 L 459.25 140.51 L 459.71 141.24 L 458.64 141.39 L 458.54 142.16 L 459.3 142.7 L 459.48 141.94 L 460.55 141.76 L 461.66 141.79 L 461.75 142.55 L 462.61 142.06 L 462.18 141.36 L 463.03 140.88 L 463.85 141.49 L 464.56 142.06 L 464.02 141.36 L 463.64 140.57 L 463.1 139.9 L 462.44 140.6 L 462.12 139.81 L 462.55 138.99 L 461.63 138.59 L 460.52 138.25 L 459.42 138.22 L 458.4 137.9 L 457.55 137.42 L 458.61 137.6 L 459.73 137.68 L 460.75 137.98 L 461.81 138.22 L 462.5 137.61 L 463.55 137.95 L 464.75 138.47 L 464.21 137.77 L 463.32 137.22 L 462.74 136.55 L 461.76 136.18 L 462.18 136.91 L 461.16 136.58 L 460.52 136.12 L 460.06 135.4 L 459.74 134.67 L 459.83 133.88 L 460.61 133.27 L 461.61 132.84 L 462 132.08 L 461.98 131.08 L 462.17 130.31 L 463.09 129.8 L 463.52 129.09 L 462.94 128.36 L 462.31 127.72 L 461.72 127.08 L 460.95 126.53 L 460.21 125.89 L 459.4 125.19 L 458.76 124.52 L 458.08 123.67 L 458.01 122.88 L 457.46 122.05 L 456.69 121.5 L 455.71 120.93 L 454.84 120.44 L 454.25 119.74 L 453.68 118.97 L 454.04 118.21 L 452.91 118.36 L 451.87 118.12 L 451.09 117.54 L 450.54 116.83 L 450.29 116.03 L 449.81 115.18 L 449.32 114.36 L 448.89 113.59 L 448.41 112.77 L 447.81 112.13 L 447.24 111.28 L 446.98 110.49 L 446.38 109.81 L 445.59 109.24 L 444.58 108.81 L 443.62 108.32 L 443.05 107.65 L 441.86 107.53 L 440.77 107.16 L 439.75 106.8 L 438.7 106.43 L 437.56 105.94 L 436.93 105.17 L 436.59 104.37 L 436.14 103.64 L 436.03 102.85 L 436.03 102.06 L 435.67 101.75 L 436.11 101.02 L 436.28 100.11 L 436.63 99.37 L 437.33 98.64 L 436.35 98.19 L 435.2 98.03 L 435.33 97.24 L 436.13 97.82 L 437.28 97.94 L 437.9 97.3 L 438.44 97.97 L 439.46 97.67 L 439.23 96.78 L 439.72 97.48 L 441.14 97.51 L 442.16 97.06 L 443.09 96.54 L 443.49 95.59 L 443.18 94.83 L 442.69 94.1 L 441.76 93.61 L 440.65 93.7 L 440.29 94.47 L 440.61 95.23 L 439.76 94.71 L 439.8 93.95 L 439.99 93.19 L 438.86 93.46 L 437.71 93.64 L 436.6 94.1 L 435.54 94.38 L 434.33 94.34 L 433.23 94.25 L 432.07 94.13 L 430.86 93.92 L 431.85 94.38 L 433.01 94.62 L 434.16 94.8 L 433.1 95.35 L 432.44 96.02 L 431.28 95.84 L 430.26 95.41 L 430.16 94.53 L 429.71 93.8 L 428.54 93.55 L 427.26 93.19 L 426.77 93.89 L 425.98 94.5 L 426.55 93.77 L 426.76 93.13 L 425.6 92.73 L 424.52 92.33 L 423.4 91.89 L 422.26 91.43 L 421.13 90.98 L 420.05 90.61 L 418.97 90.15 L 417.98 89.7 L 416.9 89.33 L 415.91 88.87 L 414.96 88.39 L 414.29 88.23 L 413.42 87.59 L 412.59 87.04 L 411.68 86.56 L 410.86 85.86 L 410.12 85.22 L 410.05 84.42 L 409.98 83.6 L 409.37 82.93 L 408.86 82.23 L 408.51 81.44 L 408.26 80.66 L 408.52 79.77 L 408.54 78.95 L 408.6 78.13 L 408.62 77.24 L 408.5 76.45 L 408.2 75.69 L 407.97 75.29 L 407.49 74.5 L 406.77 73.8 L 405.86 73.22 L 405.01 72.64 L 404.53 71.94 L 403.92 71.27 L 403.43 70.54 L 403.04 69.81 L 402.55 69.08 L 402.48 68.31 L 403.09 67.61 L 402.24 67.03 L 402.42 66.24 L 401.52 65.66 L 400.99 64.93 L 400.59 64.2 L 399.6 63.65 L 399.2 62.86 L 398.39 62.28 L 397.72 61.56 L 398.8 61.29 L 399.97 61.42 L 399.2 60.77 L 398.25 60.19 L 397.58 59.52 L 398.7 59.92 L 399.69 60.48 L 400.55 61.03 L 400.65 60.27 L 400.94 59.44 L 399.78 59.4 L 398.83 58.91 L 397.68 58.85 L 396.47 58.73 L 395.4 58.42 L 394.06 58.27 L 393.07 57.84 L 392.29 57.17 L 391.47 56.47 L 391.15 55.71 L 390.92 54.92 L 390.31 54.22 L 389.35 53.7 L 388.35 53.15 L 387.33 52.48 L 386.33 52.05 L 385.33 51.5 L 384.24 51.11 L 383.72 50.34 L 383.9 49.55 L 383.26 48.9 L 382.04 48.8 L 380.87 48.71 L 382.11 48.56 L 381.6 47.86 L 380.63 47.34 L 379.46 47.22 L 378.3 47.28 L 377.46 46.61 L 376.22 46.3 L 374.9 46.09 L 373.83 45.54 L 372.39 45.57 L 371.09 45.21 L 369.92 45.12 L 368.53 45.36 L 367.24 45.3 L 366.53 46.03 L 365.93 46.67 L 364.76 46.73 L 363.52 46.64 L 362.37 46.34 L 363.52 46.67 L 362.37 46.88 L 361.79 46.18 L 360.55 45.83 L 359.34 45.89 L 360.49 46.17 L 359.6 46.66 L 358.37 46.53 L 357.22 46.75 L 357.58 46.02 L 356.6 46.56 L 355.85 47.14 L 357.02 47.05 L 357.86 47.63 L 358.21 48.42 L 356.94 48.33 L 355.82 48.79 L 355.05 49.46 L 353.94 50.07 L 352.73 50.07 L 352.06 49.4 L 350.97 49.7 L 349.66 49.58 L 348.42 49.34 L 347.27 49.46 L 346.49 50.07 L 346.94 50.8 L 346.08 51.53 L 345.17 52.02 L 344.23 52.45 L 343.02 52.87 L 341.87 52.93 L 340.89 52.42 L 340.39 51.65 L 339.57 51.05 L 338.42 51.08 L 337.18 50.86 L 335.98 50.89 L 334.6 51.08 L 333.45 51.18 L 332.21 51.3 L 332.08 51.33 L 330.87 51.33 L 329.65 51.21 L 328.45 51.3 L 327.43 51.67 L 327.49 52.52 L 328.64 52.92 L 329.1 53.65 L 329.92 54.26 L 330.28 55.02 L 331.44 55.36 L 332.26 56.04 L 331.17 55.48 L 329.99 55.24 L 329.17 54.63 L 329.51 53.9 L 328.35 53.96 L 327.19 53.56 L 326.09 53.22 L 326.36 53.99 L 327.02 54.78 L 328.05 55.24 L 329.31 55.42 L 328.17 55.51 L 328.14 56.36 L 327.14 55.79 L 326.4 55.08 L 325.33 54.66 L 324.15 54.41 L 324.06 55.21 L 323.65 56 L 323.63 56.91 L 324.05 57.68 L 325.2 58.04 L 326.37 58.16 L 327.54 58.31 L 328.77 58.56 L 330.08 58.88 L 331.22 58.85 L 332.12 59.43 L 333.25 59.67 L 331.93 59.7 L 330.74 59.85 L 329.61 59.58 L 329.47 60.37 L 330.65 60.65 L 331.94 61.01 L 333.14 61.5 L 332.01 61.2 L 330.77 60.92 L 329.64 60.62 L 329.02 61.26 L 329.92 61.84 L 330.99 62.32 L 332.18 62.32 L 333.34 62.42 L 332.2 62.51 L 333.1 63.15 L 334.11 63.57 L 332.89 63.27 L 331.66 62.96 L 330.64 62.48 L 329.45 62.08 L 328.09 61.9 L 328.23 62.75 L 328.73 63.48 L 328.92 64.27 L 329.47 65.01 L 330.65 64.91 L 331.61 64.52 L 331.43 65.28 L 330.23 65.34 L 330.19 66.16 L 330.93 66.96 L 332.1 66.8 L 333.01 66.38 L 334.26 66.13 L 334.26 65.31 L 333.13 65.04 L 334.38 65.07 L 334.38 65.92 L 335.43 65.49 L 335.9 64.79 L 335.32 64.06 L 336.42 64.46 L 336 65.25 L 335.35 65.98 L 334.34 66.35 L 334.88 67.08 L 336.12 67.26 L 336.89 66.71 L 336.38 67.41 L 335.21 67.29 L 334.03 67.29 L 333.62 68.11 L 333.53 68.91 L 333.75 69.76 L 334.91 69.85 L 335.55 69.09 L 335.14 69.88 L 334.62 70.55 L 335.77 70.68 L 336.23 69.94 L 337.41 70.25 L 336.35 70.52 L 335.65 71.22 L 336.7 71.71 L 337.91 71.5 L 339.07 71.35 L 337.89 71.71 L 336.78 71.92 L 337.04 72.69 L 337.76 73.33 L 338.56 73.97 L 339.58 74.61 L 340.47 74.03 L 340.48 73.24 L 340.7 72.38 L 341.7 72.81 L 340.77 73.39 L 340.72 74.33 L 340.27 75.1 L 341.18 75.64 L 342.09 76.15 L 343.1 75.84 L 342.98 75.08 L 343.37 74.38 L 343.31 75.17 L 343.3 75.93 L 343.2 76.7 L 344.34 76.88 L 344.2 77.64 L 345.24 78.13 L 346.02 78.8 L 347.06 79.26 L 348.21 79.47 L 349.16 79.04 L 349.96 78.46 L 349.45 79.29 L 348.66 79.96 L 348.69 80.72 L 349.25 81.45 L 349.82 82.21 L 350.55 82.88 L 351.67 83.22 L 351.78 83.98 L 352.97 84.07 L 353.83 84.62 L 352.94 85.17 L 353.88 85.72 L 353.89 85.75 L 354.71 86.39 L 355.74 86.91 L 356.6 87.58 L 357.24 88.28 L 357.75 89.03 L 358.34 89.73 L 359.52 89.88 L 360.73 89.94 L 361.82 90.28 L 362.8 90.76 L 363.78 90.18 L 364.91 90.28 L 366.05 90.58 L 367.06 91.07 L 367.73 91.77 L 368.98 92.35 L 369.99 92.78 L 370.38 93.11 L 371.23 93.69 L 372.08 94.33 L 373 94.82 L 373.97 95.27 L 374.98 95.79 L 375.98 96.2 L 376.9 96.69 L 378.11 97 L 379.33 97.27 L 380.5 97.61 L 381.62 97.94 L 382.39 98.8 L 383 99.47 L 383.56 100.14 L 383.75 100.23 L 384.53 100.87 L 385.87 101.08 L 386.96 101.6 L 388.11 101.48 L 388.01 102.27 L 389.04 102.61 L 389.43 103.4 L 390.28 103.98 L 391.36 104.4 L 392.14 105 L 392.1 105.15 L 391.07 104.68 L 392.06 105.12 L 392.03 105.79 L 393.03 106.22 L 394.13 106.19 L 394.56 106.92 L 395.45 107.41 L 396.74 107.68 L 397.98 108.02 L 398.92 108.53 L 399.9 109.02 L 400.88 109.51 L 401.82 110.06 L 402.64 110.73 L 403.36 111.37 L 403.96 112.13 L 404.77 112.89 L 405.49 113.5 L 406.41 114.02 L 407.04 114.69 L 407.71 115.47 L 408.03 115.71 L 408.49 116.41 L 408.91 117.39 L 409.23 118.15 L 409.87 118.85 L 410.32 119.64 L 410.82 120.41 L 411.1 121.17 L 411.16 122.02 L 411.37 122.94 L 411.87 123.85 L 412.1 124.64 L 412.72 125.38 L 412.92 126.2 L 413.33 126.96 L 413.85 127.72 L 413.73 128.48 L 413.71 129.34 L 414.84 129.55 L 415.96 129.86 L 417.03 129.7 L 418.21 130.04 L 419.11 130.47 L 419.85 131.06 L 420.98 131.73 L 421.55 132.43 L 422.07 133.16 L 422.65 133.83 L 423.13 134.6 L 423.91 135.18 L 424.7 136.03 L 424.96 136.91 L 425.05 137.68 L 425.16 138.44 L 425.19 139.41 L 425.21 140.3 L 425.26 141.21 L 425.31 142 L 425.28 142.77 L 425.17 143.56 L 425.51 144.35 L 425.95 145.05 L 426.89 145.66 L 427.83 146.24 L 428.81 146.79 L 429.71 147.34 L 430.47 147.87 L 431.15 148.48 L 432.25 149 L 433.31 148.94 L 434.4 149.06 L 433.35 149.3 L 433.9 150 L 434.79 150.43 L 434.84 150.58 Z M 349.94 44.06 L 348.76 43.85 L 347.4 43.88 L 346.71 43.12 L 346.72 42.33 L 347.1 41.47 L 347.49 40.74 L 347.5 39.92 L 346.69 39.31 L 346.32 38.52 L 345.28 38 L 344.36 37.33 L 344.25 36.54 L 344.11 35.76 L 343.15 35.21 L 342.15 34.72 L 341.84 33.96 L 343.05 33.87 L 344.28 34.23 L 345.48 34.37 L 344.37 34.63 L 345.2 35.29 L 345.89 35.96 L 347.09 35.74 L 348.34 35.68 L 349.55 36.02 L 350.65 36.57 L 351.6 37.08 L 352.77 37.02 L 354 37.02 L 353.06 37.48 L 354.26 37.27 L 355.5 37.48 L 354.62 37.97 L 355.56 38.52 L 355.44 39.28 L 355.15 40.1 L 354.28 39.43 L 353.08 39.16 L 354.02 39.74 L 352.77 39.89 L 351.62 40.07 L 350.66 39.46 L 351.43 40.16 L 351.79 40.92 L 352.59 40.38 L 353.83 40.62 L 354.24 41.38 L 353.25 41.87 L 352.26 42.33 L 351.62 42.97 L 351.27 43.7 L 350.22 44 L 349.94 44.06 Z M 486.45 220.39 L 486.73 221.24 L 485.88 221.88 L 485.71 222.67 L 486 223.44 L 485.11 223.8 L 484.85 224.66 L 484.39 225.45 L 483.4 225.26 L 483.43 224.47 L 482.68 223.95 L 483.58 223.44 L 482.67 223.04 L 483.39 222.46 L 484.36 222.19 L 484.94 221.39 L 485.91 221.03 L 486.45 220.39 Z M 325.07 59.56 L 325.77 60.24 L 326.31 59.56 L 326.77 58.8 L 327.53 59.5 L 328.47 59.11 L 328.95 59.85 L 328.77 60.68 L 328.41 61.47 L 327.23 61.27 L 326.05 61 L 325.23 60.36 L 324.58 59.69 L 324.03 58.99 L 325.02 59.5 L 325.07 59.56 Z M 478.68 223.69 L 478.04 223.09 L 478.77 222.54 L 479.09 223.33 L 478.68 223.69 Z M 457.42 144.9 L 458 145.66 L 458.25 146.45 L 458.28 147.28 L 457.74 146.58 L 457.37 145.78 L 456.55 146.3 L 455.67 145.81 L 455.73 144.99 L 454.99 144.32 L 455.08 143.56 L 456.1 143.8 L 456.84 144.44 L 457.42 144.9 Z M 463.72 138.8 L 462.61 138.53 L 463.6 138.13 L 464.48 138.65 L 465.63 138.8 L 465.91 139.66 L 466.09 140.42 L 465.1 140.05 L 465.16 139.17 L 464.04 139.08 L 463.72 138.8 Z M 477.07 213.53 L 477.88 212.95 L 478.55 212.31 L 479.56 212.16 L 480.05 212.9 L 480.71 213.51 L 479.55 213.56 L 478.68 213.19 L 477.64 213.38 L 477.07 213.53 Z M 497.67 198.27 L 497.04 198.91 L 496.3 199.49 L 495.7 200.13 L 495.02 200.8 L 495.22 199.95 L 495.97 199.37 L 496.25 198.61 L 497.33 198.39 L 497.67 198.27 Z M 333.86 66.96 L 333.57 67.69 L 333.05 68.36 L 333.28 69.18 L 332.22 68.66 L 331.68 67.93 L 332.29 67.26 L 333.35 66.9 L 333.86 66.96 Z M 329.64 59.09 L 328.49 58.89 L 327.29 58.59 L 328.55 58.62 L 329.59 59.09 L 329.64 59.09 Z M 474.93 218.95 L 474.59 219.75 L 473.76 219.32 L 474.81 218.99 L 474.93 218.95 Z M 474.16 212.97 L 475.2 213.07 L 474.55 213.67 L 474.2 212.94 L 474.16 212.97 Z M 480.51 211.21 L 480.6 212.05 L 480.26 211.33 L 480.51 211.21 Z M 475.41 213.47 L 476.09 214.04 L 475.41 214.65 L 474.98 213.96 L 475.41 213.47 Z M 475.39 144.93 L 474.7 144.17 L 475.75 144.5 L 475.39 144.93 Z M 443.34 137.99 L 444.32 137.51 L 443.39 137.96 L 443.34 137.99 Z M 344.72 42.88 L 345.01 42.14 L 345.38 42.94 L 344.72 42.88 Z M 361.2 43.67 L 360.35 43.03 L 361.46 43.33 L 361.2 43.67 Z M 326.9 52.37 L 327.76 52.95 L 326.82 52.43 L 326.9 52.37 Z M 324.73 58.74 L 325.98 58.71 L 324.78 58.77 L 324.73 58.74 Z" fill-rule="nonzero"/>
        </g>
      </g>
      <defs>
        <clipPath id="gridSVG.clipPath.1.1">
          <path id="gridSVG.clipPath.1::GRID.pathgrob.2.1.1" d="M 436.7 253.4 L 437.68 253.17 L 438.65 253.29 L 439.47 253.81 L 440.55 253.69 L 441.6 254.13 L 441.68 253.32 L 441.6 252.53 L 440.59 252.35 L 439.81 252.87 L 440.12 252.04 L 439.15 252.17 L 439.58 251.46 L 440.48 251.86 L 440.16 251.1 L 440.84 250.52 L 441.14 251.28 L 441.66 250.49 L 441.98 249.73 L 442.48 249.03 L 443.14 248.46 L 443.93 247.91 L 444.55 247.24 L 443.69 247.64 L 443.77 246.85 L 444.52 246.33 L 445.42 245.93 L 446.47 245.75 L 446.06 245.05 L 445.44 244.35 L 445.64 243.58 L 446.65 243.58 L 447.36 244.29 L 447.27 245.11 L 446.83 245.87 L 447.68 246.36 L 448.46 246.86 L 449.44 246.71 L 448.94 245.98 L 448.3 245.32 L 448.72 244.51 L 449.63 244.06 L 450.6 244.12 L 451.23 243.48 L 451.28 244.3 L 451.42 245.15 L 452.36 244.88 L 453.27 244.54 L 454.2 244.19 L 455.07 243.8 L 454.49 243.1 L 453.72 242.62 L 454.78 242.52 L 455.35 243.19 L 456.16 243.74 L 457.15 243.49 L 458.09 242.88 L 458.14 242.09 L 458.9 241.57 L 459.88 241.68 L 460.9 241.53 L 461.49 240.86 L 460.52 240.49 L 460.31 241.25 L 459.33 241.34 L 459.78 240.64 L 458.88 240.23 L 459.86 240.13 L 460.71 239.58 L 461.03 238.72 L 461.21 237.87 L 462.35 237.87 L 463.37 237.99 L 462.65 238.57 L 461.67 238.54 L 461.27 239.3 L 462.25 239.03 L 463.23 239.48 L 464.11 239.82 L 464.61 240.54 L 464.49 239.74 L 464.65 238.97 L 465.25 238.25 L 466.05 237.67 L 465.14 237.98 L 465.39 237.15 L 465.83 236.42 L 466.86 236.33 L 467.38 235.66 L 466.96 234.96 L 467.63 234.35 L 468.58 233.89 L 468.68 233.07 L 467.62 232.76 L 468.3 232.18 L 468.24 231.39 L 469.23 231.24 L 469.09 230.39 L 469.6 229.47 L 468.66 229.04 L 468.1 229.72 L 467.74 230.48 L 466.74 230.31 L 465.78 230.55 L 465.39 231.32 L 464.99 230.58 L 465.16 229.82 L 466.19 229.76 L 467.18 229.65 L 468.29 229.41 L 467.68 228.77 L 467.58 227.98 L 467.79 227.09 L 468.28 226.3 L 469.18 225.84 L 469.94 225.3 L 469.57 224.44 L 470.57 224.29 L 471.06 223.59 L 471.74 222.98 L 472.43 222.4 L 473.32 222.03 L 473.52 221.27 L 472.85 220.63 L 473.85 220.51 L 472.94 219.99 L 472.73 219.25 L 472.61 218.36 L 472.25 219.12 L 471.4 219.73 L 471.8 218.97 L 472.14 218.15 L 471.91 217.32 L 471.77 216.53 L 472.67 216.04 L 473.73 216.53 L 472.99 215.89 L 471.99 216.14 L 472.16 215.34 L 472.74 214.7 L 472.98 213.88 L 473.28 213.09 L 472.4 212.72 L 471.48 213.06 L 471.5 213.94 L 470.54 213.7 L 471.24 213 L 470.61 212.26 L 471.27 211.5 L 471.89 212.11 L 472.85 212.45 L 473.86 212.23 L 474.9 212.23 L 474.84 211.44 L 474.58 210.68 L 475.16 211.47 L 475.43 212.22 L 476.05 211.55 L 476.55 210.79 L 476.97 211.64 L 478.01 211.55 L 478.44 210.66 L 479.48 210.73 L 480.68 210.63 L 481.66 210.1 L 482.37 209.34 L 482.5 208.55 L 482.45 207.6 L 482.71 206.84 L 483.3 205.95 L 484.56 205.8 L 485.67 206.11 L 486.55 206.47 L 487.06 205.74 L 487.03 206.53 L 486.56 207.3 L 486.48 208.33 L 486.26 209.25 L 486 210.07 L 485.25 210.68 L 484.67 211.35 L 485.5 211.97 L 486.03 212.8 L 485.39 213.5 L 484.96 214.2 L 485.17 215.02 L 485.58 215.72 L 484.64 216.3 L 483.71 216.73 L 482.97 217.54 L 483.15 218.16 L 484.16 218.31 L 484.96 217.8 L 486 217.58 L 486.7 216.97 L 486.61 216.15 L 487.54 215.75 L 487.45 214.99 L 488.07 214.32 L 488.06 213.56 L 489.14 213.62 L 490.01 214.03 L 490.95 214.37 L 491.89 213.88 L 491.03 213.51 L 490.47 212.87 L 489.69 212.31 L 489.23 211.55 L 489.94 212.1 L 490.88 211.72 L 491.88 211.65 L 492.07 210.86 L 492.18 210.01 L 492.58 209.19 L 491.92 208.61 L 492.86 208.21 L 492.91 207.39 L 492.87 206.53 L 492.45 205.82 L 492.97 204.98 L 493.33 204.25 L 493.67 203.52 L 493.85 202.66 L 494.25 201.87 L 493.88 201.15 L 494.35 200.42 L 493.89 199.75 L 494.16 198.99 L 494.83 198.32 L 495.87 198.46 L 495.79 197.63 L 496.8 197.6 L 497.81 197.72 L 497.96 196.96 L 499.09 197.02 L 498.3 197.6 L 498.04 198.39 L 499.02 197.85 L 499.93 197.33 L 500.85 196.93 L 501.88 196.55 L 502.95 196.18 L 503.95 195.7 L 504.87 195.21 L 505.9 194.81 L 506.78 194.36 L 507.93 194.04 L 509.1 193.67 L 510.13 193.4 L 511.49 193.09 L 512.57 192.8 L 513.43 192.34 L 514.43 192.04 L 515.42 191.73 L 514.38 191.92 L 514.96 191.25 L 515.66 191.83 L 516.72 191.7 L 517.68 191.34 L 518.68 191.72 L 519.77 191.69 L 520.69 191.99 L 521.54 192.54 L 522.49 192.91 L 523.14 193.56 L 523.79 194.17 L 524.57 194.69 L 524.92 195.48 L 525.57 196.09 L 526.41 196.63 L 527.41 196.84 L 528.41 196.47 L 528.75 197.36 L 529.75 197.57 L 530.43 198.18 L 531.33 198.72 L 532.39 198.62 L 533.53 198.47 L 534.53 198.65 L 535.69 198.36 L 536.31 197.69 L 537.17 197.02 L 538.32 196.9 L 539.43 196.6 L 540.37 196.05 L 539.94 195.32 L 539.4 194.68 L 538.54 194.22 L 538.65 193.43 L 537.85 192.76 L 537.57 192.01 L 537.31 191.28 L 536.65 190.64 L 537.19 189.91 L 537.17 189.11 L 536.3 188.72 L 536.77 187.92 L 536.5 187.16 L 536.48 186.4 L 536.4 185.58 L 536.47 184.69 L 536.62 183.93 L 536.01 183.18 L 535.71 182.39 L 535.4 181.63 L 534.47 181.05 L 533.78 180.5 L 533.08 179.92 L 532.12 179.54 L 531.05 179.6 L 529.92 179.36 L 529.43 178.69 L 529.61 177.93 L 529.18 177.19 L 529.12 176.36 L 528.94 175.59 L 528.71 174.65 L 528.53 173.8 L 528.8 173 L 529.72 172.58 L 529.94 171.81 L 529.24 171.27 L 528.96 170.53 L 528.3 169.86 L 528.14 169.71 L 527.92 170.53 L 527.45 171.3 L 527.86 172 L 528.22 172.7 L 527.1 172.97 L 526.12 173.31 L 524.96 173.42 L 523.92 173.51 L 522.76 173.48 L 521.64 173.48 L 520.61 173.51 L 519.57 173.37 L 518.55 173.16 L 517.49 172.88 L 516.43 172.64 L 515.42 172.26 L 514.49 171.92 L 513.6 171.43 L 513.2 170.64 L 512.57 170 L 511.9 169.36 L 511.05 168.71 L 510.64 167.94 L 510.53 167.12 L 511.31 166.48 L 511.27 165.72 L 511.61 164.93 L 512.17 164.19 L 513.24 163.86 L 514.27 163.87 L 513.82 163.13 L 513.07 162.52 L 512.78 161.69 L 512.58 160.9 L 512.22 160.08 L 511.78 159.32 L 511.32 158.62 L 510.87 157.75 L 510.63 156.89 L 510.34 156.1 L 509.86 155.4 L 509.14 154.79 L 508.28 154.3 L 507.29 153.98 L 506.62 153.34 L 506.7 152.58 L 506.24 151.79 L 505.92 151.06 L 505.97 150.2 L 504.9 149.84 L 503.99 149.47 L 503.19 148.75 L 502.45 148.21 L 501.81 147.54 L 501.21 146.9 L 500.45 146.38 L 499.9 145.57 L 499.52 144.81 L 499.09 143.99 L 498.68 143.19 L 497.9 142.58 L 497.2 141.82 L 496.63 141.13 L 496.41 140.34 L 495.98 139.64 L 495.42 138.94 L 494.63 138.33 L 494.23 137.63 L 493.31 137.23 L 492.44 136.55 L 491.79 135.85 L 490.87 135.36 L 489.9 134.99 L 488.89 134.63 L 488.06 133.94 L 487.08 133.54 L 486.1 133.18 L 485.4 132.6 L 484.52 132.08 L 483.41 132.04 L 482.44 131.58 L 481.32 131.64 L 480.69 132.31 L 480.54 133.1 L 480.6 133.93 L 480.33 134.75 L 479.38 135.11 L 478.33 135.51 L 477.23 135.4 L 476.3 135.04 L 475.37 134.58 L 474.46 135.1 L 474.1 135.86 L 474.75 136.59 L 475.2 137.39 L 474.58 138.12 L 473.49 137.66 L 473.29 136.9 L 473.15 136.14 L 472.04 136 L 471.01 136.24 L 470.47 137.03 L 470.5 137.89 L 471.46 138.28 L 472.25 138.97 L 472.94 139.55 L 473.61 140.19 L 474.71 140.25 L 474.09 140.95 L 474.97 141.53 L 475.8 142.03 L 475.8 142 L 476.46 142.77 L 476.6 143.62 L 477.41 144.26 L 478.15 144.84 L 478.68 145.54 L 479.12 146.26 L 479.65 146.96 L 480.01 147.69 L 480.13 148.48 L 480.4 149.27 L 480.58 150.13 L 480.85 150.89 L 480.91 151.65 L 481.05 152.44 L 481.08 153.3 L 480.97 154.09 L 480.85 154.88 L 480.57 155.74 L 480.21 156.56 L 479.76 157.29 L 479.09 157.93 L 478.41 158.63 L 477.71 159.24 L 476.89 159.79 L 475.83 160.37 L 474.86 160.86 L 473.8 161.25 L 472.76 161.18 L 471.72 161.24 L 470.82 161.66 L 469.81 162 L 468.72 162.27 L 468 162.85 L 467.1 163.3 L 466.37 163.87 L 465.69 164.58 L 464.8 165.22 L 463.59 165.58 L 462.62 166.16 L 461.49 166.19 L 460.41 166.3 L 459.41 166.66 L 458.4 167.03 L 457.48 167.49 L 456.85 168.16 L 456.07 168.71 L 455.4 169.41 L 455.06 170.17 L 454.89 171.02 L 455.04 171.81 L 455.32 172.58 L 456.02 173.25 L 456.86 173.8 L 457.85 174.16 L 458.87 174.48 L 459.61 175.03 L 460.64 175.21 L 461.54 175.67 L 462.44 176.07 L 463.43 176.3 L 464.59 176.26 L 465.62 176.11 L 466.69 176.36 L 467.37 177 L 468.08 177.62 L 468.93 178.23 L 469.5 178.87 L 469.84 179.66 L 470.04 180.49 L 470.18 181.28 L 470.26 182.13 L 470.44 182.99 L 470.51 183.79 L 470.44 184.59 L 470.56 185.38 L 470.5 186.17 L 471.19 186.81 L 471.79 187.54 L 471.89 188.34 L 471.87 189.16 L 471.61 189.95 L 471.34 190.74 L 472.36 190.81 L 473.38 190.61 L 474.29 190.21 L 474.01 190.97 L 475.11 190.73 L 474.93 191.49 L 474.06 191.95 L 473.26 191.43 L 473.32 192.25 L 474.33 192.53 L 474.93 193.2 L 473.86 193.29 L 473.12 193.87 L 472.85 194.69 L 473.08 195.48 L 474.18 195.94 L 475.27 195.97 L 476.28 196.14 L 476.3 196.96 L 475.47 196.52 L 474.5 196.12 L 474 196.89 L 473.81 197.68 L 473.55 198.5 L 473.16 199.26 L 472.93 200.06 L 472.54 200.85 L 472.15 201.73 L 471.81 202.46 L 472.04 203.23 L 472.94 203.78 L 472.07 203.32 L 471.44 203.99 L 470.99 204.78 L 470.55 205.54 L 470.05 206.34 L 469.66 207.19 L 469.2 207.98 L 468.9 208.74 L 469.98 208.96 L 471.03 208.9 L 471.13 207.98 L 471.48 207.19 L 471.81 206.34 L 472.65 206.78 L 471.79 207.25 L 472.82 207.81 L 473.74 208.18 L 474.66 208.51 L 475.74 208.45 L 474.73 208.73 L 474 209.37 L 472.84 209.64 L 472.99 210.4 L 473.85 210.77 L 472.85 210.83 L 471.73 210.83 L 470.93 210.36 L 470.25 209.78 L 469.29 209.54 L 468.54 208.96 L 467.96 209.6 L 467.65 210.33 L 467.47 211.15 L 467.1 211.97 L 466.79 212.8 L 466.38 213.5 L 465.85 214.2 L 465.33 214.93 L 464.72 215.57 L 464.15 216.33 L 463.62 217.02 L 462.93 217.69 L 462.28 218.33 L 462.38 219.18 L 463.37 219.56 L 463.98 218.92 L 464.51 218.22 L 465.04 217.52 L 465.97 217.22 L 465.5 216.52 L 466.39 216.09 L 467.24 215.66 L 467.18 216.52 L 466.73 217.22 L 466.91 218.07 L 466.82 218.86 L 466.86 219.72 L 466.8 220.51 L 466.1 219.9 L 465.1 220.2 L 464.1 220.24 L 464.17 221.03 L 465.12 221.3 L 466.11 221.42 L 466.89 221.97 L 468.05 222.29 L 467 222.29 L 465.98 222.03 L 465.16 221.52 L 464.27 221.88 L 464.7 222.58 L 465.5 222.06 L 465.04 222.8 L 466.08 223.28 L 466.41 224.06 L 465.75 223.47 L 465 222.92 L 464.21 223.44 L 463.47 224.01 L 464.04 224.66 L 463.05 224.56 L 463.28 223.8 L 464 223.22 L 463.86 222.43 L 462.82 222.74 L 462.02 223.22 L 461.53 224.05 L 460.46 223.91 L 459.66 224.46 L 460.06 223.57 L 460.79 222.96 L 461.36 222.32 L 461.96 221.65 L 462.49 220.88 L 461.91 220.22 L 460.87 220.1 L 459.84 220.25 L 459.87 221.07 L 459.45 221.9 L 459.01 222.69 L 458.52 223.45 L 457.95 224.09 L 457.29 224.82 L 456.69 225.52 L 456.04 226.26 L 455.4 226.94 L 454.76 227.61 L 454.08 228.25 L 453.4 229.01 L 452.77 229.69 L 452.14 230.29 L 451.43 230.84 L 450.87 231.54 L 450.28 232.18 L 449.68 232.86 L 449.04 233.5 L 448.33 234.23 L 448.35 235.11 L 448.69 235.96 L 449.32 236.6 L 450.31 236.36 L 451.33 236.7 L 451.36 237.52 L 452.27 237.84 L 451.59 238.43 L 450.96 239.1 L 450.85 238.31 L 450.93 237.46 L 449.91 237.49 L 449.08 237.06 L 448.3 236.57 L 448.14 235.75 L 447.84 235 L 447.08 235.77 L 446.53 236.41 L 445.77 237.08 L 445.62 237.84 L 446.12 238.6 L 445.46 237.99 L 444.63 238.45 L 445.06 239.36 L 444.08 239.15 L 443.42 239.79 L 442.64 240.4 L 443.43 240.92 L 444.29 241.28 L 444.6 242.05 L 444.52 242.9 L 444.28 243.66 L 443.86 244.42 L 443.37 245.12 L 442.7 245.82 L 442.11 246.56 L 441.53 247.2 L 440.74 248.02 L 440.12 248.75 L 439.42 249.51 L 438.81 250.21 L 438 250.88 L 437.22 251.54 L 436.33 251.97 L 435.9 252.67 L 435.75 253.46 L 435.77 253.64 Z M 434.84 150.58 L 435.98 150.68 L 437.16 150.64 L 438.49 150.58 L 439.54 150.43 L 440.72 150.22 L 439.54 150.31 L 438.45 150.43 L 437.37 150.52 L 436.31 150.22 L 435.8 149.55 L 435.55 148.79 L 435.08 148.08 L 435.67 147.41 L 436.09 146.59 L 436.76 145.98 L 437.61 145.43 L 438.54 145.04 L 439.6 145.31 L 440.45 145.8 L 441.47 145.52 L 441.63 144.76 L 442.1 144.06 L 442.31 143.27 L 441.98 142.54 L 441.55 141.8 L 441.37 141.01 L 441.72 140.28 L 441.55 139.52 L 442.45 139.09 L 442.74 138.73 L 443.17 138.03 L 443.77 137.32 L 444.67 136.68 L 445.48 137.39 L 446.46 137.81 L 447.13 138.45 L 447.31 138.79 L 448.15 139.37 L 449.21 139.4 L 450.15 139.82 L 450.57 140.52 L 451.46 141.04 L 452.52 140.98 L 453.04 140.31 L 453.72 140.95 L 454.78 141.29 L 453.66 141.29 L 454 142.08 L 455.01 142.45 L 455.73 143.01 L 456.38 142.34 L 457.31 142.86 L 457.99 143.65 L 459.13 143.74 L 458.3 143.16 L 457.39 142.61 L 456.89 141.88 L 455.99 142.31 L 455.11 141.8 L 455.25 141.04 L 455.04 140.28 L 455.8 140.83 L 456.78 141.24 L 457.84 141.15 L 456.82 140.81 L 456.58 140.04 L 455.68 139.61 L 456.72 139.15 L 456.47 138.33 L 455.58 137.87 L 454.52 137.78 L 455.54 137.51 L 456.52 137.81 L 457.45 138.27 L 458.52 138.53 L 459.53 138.77 L 460.59 138.92 L 459.66 139.41 L 458.77 138.83 L 457.67 138.82 L 456.84 139.46 L 457.6 140.02 L 458.1 140.72 L 458.41 139.96 L 459.25 140.51 L 459.71 141.24 L 458.64 141.39 L 458.54 142.16 L 459.3 142.7 L 459.48 141.94 L 460.55 141.76 L 461.66 141.79 L 461.75 142.55 L 462.61 142.06 L 462.18 141.36 L 463.03 140.88 L 463.85 141.49 L 464.56 142.06 L 464.02 141.36 L 463.64 140.57 L 463.1 139.9 L 462.44 140.6 L 462.12 139.81 L 462.55 138.99 L 461.63 138.59 L 460.52 138.25 L 459.42 138.22 L 458.4 137.9 L 457.55 137.42 L 458.61 137.6 L 459.73 137.68 L 460.75 137.98 L 461.81 138.22 L 462.5 137.61 L 463.55 137.95 L 464.75 138.47 L 464.21 137.77 L 463.32 137.22 L 462.74 136.55 L 461.76 136.18 L 462.18 136.91 L 461.16 136.58 L 460.52 136.12 L 460.06 135.4 L 459.74 134.67 L 459.83 133.88 L 460.61 133.27 L 461.61 132.84 L 462 132.08 L 461.98 131.08 L 462.17 130.31 L 463.09 129.8 L 463.52 129.09 L 462.94 128.36 L 462.31 127.72 L 461.72 127.08 L 460.95 126.53 L 460.21 125.89 L 459.4 125.19 L 458.76 124.52 L 458.08 123.67 L 458.01 122.88 L 457.46 122.05 L 456.69 121.5 L 455.71 120.93 L 454.84 120.44 L 454.25 119.74 L 453.68 118.97 L 454.04 118.21 L 452.91 118.36 L 451.87 118.12 L 451.09 117.54 L 450.54 116.83 L 450.29 116.03 L 449.81 115.18 L 449.32 114.36 L 448.89 113.59 L 448.41 112.77 L 447.81 112.13 L 447.24 111.28 L 446.98 110.49 L 446.38 109.81 L 445.59 109.24 L 444.58 108.81 L 443.62 108.32 L 443.05 107.65 L 441.86 107.53 L 440.77 107.16 L 439.75 106.8 L 438.7 106.43 L 437.56 105.94 L 436.93 105.17 L 436.59 104.37 L 436.14 103.64 L 436.03 102.85 L 436.03 102.06 L 435.67 101.75 L 436.11 101.02 L 436.28 100.11 L 436.63 99.37 L 437.33 98.64 L 436.35 98.19 L 435.2 98.03 L 435.33 97.24 L 436.13 97.82 L 437.28 97.94 L 437.9 97.3 L 438.44 97.97 L 439.46 97.67 L 439.23 96.78 L 439.72 97.48 L 441.14 97.51 L 442.16 97.06 L 443.09 96.54 L 443.49 95.59 L 443.18 94.83 L 442.69 94.1 L 441.76 93.61 L 440.65 93.7 L 440.29 94.47 L 440.61 95.23 L 439.76 94.71 L 439.8 93.95 L 439.99 93.19 L 438.86 93.46 L 437.71 93.64 L 436.6 94.1 L 435.54 94.38 L 434.33 94.34 L 433.23 94.25 L 432.07 94.13 L 430.86 93.92 L 431.85 94.38 L 433.01 94.62 L 434.16 94.8 L 433.1 95.35 L 432.44 96.02 L 431.28 95.84 L 430.26 95.41 L 430.16 94.53 L 429.71 93.8 L 428.54 93.55 L 427.26 93.19 L 426.77 93.89 L 425.98 94.5 L 426.55 93.77 L 426.76 93.13 L 425.6 92.73 L 424.52 92.33 L 423.4 91.89 L 422.26 91.43 L 421.13 90.98 L 420.05 90.61 L 418.97 90.15 L 417.98 89.7 L 416.9 89.33 L 415.91 88.87 L 414.96 88.39 L 414.29 88.23 L 413.42 87.59 L 412.59 87.04 L 411.68 86.56 L 410.86 85.86 L 410.12 85.22 L 410.05 84.42 L 409.98 83.6 L 409.37 82.93 L 408.86 82.23 L 408.51 81.44 L 408.26 80.66 L 408.52 79.77 L 408.54 78.95 L 408.6 78.13 L 408.62 77.24 L 408.5 76.45 L 408.2 75.69 L 407.97 75.29 L 407.49 74.5 L 406.77 73.8 L 405.86 73.22 L 405.01 72.64 L 404.53 71.94 L 403.92 71.27 L 403.43 70.54 L 403.04 69.81 L 402.55 69.08 L 402.48 68.31 L 403.09 67.61 L 402.24 67.03 L 402.42 66.24 L 401.52 65.66 L 400.99 64.93 L 400.59 64.2 L 399.6 63.65 L 399.2 62.86 L 398.39 62.28 L 397.72 61.56 L 398.8 61.29 L 399.97 61.42 L 399.2 60.77 L 398.25 60.19 L 397.58 59.52 L 398.7 59.92 L 399.69 60.48 L 400.55 61.03 L 400.65 60.27 L 400.94 59.44 L 399.78 59.4 L 398.83 58.91 L 397.68 58.85 L 396.47 58.73 L 395.4 58.42 L 394.06 58.27 L 393.07 57.84 L 392.29 57.17 L 391.47 56.47 L 391.15 55.71 L 390.92 54.92 L 390.31 54.22 L 389.35 53.7 L 388.35 53.15 L 387.33 52.48 L 386.33 52.05 L 385.33 51.5 L 384.24 51.11 L 383.72 50.34 L 383.9 49.55 L 383.26 48.9 L 382.04 48.8 L 380.87 48.71 L 382.11 48.56 L 381.6 47.86 L 380.63 47.34 L 379.46 47.22 L 378.3 47.28 L 377.46 46.61 L 376.22 46.3 L 374.9 46.09 L 373.83 45.54 L 372.39 45.57 L 371.09 45.21 L 369.92 45.12 L 368.53 45.36 L 367.24 45.3 L 366.53 46.03 L 365.93 46.67 L 364.76 46.73 L 363.52 46.64 L 362.37 46.34 L 363.52 46.67 L 362.37 46.88 L 361.79 46.18 L 360.55 45.83 L 359.34 45.89 L 360.49 46.17 L 359.6 46.66 L 358.37 46.53 L 357.22 46.75 L 357.58 46.02 L 356.6 46.56 L 355.85 47.14 L 357.02 47.05 L 357.86 47.63 L 358.21 48.42 L 356.94 48.33 L 355.82 48.79 L 355.05 49.46 L 353.94 50.07 L 352.73 50.07 L 352.06 49.4 L 350.97 49.7 L 349.66 49.58 L 348.42 49.34 L 347.27 49.46 L 346.49 50.07 L 346.94 50.8 L 346.08 51.53 L 345.17 52.02 L 344.23 52.45 L 343.02 52.87 L 341.87 52.93 L 340.89 52.42 L 340.39 51.65 L 339.57 51.05 L 338.42 51.08 L 337.18 50.86 L 335.98 50.89 L 334.6 51.08 L 333.45 51.18 L 332.21 51.3 L 332.08 51.33 L 330.87 51.33 L 329.65 51.21 L 328.45 51.3 L 327.43 51.67 L 327.49 52.52 L 328.64 52.92 L 329.1 53.65 L 329.92 54.26 L 330.28 55.02 L 331.44 55.36 L 332.26 56.04 L 331.17 55.48 L 329.99 55.24 L 329.17 54.63 L 329.51 53.9 L 328.35 53.96 L 327.19 53.56 L 326.09 53.22 L 326.36 53.99 L 327.02 54.78 L 328.05 55.24 L 329.31 55.42 L 328.17 55.51 L 328.14 56.36 L 327.14 55.79 L 326.4 55.08 L 325.33 54.66 L 324.15 54.41 L 324.06 55.21 L 323.65 56 L 323.63 56.91 L 324.05 57.68 L 325.2 58.04 L 326.37 58.16 L 327.54 58.31 L 328.77 58.56 L 330.08 58.88 L 331.22 58.85 L 332.12 59.43 L 333.25 59.67 L 331.93 59.7 L 330.74 59.85 L 329.61 59.58 L 329.47 60.37 L 330.65 60.65 L 331.94 61.01 L 333.14 61.5 L 332.01 61.2 L 330.77 60.92 L 329.64 60.62 L 329.02 61.26 L 329.92 61.84 L 330.99 62.32 L 332.18 62.32 L 333.34 62.42 L 332.2 62.51 L 333.1 63.15 L 334.11 63.57 L 332.89 63.27 L 331.66 62.96 L 330.64 62.48 L 329.45 62.08 L 328.09 61.9 L 328.23 62.75 L 328.73 63.48 L 328.92 64.27 L 329.47 65.01 L 330.65 64.91 L 331.61 64.52 L 331.43 65.28 L 330.23 65.34 L 330.19 66.16 L 330.93 66.96 L 332.1 66.8 L 333.01 66.38 L 334.26 66.13 L 334.26 65.31 L 333.13 65.04 L 334.38 65.07 L 334.38 65.92 L 335.43 65.49 L 335.9 64.79 L 335.32 64.06 L 336.42 64.46 L 336 65.25 L 335.35 65.98 L 334.34 66.35 L 334.88 67.08 L 336.12 67.26 L 336.89 66.71 L 336.38 67.41 L 335.21 67.29 L 334.03 67.29 L 333.62 68.11 L 333.53 68.91 L 333.75 69.76 L 334.91 69.85 L 335.55 69.09 L 335.14 69.88 L 334.62 70.55 L 335.77 70.68 L 336.23 69.94 L 337.41 70.25 L 336.35 70.52 L 335.65 71.22 L 336.7 71.71 L 337.91 71.5 L 339.07 71.35 L 337.89 71.71 L 336.78 71.92 L 337.04 72.69 L 337.76 73.33 L 338.56 73.97 L 339.58 74.61 L 340.47 74.03 L 340.48 73.24 L 340.7 72.38 L 341.7 72.81 L 340.77 73.39 L 340.72 74.33 L 340.27 75.1 L 341.18 75.64 L 342.09 76.15 L 343.1 75.84 L 342.98 75.08 L 343.37 74.38 L 343.31 75.17 L 343.3 75.93 L 343.2 76.7 L 344.34 76.88 L 344.2 77.64 L 345.24 78.13 L 346.02 78.8 L 347.06 79.26 L 348.21 79.47 L 349.16 79.04 L 349.96 78.46 L 349.45 79.29 L 348.66 79.96 L 348.69 80.72 L 349.25 81.45 L 349.82 82.21 L 350.55 82.88 L 351.67 83.22 L 351.78 83.98 L 352.97 84.07 L 353.83 84.62 L 352.94 85.17 L 353.88 85.72 L 353.89 85.75 L 354.71 86.39 L 355.74 86.91 L 356.6 87.58 L 357.24 88.28 L 357.75 89.03 L 358.34 89.73 L 359.52 89.88 L 360.73 89.94 L 361.82 90.28 L 362.8 90.76 L 363.78 90.18 L 364.91 90.28 L 366.05 90.58 L 367.06 91.07 L 367.73 91.77 L 368.98 92.35 L 369.99 92.78 L 370.38 93.11 L 371.23 93.69 L 372.08 94.33 L 373 94.82 L 373.97 95.27 L 374.98 95.79 L 375.98 96.2 L 376.9 96.69 L 378.11 97 L 379.33 97.27 L 380.5 97.61 L 381.62 97.94 L 382.39 98.8 L 383 99.47 L 383.56 100.14 L 383.75 100.23 L 384.53 100.87 L 385.87 101.08 L 386.96 101.6 L 388.11 101.48 L 388.01 102.27 L 389.04 102.61 L 389.43 103.4 L 390.28 103.98 L 391.36 104.4 L 392.14 105 L 392.1 105.15 L 391.07 104.68 L 392.06 105.12 L 392.03 105.79 L 393.03 106.22 L 394.13 106.19 L 394.56 106.92 L 395.45 107.41 L 396.74 107.68 L 397.98 108.02 L 398.92 108.53 L 399.9 109.02 L 400.88 109.51 L 401.82 110.06 L 402.64 110.73 L 403.36 111.37 L 403.96 112.13 L 404.77 112.89 L 405.49 113.5 L 406.41 114.02 L 407.04 114.69 L 407.71 115.47 L 408.03 115.71 L 408.49 116.41 L 408.91 117.39 L 409.23 118.15 L 409.87 118.85 L 410.32 119.64 L 410.82 120.41 L 411.1 121.17 L 411.16 122.02 L 411.37 122.94 L 411.87 123.85 L 412.1 124.64 L 412.72 125.38 L 412.92 126.2 L 413.33 126.96 L 413.85 127.72 L 413.73 128.48 L 413.71 129.34 L 414.84 129.55 L 415.96 129.86 L 417.03 129.7 L 418.21 130.04 L 419.11 130.47 L 419.85 131.06 L 420.98 131.73 L 421.55 132.43 L 422.07 133.16 L 422.65 133.83 L 423.13 134.6 L 423.91 135.18 L 424.7 136.03 L 424.96 136.91 L 425.05 137.68 L 425.16 138.44 L 425.19 139.41 L 425.21 140.3 L 425.26 141.21 L 425.31 142 L 425.28 142.77 L 425.17 143.56 L 425.51 144.35 L 425.95 145.05 L 426.89 145.66 L 427.83 146.24 L 428.81 146.79 L 429.71 147.34 L 430.47 147.87 L 431.15 148.48 L 432.25 149 L 433.31 148.94 L 434.4 149.06 L 433.35 149.3 L 433.9 150 L 434.79 150.43 L 434.84 150.58 Z M 349.94 44.06 L 348.76 43.85 L 347.4 43.88 L 346.71 43.12 L 346.72 42.33 L 347.1 41.47 L 347.49 40.74 L 347.5 39.92 L 346.69 39.31 L 346.32 38.52 L 345.28 38 L 344.36 37.33 L 344.25 36.54 L 344.11 35.76 L 343.15 35.21 L 342.15 34.72 L 341.84 33.96 L 343.05 33.87 L 344.28 34.23 L 345.48 34.37 L 344.37 34.63 L 345.2 35.29 L 345.89 35.96 L 347.09 35.74 L 348.34 35.68 L 349.55 36.02 L 350.65 36.57 L 351.6 37.08 L 352.77 37.02 L 354 37.02 L 353.06 37.48 L 354.26 37.27 L 355.5 37.48 L 354.62 37.97 L 355.56 38.52 L 355.44 39.28 L 355.15 40.1 L 354.28 39.43 L 353.08 39.16 L 354.02 39.74 L 352.77 39.89 L 351.62 40.07 L 350.66 39.46 L 351.43 40.16 L 351.79 40.92 L 352.59 40.38 L 353.83 40.62 L 354.24 41.38 L 353.25 41.87 L 352.26 42.33 L 351.62 42.97 L 351.27 43.7 L 350.22 44 L 349.94 44.06 Z M 486.45 220.39 L 486.73 221.24 L 485.88 221.88 L 485.71 222.67 L 486 223.44 L 485.11 223.8 L 484.85 224.66 L 484.39 225.45 L 483.4 225.26 L 483.43 224.47 L 482.68 223.95 L 483.58 223.44 L 482.67 223.04 L 483.39 222.46 L 484.36 222.19 L 484.94 221.39 L 485.91 221.03 L 486.45 220.39 Z M 325.07 59.56 L 325.77 60.24 L 326.31 59.56 L 326.77 58.8 L 327.53 59.5 L 328.47 59.11 L 328.95 59.85 L 328.77 60.68 L 328.41 61.47 L 327.23 61.27 L 326.05 61 L 325.23 60.36 L 324.58 59.69 L 324.03 58.99 L 325.02 59.5 L 325.07 59.56 Z M 478.68 223.69 L 478.04 223.09 L 478.77 222.54 L 479.09 223.33 L 478.68 223.69 Z M 457.42 144.9 L 458 145.66 L 458.25 146.45 L 458.28 147.28 L 457.74 146.58 L 457.37 145.78 L 456.55 146.3 L 455.67 145.81 L 455.73 144.99 L 454.99 144.32 L 455.08 143.56 L 456.1 143.8 L 456.84 144.44 L 457.42 144.9 Z M 463.72 138.8 L 462.61 138.53 L 463.6 138.13 L 464.48 138.65 L 465.63 138.8 L 465.91 139.66 L 466.09 140.42 L 465.1 140.05 L 465.16 139.17 L 464.04 139.08 L 463.72 138.8 Z M 477.07 213.53 L 477.88 212.95 L 478.55 212.31 L 479.56 212.16 L 480.05 212.9 L 480.71 213.51 L 479.55 213.56 L 478.68 213.19 L 477.64 213.38 L 477.07 213.53 Z M 497.67 198.27 L 497.04 198.91 L 496.3 199.49 L 495.7 200.13 L 495.02 200.8 L 495.22 199.95 L 495.97 199.37 L 496.25 198.61 L 497.33 198.39 L 497.67 198.27 Z M 333.86 66.96 L 333.57 67.69 L 333.05 68.36 L 333.28 69.18 L 332.22 68.66 L 331.68 67.93 L 332.29 67.26 L 333.35 66.9 L 333.86 66.96 Z M 329.64 59.09 L 328.49 58.89 L 327.29 58.59 L 328.55 58.62 L 329.59 59.09 L 329.64 59.09 Z M 474.93 218.95 L 474.59 219.75 L 473.76 219.32 L 474.81 218.99 L 474.93 218.95 Z M 474.16 212.97 L 475.2 213.07 L 474.55 213.67 L 474.2 212.94 L 474.16 212.97 Z M 480.51 211.21 L 480.6 212.05 L 480.26 211.33 L 480.51 211.21 Z M 475.41 213.47 L 476.09 214.04 L 475.41 214.65 L 474.98 213.96 L 475.41 213.47 Z M 475.39 144.93 L 474.7 144.17 L 475.75 144.5 L 475.39 144.93 Z M 443.34 137.99 L 444.32 137.51 L 443.39 137.96 L 443.34 137.99 Z M 344.72 42.88 L 345.01 42.14 L 345.38 42.94 L 344.72 42.88 Z M 361.2 43.67 L 360.35 43.03 L 361.46 43.33 L 361.2 43.67 Z M 326.9 52.37 L 327.76 52.95 L 326.82 52.43 L 326.9 52.37 Z M 324.73 58.74 L 325.98 58.71 L 324.78 58.77 L 324.73 58.74 Z" fill-rule="nonzero"/>
        </clipPath>
      </defs>
    </g>
  </g>
</svg>