<?xml version="1.0" encoding="UTF-8"?>
<svg xmlns="http://www.w3.org/2000/svg" xmlns:xlink="http://www.w3.org/1999/xlink" width="504px" height="504px" version="1.1" onmouseup="mUp(evt)" onmousemove="mMove(evt, 4)"><g transform="translate(0, 504) scale(1, -1)"><g id="gridSVG" fill="none" stroke="rgb(0,0,0)" stroke-dasharray="none" stroke-width="1px" font-size="12px" font-family="Helvetica, Arial, FreeSans, Liberation Sans, Nimbus Sans L, sans-serif" opacity="1" stroke-linecap="round" stroke-linejoin="round" stroke-miterlimit="10" stroke-opacity="1" fill-opacity="0" font-weight="normal" font-style="normal"><g id="topvp.1"><g id="topvp::layout.1"><g id="layout"><defs><clipPath id="topvp::layout::background.1-5-6-1.1.clipPath"><rect x="0" y="100.8" width="504" height="403.2" fill="none" stroke="none"/></clipPath></defs><g id="topvp::layout::background.1-5-6-1.1" clip-path="url(#topvp::layout::background.1-5-6-1.1.clipPath)"><g id="background.1-5-6-1" onmouseup="mUp(evt)" onmousemove="mMove(evt, 4)"><rect id="background.1-5-6-1.1" x="0" y="100.8" width="504" height="403.2" stroke-width="1.42px" stroke="rgb(255,255,255)" fill="rgb(255,255,255)" stroke-dasharray="none" stroke-opacity="1" fill-opacity="1"/></g></g><g id="topvp::layout::spacer.4-3-4-3.1"/><defs><clipPath id="topvp::layout::panel.3-4-3-4.1.clipPath"><rect x="52.34" y="138.08" width="437.26" height="351.52" fill="none" stroke="none"/></clipPath></defs><g id="topvp::layout::panel.3-4-3-4.1" clip-path="url(#topvp::layout::panel.3-4-3-4.1.clipPath)"><default:g xmlns:default="http://www.w3.org/2000/svg" xmlns="http://www.w3.org/2000/svg" id="panel.3-4-3-4"><g id="grill.gTree.437"><g id="panel.background.rect.428"><rect id="panel.background.rect.428.1" x="52.34" y="138.08" width="1761.95" height="351.52" stroke-width="1.42px" stroke="none" fill="rgb(229,229,229)" stroke-dasharray="none" stroke-opacity="0" fill-opacity="1"/></g><g id="panel.grid.minor.y.polyline.430"><polyline stroke-width="0.71px" stroke="rgb(242,242,242)" stroke-dasharray="none" stroke-linecap="butt" stroke-opacity="1" fill="none" id="panel.grid.minor.y.polyline.430.1" points="52.34,169.44 1814.3,169.44"/><polyline stroke-width="0.71px" stroke="rgb(242,242,242)" stroke-dasharray="none" stroke-linecap="butt" stroke-opacity="1" fill="none" id="panel.grid.minor.y.polyline.430.2" points="52.34,239.37 1814.3,239.37"/><polyline stroke-width="0.71px" stroke="rgb(242,242,242)" stroke-dasharray="none" stroke-linecap="butt" stroke-opacity="1" fill="none" id="panel.grid.minor.y.polyline.430.3" points="52.34,309.3 1814.3,309.3"/><polyline stroke-width="0.71px" stroke="rgb(242,242,242)" stroke-dasharray="none" stroke-linecap="butt" stroke-opacity="1" fill="none" id="panel.grid.minor.y.polyline.430.4" points="52.34,379.22 1814.3,379.22"/><polyline stroke-width="0.71px" stroke="rgb(242,242,242)" stroke-dasharray="none" stroke-linecap="butt" stroke-opacity="1" fill="none" id="panel.grid.minor.y.polyline.430.5" points="52.34,449.15 1814.3,449.15"/></g><g id="panel.grid.minor.x.polyline.432"><polyline stroke-width="0.71px" stroke="rgb(242,242,242)" stroke-dasharray="none" stroke-linecap="butt" stroke-opacity="1" fill="none" id="panel.grid.minor.x.polyline.432.1" points="399.39,138.08 399.39,489.6"/><polyline stroke-width="0.71px" stroke="rgb(242,242,242)" stroke-dasharray="none" stroke-linecap="butt" stroke-opacity="1" fill="none" id="panel.grid.minor.x.polyline.432.2" points="803.88,138.08 803.88,489.6"/><polyline stroke-width="0.71px" stroke="rgb(242,242,242)" stroke-dasharray="none" stroke-linecap="butt" stroke-opacity="1" fill="none" id="panel.grid.minor.x.polyline.432.3" points="1208.37,138.08 1208.37,489.6"/><polyline stroke-width="0.71px" stroke="rgb(242,242,242)" stroke-dasharray="none" stroke-linecap="butt" stroke-opacity="1" fill="none" id="panel.grid.minor.x.polyline.432.4" points="1612.86,138.08 1612.86,489.6"/></g><g id="panel.grid.major.y.polyline.434"><polyline stroke-width="1.42px" stroke="rgb(255,255,255)" stroke-dasharray="none" stroke-linecap="butt" stroke-opacity="1" fill="none" id="panel.grid.major.y.polyline.434.1" points="52.34,204.41 1814.3,204.41"/><polyline stroke-width="1.42px" stroke="rgb(255,255,255)" stroke-dasharray="none" stroke-linecap="butt" stroke-opacity="1" fill="none" id="panel.grid.major.y.polyline.434.2" points="52.34,274.33 1814.3,274.33"/><polyline stroke-width="1.42px" stroke="rgb(255,255,255)" stroke-dasharray="none" stroke-linecap="butt" stroke-opacity="1" fill="none" id="panel.grid.major.y.polyline.434.3" points="52.34,344.26 1814.3,344.26"/><polyline stroke-width="1.42px" stroke="rgb(255,255,255)" stroke-dasharray="none" stroke-linecap="butt" stroke-opacity="1" fill="none" id="panel.grid.major.y.polyline.434.4" points="52.34,414.18 1814.3,414.18"/><polyline stroke-width="1.42px" stroke="rgb(255,255,255)" stroke-dasharray="none" stroke-linecap="butt" stroke-opacity="1" fill="none" id="panel.grid.major.y.polyline.434.5" points="52.34,484.11 1814.3,484.11"/></g><g id="panel.grid.major.x.polyline.436"><polyline stroke-width="1.42px" stroke="rgb(255,255,255)" stroke-dasharray="none" stroke-linecap="butt" stroke-opacity="1" fill="none" id="panel.grid.major.x.polyline.436.1" points="197.15,138.08 197.15,489.6"/><polyline stroke-width="1.42px" stroke="rgb(255,255,255)" stroke-dasharray="none" stroke-linecap="butt" stroke-opacity="1" fill="none" id="panel.grid.major.x.polyline.436.2" points="601.64,138.08 601.64,489.6"/><polyline stroke-width="1.42px" stroke="rgb(255,255,255)" stroke-dasharray="none" stroke-linecap="butt" stroke-opacity="1" fill="none" id="panel.grid.major.x.polyline.436.3" points="1006.13,138.08 1006.13,489.6"/><polyline stroke-width="1.42px" stroke="rgb(255,255,255)" stroke-dasharray="none" stroke-linecap="butt" stroke-opacity="1" fill="none" id="panel.grid.major.x.polyline.436.4" points="1410.62,138.08 1410.62,489.6"/></g></g><g id="GRID.polyline.424"><polyline stroke="rgb(0,0,0)" fill="none" stroke-width="1.42px" stroke-dasharray="none" stroke-linecap="butt" stroke-linejoin="round" stroke-miterlimit="1" stroke-opacity="1" fill-opacity="1" id="GRID.polyline.424.1" points="132.43,386.21 148.61,400.2 164.79,331.32 180.97,417.68 197.15,400.2 213.33,400.2 229.51,278.88 245.69,424.67 261.87,473.62 278.05,393.21 294.23,342.51 310.41,321.53 326.59,382.72 342.77,342.16 358.95,351.25 375.12,330.27 391.3,407.19 407.48,273.98 423.66,329.57 439.84,393.21 456.02,379.22 472.2,417.68 488.38,396.7 504.56,431.67 520.74,435.16 536.92,421.18 553.1,354.75 569.28,379.22 585.46,265.24 601.64,288.32 617.82,300.21 634,237.27 650.18,323.28 666.36,285.87 682.54,239.72 698.72,314.89 714.9,236.57 731.07,351.25 747.25,361.74 763.43,333.42 779.61,285.17 795.79,248.46 811.97,154.06 828.15,282.72 844.33,240.07 860.51,386.21 876.69,379.22 892.87,285.52 909.05,261.75 925.23,281.68 941.41,263.15 957.59,290.07 973.77,296.71 989.95,296.01 1006.13,238.67 1022.31,290.07 1038.49,254.75 1054.67,272.93 1070.85,358.24 1087.03,260 1103.2,267.69 1119.38,297.06 1135.56,290.07 1151.74,324.68 1167.92,338.66 1184.1,308.25 1200.28,282.03 1216.46,347.76 1232.64,264.19 1248.82,230.98 1265,221.54 1281.18,290.42 1297.36,278.53 1313.54,254.05 1329.72,274.68 1345.9,358.24 1362.08,295.31 1378.26,300.21 1394.44,291.12 1410.62,305.8 1426.8,254.75 1442.98,256.5 1459.15,287.62 1475.33,361.74 1491.51,315.59 1507.69,339.36 1523.87,273.28 1540.05,317.34 1556.23,335.52 1572.41,279.58 1588.59,351.25 1604.77,311.39 1620.95,309.65 1637.13,403.7 1653.31,313.49 1669.49,255.45 1685.67,315.94 1701.85,245.66 1718.03,244.27 1734.21,253.36"/></g></default:g></g><g id="topvp::layout::axis-l.3-3-3-3::GRID.VP.14.1"><g id="topvp::layout::axis-l.3-3-3-3::GRID.VP.14.2"><g id="axis-l.3-3-3-3"><g id="topvp::layout::axis-l.3-3-3-3::GRID.VP.14::axis.1"><g id="axis"><g id="topvp::layout::axis-l.3-3-3-3::GRID.VP.14::axis::axis.1-1-1-1.1"><g id="axis.1-1-1-1"><g transform="translate(45.26, 204.41)" stroke-width="0.1px" id="axis.1-1-1-1.1"><g transform="scale(1, -1)"><text x="0" y="0" text-anchor="end" font-size="9.6px" stroke="rgb(127,127,127)" font-family="Helvetica, Arial, FreeSans, Liberation Sans, Nimbus Sans L, sans-serif" stroke-opacity="1" fill="rgb(127,127,127)" fill-opacity="1" font-weight="normal" font-style="normal"><tspan dy="3.59" x="0">600</tspan></text></g></g><g transform="translate(45.26, 274.33)" stroke-width="0.1px" id="axis.1-1-1-1.2"><g transform="scale(1, -1)"><text x="0" y="0" text-anchor="end" font-size="9.6px" stroke="rgb(127,127,127)" font-family="Helvetica, Arial, FreeSans, Liberation Sans, Nimbus Sans L, sans-serif" stroke-opacity="1" fill="rgb(127,127,127)" fill-opacity="1" font-weight="normal" font-style="normal"><tspan dy="3.59" x="0">800</tspan></text></g></g><g transform="translate(45.26, 344.26)" stroke-width="0.1px" id="axis.1-1-1-1.3"><g transform="scale(1, -1)"><text x="0" y="0" text-anchor="end" font-size="9.6px" stroke="rgb(127,127,127)" font-family="Helvetica, Arial, FreeSans, Liberation Sans, Nimbus Sans L, sans-serif" stroke-opacity="1" fill="rgb(127,127,127)" fill-opacity="1" font-weight="normal" font-style="normal"><tspan dy="3.59" x="0">1000</tspan></text></g></g><g transform="translate(45.26, 414.18)" stroke-width="0.1px" id="axis.1-1-1-1.4"><g transform="scale(1, -1)"><text x="0" y="0" text-anchor="end" font-size="9.6px" stroke="rgb(127,127,127)" font-family="Helvetica, Arial, FreeSans, Liberation Sans, Nimbus Sans L, sans-serif" stroke-opacity="1" fill="rgb(127,127,127)" fill-opacity="1" font-weight="normal" font-style="normal"><tspan dy="3.59" x="0">1200</tspan></text></g></g><g transform="translate(45.26, 484.11)" stroke-width="0.1px" id="axis.1-1-1-1.5"><g transform="scale(1, -1)"><text x="0" y="0" text-anchor="end" font-size="9.6px" stroke="rgb(127,127,127)" font-family="Helvetica, Arial, FreeSans, Liberation Sans, Nimbus Sans L, sans-serif" stroke-opacity="1" fill="rgb(127,127,127)" fill-opacity="1" font-weight="normal" font-style="normal"><tspan dy="3.59" x="0">1400</tspan></text></g></g></g></g><g id="topvp::layout::axis-l.3-3-3-3::GRID.VP.14::axis::axis.1-2-1-2.1"><g id="axis.1-2-1-2"><polyline stroke-width="1.42px" stroke="rgb(127,127,127)" stroke-dasharray="none" stroke-linecap="butt" stroke-opacity="1" fill="none" id="axis.1-2-1-2.1" points="48.09,204.41 52.34,204.41"/><polyline stroke-width="1.42px" stroke="rgb(127,127,127)" stroke-dasharray="none" stroke-linecap="butt" stroke-opacity="1" fill="none" id="axis.1-2-1-2.2" points="48.09,274.33 52.34,274.33"/><polyline stroke-width="1.42px" stroke="rgb(127,127,127)" stroke-dasharray="none" stroke-linecap="butt" stroke-opacity="1" fill="none" id="axis.1-2-1-2.3" points="48.09,344.26 52.34,344.26"/><polyline stroke-width="1.42px" stroke="rgb(127,127,127)" stroke-dasharray="none" stroke-linecap="butt" stroke-opacity="1" fill="none" id="axis.1-2-1-2.4" points="48.09,414.18 52.34,414.18"/><polyline stroke-width="1.42px" stroke="rgb(127,127,127)" stroke-dasharray="none" stroke-linecap="butt" stroke-opacity="1" fill="none" id="axis.1-2-1-2.5" points="48.09,484.11 52.34,484.11"/></g></g></g></g></g></g></g><g id="topvp::layout::axis-b.4-4-4-4::GRID.VP.13.1" clip-path="url(#axis-b.4-4-4-4-clip)"><default:g xmlns:default="http://www.w3.org/2000/svg" xmlns="http://www.w3.org/2000/svg" id="topvp::layout::axis-b.4-4-4-4::GRID.VP.17.2"><g id="axis-b.4-4-4-4"><g id="topvp::layout::axis-b.4-4-4-4::GRID.VP.17::axis.1"><g id="axis"><g id="topvp::layout::axis-b.4-4-4-4::GRID.VP.17::axis::axis.1-1-1-1.1"><g id="axis.1-1-1-1"><polyline stroke-width="1.42px" stroke="rgb(127,127,127)" stroke-dasharray="none" stroke-linecap="butt" stroke-opacity="1" fill="none" id="axis.1-1-1-1.1" points="197.15,133.83 197.15,138.08"/><polyline stroke-width="1.42px" stroke="rgb(127,127,127)" stroke-dasharray="none" stroke-linecap="butt" stroke-opacity="1" fill="none" id="axis.1-1-1-1.2" points="601.64,133.83 601.64,138.08"/><polyline stroke-width="1.42px" stroke="rgb(127,127,127)" stroke-dasharray="none" stroke-linecap="butt" stroke-opacity="1" fill="none" id="axis.1-1-1-1.3" points="1006.13,133.83 1006.13,138.08"/><polyline stroke-width="1.42px" stroke="rgb(127,127,127)" stroke-dasharray="none" stroke-linecap="butt" stroke-opacity="1" fill="none" id="axis.1-1-1-1.4" points="1410.62,133.83 1410.62,138.08"/></g></g><g id="topvp::layout::axis-b.4-4-4-4::GRID.VP.17::axis::axis.2-1-2-1.1"><g id="axis.2-1-2-1"><g transform="translate(197.15, 131)" stroke-width="0.1px" id="axis.2-1-2-1.1"><g transform="scale(1, -1)"><text x="0" y="0" text-anchor="middle" font-size="9.6px" stroke="rgb(127,127,127)" font-family="Helvetica, Arial, FreeSans, Liberation Sans, Nimbus Sans L, sans-serif" stroke-opacity="1" fill="rgb(127,127,127)" fill-opacity="1" font-weight="normal" font-style="normal"><tspan dy="7.18" x="0">1875</tspan></text></g></g><g transform="translate(601.64, 131)" stroke-width="0.1px" id="axis.2-1-2-1.2"><g transform="scale(1, -1)"><text x="0" y="0" text-anchor="middle" font-size="9.6px" stroke="rgb(127,127,127)" font-family="Helvetica, Arial, FreeSans, Liberation Sans, Nimbus Sans L, sans-serif" stroke-opacity="1" fill="rgb(127,127,127)" fill-opacity="1" font-weight="normal" font-style="normal"><tspan dy="7.18" x="0">1900</tspan></text></g></g><g transform="translate(1006.13, 131)" stroke-width="0.1px" id="axis.2-1-2-1.3"><g transform="scale(1, -1)"><text x="0" y="0" text-anchor="middle" font-size="9.6px" stroke="rgb(127,127,127)" font-family="Helvetica, Arial, FreeSans, Liberation Sans, Nimbus Sans L, sans-serif" stroke-opacity="1" fill="rgb(127,127,127)" fill-opacity="1" font-weight="normal" font-style="normal"><tspan dy="7.18" x="0">1925</tspan></text></g></g><g transform="translate(1410.62, 131)" stroke-width="0.1px" id="axis.2-1-2-1.4"><g transform="scale(1, -1)"><text x="0" y="0" text-anchor="middle" font-size="9.6px" stroke="rgb(127,127,127)" font-family="Helvetica, Arial, FreeSans, Liberation Sans, Nimbus Sans L, sans-serif" stroke-opacity="1" fill="rgb(127,127,127)" fill-opacity="1" font-weight="normal" font-style="normal"><tspan dy="7.18" x="0">1950</tspan></text></g></g></g></g></g></g></g></default:g><clipPath id="axis-b.4-4-4-4-clip"><rect x="52.34" y="0" width="437.26" height="138.08"/></clipPath></g><g id="topvp::layout::xlab.5-4-5-4.1"><g id="xlab.5-4-5-4"><g transform="translate(270.97, 115.91)" stroke-width="0.1px" id="xlab.5-4-5-4.1"><g transform="scale(1, -1)"><text x="0" y="0" text-anchor="middle" font-size="12px" stroke="rgb(0,0,0)" font-family="Helvetica, Arial, FreeSans, Liberation Sans, Nimbus Sans L, sans-serif" stroke-opacity="1" fill="rgb(0,0,0)" fill-opacity="1" font-weight="normal" font-style="normal"><tspan dy="4.31" x="0">time</tspan></text></g></g></g></g><g id="topvp::layout::ylab.3-2-3-2.1"><g id="ylab.3-2-3-2"><g transform="translate(15.11, 313.84)" stroke-width="0.1px" id="ylab.3-2-3-2.1"><g transform="scale(1, -1)"><text x="0" y="0" transform="rotate(-90)" text-anchor="middle" font-size="12px" stroke="rgb(0,0,0)" font-family="Helvetica, Arial, FreeSans, Liberation Sans, Nimbus Sans L, sans-serif" stroke-opacity="1" fill="rgb(0,0,0)" fill-opacity="1" font-weight="normal" font-style="normal"><tspan dy="4.31" x="0">flow</tspan></text></g></g></g></g><g id="topvp::layout::title.2-4-2-4.1"><g id="title.2-4-2-4"><g transform="translate(270.97, 489.6)" stroke-width="0.1px" id="title.2-4-2-4.1"><g transform="scale(1, -1)"><text x="0" y="0" text-anchor="middle" font-size="14.4px" stroke="rgb(0,0,0)" font-family="Helvetica, Arial, FreeSans, Liberation Sans, Nimbus Sans L, sans-serif" stroke-opacity="1" fill="rgb(0,0,0)" fill-opacity="1" font-weight="normal" font-style="normal"><tspan dy="5.03" x="0"> </tspan></text></g></g></g></g></g></g></g><g id="bottomvp.1"><g id="bottomvp::layout.1"><g id="layout"><defs><clipPath id="bottomvp::layout::background.1-5-6-1.1.clipPath"><rect x="0" y="0" width="504" height="100.8" fill="none" stroke="none"/></clipPath></defs><g id="bottomvp::layout::background.1-5-6-1.1" clip-path="url(#bottomvp::layout::background.1-5-6-1.1.clipPath)"><g id="background.1-5-6-1"><rect id="background.1-5-6-1.1" x="0" y="0" width="504" height="100.8" stroke-width="1.42px" stroke="none" fill="rgb(255,255,255)" stroke-dasharray="none" stroke-opacity="0" fill-opacity="1"/></g></g><g id="bottomvp::layout::spacer.4-3-4-3.1"/><defs><clipPath id="bottomvp::layout::panel.3-4-3-4.1.clipPath"><rect x="48.03" y="28.67" width="441.57" height="57.73" fill="none" stroke="none"/></clipPath></defs><g id="bottomvp::layout::panel.3-4-3-4.1" clip-path="url(#bottomvp::layout::panel.3-4-3-4.1.clipPath)"><g id="panel.3-4-3-4"><g id="grill.gTree.365"><g id="panel.background.rect.356"><rect id="panel.background.rect.356.1" x="48.03" y="28.67" width="441.57" height="57.73" stroke-width="1.42px" stroke="none" fill="rgb(229,229,229)" stroke-dasharray="none" stroke-opacity="0" fill-opacity="1"/></g><g id="panel.grid.minor.y.polyline.358"><polyline stroke-width="0.71px" stroke="rgb(242,242,242)" stroke-dasharray="none" stroke-linecap="butt" stroke-opacity="1" fill="none" id="panel.grid.minor.y.polyline.358.1" points="48.03,56.79 489.6,56.79"/></g><g id="panel.grid.minor.x.polyline.360"><polyline stroke-width="0.71px" stroke="rgb(242,242,242)" stroke-dasharray="none" stroke-linecap="butt" stroke-opacity="1" fill="none" id="panel.grid.minor.x.polyline.360.1" points="135.01,28.67 135.01,86.4"/><polyline stroke-width="0.71px" stroke="rgb(242,242,242)" stroke-dasharray="none" stroke-linecap="butt" stroke-opacity="1" fill="none" id="panel.grid.minor.x.polyline.360.2" points="236.38,28.67 236.38,86.4"/><polyline stroke-width="0.71px" stroke="rgb(242,242,242)" stroke-dasharray="none" stroke-linecap="butt" stroke-opacity="1" fill="none" id="panel.grid.minor.x.polyline.360.3" points="337.75,28.67 337.75,86.4"/><polyline stroke-width="0.71px" stroke="rgb(242,242,242)" stroke-dasharray="none" stroke-linecap="butt" stroke-opacity="1" fill="none" id="panel.grid.minor.x.polyline.360.4" points="439.12,28.67 439.12,86.4"/></g><g id="panel.grid.major.y.polyline.362"><polyline stroke-width="1.42px" stroke="rgb(255,255,255)" stroke-dasharray="none" stroke-linecap="butt" stroke-opacity="1" fill="none" id="panel.grid.major.y.polyline.362.1" points="48.03,39.56 489.6,39.56"/><polyline stroke-width="1.42px" stroke="rgb(255,255,255)" stroke-dasharray="none" stroke-linecap="butt" stroke-opacity="1" fill="none" id="panel.grid.major.y.polyline.362.2" points="48.03,74.01 489.6,74.01"/></g><g id="panel.grid.major.x.polyline.364"><polyline stroke-width="1.42px" stroke="rgb(255,255,255)" stroke-dasharray="none" stroke-linecap="butt" stroke-opacity="1" fill="none" id="panel.grid.major.x.polyline.364.1" points="84.32,28.67 84.32,86.4"/><polyline stroke-width="1.42px" stroke="rgb(255,255,255)" stroke-dasharray="none" stroke-linecap="butt" stroke-opacity="1" fill="none" id="panel.grid.major.x.polyline.364.2" points="185.69,28.67 185.69,86.4"/><polyline stroke-width="1.42px" stroke="rgb(255,255,255)" stroke-dasharray="none" stroke-linecap="butt" stroke-opacity="1" fill="none" id="panel.grid.major.x.polyline.364.3" points="287.06,28.67 287.06,86.4"/><polyline stroke-width="1.42px" stroke="rgb(255,255,255)" stroke-dasharray="none" stroke-linecap="butt" stroke-opacity="1" fill="none" id="panel.grid.major.x.polyline.364.4" points="388.43,28.67 388.43,86.4"/></g></g><g id="GRID.polyline.352"><polyline stroke="rgb(0,0,0)" fill="none" stroke-width="1.42px" stroke-dasharray="none" stroke-linecap="butt" stroke-linejoin="round" stroke-miterlimit="1" stroke-opacity="1" fill-opacity="1" id="GRID.polyline.352.1" points="68.11,69.42 72.16,71.72 76.22,60.4 80.27,74.59 84.32,71.72 88.38,71.72 92.43,51.79 96.49,75.74 100.54,83.78 104.6,70.57 108.65,62.24 112.71,58.8 116.76,68.85 120.82,62.18 124.87,63.68 128.93,60.23 132.98,72.87 137.04,50.99 141.09,60.12 145.15,70.57 149.2,68.27 153.26,74.59 157.31,71.14 161.37,76.88 165.42,77.46 169.48,75.16 173.53,64.25 177.58,68.27 181.64,49.55 185.69,53.34 189.75,55.29 193.8,44.96 197.86,59.08 201.91,52.94 205.97,45.36 210.02,57.71 214.08,44.84 218.13,63.68 222.19,65.4 226.24,60.75 230.3,52.82 234.35,46.8 238.41,31.29 242.46,52.42 246.52,45.42 250.57,69.42 254.63,68.27 258.68,52.88 262.74,48.98 266.79,52.25 270.84,49.21 274.9,53.63 278.95,54.72 283.01,54.6 287.06,45.19 291.12,53.63 295.17,47.83 299.23,50.81 303.28,64.83 307.34,48.69 311.39,49.95 315.45,54.78 319.5,53.63 323.56,59.31 327.61,61.61 331.67,56.61 335.72,52.31 339.78,63.1 343.83,49.38 347.89,43.92 351.94,42.37 356,53.69 360.05,51.73 364.1,47.71 368.16,51.1 372.21,64.83 376.27,54.49 380.32,55.29 384.38,53.8 388.43,56.21 392.49,47.83 396.54,48.12 400.6,53.23 404.65,65.4 408.71,57.82 412.76,61.73 416.82,50.87 420.87,58.11 424.93,61.09 428.98,51.91 433.04,63.68 437.09,57.13 441.15,56.84 445.2,72.29 449.25,57.48 453.31,47.94 457.36,57.88 461.42,46.34 465.47,46.11 469.53,47.6"/></g></g></g><g id="bottomvp::layout::axis-l.3-3-3-3::GRID.VP.16.1"><g id="bottomvp::layout::axis-l.3-3-3-3::GRID.VP.16.2"><g id="axis-l.3-3-3-3"><g id="bottomvp::layout::axis-l.3-3-3-3::GRID.VP.16::axis.1"><g id="axis"><g id="bottomvp::layout::axis-l.3-3-3-3::GRID.VP.16::axis::axis.1-1-1-1.1"><g id="axis.1-1-1-1"><g transform="translate(40.95, 39.56)" stroke-width="0.1px" id="axis.1-1-1-1.1"><g transform="scale(1, -1)"><text x="0" y="0" text-anchor="end" font-size="9.6px" stroke="rgb(127,127,127)" font-family="Helvetica, Arial, FreeSans, Liberation Sans, Nimbus Sans L, sans-serif" stroke-opacity="1" fill="rgb(127,127,127)" fill-opacity="1" font-weight="normal" font-style="normal"><tspan dy="3.59" x="0">600</tspan></text></g></g><g transform="translate(40.95, 74.01)" stroke-width="0.1px" id="axis.1-1-1-1.2"><g transform="scale(1, -1)"><text x="0" y="0" text-anchor="end" font-size="9.6px" stroke="rgb(127,127,127)" font-family="Helvetica, Arial, FreeSans, Liberation Sans, Nimbus Sans L, sans-serif" stroke-opacity="1" fill="rgb(127,127,127)" fill-opacity="1" font-weight="normal" font-style="normal"><tspan dy="3.59" x="0">1200</tspan></text></g></g></g></g><g id="bottomvp::layout::axis-l.3-3-3-3::GRID.VP.16::axis::axis.1-2-1-2.1"><g id="axis.1-2-1-2"><polyline stroke-width="1.42px" stroke="rgb(127,127,127)" stroke-dasharray="none" stroke-linecap="butt" stroke-opacity="1" fill="none" id="axis.1-2-1-2.1" points="43.78,39.56 48.03,39.56"/><polyline stroke-width="1.42px" stroke="rgb(127,127,127)" stroke-dasharray="none" stroke-linecap="butt" stroke-opacity="1" fill="none" id="axis.1-2-1-2.2" points="43.78,74.01 48.03,74.01"/></g></g></g></g></g></g></g><g id="bottomvp::layout::axis-b.4-4-4-4::GRID.VP.15.1"><g id="bottomvp::layout::axis-b.4-4-4-4::GRID.VP.15.2"><g id="axis-b.4-4-4-4"><g id="bottomvp::layout::axis-b.4-4-4-4::GRID.VP.15::axis.1"><g id="axis"><g id="bottomvp::layout::axis-b.4-4-4-4::GRID.VP.15::axis::axis.1-1-1-1.1"><g id="axis.1-1-1-1"><polyline stroke-width="1.42px" stroke="rgb(127,127,127)" stroke-dasharray="none" stroke-linecap="butt" stroke-opacity="1" fill="none" id="axis.1-1-1-1.1" points="84.32,24.41 84.32,28.67"/><polyline stroke-width="1.42px" stroke="rgb(127,127,127)" stroke-dasharray="none" stroke-linecap="butt" stroke-opacity="1" fill="none" id="axis.1-1-1-1.2" points="185.69,24.41 185.69,28.67"/><polyline stroke-width="1.42px" stroke="rgb(127,127,127)" stroke-dasharray="none" stroke-linecap="butt" stroke-opacity="1" fill="none" id="axis.1-1-1-1.3" points="287.06,24.41 287.06,28.67"/><polyline stroke-width="1.42px" stroke="rgb(127,127,127)" stroke-dasharray="none" stroke-linecap="butt" stroke-opacity="1" fill="none" id="axis.1-1-1-1.4" points="388.43,24.41 388.43,28.67"/></g></g><g id="bottomvp::layout::axis-b.4-4-4-4::GRID.VP.15::axis::axis.2-1-2-1.1"><g id="axis.2-1-2-1"><g transform="translate(84.32, 21.58)" stroke-width="0.1px" id="axis.2-1-2-1.1"><g transform="scale(1, -1)"><text x="0" y="0" text-anchor="middle" font-size="9.6px" stroke="rgb(127,127,127)" font-family="Helvetica, Arial, FreeSans, Liberation Sans, Nimbus Sans L, sans-serif" stroke-opacity="1" fill="rgb(127,127,127)" fill-opacity="1" font-weight="normal" font-style="normal"><tspan dy="7.18" x="0">1875</tspan></text></g></g><g transform="translate(185.69, 21.58)" stroke-width="0.1px" id="axis.2-1-2-1.2"><g transform="scale(1, -1)"><text x="0" y="0" text-anchor="middle" font-size="9.6px" stroke="rgb(127,127,127)" font-family="Helvetica, Arial, FreeSans, Liberation Sans, Nimbus Sans L, sans-serif" stroke-opacity="1" fill="rgb(127,127,127)" fill-opacity="1" font-weight="normal" font-style="normal"><tspan dy="7.18" x="0">1900</tspan></text></g></g><g transform="translate(287.06, 21.58)" stroke-width="0.1px" id="axis.2-1-2-1.3"><g transform="scale(1, -1)"><text x="0" y="0" text-anchor="middle" font-size="9.6px" stroke="rgb(127,127,127)" font-family="Helvetica, Arial, FreeSans, Liberation Sans, Nimbus Sans L, sans-serif" stroke-opacity="1" fill="rgb(127,127,127)" fill-opacity="1" font-weight="normal" font-style="normal"><tspan dy="7.18" x="0">1925</tspan></text></g></g><g transform="translate(388.43, 21.58)" stroke-width="0.1px" id="axis.2-1-2-1.4"><g transform="scale(1, -1)"><text x="0" y="0" text-anchor="middle" font-size="9.6px" stroke="rgb(127,127,127)" font-family="Helvetica, Arial, FreeSans, Liberation Sans, Nimbus Sans L, sans-serif" stroke-opacity="1" fill="rgb(127,127,127)" fill-opacity="1" font-weight="normal" font-style="normal"><tspan dy="7.18" x="0">1950</tspan></text></g></g></g></g></g></g></g></g></g><g id="bottomvp::layout::xlab.5-4-5-4.1"/><g id="bottomvp::layout::ylab.3-2-3-2.1"><g id="ylab.3-2-3-2"><g transform="translate(12.95, 57.53)" stroke-width="0.1px" id="ylab.3-2-3-2.1"><g transform="scale(1, -1)"><text x="0" y="0" transform="rotate(-90)" text-anchor="middle" font-size="6px" stroke="rgb(255,255,255)" font-family="Helvetica, Arial, FreeSans, Liberation Sans, Nimbus Sans L, sans-serif" stroke-opacity="1" fill="rgb(255,255,255)" fill-opacity="1" font-weight="normal" font-style="normal"><tspan dy="2.15" x="0">flow</tspan></text></g></g></g></g><g id="bottomvp::layout::title.2-4-2-4.1"><g id="title.2-4-2-4"><g transform="translate(268.82, 86.4)" stroke-width="0.1px" id="title.2-4-2-4.1"><g transform="scale(1, -1)"><text x="0" y="0" text-anchor="middle" font-size="14.4px" stroke="rgb(0,0,0)" font-family="Helvetica, Arial, FreeSans, Liberation Sans, Nimbus Sans L, sans-serif" stroke-opacity="1" fill="rgb(0,0,0)" fill-opacity="1" font-weight="normal" font-style="normal"><tspan dy="5.03" x="0"> </tspan></text></g></g></g></g></g></g></g><g id="bottomvp::layout::panel.3-4-3-4.2"><g id="bottomvp::layout::panel.3-4-3-4.3"><defs><clipPath id="bottomvp::layout::panel.3-4-3-4.4.clipPath"><rect x="48.03" y="28.67" width="441.57" height="57.73" fill="none" stroke="none"/></clipPath></defs><g id="bottomvp::layout::panel.3-4-3-4.4" clip-path="url(#bottomvp::layout::panel.3-4-3-4.4.clipPath)"/></g></g><g id="bottomvp::layout::panel.3-4-3-4.5"><g id="bottomvp::layout::panel.3-4-3-4.6"><defs><clipPath id="bottomvp::layout::panel.3-4-3-4.7.clipPath"><rect x="48.03" y="28.67" width="441.57" height="57.73" fill="none" stroke="none"/></clipPath></defs><g id="bottomvp::layout::panel.3-4-3-4.7" clip-path="url(#bottomvp::layout::panel.3-4-3-4.7.clipPath)"><g id="thumb" onmousedown="thumbDown(evt)"><rect id="thumb.1" x="48.03" y="28.67" width="110.39" height="57.73" stroke="rgb(0,0,255)" fill="rgb(0,0,255)" stroke-opacity="0.5" fill-opacity="0.2"/></g></g></g></g><script type="application/ecmascript" id="GRID.script.grob.386" xlink:href="slider.js"/></g></g><script type="application/ecmascript" xlink:href="normalplot.svg.coords.js"/><script type="application/ecmascript" xlink:href="normalplot.svg.convert.js"/></svg>
